<svg width="48" height="48" viewBox="0 0 48 48" fill="none" xmlns="http://www.w3.org/2000/svg">
<path fill-rule="evenodd" clip-rule="evenodd" d="M32 6.48535H16C10.4772 6.48535 6 10.9625 6 16.4854V32.4854C6 38.0082 10.4772 42.4854 16 42.4854H32C37.5228 42.4854 42 38.0082 42 32.4854V16.4854C42 10.9625 37.5228 6.48535 32 6.48535ZM38.5 32.4854C38.489 36.0706 35.5852 38.9743 32 38.9854H16C12.4147 38.9743 9.51098 36.0706 9.5 32.4854V16.4854C9.51098 12.9001 12.4147 9.99633 16 9.98535H32C35.5852 9.99633 38.489 12.9001 38.5 16.4854V32.4854ZM33.5 16.9854C34.6046 16.9854 35.5 16.0899 35.5 14.9854C35.5 13.8808 34.6046 12.9854 33.5 12.9854C32.3954 12.9854 31.5 13.8808 31.5 14.9854C31.5 16.0899 32.3954 16.9854 33.5 16.9854ZM24 15.4854C19.0294 15.4854 15 19.5148 15 24.4854C15 29.456 19.0294 33.4854 24 33.4854C28.9706 33.4854 33 29.456 33 24.4854C33.0054 22.0968 32.0588 19.8045 30.3698 18.1155C28.6808 16.4265 26.3886 15.48 24 15.4854ZM18.5 24.4854C18.5 27.523 20.9624 29.9854 24 29.9854C27.0376 29.9854 29.5 27.523 29.5 24.4854C29.5 21.4478 27.0376 18.9854 24 18.9854C20.9624 18.9854 18.5 21.4478 18.5 24.4854Z" fill="white"/>
</svg>
