<svg width="310" height="229" viewBox="0 0 310 229" fill="none" xmlns="http://www.w3.org/2000/svg">
<path d="M261.61 123.149C260.475 123.404 259.31 123.509 258.13 123.439V119.939" stroke="#2C2420" stroke-width="2.5" stroke-linecap="round" stroke-linejoin="round"/>
<path d="M258.13 110.011V63.9505C258.13 50.7205 252.93 38.9005 238.095 31.0655C225.875 24.6155 192.695 10.0605 180.02 6.17054C156.635 -1.00946 137.495 1.28055 115.405 9.64555C102.675 14.4655 76.0151 25.8755 64.7351 32.2205C49.1801 40.9705 43.7051 52.6105 43.7051 65.6705V149.671C43.7051 162.731 49.1751 174.376 64.7351 183.121C76.0201 189.466 102.68 200.876 115.405 205.696C137.495 214.066 156.635 216.351 180.02 209.171C192.69 205.281 225.875 190.731 238.095 184.276C248.895 178.576 254.585 170.761 256.88 161.831" stroke="#2C2420" stroke-width="2.5" stroke-linecap="round" stroke-linejoin="round" stroke-dasharray="6.95 9.94"/>
<path d="M257.8 156.96C257.94 155.81 258.035 154.65 258.085 153.47C259.24 153.5 260.405 153.47 261.585 153.4" stroke="#2C2420" stroke-width="2.5" stroke-linecap="round" stroke-linejoin="round"/>
<path d="M271.29 151.659C287.735 146.849 303.5 132.789 306.65 112.464C309.71 92.7492 304.53 77.2792 297.055 70.1992C290.73 64.2042 280.635 63.8892 275.325 70.2892C265.935 81.6092 278.055 94.7042 273.75 111.344C272.755 115.194 269.875 118.989 266.145 121.274" stroke="#2C2420" stroke-width="2.5" stroke-linecap="round" stroke-linejoin="round" stroke-dasharray="6.92 9.89"/>
<path d="M57.8052 84.9794C57.8052 84.9794 58.2502 83.7444 59.1152 81.7344" stroke="#2C2420" stroke-width="2.5" stroke-linecap="round" stroke-linejoin="round"/>
<path d="M63.2051 73.375C64.6901 70.67 66.4701 67.74 68.5301 64.88C70.9701 61.495 76.1551 61.93 78.0301 65.655C80.1651 69.895 83.0151 75.91 85.8101 85.51" stroke="#2C2420" stroke-width="2.5" stroke-linecap="round" stroke-linejoin="round" stroke-dasharray="6.51 9.31"/>
<path d="M87.0449 90.0039C87.3249 91.0939 87.6049 92.2289 87.8849 93.4039" stroke="#2C2420" stroke-width="2.5" stroke-linecap="round" stroke-linejoin="round"/>
<path d="M119.395 105.206C119.395 105.206 119.9 103.986 120.83 102.016" stroke="#2C2420" stroke-width="2.5" stroke-linecap="round" stroke-linejoin="round"/>
<path d="M125.55 92.9853C126.975 90.5253 128.61 87.9303 130.41 85.4503C132.855 82.0753 138.525 82.0303 140.395 85.7553C142.585 90.1103 145.73 98.3404 148.94 110.345" stroke="#2C2420" stroke-width="2.5" stroke-linecap="round" stroke-linejoin="round" stroke-dasharray="7.14 10.19"/>
<path d="M150.21 115.285C150.485 116.39 150.755 117.525 151.03 118.69" stroke="#2C2420" stroke-width="2.5" stroke-linecap="round" stroke-linejoin="round"/>
<path d="M18.5151 11.6699L24.3501 17.5049" stroke="#2C2420" stroke-width="2.5" stroke-linecap="round" stroke-linejoin="round"/>
<path d="M47.5049 2.63477L48.2549 8.65477" stroke="#2C2420" stroke-width="2.5" stroke-linecap="round" stroke-linejoin="round"/>
<path d="M4.39502 28.6094L13.055 33.8794" stroke="#2C2420" stroke-width="2.5" stroke-linecap="round" stroke-linejoin="round"/>
<path d="M2.51514 58.3496H7.97514" stroke="#2C2420" stroke-width="2.5" stroke-linecap="round" stroke-linejoin="round"/>
<path d="M245.9 214.211L250.61 220.986" stroke="#2C2420" stroke-width="2.5" stroke-linecap="round" stroke-linejoin="round"/>
<path d="M269.995 197.645L276.775 204.045" stroke="#2C2420" stroke-width="2.5" stroke-linecap="round" stroke-linejoin="round"/>
<path d="M283.175 180.324L289.01 181.454" stroke="#2C2420" stroke-width="2.5" stroke-linecap="round" stroke-linejoin="round"/>
<path d="M217.29 222.49L218.23 226.82" stroke="#2C2420" stroke-width="2.5" stroke-linecap="round" stroke-linejoin="round"/>
</svg>
