<svg width="60" height="60" viewBox="0 0 60 60" fill="none" xmlns="http://www.w3.org/2000/svg">
<g id="illustrations_food_beef">
<path id="Vector" d="M9.03989 36.3879C9.03989 36.3879 8.63309 40.2171 9.48029 42.0459C10.3275 43.8747 12.1575 45.6039 12.1575 45.6039L27.0999 48.5175C27.0999 48.5175 31.0647 49.2291 32.7579 48.8223C34.4523 48.4155 35.6043 48.3819 39.8391 45.9759L44.9895 43.3335C44.9895 43.3335 47.7675 42.0459 48.2427 39.0639C48.7167 36.0819 48.4803 30.0171 48.4803 30.0171L37.0623 15.1431L29.0319 14.0583C29.0319 14.0583 26.3211 13.6515 23.8815 14.6007C21.4419 15.5499 15.0723 18.1587 15.0723 18.1587L8.93909 26.4939L9.04109 36.3879H9.03989Z" fill="white"/>
<path id="Vector_2" d="M51.6071 23.4232C51.6071 23.4232 51.5807 23.44 51.5327 23.4712C50.4407 21.8464 48.9707 19.8088 47.7671 18.6796C45.5531 16.6012 43.1135 16.0588 43.1135 16.0588L35.3987 14.9512C31.1795 16.8124 28.4159 20.7724 28.7807 25.0984C29.2571 30.748 34.8863 34.8844 41.3531 34.3384C44.4335 34.078 47.1455 32.8012 49.0931 30.9256C51.0251 31.2076 53.0219 30.8752 53.5499 29.4304C54.4079 27.0808 51.6071 23.422 51.6071 23.422V23.4232Z" fill="#807C79"/>
<path id="Vector_3" d="M39.9551 38.961C40.1345 38.0642 39.6471 37.2106 38.8666 37.0545C38.0862 36.8984 37.308 37.4989 37.1287 38.3957C36.9493 39.2925 37.4366 40.1461 38.2171 40.3022C38.9976 40.4583 39.7757 39.8578 39.9551 38.961Z" fill="#807C79"/>
<path id="Vector_4" d="M46.8866 41.7404C47.903 40.6208 48.2966 39.266 48.4394 38.2028C47.7818 37.76 46.9898 37.502 46.1366 37.502C43.8638 37.502 42.0206 39.3356 42.0206 41.5976C42.0206 42.6596 42.4274 43.628 43.0934 44.3552C44.135 43.9016 45.683 43.0664 46.8866 41.7404Z" fill="#807C79"/>
<path id="Vector_5" d="M14.5285 18.2954C14.5285 18.2954 11.1061 19.109 10.0561 21.209C9.05651 23.2094 8.60891 24.137 8.91971 28.9586C9.51011 29.0474 10.1137 29.0942 10.7305 29.0942C17.0005 29.0942 22.0837 24.3314 22.0837 18.4574C22.0837 17.423 21.9253 16.4222 21.6313 15.4766L14.5285 18.2954Z" fill="#807C79"/>
<path id="Vector_6" d="M12.6646 13.788C12.6646 13.788 11.8858 16.2612 11.8858 18.8364C11.8858 18.8364 11.5126 20.6664 12.2926 20.802C12.2926 20.802 16.663 21.852 18.967 18.0912C18.967 18.0912 15.6802 14.6016 14.9014 13.992C14.1226 13.3824 13.1734 12.5688 12.6646 13.7892V13.788Z" fill="#FFF3CC"/>
<path id="Vector_7" d="M28.2853 19.312C28.2853 19.312 29.3353 21.6832 32.2501 22.5304C35.1649 23.3776 36.6889 22.3612 36.6889 22.3612C36.6889 22.3612 36.7909 18.16 36.4177 15.9232C36.0445 13.6864 35.8417 11.8576 33.7069 13.552C31.5721 15.2464 28.9969 17.6512 28.2853 19.312Z" fill="#FFF3CC"/>
<path id="Vector_8" d="M11.5464 42.3516C11.5464 42.3516 9.81837 44.5884 12.5628 47.6028C15.3072 50.6184 20.8296 51.3972 23.8452 50.178C26.8608 48.9588 28.5552 47.7048 27.9444 44.4852C27.3336 41.2656 22.1844 39.1992 19.1016 39.0636C16.0188 38.928 12.2568 40.3512 11.5464 42.3504V42.3516Z" fill="#FFE0CE"/>
<path id="Vector_9" d="M36.2761 15.0576L42.7309 15.9792C42.7309 15.9792 46.3669 16.3296 50.1613 21.4788C53.9557 26.628 54.8149 29.1024 52.3069 30.5256C49.8325 31.9296 41.8369 30.5256 43.2601 22.326" stroke="#2C2420" stroke-width="0.48" stroke-linecap="round" stroke-linejoin="round"/>
<path id="Vector_10" d="M17.993 16.95L22.763 15.0768C25.151 14.1396 27.7406 13.8372 30.2798 14.1996L32.483 14.514" stroke="#2C2420" stroke-width="0.48" stroke-linecap="round" stroke-linejoin="round"/>
<path id="Vector_11" d="M11.01 44.4591C9.75 43.1079 8.9892 41.2971 8.9892 39.3291V24.6927C8.9892 22.5483 10.0992 20.5875 11.868 19.4727" stroke="#2C2420" stroke-width="0.48" stroke-linecap="round" stroke-linejoin="round"/>
<path id="Vector_12" d="M48.462 30.8652V37.3884C48.462 39.948 47.0388 42.2964 44.7684 43.4796L37.008 47.526C34.6524 48.7536 31.9704 49.2072 29.3424 48.8196L26.9892 48.4728" stroke="#2C2420" stroke-width="0.48" stroke-linecap="round" stroke-linejoin="round"/>
<path id="Vector_13" d="M12.1608 20.7354C13.2408 20.9706 16.794 21.4626 18.828 18.3714C18.9264 18.2214 18.9156 18.0246 18.7992 17.889C18.132 17.1078 15.8328 14.5002 13.9188 13.2966C13.4772 13.0194 12.8904 13.2234 12.7248 13.7178C12.3876 14.7198 11.9304 16.7226 11.8464 20.3358C11.8416 20.5278 11.9736 20.6958 12.1608 20.7354Z" stroke="#2C2420" stroke-width="0.48" stroke-linecap="round" stroke-linejoin="round"/>
<path id="Vector_14" d="M28.4194 19.5018C28.945 20.4282 31.1974 23.709 36.247 22.593C36.4354 22.551 36.5758 22.3926 36.5902 22.2006C36.673 21.0786 36.871 17.1834 35.941 13.7418C35.7562 13.0578 34.9534 12.759 34.3642 13.1514C32.911 14.1186 30.3754 16.0818 28.4338 19.0518C28.345 19.1874 28.3402 19.3614 28.4206 19.5018H28.4194Z" stroke="#2C2420" stroke-width="0.48" stroke-linecap="round" stroke-linejoin="round"/>
<path id="Vector_15" d="M28.0354 46.2233C28.5196 43.1168 25.115 40.0066 20.431 39.2764C15.747 38.5463 11.5573 40.4727 11.073 43.5792C10.5888 46.6858 13.9934 49.796 18.6774 50.5262C23.3614 51.2563 27.5511 49.3299 28.0354 46.2233Z" stroke="#2C2420" stroke-width="0.48" stroke-linecap="round" stroke-linejoin="round"/>
<path id="Vector_16" d="M13.9978 42.7188C13.9978 42.7188 15.6022 43.5252 16.7758 45.8748" stroke="#2C2420" stroke-width="0.48" stroke-linecap="round" stroke-linejoin="round"/>
<path id="Vector_17" d="M24.8628 44.1592C24.8628 44.1592 21.7008 44.3404 20.0292 46.5532" stroke="#2C2420" stroke-width="0.48" stroke-linecap="round" stroke-linejoin="round"/>
<path id="Vector_18" d="M27.0204 42.1474C27.7879 42.1474 28.41 41.038 28.41 39.6694C28.41 38.3008 27.7879 37.1914 27.0204 37.1914C26.2529 37.1914 25.6308 38.3008 25.6308 39.6694C25.6308 41.038 26.2529 42.1474 27.0204 42.1474Z" fill="#2C2420"/>
<path id="Vector_19" d="M14.6258 39.7698C15.2679 39.7698 15.7886 38.842 15.7886 37.6974C15.7886 36.5528 15.2679 35.625 14.6258 35.625C13.9836 35.625 13.463 36.5528 13.463 37.6974C13.463 38.842 13.9836 39.7698 14.6258 39.7698Z" fill="#2C2420"/>
<path id="Vector_20" d="M11.8656 19.1875C10.6716 19.8655 9.02516 21.1603 7.68356 23.5459C4.83836 28.6087 6.29036 29.4187 7.40156 29.5435C8.31116 29.6455 9.03956 29.2723 9.03956 29.2723C9.03956 29.2723 8.66636 24.1219 9.44636 22.4623C9.94316 21.4039 10.4688 20.3875 11.8812 19.4647L11.8668 19.1887L11.8656 19.1875Z" fill="#2C2420"/>
<path id="Vector_21" d="M46.0369 30.9421L46.8793 30.5029" stroke="#2C2420" stroke-width="0.48" stroke-linecap="round" stroke-linejoin="round"/>
<path id="Vector_22" d="M46.0369 33.1759L46.6225 32.8711" stroke="#2C2420" stroke-width="0.48" stroke-linecap="round" stroke-linejoin="round"/>
<path id="Vector_23" d="M46.0369 35.2392L46.4809 35.0088" stroke="#2C2420" stroke-width="0.48" stroke-linecap="round" stroke-linejoin="round"/>
</g>
</svg>
