<svg width="24" height="24" viewBox="0 0 24 24" fill="none" xmlns="http://www.w3.org/2000/svg">
<g clip-path="url(#clip0_2191_5979)">
<path d="M4.07163 20.3C4.61178 20.7534 5.29443 21.0019 5.99963 21.0019C6.70482 21.0019 7.38747 20.7534 7.92763 20.3C8.4676 19.8465 8.83068 19.2173 8.95319 18.5228C9.0757 17.8284 8.94982 17.1129 8.59763 16.502L6.50263 13.275C6.4481 13.1914 6.3736 13.1228 6.28586 13.0753C6.19811 13.0278 6.09991 13.0029 6.00013 13.0029C5.90034 13.0029 5.80214 13.0278 5.7144 13.0753C5.62666 13.1228 5.55215 13.1914 5.49763 13.275L3.39963 16.502C3.04775 17.1131 2.92214 17.8285 3.04483 18.523C3.16751 19.2174 3.53165 19.8465 4.07163 20.3Z" stroke="#2C2420" stroke-width="2" stroke-linecap="round" stroke-linejoin="round"/>
<path d="M16.0716 20.3C16.6118 20.7534 17.2944 21.0019 17.9996 21.0019C18.7048 21.0019 19.3875 20.7534 19.9276 20.3C20.4676 19.8465 20.8307 19.2173 20.9532 18.5228C21.0757 17.8284 20.9498 17.1129 20.5976 16.502L18.5026 13.275C18.4481 13.1914 18.3736 13.1228 18.2859 13.0753C18.1981 13.0278 18.0999 13.0029 18.0001 13.0029C17.9003 13.0029 17.8021 13.0278 17.7144 13.0753C17.6267 13.1228 17.5521 13.1914 17.4976 13.275L15.3996 16.502C15.0477 17.1131 14.9221 17.8285 15.0448 18.523C15.1675 19.2174 15.5307 19.8465 16.0706 20.3H16.0716Z" stroke="#2C2420" stroke-width="2" stroke-linecap="round" stroke-linejoin="round"/>
<path d="M10.0716 10.3C10.6118 10.7534 11.2944 11.0019 11.9996 11.0019C12.7048 11.0019 13.3875 10.7534 13.9276 10.3C14.4676 9.84645 14.8307 9.21729 14.9532 8.52283C15.0757 7.82837 14.9498 7.11294 14.5976 6.50201L12.5026 3.27501C12.4481 3.19144 12.3736 3.12279 12.2859 3.07527C12.1981 3.02775 12.0999 3.00287 12.0001 3.00287C11.9003 3.00287 11.8021 3.02775 11.7144 3.07527C11.6267 3.12279 11.5522 3.19144 11.4976 3.27501L9.39963 6.50201C9.04775 7.11311 8.92214 7.82855 9.04483 8.52296C9.16751 9.21738 9.53165 9.84647 10.0716 10.3Z" stroke="#2C2420" stroke-width="2" stroke-linecap="round" stroke-linejoin="round"/>
</g>
<defs>
<clipPath id="clip0_2191_5979">
<rect width="24" height="24" fill="white"/>
</clipPath>
</defs>
</svg>
