<svg width="140" height="140" viewBox="0 0 140 140" fill="none" xmlns="http://www.w3.org/2000/svg">
<path d="M107.472 55.7258C107.472 50.347 105.358 45.5422 99.3273 42.3586C94.3601 39.735 80.8697 33.8214 75.7205 32.2394C66.2145 29.3218 58.4333 30.2514 49.4537 33.6534C44.2793 35.6134 33.4433 40.2502 28.8541 42.8318C22.5289 46.3878 20.3057 51.1226 20.3057 56.4314V90.5774C20.3057 95.8862 22.5289 100.618 28.8541 104.177C33.4405 106.756 44.2793 111.395 49.4537 113.355C58.4333 116.757 66.2145 117.687 75.7205 114.769C80.8725 113.187 94.3601 107.274 99.3273 104.65C105.358 101.467 107.472 96.6618 107.472 91.283V55.7314V55.7258Z" fill="#2C2420"/>
<path d="M123.298 58.2655C120.725 55.8267 116.623 55.7007 114.467 58.3019C110.65 62.9051 115.576 68.2279 113.828 74.9899C113.12 77.7255 111.339 79.3551 108.858 79.9067V92.1595C116.469 91.2327 125.532 86.1871 127.201 75.4463C128.444 67.4327 126.339 61.1439 123.301 58.2655H123.298Z" fill="#2C2420"/>
<path d="M28.8035 88.8298C30.0344 88.8298 31.0323 86.8553 31.0323 84.4198C31.0323 81.9842 30.0344 80.0098 28.8035 80.0098C27.5726 80.0098 26.5747 81.9842 26.5747 84.4198C26.5747 86.8553 27.5726 88.8298 28.8035 88.8298Z" fill="#FFC400"/>
<path d="M55.8546 99.9906C57.1629 99.9906 58.2234 97.8921 58.2234 95.3034C58.2234 92.7147 57.1629 90.6162 55.8546 90.6162C54.5464 90.6162 53.4858 92.7147 53.4858 95.3034C53.4858 97.8921 54.5464 99.9906 55.8546 99.9906Z" fill="#FFC400"/>
<path d="M30.4668 93.4727C30.4668 93.4727 32.0488 100.431 39.4268 96.4239C39.4268 96.4239 43.0108 105.91 49.8624 101.273" stroke="white" stroke-width="1.4" stroke-linecap="round" stroke-linejoin="round"/>
<path d="M91.703 57.5732L91.0254 57.9484" stroke="white" stroke-width="0.84" stroke-linecap="round" stroke-linejoin="round"/>
<path d="M102.463 51.624L95.5249 55.4628" stroke="white" stroke-width="0.84" stroke-linecap="round" stroke-linejoin="round"/>
<path d="M26.04 64.2736C26.04 64.2736 27.5716 60.0316 30.3996 56.1032C31.3908 54.7284 33.4992 54.9048 34.2608 56.4196C35.3444 58.5756 36.8844 61.8544 38.2676 67.698" stroke="white" stroke-width="1.4" stroke-linecap="round" stroke-linejoin="round"/>
<path d="M51.0747 72.495C51.0747 72.495 52.8667 68.1718 55.5519 64.4646C56.5459 63.0926 58.8503 63.0758 59.6119 64.5878C60.6955 66.7438 62.3531 71.2294 63.9351 77.9746" stroke="white" stroke-width="1.4" stroke-linecap="round" stroke-linejoin="round"/>
</svg>
