<svg width="100" height="100" viewBox="0 0 100 100" fill="none" xmlns="http://www.w3.org/2000/svg">
<rect width="100" height="100" rx="50" fill="#FFC400"/>
<path d="M77.4761 37.7718C77.4761 34.0718 76.0241 30.7678 71.8721 28.5758C68.4561 26.7718 59.1761 22.7038 55.6321 21.6158C49.0921 19.6078 43.7401 20.2478 37.5641 22.5878C34.0041 23.9358 26.5481 27.1278 23.3961 28.8998C19.0441 31.3478 17.5161 34.6038 17.5161 38.2558V61.7438C17.5161 65.3958 19.0481 68.6518 23.3961 71.0998C26.5521 72.8758 34.0081 76.0638 37.5641 77.4118C43.7401 79.7518 49.0921 80.3918 55.6321 78.3838C59.1761 77.2958 68.4561 73.2278 71.8721 71.4238C76.0201 69.2318 77.4761 65.9278 77.4761 62.2278V37.7718Z" fill="#2C2420"/>
<path d="M88.3603 39.5195C86.5923 37.8435 83.7683 37.7555 82.2843 39.5435C79.6603 42.7075 83.0483 46.3715 81.8443 51.0235C81.3563 52.9035 80.1323 54.0275 78.4243 54.4075V62.8355C83.6603 62.1995 89.8963 58.7275 91.0403 51.3395C91.8963 45.8275 90.4483 41.4995 88.3563 39.5195H88.3603Z" fill="#2C2420"/>
<path d="M23.3601 60.5435C24.2062 60.5435 24.8921 59.186 24.8921 57.5115C24.8921 55.837 24.2062 54.4795 23.3601 54.4795C22.514 54.4795 21.8281 55.837 21.8281 57.5115C21.8281 59.186 22.514 60.5435 23.3601 60.5435Z" fill="#FFC400"/>
<path d="M41.9678 68.2195C42.867 68.2195 43.5958 66.7761 43.5958 64.9955C43.5958 63.2149 42.867 61.7715 41.9678 61.7715C41.0687 61.7715 40.3398 63.2149 40.3398 64.9955C40.3398 66.7761 41.0687 68.2195 41.9678 68.2195Z" fill="#FFC400"/>
<path d="M24.5039 63.7363C24.5039 63.7363 25.5919 68.5203 30.6679 65.7683C30.6679 65.7683 33.1319 72.2923 37.8479 69.1043" stroke="white" stroke-width="0.964" stroke-linecap="round" stroke-linejoin="round"/>
<path d="M66.6282 39.0439L66.1602 39.3039" stroke="white" stroke-width="0.576" stroke-linecap="round" stroke-linejoin="round"/>
<path d="M74.0284 34.9512L69.2563 37.5912" stroke="white" stroke-width="0.576" stroke-linecap="round" stroke-linejoin="round"/>
<path d="M21.46 43.6516C21.46 43.6516 22.512 40.7316 24.46 38.0316C25.14 37.0836 26.592 37.2076 27.116 38.2476C27.86 39.7316 28.92 41.9836 29.872 46.0076" stroke="white" stroke-width="0.964" stroke-linecap="round" stroke-linejoin="round"/>
<path d="M38.6802 49.3073C38.6802 49.3073 39.9122 46.3353 41.7602 43.7833C42.4442 42.8393 44.0282 42.8273 44.5522 43.8673C45.2962 45.3513 46.4362 48.4353 47.5242 53.0753" stroke="white" stroke-width="0.964" stroke-linecap="round" stroke-linejoin="round"/>
</svg>
