<svg width="100" height="100" viewBox="0 0 100 100" fill="none" xmlns="http://www.w3.org/2000/svg">
<rect width="100" height="100" rx="50" fill="#40AED7"/>
<path d="M17.5157 40.0716L17.6277 60.2876C17.6277 60.2876 16.1597 66.2716 22.0317 70.4516C27.9037 74.6316 43.4917 79.1476 43.4917 79.1476C43.4917 79.1476 49.8917 81.0316 58.0997 77.4156C66.3077 73.7996 71.8717 71.4196 71.8717 71.4196C71.8717 71.4196 76.0957 68.6836 77.2997 65.4436C77.2997 65.4436 76.7717 62.5836 79.0317 62.5836C79.0317 62.5836 87.9157 60.8516 89.8757 53.1716C91.8357 45.4916 89.1997 40.3716 86.3357 38.8676C83.4717 37.3636 79.9357 39.5436 80.6877 43.3116C81.4397 47.0796 82.4197 51.0676 79.1837 53.7756C79.1837 53.7756 77.2277 55.5076 77.4517 52.0436C77.6757 48.5796 77.5277 36.6076 77.5277 36.6076C77.5277 36.6076 76.9237 30.8116 72.5597 28.7036C68.1957 26.5956 55.6357 21.6156 55.6357 21.6156C55.6357 21.6156 48.3117 19.1396 41.5357 21.2476C34.7597 23.3556 23.3957 28.8996 23.3957 28.8996C23.3957 28.8996 16.5357 31.4116 17.5157 40.0716Z" fill="#D5D3D2"/>
<path d="M89.1839 41.9555C89.1839 41.9555 87.3759 38.1155 84.0639 38.3395C80.7519 38.5635 79.5479 42.1795 81.2039 45.5675C81.2039 45.5675 87.5679 47.8075 89.1839 41.9515V41.9555Z" fill="#ABA7A6"/>
<path d="M81.412 49.7881L80.168 52.9521C82.708 58.1481 89.148 55.4921 89.148 55.4921C89.94 54.1361 90.392 48.8281 90.392 48.8281C85.816 53.5721 81.412 49.7881 81.412 49.7881Z" fill="#ABA7A6"/>
<path d="M78.5878 54.4157L77.3438 54.3037L77.4557 62.7757C82.6517 62.0997 83.8357 60.4597 83.8357 60.4597C77.8517 60.6837 78.5838 54.4157 78.5838 54.4157H78.5878Z" fill="#ABA7A6"/>
<path d="M57.7241 36.2115C49.0681 31.7275 38.3001 28.1315 30.2441 25.7715C27.9721 26.8235 25.9281 27.8515 24.3281 28.6875C32.2641 30.8475 45.6561 34.9155 55.7001 40.1195C57.6961 41.1555 58.9361 43.1795 58.9361 45.3995V65.0315C58.9361 66.2475 59.9201 67.2315 61.1361 67.2315C62.3521 67.2315 63.3361 66.2475 63.3361 65.0315V45.3995C63.3361 41.5235 61.1841 38.0035 57.7241 36.2115Z" fill="#ABA7A6"/>
<path d="M66.1798 30.2645C58.8798 26.6125 50.0718 23.4325 42.6758 21.0605C40.3758 21.6685 37.9358 22.5245 35.5518 23.4805C43.5838 25.8685 55.2318 29.7085 64.2118 34.2005C66.8118 35.5045 68.4278 38.1045 68.4278 40.9925V59.6165C68.4278 60.8325 69.4118 61.8165 70.6278 61.8165C71.8438 61.8165 72.8278 60.8325 72.8278 59.6165V40.9925C72.8278 36.4285 70.2798 32.3165 66.1798 30.2645Z" fill="#ABA7A6"/>
<path d="M77.4756 37.7718C77.4756 34.0718 76.0236 30.7678 71.8716 28.5758C68.4556 26.7718 59.1756 22.7038 55.6316 21.6158C49.0916 19.6078 43.7396 20.2478 37.5636 22.5878C34.0036 23.9358 26.5476 27.1278 23.3956 28.8998C19.0436 31.3478 17.5156 34.6038 17.5156 38.2558V61.7438C17.5156 65.3958 19.0476 68.6518 23.3956 71.0998C26.5516 72.8758 34.0076 76.0638 37.5636 77.4118C43.7396 79.7518 49.0916 80.3918 55.6316 78.3838C59.1756 77.2958 68.4556 73.2278 71.8716 71.4238C76.0196 69.2318 77.4756 65.9278 77.4756 62.2278V37.7718Z" stroke="#2C2420" stroke-width="1.2" stroke-miterlimit="10"/>
<path d="M77.628 62.8355C82.864 62.1995 89.1 58.7275 90.244 51.3395C91.1 45.8275 89.652 41.4995 87.56 39.5195C85.792 37.8435 82.968 37.7555 81.484 39.5435C78.86 42.7075 82.248 46.3715 81.044 51.0235C80.556 52.9035 79.332 54.0275 77.624 54.4075" stroke="#2C2420" stroke-width="1.2" stroke-miterlimit="10"/>
<path d="M24.5039 63.7363C24.5039 63.7363 25.5919 68.5203 30.6679 65.7683C30.6679 65.7683 33.1319 72.2923 37.8479 69.1043" stroke="#2C2420" stroke-width="0.964" stroke-linecap="round" stroke-linejoin="round"/>
<path d="M66.6282 39.0439L66.1602 39.3039" stroke="#2C2420" stroke-width="0.576" stroke-linecap="round" stroke-linejoin="round"/>
<path d="M74.0279 34.9512L69.2559 37.5912" stroke="#2C2420" stroke-width="0.576" stroke-linecap="round" stroke-linejoin="round"/>
<path d="M23.3601 60.5435C24.2062 60.5435 24.8921 59.186 24.8921 57.5115C24.8921 55.837 24.2062 54.4795 23.3601 54.4795C22.514 54.4795 21.8281 55.837 21.8281 57.5115C21.8281 59.186 22.514 60.5435 23.3601 60.5435Z" fill="#2C2420"/>
<path d="M41.9678 68.2195C42.867 68.2195 43.5958 66.7761 43.5958 64.9955C43.5958 63.2149 42.867 61.7715 41.9678 61.7715C41.0687 61.7715 40.3398 63.2149 40.3398 64.9955C40.3398 66.7761 41.0687 68.2195 41.9678 68.2195Z" fill="#2C2420"/>
<path d="M20.516 39.0205C20.516 39.0205 20.364 43.1605 22.304 46.3205C23.036 47.5165 24.528 48.0085 25.636 47.1525C26.892 46.1845 29.552 41.0525 29.552 41.0525" stroke="#2C2420" stroke-width="0.964" stroke-linecap="round" stroke-linejoin="round"/>
<path d="M39.5321 45.1279C39.5321 45.1279 39.3801 49.2679 41.3201 52.4279C42.0521 53.6239 43.5441 54.1159 44.6521 53.2599C45.9081 52.2919 48.5681 47.1599 48.5681 47.1599" stroke="#2C2420" stroke-width="0.964" stroke-linecap="round" stroke-linejoin="round"/>
</svg>
