<svg width="101" height="101" viewBox="0 0 101 101" fill="none" xmlns="http://www.w3.org/2000/svg">
<rect x="1" width="100" height="100" rx="50" fill="#61C9A8"/>
<path d="M87.8562 58.6437C87.8562 58.6437 92.7522 54.4277 92.8242 49.3077C92.8962 44.1877 91.2442 42.3797 88.3082 43.1317C88.3082 43.1317 85.9002 44.7877 84.0922 48.0997C84.0922 48.0997 82.7402 44.0437 78.1442 46.4277V35.6597C77.6682 33.7997 76.4402 30.6397 73.4562 29.1997C69.0882 27.0917 56.5322 22.1117 56.5322 22.1117C56.5322 22.1117 49.2082 19.6357 42.4322 21.7437C35.6562 23.8517 24.2922 29.3957 24.2922 29.3957C24.2922 29.3957 17.4322 31.9077 18.4122 40.5677L18.5242 60.7837C18.5242 60.7837 17.0562 66.7677 22.9282 70.9477C28.8002 75.1277 44.3882 79.6437 44.3882 79.6437C44.3882 79.6437 50.7882 81.5277 58.9962 77.9117C67.2042 74.2957 72.7682 71.9157 72.7682 71.9157C72.7682 71.9157 76.8642 69.2557 78.1402 66.0837V65.9877C79.6642 66.7837 81.8202 67.5237 84.3162 67.2957C89.2842 66.8437 91.6202 64.0597 91.6202 62.0997C91.6202 60.1397 89.7362 58.3357 87.8562 58.6357V58.6437Z" fill="#ABA7A6"/>
<path d="M78.376 38.2718C78.376 34.5718 76.924 31.2678 72.772 29.0758C69.356 27.2718 60.076 23.2038 56.532 22.1158C49.992 20.1078 44.64 20.7478 38.464 23.0878C34.904 24.4358 27.448 27.6278 24.296 29.3998C19.944 31.8478 18.416 35.1038 18.416 38.7558V62.2438C18.416 65.8958 19.948 69.1518 24.296 71.5998C27.452 73.3758 34.908 76.5638 38.464 77.9118C44.64 80.2518 49.992 80.8918 56.532 78.8838C60.076 77.7958 69.356 73.7278 72.772 71.9238C76.92 69.7318 78.376 66.4278 78.376 62.7278V38.2718Z" stroke="#2C2420" stroke-width="1.2" stroke-miterlimit="10"/>
<path d="M25.4038 64.2363C25.4038 64.2363 26.4918 69.0203 31.5678 66.2683C31.5678 66.2683 34.0318 72.7923 38.7478 69.6043" stroke="#2C2420" stroke-width="0.964" stroke-linecap="round" stroke-linejoin="round"/>
<path d="M67.5281 39.5439L67.0601 39.8039" stroke="#2C2420" stroke-width="0.576" stroke-linecap="round" stroke-linejoin="round"/>
<path d="M74.9283 35.4512L70.1562 38.0912" stroke="#2C2420" stroke-width="0.576" stroke-linecap="round" stroke-linejoin="round"/>
<path d="M22.3604 44.1516C22.3604 44.1516 23.4124 41.2316 25.3604 38.5316C26.0404 37.5836 27.4924 37.7076 28.0164 38.7476C28.7604 40.2316 29.8204 42.4836 30.7724 46.5076" stroke="#2C2420" stroke-width="0.964" stroke-linecap="round" stroke-linejoin="round"/>
<path d="M39.5801 49.8073C39.5801 49.8073 40.8121 46.8353 42.6601 44.2833C43.3441 43.3393 44.9281 43.3273 45.4521 44.3673C46.1961 45.8513 47.3361 48.9353 48.4241 53.5753" stroke="#2C2420" stroke-width="0.964" stroke-linecap="round" stroke-linejoin="round"/>
<path d="M24.26 61.0435C25.1061 61.0435 25.792 59.686 25.792 58.0115C25.792 56.337 25.1061 54.9795 24.26 54.9795C23.4139 54.9795 22.728 56.337 22.728 58.0115C22.728 59.686 23.4139 61.0435 24.26 61.0435Z" fill="#2C2420"/>
<path d="M42.8677 68.7195C43.7669 68.7195 44.4957 67.2761 44.4957 65.4955C44.4957 63.7149 43.7669 62.2715 42.8677 62.2715C41.9686 62.2715 41.2397 63.7149 41.2397 65.4955C41.2397 67.2761 41.9686 68.7195 42.8677 68.7195Z" fill="#2C2420"/>
<path d="M78.4438 46.5197C78.4438 46.5197 79.7838 45.4637 81.4558 45.7677C83.9398 46.2197 84.2398 48.6277 84.2398 48.6277C84.2398 48.6277 85.2598 45.1197 87.4758 43.5077C89.1318 42.3037 93.3478 42.1517 92.7478 49.3037C92.1998 55.7917 87.3279 58.8677 87.3279 58.8677C87.3279 58.8677 91.2798 57.9717 91.6198 61.5797C91.9958 65.5717 84.4678 69.7117 78.5198 65.9477" stroke="#2C2420" stroke-width="1.2" stroke-linecap="round" stroke-linejoin="round"/>
</svg>
