<svg width="101" height="101" viewBox="0 0 101 101" fill="none" xmlns="http://www.w3.org/2000/svg">
<rect width="100" height="100" rx="50" fill="#EE807F"/>
<path d="M17.816 40.5716L17.928 60.7876C17.928 60.7876 16.46 66.7716 22.332 70.9516C28.204 75.1316 43.792 79.6476 43.792 79.6476C43.792 79.6476 50.192 81.5316 58.4 77.9156C66.608 74.2996 72.172 71.9196 72.172 71.9196C72.172 71.9196 76.396 69.1836 77.6 65.9436C77.6 65.9436 77.072 63.0836 79.332 63.0836C79.332 63.0836 88.216 61.3516 90.176 53.6716C92.136 45.9916 89.5 40.8716 86.636 39.3676C83.772 37.8636 80.236 40.0436 80.988 43.8116C81.74 47.5796 82.72 51.5676 79.484 54.2756C79.484 54.2756 77.528 56.0076 77.752 52.5436C77.976 49.0796 77.828 37.1076 77.828 37.1076C77.828 37.1076 77.224 31.3116 72.86 29.2036C68.496 27.0956 55.936 22.1156 55.936 22.1156C55.936 22.1156 48.612 19.6396 41.836 21.7476C35.06 23.8556 23.696 29.3996 23.696 29.3996C23.696 29.3996 16.836 31.9116 17.816 40.5716Z" fill="white"/>
<path d="M77.7759 38.2718C77.7759 34.5718 76.3239 31.2678 72.1719 29.0758C68.7559 27.2718 59.4759 23.2038 55.9319 22.1158C49.3919 20.1078 44.0399 20.7478 37.8639 23.0878C34.3039 24.4358 26.8479 27.6278 23.6959 29.3998C19.3439 31.8478 17.8159 35.1038 17.8159 38.7558V62.2438C17.8159 65.8958 19.3479 69.1518 23.6959 71.5998C26.8519 73.3758 34.3079 76.5638 37.8639 77.9118C44.0399 80.2518 49.3919 80.8918 55.9319 78.8838C59.4759 77.7958 68.7559 73.7278 72.1719 71.9238C76.3199 69.7318 77.7759 66.4278 77.7759 62.7278V38.2718Z" stroke="#2C2420" stroke-width="1.2" stroke-miterlimit="10"/>
<path d="M77.9283 63.3355C83.1643 62.6995 89.4003 59.2275 90.5443 51.8395C91.4003 46.3275 89.9523 41.9995 87.8603 40.0195C86.0923 38.3435 83.2683 38.2555 81.7843 40.0435C79.1603 43.2075 82.5483 46.8715 81.3443 51.5235C80.8563 53.4035 79.6323 54.5275 77.9243 54.9075" stroke="#2C2420" stroke-width="1.2" stroke-miterlimit="10"/>
<path d="M24.8037 64.2363C24.8037 64.2363 25.8917 69.0203 30.9677 66.2683C30.9677 66.2683 33.4317 72.7923 38.1477 69.6043" stroke="#2C2420" stroke-width="0.964" stroke-linecap="round" stroke-linejoin="round"/>
<path d="M66.928 39.5439L66.46 39.8039" stroke="#2C2420" stroke-width="0.576" stroke-linecap="round" stroke-linejoin="round"/>
<path d="M74.3282 35.4512L69.5562 38.0912" stroke="#2C2420" stroke-width="0.576" stroke-linecap="round" stroke-linejoin="round"/>
<path d="M21.7603 44.1516C21.7603 44.1516 22.8123 41.2316 24.7603 38.5316C25.4403 37.5836 26.8923 37.7076 27.4163 38.7476C28.1603 40.2316 29.2203 42.4836 30.1723 46.5076" stroke="#2C2420" stroke-width="0.964" stroke-linecap="round" stroke-linejoin="round"/>
<path d="M38.98 49.8073C38.98 49.8073 40.212 46.8353 42.06 44.2833C42.744 43.3393 44.328 43.3273 44.852 44.3673C45.596 45.8513 46.736 48.9353 47.824 53.5753" stroke="#2C2420" stroke-width="0.964" stroke-linecap="round" stroke-linejoin="round"/>
<path d="M49.532 64.0878C49.532 64.0878 42.676 62.1918 38.564 65.7278" stroke="#2C2420" stroke-width="0.928" stroke-linecap="round" stroke-linejoin="round"/>
<path d="M25.8117 61.1475C25.8117 61.1475 22.8877 56.2635 18.4717 55.6875" stroke="#2C2420" stroke-width="0.928" stroke-linecap="round" stroke-linejoin="round"/>
</svg>
