<svg width="410" height="254" viewBox="0 0 410 254" fill="none" xmlns="http://www.w3.org/2000/svg">
<g clip-path="url(#clip0_1666_36831)">
<path d="M57.8893 128.627L50.3675 132.464C50.3675 132.464 41.5177 157.551 14.2316 171.866C14.2316 171.866 16.2961 203.004 30.0117 207.873C30.0117 207.873 53.7563 200.198 87.5299 210.53L89.3007 206.842C89.3007 206.842 60.2477 192.233 56.4124 151.06C56.4124 151.06 53.7563 135.714 57.8854 128.631L57.8893 128.627Z" fill="white"/>
<path d="M53.2437 146.482C53.2437 146.482 60.1034 187.655 78.2419 200.049C96.3804 212.443 112.533 212.886 111.647 186.545C110.762 160.205 94.3903 134.307 86.8685 129.215C79.3467 124.123 54.3484 103.317 53.2397 146.482H53.2437Z" fill="#D5D3D2"/>
<path d="M113.861 187.654C113.539 175.056 111.095 166.413 109.798 162.654C109.394 161.129 108.65 159.036 107.443 156.112C103.021 145.376 92.3999 127.337 79.7891 119.811C67.1784 112.285 56.781 114.72 51.8018 128.556C51.8018 128.556 47.4885 137.521 51.1397 155.45C51.1397 155.45 56.119 178.69 69.6112 195.737C83.1073 212.78 94.1667 214.109 99.8081 213.003C105.449 211.898 114.299 204.925 113.857 187.658L113.861 187.654ZM107.667 189.979C106.119 202.044 100.697 206.693 91.9611 204.588C83.2209 202.487 76.2554 192.746 76.2554 192.746C76.2554 192.746 87.5381 184.777 84.5529 170.168C81.5677 155.559 66.8532 149.139 57.6743 151.354C57.6743 151.354 55.1317 136.411 59.8877 128.333C64.6437 120.254 74.4886 121.469 82.7861 129.438C91.0836 137.407 99.4908 149.801 102.143 158.656C103.122 161.921 103.89 164.159 104.576 165.629C106.202 171.097 108.76 181.52 107.675 189.979H107.667Z" fill="#EE807F"/>
<path d="M17.8475 170.055C17.8475 170.055 11.6538 174.151 7.55986 175.589C3.46596 177.028 1.36612 181.014 1.69912 185.992C2.03212 190.971 2.80388 200.935 11.9867 208.68C11.9867 208.68 14.2002 212 18.6232 211.224C23.0461 210.448 29.5729 207.241 34.1095 207.128L53.2469 245.42C53.2469 245.42 60.4357 246.525 62.7589 240.771L49.8151 205.242C49.8151 205.242 39.8605 205.905 35.2142 206.571C35.2142 206.571 34.4385 207.79 29.9059 204.137C25.3732 200.484 20.2842 193.953 17.9611 183.107C17.9611 183.107 16.7427 174.805 17.8514 170.047L17.8475 170.055Z" fill="#EE807F"/>
<path d="M102.669 212.049C116.138 206.186 117.792 180.123 106.363 153.837C94.9341 127.55 74.7498 110.993 61.2802 116.855C47.8106 122.718 46.1565 148.78 57.5855 175.067C69.0146 201.354 89.199 217.911 102.669 212.049Z" stroke="#2C2420" stroke-width="1.35941" stroke-linecap="round" stroke-linejoin="round"/>
<path d="M99.9455 204.328C110.193 199.867 110.652 178.201 100.971 155.933C91.2893 133.666 75.1338 119.231 64.8863 123.691C54.6388 128.152 54.1798 149.819 63.8611 172.086C73.5424 194.353 89.6979 208.788 99.9455 204.328Z" stroke="#2C2420" stroke-width="1.35941" stroke-linecap="round" stroke-linejoin="round"/>
<path d="M57.6664 151.265C58.8573 151.08 60.0757 150.982 61.3176 150.982C74.328 150.982 84.8781 161.538 84.8781 174.556C84.8781 181.815 81.599 188.31 76.4395 192.634" stroke="#2C2420" stroke-width="1.23405" stroke-linecap="round" stroke-linejoin="round"/>
<path d="M51.1046 130.842C51.1046 130.842 40.8914 160.75 6.29116 176.315C3.541 177.553 1.83293 180.148 1.62138 183.155C1.28838 187.933 2.94553 201.805 13.3507 209.727C15.4975 211.361 18.3574 211.718 20.8647 210.719C29.7067 207.203 54.4855 199.892 87.9732 211.118" stroke="#2C2420" stroke-width="1.23405" stroke-linecap="round" stroke-linejoin="round"/>
<path d="M33.7021 206.989L53.1687 245.21C53.1687 245.21 60.0637 247.24 62.4221 241.337L49.7761 205.221" stroke="#2C2420" stroke-width="1.23405" stroke-linecap="round" stroke-linejoin="round"/>
<path d="M18.0671 170.279C18.0671 170.279 12.7588 193.633 33.8864 206.913" stroke="#2C2420" stroke-width="1.23405" stroke-linecap="round" stroke-linejoin="round"/>
<path d="M85.1016 107.528L153.46 7.58594" stroke="#2C2420" stroke-width="1.35941" stroke-linecap="round" stroke-linejoin="round"/>
<path d="M79.1268 145.043L164.742 47.4297" stroke="#2C2420" stroke-width="1.35941" stroke-linecap="round" stroke-linejoin="round"/>
<path d="M138.859 99.2606L238.413 0.945312" stroke="#2C2420" stroke-width="1.35941" stroke-linecap="round" stroke-linejoin="round"/>
<path d="M85.1016 152.351L119.263 118.613" stroke="#2C2420" stroke-width="1.35941" stroke-linecap="round" stroke-linejoin="round"/>
<path d="M120.277 147.367L252.351 95.1289" stroke="#2C2420" stroke-width="1.35941" stroke-linecap="round" stroke-linejoin="round"/>
<path d="M258.569 125.048L387.078 91.2559" stroke="#2C2420" stroke-width="1.35941" stroke-linecap="round" stroke-linejoin="round"/>
<path d="M95.3889 167.956L225.324 133.791" stroke="#2C2420" stroke-width="1.35941" stroke-linecap="round" stroke-linejoin="round"/>
<path d="M352.127 187.117L369.827 187.211" stroke="#2C2420" stroke-width="1.35941" stroke-linecap="round" stroke-linejoin="round"/>
<path d="M208.917 186.346L236.791 186.498" stroke="#2C2420" stroke-width="1.35941" stroke-linecap="round" stroke-linejoin="round"/>
<path d="M122.6 185.883L151.544 186.04" stroke="#2C2420" stroke-width="1.35941" stroke-linecap="round" stroke-linejoin="round"/>
<path d="M95.9415 191.195L271.376 223.514" stroke="#2C2420" stroke-width="1.35941" stroke-linecap="round" stroke-linejoin="round"/>
<path d="M220.748 226.025L270.933 237.016" stroke="#2C2420" stroke-width="1.35941" stroke-linecap="round" stroke-linejoin="round"/>
<path d="M123.372 204.699L154.082 211.426" stroke="#2C2420" stroke-width="1.35941" stroke-linecap="round" stroke-linejoin="round"/>
<path d="M114.671 215.398L158.18 238.564" stroke="#2C2420" stroke-width="1.35941" stroke-linecap="round" stroke-linejoin="round"/>
<path d="M142.126 107.53C142.126 107.53 141.197 117.008 141.197 121.657C141.197 126.306 141.942 128.627 144.449 126.953C146.956 125.279 151.415 116.73 151.415 116.73C151.415 116.73 156.617 131.692 160.237 136.991C163.861 142.287 168.041 142.753 175.006 140.895C181.972 139.037 198.692 132.252 206.68 129.187C214.668 126.122 218.382 123.609 222.934 119.337C227.487 115.06 234.358 101.494 234.358 101.494C234.358 101.494 236.121 96.9393 233.986 89.135C231.851 81.3269 228.043 71.2923 228.043 71.2923C228.043 71.2923 219.499 55.4017 213.924 52.3325C208.349 49.2672 200.177 51.4035 188.103 54.4688C176.029 57.534 163.301 64.4132 156.985 68.9679C150.67 73.5227 146.768 84.4901 145.468 89.6015C144.167 94.7129 142.122 107.538 142.122 107.538L142.126 107.53Z" fill="white"/>
<path d="M199.809 104.56C199.809 104.56 196.001 108.926 200.643 113.669C200.643 113.669 207.331 118.687 213.556 113.203C213.556 113.203 216.807 110.138 214.856 104.188C214.856 104.188 206.868 107.998 199.809 104.56Z" fill="#EE807F"/>
<path d="M151.321 116.362C151.321 116.362 155.685 130.116 160.041 136.729C163.759 142.377 167.947 142.992 177.996 140.025C188.045 137.058 210.59 127.886 215.601 125.005C220.083 122.429 222.849 120.062 228.78 111.325C234.711 102.592 236.45 97.8408 233.673 88.2766C230.468 77.2346 221.348 56.5188 213.607 52.2345C205.866 47.9502 183.234 55.8602 175.99 58.9255C167.313 62.5983 157.045 66.7062 151.47 75.2356C146.733 82.4832 143.38 95.2263 141.762 111.156C141.112 117.569 141.163 122.868 141.421 125.381C141.574 126.863 142.91 128.399 144.826 126.584C148.394 123.206 152.535 116.362 153.558 106.696C154.498 97.8173 153.652 85.5053 153.652 85.5053" stroke="#2C2420" stroke-width="1.23405" stroke-linecap="round" stroke-linejoin="round"/>
<path d="M232.411 83.7413C232.411 83.7413 236.313 83.7177 237.077 82.3458C237.95 80.7858 236.403 77.1404 228.693 66.6394C220.983 56.1384 215.945 50.8388 209.63 50.5605C209.63 50.5605 215.134 51.3955 221.077 60.1326C227.02 68.8697 232.411 83.7373 232.411 83.7373V83.7413Z" fill="#2C2420"/>
<path d="M167.818 105.947C167.736 105.79 167.653 105.637 167.575 105.488" stroke="#2C2420" stroke-width="0.740427" stroke-linecap="round" stroke-linejoin="round"/>
<path d="M169.236 108.687C169.154 108.53 169.075 108.374 168.993 108.217" stroke="#2C2420" stroke-width="0.740427" stroke-linecap="round" stroke-linejoin="round"/>
<path d="M175.563 121.379C175.563 121.379 172.86 115.844 170.247 110.674" stroke="#2C2420" stroke-width="0.740427" stroke-linecap="round" stroke-linejoin="round"/>
<path d="M168.785 135.506C168.785 135.506 172.221 129.234 174.403 125.377" stroke="#2C2420" stroke-width="0.740427" stroke-linecap="round" stroke-linejoin="round"/>
<path d="M178.583 121.658C178.583 121.658 182.207 120.078 186.152 118.357" stroke="#2C2420" stroke-width="0.740427" stroke-linecap="round" stroke-linejoin="round"/>
<path d="M155.76 81.8203C155.944 82.1533 156.057 82.3453 156.057 82.3453" stroke="#2C2420" stroke-width="0.740427" stroke-linecap="round" stroke-linejoin="round"/>
<path d="M153.295 73.1465C153.295 73.1465 152.179 73.9814 153.503 77.3759C153.836 78.2265 154.372 79.1711 154.756 79.9316" stroke="#2C2420" stroke-width="0.740427" stroke-linecap="round" stroke-linejoin="round"/>
<path d="M212.949 95.4954C218.22 94.0586 221.84 90.4962 221.035 87.5386C220.229 84.581 215.304 83.3482 210.032 84.7851C204.761 86.2219 201.141 89.7843 201.947 92.7419C202.752 95.6995 207.678 96.9323 212.949 95.4954Z" fill="#2C2420"/>
<path d="M195.28 97.4734C195.28 97.4734 193.956 103.4 202.735 105.211C211.217 106.963 222.868 102.84 224.263 95.2431C225.657 87.6466 217.712 85.3457 217.712 85.3457" stroke="#2C2420" stroke-width="1.23405" stroke-linecap="round" stroke-linejoin="round"/>
<path d="M199.809 104.301C199.809 104.301 196.683 107.915 199.39 112.109C202.316 116.64 211.092 117.197 214.367 112.179C216.882 108.326 214.923 104.512 214.923 104.512" stroke="#2C2420" stroke-width="1.23405" stroke-linecap="round" stroke-linejoin="round"/>
<path d="M206.915 106.045L206.567 109.322" stroke="#2C2420" stroke-width="1.23405" stroke-linecap="round" stroke-linejoin="round"/>
<path d="M180.115 93.125L189.776 94.5204L183.367 102.419" stroke="#2C2420" stroke-width="1.72766" stroke-linecap="round" stroke-linejoin="round"/>
<path d="M220.615 79.7441L216.341 86.0628L224.145 87.274" stroke="#2C2420" stroke-width="1.72766" stroke-linecap="round" stroke-linejoin="round"/>
<path d="M236.035 53.441L241.7 46.75" stroke="#2C2420" stroke-width="1.23405" stroke-linecap="round" stroke-linejoin="round"/>
<path d="M241.512 62.0848L248.853 59.0195" stroke="#2C2420" stroke-width="1.23405" stroke-linecap="round" stroke-linejoin="round"/>
<path d="M229.994 48.4249L232.227 44.7051" stroke="#2C2420" stroke-width="1.23405" stroke-linecap="round" stroke-linejoin="round"/>
<path d="M328.675 78.4531C328.675 78.4531 297.259 107.377 291.657 113.723C291.657 113.723 308.472 131.135 317.024 134.972C317.024 134.972 350.652 103.834 354.19 99.4081C354.19 99.4081 334.426 82.1416 328.675 78.4531Z" fill="white"/>
<path d="M328.823 78.3047C328.823 78.3047 304.93 99.9966 291.363 114.018C291.363 114.018 303.308 124.495 317.028 135.267C317.028 135.267 348.294 105.755 354.045 99.5537C354.045 99.5537 335.903 82.7301 328.823 78.3047Z" stroke="#2C2420" stroke-width="1.35941" stroke-linecap="round" stroke-linejoin="round"/>
<path d="M291.359 114.018C291.359 114.018 327.346 115.491 334.277 114.903C334.277 114.903 332.804 95.5712 328.82 78.3086" stroke="#2C2420" stroke-width="1.35941" stroke-linecap="round" stroke-linejoin="round"/>
<path d="M332.294 97.1934C339.397 97.7539 347.369 98.5339 354.041 99.557" stroke="#2C2420" stroke-width="1.35941" stroke-linecap="round" stroke-linejoin="round"/>
<path d="M317.024 135.267C317.024 135.267 315.982 125.229 315.014 114.885" stroke="#2C2420" stroke-width="1.35941" stroke-linecap="round" stroke-linejoin="round"/>
<path d="M352.96 148.954C354.045 157.107 355.996 173.578 356.959 193.142C357.21 198.218 354.578 203.004 350.162 205.516C342.46 209.903 328.69 216.75 309.721 222.297C303.096 224.233 296.037 224.049 289.514 221.799C282.102 219.247 271.705 215.049 261.687 208.903C257.39 206.265 254.342 201.996 253.178 197.085C251.329 189.296 248.638 175.785 247.176 158.362C246.53 150.632 250.651 143.29 257.574 139.798C265.601 135.745 278.024 130.398 295.05 125.628C303.935 123.139 313.388 123.617 322.007 126.914C329.901 129.936 339.73 134.291 347.283 139.582C350.405 141.769 352.458 145.176 352.96 148.954Z" fill="#2C2420"/>
<path d="M232.85 169.918C237.954 170.737 239.478 175.096 239.494 179.129C239.506 182.731 239.243 187.059 243.991 188.917C245.985 189.701 247.913 189.822 249.55 189.669C250.083 192.55 250.773 196.043 251.341 198.03C251.717 199.347 252.085 200.46 252.434 201.397C238.468 204.78 224.76 197.274 223.15 185.53C221.61 174.296 227.279 169.024 232.854 169.918H232.85Z" fill="#2C2420"/>
<path d="M347.228 160.749C347.228 160.749 343.452 156.065 339.816 152.326C338.402 150.871 335.957 151.44 335.334 153.372C334.402 156.269 333.513 160.443 332.655 164.979" stroke="white" stroke-width="1.35941" stroke-linecap="round" stroke-linejoin="round"/>
<path d="M318.414 169.064C318.414 169.064 314.638 164.38 311.002 160.64C309.588 159.186 307.143 159.754 306.521 161.687C305.588 164.583 304.44 169.844 303.582 174.379" stroke="white" stroke-width="1.35941" stroke-linecap="round" stroke-linejoin="round"/>
<path d="M341.426 193C341.426 193 339.029 199.456 330.449 194.682C330.449 194.682 327.605 204.591 318.759 200.412" stroke="white" stroke-width="1.35941" stroke-linecap="round" stroke-linejoin="round"/>
<path d="M328.592 198.587C328.592 198.587 329.693 194.526 331.621 195.338C333.548 196.149 334.563 195.248 334.081 200.837C333.599 206.427 332.048 210.366 328.655 208.018C325.262 205.67 324.557 202.664 324.557 202.664C324.557 202.664 323.785 201.119 326.093 200.422L328.592 198.587Z" fill="white"/>
<path d="M325.415 203.854C325.415 203.854 330.246 200.836 333.161 205.661C333.161 205.661 330.52 212.501 325.415 203.854Z" fill="#EE807F"/>
<path d="M334.19 196.395C334.19 196.395 334.081 201.859 333.172 205.563C332.306 209.079 328.095 211.027 324.216 201.475" stroke="white" stroke-width="1.35941" stroke-linecap="round" stroke-linejoin="round"/>
<path d="M344.761 189.007C346.197 188.857 347.132 186.545 346.851 183.843C346.569 181.141 345.177 179.071 343.742 179.221C342.307 179.371 341.371 181.683 341.653 184.385C341.934 187.087 343.326 189.156 344.761 189.007Z" fill="#FFC400"/>
<path d="M312.377 199.748C313.95 199.584 314.976 197.051 314.667 194.091C314.359 191.13 312.833 188.863 311.26 189.027C309.687 189.191 308.662 191.724 308.97 194.685C309.279 197.645 310.804 199.912 312.377 199.748Z" fill="#FFC400"/>
<path d="M295.191 197.653C295.152 197.301 295.113 196.952 295.073 196.604" stroke="white" stroke-width="0.814861" stroke-linecap="round" stroke-linejoin="round"/>
<path d="M295.845 203.12C295.775 202.572 295.708 202.019 295.641 201.467" stroke="white" stroke-width="0.814861" stroke-linecap="round" stroke-linejoin="round"/>
<path d="M298.102 219.397C298.102 219.397 297.232 213.666 296.323 206.818" stroke="white" stroke-width="0.814861" stroke-linecap="round" stroke-linejoin="round"/>
<path d="M262.835 155.99C263.156 156.127 263.481 156.268 263.811 156.409" stroke="white" stroke-width="0.814861" stroke-linecap="round" stroke-linejoin="round"/>
<path d="M250.557 150.867C250.557 150.867 254.118 152.294 259.321 154.497" stroke="white" stroke-width="0.814861" stroke-linecap="round" stroke-linejoin="round"/>
<path d="M366.812 129.082L359.338 134.687" stroke="#2C2420" stroke-width="1.35941" stroke-linecap="round" stroke-linejoin="round"/>
<path d="M354.018 124.143L350.19 129.183" stroke="#2C2420" stroke-width="1.35941" stroke-linecap="round" stroke-linejoin="round"/>
<path d="M366.895 144.776L372.242 143.213" stroke="#2C2420" stroke-width="1.35941" stroke-linecap="round" stroke-linejoin="round"/>
<path d="M367.24 157.559L370.237 158.299" stroke="#2C2420" stroke-width="1.35941" stroke-linecap="round" stroke-linejoin="round"/>
<path d="M323.918 33.9258C323.918 33.9258 321.819 44.1093 312.855 49.0874C312.855 49.0874 305.553 53.0699 299.249 52.8504C299.249 52.8504 303.896 64.9506 301.239 73.288C298.583 81.6253 293.498 84.9453 293.498 84.9453C293.498 84.9453 306.403 83.542 315.472 72.0336C324.541 60.5252 324.616 49.7498 325.501 45.1755C326.387 40.6011 323.914 33.9219 323.914 33.9219L323.918 33.9258Z" fill="#D5D3D2"/>
<path d="M299.03 52.8498C299.03 52.8498 308.985 75.1336 292.727 85.1681C292.727 85.1681 307.551 84.5057 318.944 67.2392C329.176 51.7326 323.958 31.8242 323.958 31.8242C323.958 31.8242 323.367 51.5249 299.034 52.8537L299.03 52.8498Z" stroke="#2C2420" stroke-width="1.35941" stroke-linecap="round" stroke-linejoin="round"/>
<path d="M307.805 59.1963C307.805 59.1963 314.884 58.4594 319.237 53.8105" stroke="#2C2420" stroke-width="0.783521" stroke-linecap="round" stroke-linejoin="round"/>
<path d="M307.363 62.8131C307.363 62.8131 318.352 61.6333 324.322 52.998" stroke="#2C2420" stroke-width="0.783521" stroke-linecap="round" stroke-linejoin="round"/>
<path d="M320.906 61.343C321.525 60.8063 322.108 60.2187 322.626 59.5645" stroke="#2C2420" stroke-width="0.783521" stroke-linecap="round" stroke-linejoin="round"/>
<path d="M317.635 63.555C318.085 63.316 318.536 63.0535 318.978 62.7754" stroke="#2C2420" stroke-width="0.783521" stroke-linecap="round" stroke-linejoin="round"/>
<path d="M309.651 66.204C309.651 66.204 311.37 65.969 313.662 65.2207" stroke="#2C2420" stroke-width="0.783521" stroke-linecap="round" stroke-linejoin="round"/>
<path d="M307.159 73.1622C307.159 73.1622 313.133 72.9975 317.502 69.1797" stroke="#2C2420" stroke-width="0.783521" stroke-linecap="round" stroke-linejoin="round"/>
<path d="M109.657 25.6973C109.657 25.6973 93.9515 42.5561 90.1906 48.6435C90.1906 48.6435 125.476 58.0509 136.097 59.4895C136.097 59.4895 152.911 41.5605 155.677 35.9161C155.677 35.9161 114.75 26.6576 109.661 25.6973H109.657Z" fill="white"/>
<path d="M109.512 25.6973C109.512 25.6973 98.4488 37.3546 90.0455 48.8669C90.0455 48.8669 116.297 55.507 135.913 59.4934C135.913 59.4934 149.628 44.2926 155.677 36.1787C155.677 36.1787 132.52 29.8326 109.512 25.7012V25.6973Z" stroke="#2C2420" stroke-width="1.35941" stroke-linecap="round" stroke-linejoin="round"/>
<path d="M109.512 25.6973C109.512 25.6973 110.249 37.3546 113.348 51.3756C113.348 51.3756 141.664 40.8981 155.677 36.1748" stroke="#2C2420" stroke-width="1.35941" stroke-linecap="round" stroke-linejoin="round"/>
<path d="M131.521 44.7988C132.799 49.0322 134.299 54.0455 135.913 59.4901" stroke="#2C2420" stroke-width="1.35941" stroke-linecap="round" stroke-linejoin="round"/>
<path d="M90.0416 48.8669C90.0416 48.8669 100.662 43.5595 110.836 38.7578" stroke="#2C2420" stroke-width="1.35941" stroke-linecap="round" stroke-linejoin="round"/>
<path d="M148.003 176.735C148.003 176.735 157.072 180.278 163.783 178.138C170.494 175.998 177.279 169.95 180.374 162.494C180.374 162.494 184.429 178.283 196.009 180.274C196.009 180.274 204.636 176.954 206.555 169.06C206.555 169.06 209.505 176.292 202.352 183.892C195.198 191.492 180.597 191.861 174.921 191.124C169.244 190.387 157.076 188.172 148.003 176.735Z" fill="#D5D3D2"/>
<path d="M206.669 168.73C206.669 168.73 209.768 179.799 200.585 180.571C190.505 181.422 182.885 172.383 180.233 162.09C180.233 162.09 172.159 186.216 147.27 176.146C147.27 176.146 156.453 190.093 177.69 191.308C199.077 192.535 210.21 179.133 206.673 168.73H206.669Z" stroke="#2C2420" stroke-width="1.35941" stroke-linecap="round" stroke-linejoin="round"/>
<path d="M206.669 168.729C206.669 168.729 204.345 177.473 195.938 180.017" stroke="#2C2420" stroke-width="1.35941" stroke-linecap="round" stroke-linejoin="round"/>
<path d="M174.811 180.682L154.459 224.618C154.459 224.618 167.955 240.446 172.378 243.766C172.378 243.766 189.193 211.561 191.735 201.268L174.811 180.682Z" fill="white"/>
<path d="M175.732 188.391L172.707 195.031L178.09 200.859L181.114 194L175.732 188.391Z" fill="#40AED7"/>
<path d="M174.701 181.014C174.701 181.014 160.836 210.083 154.349 224.695C154.349 224.695 163.642 235.024 172.342 243.73C172.342 243.73 179.715 231.778 191.515 201.232C191.515 201.232 182.223 189.131 174.701 181.014Z" stroke="#2C2420" stroke-width="1.35941" stroke-linecap="round" stroke-linejoin="round"/>
<path d="M181.005 194.185L175.696 188.098L172.598 194.957L177.906 200.825L181.005 194.185Z" stroke="#2C2420" stroke-width="1.17528" stroke-linecap="round" stroke-linejoin="round"/>
<path d="M168.393 222.184C168.393 222.184 173.04 212.887 175.915 206.137" stroke="#2C2420" stroke-width="0.783521" stroke-linecap="round" stroke-linejoin="round"/>
<path d="M173.4 220.427C174.525 218.028 175.692 215.469 176.66 213.199" stroke="#2C2420" stroke-width="0.783521" stroke-linecap="round" stroke-linejoin="round"/>
<path d="M383.835 205.141L367.537 224.916C367.537 224.916 383.173 245.279 392.461 252.73C392.461 252.73 402.639 243.731 408.022 233.841C408.022 233.841 387.078 206.32 383.835 205.141Z" fill="white"/>
<path d="M384.093 205.029C384.093 205.029 372.591 218.309 367.389 224.949C367.389 224.949 381.437 243.212 392.61 252.952C392.61 252.952 403.34 242.216 408.096 234.028C408.096 234.028 394.714 216.875 384.093 205.029Z" stroke="#2C2420" stroke-width="1.35941" stroke-linecap="round" stroke-linejoin="round"/>
<path d="M384.093 205.029C384.093 205.029 381.88 225.506 381.993 238.453C381.993 238.453 396.261 237.234 408.1 234.028" stroke="#2C2420" stroke-width="1.35941" stroke-linecap="round" stroke-linejoin="round"/>
<path d="M394.675 237.016C394.118 241.594 393.421 246.874 392.61 252.953" stroke="#2C2420" stroke-width="1.35941" stroke-linecap="round" stroke-linejoin="round"/>
<path d="M367.389 224.951C367.389 224.951 374.554 224.355 382.428 223.799" stroke="#2C2420" stroke-width="1.35941" stroke-linecap="round" stroke-linejoin="round"/>
</g>
<defs>
<clipPath id="clip0_1666_36831">
<rect width="408.214" height="254" fill="white" transform="translate(0.892822)"/>
</clipPath>
</defs>
</svg>
