<svg width="60" height="60" viewBox="0 0 60 60" fill="none" xmlns="http://www.w3.org/2000/svg">
<g id="illustrations_food_milk">
<path id="Vector" d="M17.0697 13.374V17.5308C17.0697 17.5308 13.4109 20.8284 12.1905 25.3008C12.1905 25.3008 11.4681 27.7404 11.7837 31.5804L11.8293 43.6872C11.8293 43.6872 11.1969 45.2688 13.8165 47.8884C16.4361 50.508 24.4785 52.4964 29.9445 52.2708C35.4105 52.0452 41.1033 51.5484 45.6657 48.114C45.6657 48.114 48.3309 46.1712 48.2865 43.6872L48.1509 28.6884C48.1509 28.6884 48.6021 26.8812 47.2929 23.8548C45.9837 20.8284 42.9105 17.4852 42.9105 17.4852V13.0584C42.9105 13.0584 43.4073 11.7036 41.0577 10.122C38.7081 8.54043 33.5133 7.18563 27.5049 7.77243C21.4965 8.35923 16.9341 10.2576 17.0697 13.374Z" fill="white"/>
<path id="Vector_2" d="M25.9242 10.2579C25.9242 10.2579 21.9942 10.8003 20.955 11.9295C19.9158 13.0587 18.651 13.9623 22.9422 15.4527C27.2334 16.9431 33.2874 16.5375 36.0882 15.5883C38.889 14.6391 40.335 14.4591 39.8382 12.6063C39.3414 10.7535 30.9834 8.90191 25.9242 10.2567V10.2579Z" fill="#B3DFEF"/>
<path id="Vector_3" d="M42.9442 17.5539V13.0011C42.9442 10.0575 37.1494 7.67188 29.9998 7.67188C22.8502 7.67188 17.0554 10.0575 17.0554 13.0011V17.5539C11.4442 23.1651 11.7862 28.2207 11.7862 28.2207V43.7871C11.7862 48.5055 19.9402 52.3299 29.9998 52.3299C40.0594 52.3299 48.2134 48.5055 48.2134 43.7871V28.2207C48.2134 28.2207 48.5554 23.1651 42.9442 17.5539Z" stroke="#2C2420" stroke-width="0.48" stroke-linecap="round" stroke-linejoin="round"/>
<path id="Vector_4" d="M29.9998 16.3632C35.5741 16.3632 40.093 14.8734 40.093 13.0356C40.093 11.1978 35.5741 9.70801 29.9998 9.70801C24.4254 9.70801 19.9066 11.1978 19.9066 13.0356C19.9066 14.8734 24.4254 16.3632 29.9998 16.3632Z" stroke="#2C2420" stroke-width="0.48" stroke-linecap="round" stroke-linejoin="round"/>
<path id="Vector_5" d="M21.2904 14.6597C20.6304 14.2553 20.2668 13.8197 20.2668 13.3985C20.2668 11.9945 24.264 10.4309 30 10.4309C35.736 10.4309 39.7332 11.9945 39.7332 13.3985C39.7332 13.6541 39.5988 13.9145 39.348 14.1701C40.4952 13.4933 40.0116 12.4469 39.6852 11.9513C39.1464 11.4809 38.3304 11.0597 37.2492 10.7033C35.3076 10.0637 32.7324 9.71094 30 9.71094C27.2676 9.71094 24.6924 10.0637 22.7508 10.7033C21.2988 11.1821 20.322 11.7773 19.8588 12.4529C19.9488 13.7489 20.748 14.3789 21.2916 14.6597H21.2904Z" fill="#2C2420"/>
<path id="Vector_6" d="M18.967 26.3857L15.2626 44.2297L20.9998 44.6821L22.7626 36.0985L26.2858 41.2933L29.8102 36.2785L31.549 45.2689L37.5346 45.5401L34.0786 26.9725L28.861 26.7913L26.3314 31.1293L23.8006 26.6113L18.967 26.3857Z" fill="#8CCEE7" stroke="#2C2420" stroke-width="0.36" stroke-linecap="round" stroke-linejoin="round"/>
<path id="Vector_7" d="M29.9565 20.8393C29.7933 20.8297 29.6277 20.8189 29.4597 20.8057" stroke="#B3DFEF" stroke-width="0.96" stroke-linecap="round" stroke-linejoin="round"/>
<path id="Vector_8" d="M40.4266 18.7959C40.4266 18.7959 38.1262 20.5743 32.995 20.8731" stroke="#B3DFEF" stroke-width="0.96" stroke-linecap="round" stroke-linejoin="round"/>
</g>
</svg>
