<svg width="60" height="60" viewBox="0 0 60 60" fill="none" xmlns="http://www.w3.org/2000/svg">
<g id="illustrations_food_deer">
<path id="Vector" d="M13.2492 21.5491C13.2492 21.5491 10.674 22.3171 9.63475 24.5755C8.59555 26.8339 9.04795 32.9779 9.04795 32.9779C9.04795 32.9779 9.04795 42.4195 9.09355 43.3687C9.13915 44.3179 10.404 46.9375 11.7144 47.7511C11.7144 47.7511 11.4888 51.2743 16.2768 51.9079C16.2768 51.9079 20.388 52.4047 22.104 50.3719L29.3328 51.6367C29.3328 51.6367 32.6304 52.1791 35.928 50.7331C39.2256 49.2871 44.9628 46.0795 44.9628 46.0795C44.9628 46.0795 47.4924 44.6791 48.216 42.3295C48.9396 39.9799 48.4872 36.2755 48.4872 36.2755V28.3699L53.682 15.3595C53.682 15.3595 50.2932 14.0047 45.234 15.4495C45.234 15.4495 42.5232 16.5787 41.2128 18.5671L30.642 16.9411C30.642 16.9411 27.4344 16.3087 24.0912 17.3479C20.748 18.3871 13.2492 21.5491 13.2492 21.5491Z" fill="#FFA16B"/>
<path id="Vector_2" d="M24.2547 36.4501C20.8071 37.2673 18.7659 41.1073 19.6959 45.0265C19.7127 45.0973 19.7319 45.1657 19.7499 45.2353L18.7275 45.6853L15.9147 45.8881L14.8983 45.3793L14.5299 44.5417C16.1211 43.7461 17.2239 42.0109 17.2239 39.9973C17.2239 37.2301 15.1407 34.9873 12.5703 34.9873C11.1507 34.9873 9.87985 35.6737 9.02545 36.7525L9.04585 41.4709C9.04585 41.4709 8.88865 43.3489 9.78505 45.3433C10.2411 46.1773 10.7283 46.8037 11.1075 47.2261C11.2551 47.3005 11.4723 47.4553 11.6367 47.7625C11.7267 47.8441 11.7795 47.8849 11.7795 47.8849C11.7795 47.8849 11.7699 47.9677 11.7747 48.1093C11.8239 48.2821 11.8551 48.4861 11.8623 48.7261C12.0915 49.6489 12.8871 51.0997 15.5751 51.8485C15.5751 51.8485 19.6743 52.7293 22.0803 50.3917L24.7911 50.8321L25.0095 50.6461C25.8555 50.8381 26.7399 50.8477 27.6183 50.6401C31.0659 49.8229 33.1071 45.9829 32.1771 42.0637C31.2483 38.1445 27.6999 35.6293 24.2535 36.4465L24.2547 36.4501Z" fill="#FFE0CE"/>
<path id="Vector_3" d="M19.1677 30.9913C19.8673 30.9913 20.4337 30.3397 20.4337 29.5357C20.4337 28.7317 19.8673 28.0801 19.1677 28.0801C18.4681 28.0801 17.9017 28.7317 17.9017 29.5357C17.9017 30.3397 18.4681 30.9913 19.1677 30.9913Z" fill="#FFE0CE"/>
<path id="Vector_4" d="M19.1677 36.4132C19.8673 36.4132 20.4337 35.7616 20.4337 34.9576C20.4337 34.1536 19.8673 33.502 19.1677 33.502C18.4681 33.502 17.9017 34.1536 17.9017 34.9576C17.9017 35.7616 18.4681 36.4132 19.1677 36.4132Z" fill="#FFE0CE"/>
<path id="Vector_5" d="M16.027 33.5323C16.7266 33.5323 17.293 32.8807 17.293 32.0767C17.293 31.2727 16.7266 30.6211 16.027 30.6211C15.3274 30.6211 14.761 31.2727 14.761 32.0767C14.761 32.8807 15.3274 33.5323 16.027 33.5323Z" fill="#FFE0CE"/>
<path id="Vector_6" d="M22.5783 33.8926C23.2779 33.8926 23.8443 33.241 23.8443 32.437C23.8443 31.633 23.2779 30.9814 22.5783 30.9814C21.8787 30.9814 21.3123 31.633 21.3123 32.437C21.3123 33.241 21.8787 33.8926 22.5783 33.8926Z" fill="#FFE0CE"/>
<path id="Vector_7" d="M54.0326 15.3263C54.0326 15.3263 50.8142 14.7839 48.6794 15.6311C46.5446 16.4783 44.783 17.1563 42.9194 20.1719L42.0386 22.8491L41.7674 24.3743V25.4243C41.7674 25.4243 41.1914 29.2535 44.7494 29.0495C48.3074 28.8467 50.4074 27.1523 50.4074 27.1523C50.4074 27.1523 53.423 24.7127 53.999 20.7143C54.575 16.7159 54.0326 15.3275 54.0326 15.3275V15.3263Z" fill="#FFE0CE"/>
<path id="Vector_8" d="M11.3402 18.1059C11.3402 18.1059 12.8306 22.1043 14.6606 23.1207C16.4906 24.1371 18.2186 23.4591 18.2186 23.4591C18.2186 23.4591 19.4378 23.0187 18.8618 21.7311L17.4722 17.9703C17.4722 17.9703 19.0646 16.3095 18.6914 14.8527C18.3182 13.3959 17.1326 13.7679 16.625 14.3439C16.625 14.3439 16.727 10.0071 16.2518 9.09275C15.7778 8.17835 14.0834 7.33115 12.389 9.19475C10.6946 11.0583 9.91583 13.9383 11.339 18.1059H11.3402Z" fill="#FFF3CC"/>
<path id="Vector_9" d="M31.5685 15.6316C31.5685 15.6316 30.5185 13.6324 29.0617 14.0392C27.6049 14.446 27.7741 17.1904 29.6041 19.054C29.6041 19.054 28.4857 21.7312 27.6385 22.612C26.7913 23.4928 26.9269 24.3736 28.6549 24.8488C30.3829 25.3228 33.1609 25.018 35.3977 22.0708C37.6345 19.1236 38.2441 16.2772 37.8373 13.6684C37.4305 11.0596 36.4141 9.02684 34.7881 8.62004C33.1621 8.21324 32.4505 9.36524 32.0101 11.0932C31.5697 12.8212 31.5697 15.634 31.5697 15.634L31.5685 15.6316Z" fill="#FFF3CC"/>
<path id="Vector_10" d="M16.5699 47.1963C18.3506 47.1963 19.7943 46.4672 19.7943 45.5679C19.7943 44.6685 18.3506 43.9395 16.5699 43.9395C14.7891 43.9395 13.3455 44.6685 13.3455 45.5679C13.3455 46.4672 14.7891 47.1963 16.5699 47.1963Z" fill="#2C2420"/>
<path id="Vector_11" d="M13.2181 21.5957L12.9361 21.7061C10.5733 22.6337 9.01935 24.9137 9.01935 27.4517V42.0881C9.01935 44.4137 10.0825 46.5209 11.7781 47.9093" stroke="#2C2420" stroke-width="0.48" stroke-linecap="round" stroke-linejoin="round"/>
<path id="Vector_12" d="M28.2312 16.8096C26.376 16.8072 24.5304 17.1528 22.7928 17.8356L18.0948 19.68" stroke="#2C2420" stroke-width="0.48" stroke-linecap="round" stroke-linejoin="round"/>
<path id="Vector_13" d="M41.2391 18.5212L37.5479 17.9932" stroke="#2C2420" stroke-width="0.48" stroke-linecap="round" stroke-linejoin="round"/>
<path id="Vector_14" d="M15.0793 44.3863C15.0793 44.3863 12.8653 44.8831 12.1201 46.7359C11.2753 48.8359 12.5137 51.3319 15.8473 51.8179C20.1841 52.4503 22.0189 50.4943 22.0189 50.4943L29.3725 51.5767C32.0005 51.9631 34.6837 51.5107 37.0381 50.2831L44.7985 46.2367C47.0689 45.0535 48.4921 42.7051 48.4921 40.1455V28.3711" stroke="#2C2420" stroke-width="0.48" stroke-linecap="round" stroke-linejoin="round"/>
<path id="Vector_15" d="M13.9248 43.316C14.461 43.316 14.8956 42.4054 14.8956 41.282C14.8956 40.1587 14.461 39.248 13.9248 39.248C13.3887 39.248 12.954 40.1587 12.954 41.282C12.954 42.4054 13.3887 43.316 13.9248 43.316Z" fill="#2C2420"/>
<path id="Vector_16" d="M24.6399 46.1256C25.2171 46.1256 25.6851 45.1457 25.6851 43.9368C25.6851 42.728 25.2171 41.748 24.6399 41.748C24.0626 41.748 23.5947 42.728 23.5947 43.9368C23.5947 45.1457 24.0626 46.1256 24.6399 46.1256Z" fill="#2C2420"/>
<path id="Vector_17" d="M44.7001 33.3542L45.5425 32.915" stroke="#2C2420" stroke-width="0.48" stroke-linecap="round" stroke-linejoin="round"/>
<path id="Vector_18" d="M44.7001 35.587L45.2845 35.2822" stroke="#2C2420" stroke-width="0.48" stroke-linecap="round" stroke-linejoin="round"/>
<path id="Vector_19" d="M44.7001 37.6513L45.1441 37.4209" stroke="#2C2420" stroke-width="0.48" stroke-linecap="round" stroke-linejoin="round"/>
<path id="Vector_20" d="M39.1801 23.9434C39.1801 23.9434 40.2193 11.9266 54.0889 15.4054C54.0889 15.4054 56.3473 29.2294 43.0201 29.455" stroke="#2C2420" stroke-width="0.48" stroke-linecap="round" stroke-linejoin="round"/>
<path id="Vector_21" d="M54.0887 15.4052C54.0887 15.4052 42.1619 12.92 41.5295 26.3384" stroke="#2C2420" stroke-width="0.48" stroke-linecap="round" stroke-linejoin="round"/>
<path id="Vector_22" d="M31.5684 16.6143C31.5684 16.6143 31.7844 11.8419 32.3136 10.1763C33.0252 7.93952 35.8824 7.54472 37.3728 11.6103C38.6952 15.2163 37.8144 20.3847 33.6912 23.7459C32.5632 24.6651 31.1316 25.1367 29.682 25.0191C28.7424 24.9435 27.7632 24.6915 27.2904 24.0291C27.0768 23.7303 27.0924 23.3247 27.312 23.0307C27.852 22.3071 29.0232 20.6439 29.6028 19.1091C29.6028 19.1091 27.2772 16.5915 28.3836 14.6823C29.1288 13.3947 30.8568 14.0043 31.5684 15.8007" stroke="#2C2420" stroke-width="0.48" stroke-linecap="round" stroke-linejoin="round"/>
<path id="Vector_23" d="M16.5923 14.3217C16.5923 14.3217 16.7615 10.2441 16.2191 9.1605C14.6435 6.0093 9.81591 10.0641 10.7639 15.5301C11.3771 19.0605 12.9131 21.2949 13.9235 22.4361C14.5787 23.1753 15.4799 23.6601 16.4627 23.7537C17.5031 23.8521 18.1859 23.5473 18.6047 23.2245C18.9707 22.9425 19.0919 22.4481 18.9011 22.0269C17.9519 19.9317 17.4947 18.0261 17.4947 18.0261C19.6631 15.4053 18.8051 13.9605 17.7203 13.8249C16.6355 13.6893 15.8231 15.5865 15.8231 15.5865" stroke="#2C2420" stroke-width="0.48" stroke-linecap="round" stroke-linejoin="round"/>
<path id="Vector_24" d="M11.8669 19.2773C11.1385 21.2117 11.1721 22.7477 11.1721 22.7477C11.5657 22.2497 12.2293 21.8429 13.0729 21.4685C12.5749 20.7785 12.1729 19.9889 11.8669 19.2785V19.2773Z" fill="#2C2420"/>
<path id="Vector_25" d="M25.6394 11.5654C21.6218 11.6206 18.7226 12.481 16.6262 13.7014C16.6886 14.1394 16.841 14.1406 16.841 14.1406C17.3834 13.5538 18.287 14.005 18.287 14.005C19.3718 14.7166 18.761 16.5118 18.0158 17.3254C17.2706 18.139 17.711 18.8158 17.711 18.8158L18.0326 19.7206C18.4526 19.5742 18.8774 19.4206 19.3046 19.2562C22.8278 17.9014 25.3022 17.0542 25.3022 17.0542C25.9118 14.6146 25.6406 11.5654 25.6406 11.5654H25.6394Z" fill="#2C2420"/>
</g>
</svg>
