<svg width="100" height="100" viewBox="0 0 100 100" fill="none" xmlns="http://www.w3.org/2000/svg">
<g id="illustrations_mascot_dog1 2">
<path id="Vector" d="M19.2203 55.2456L19.3703 64.2816C19.3703 64.2816 20.0483 68.7236 23.5123 70.6816C23.5123 70.6816 23.1363 75.2736 29.2343 77.5336C29.2343 77.5336 33.9783 78.2116 37.8923 77.3836C41.8063 76.5556 42.0343 77.8356 45.4963 78.6636C48.9603 79.4916 52.0463 79.7936 58.6723 77.7596C65.2983 75.7276 76.3663 68.6496 78.8503 65.4876C81.3343 62.3256 80.6583 52.6876 80.6583 52.6876C80.6583 52.6876 81.0343 38.9836 79.9063 36.8756C78.7763 34.7676 77.5723 32.2076 73.2043 30.4756C68.8363 28.7436 58.1463 23.9996 58.1463 23.9996C58.1463 23.9996 50.9943 21.8916 43.7643 23.8496C36.5363 25.8076 25.1663 31.7556 25.1663 31.7556C25.1663 31.7556 20.7243 33.7876 19.2943 39.9636L19.2183 55.2476L19.2203 55.2456Z" fill="white"/>
<path id="Vector_2" d="M41.884 74.748C41.884 74.748 38.646 77.986 33.828 77.76C33.828 77.76 32.85 82.3521 37.442 82.3521C42.034 82.3521 46.478 77.91 41.884 74.748Z" fill="#EE807F"/>
<path id="Vector_3" d="M44.0718 78.5055C49.3818 79.6855 53.3558 79.7095 59.5038 77.5315C63.1178 76.2515 69.2798 72.9975 72.2278 70.9055C78.7038 66.3135 80.2098 65.2575 80.5018 59.0555C80.7478 53.8795 80.5018 44.6995 80.5018 40.9235C80.5018 37.1475 79.0198 33.6495 74.7878 31.3755C71.3018 29.5015 61.8378 25.2775 58.2238 24.1475C51.5538 22.0635 46.0938 22.7275 39.7938 25.1575C36.1638 26.5575 28.5578 29.8695 25.3398 31.7135C20.9018 34.2535 19.3418 37.6355 19.3418 41.4275V62.9955C19.3418 66.3055 20.9158 69.0015 23.3578 70.7435" stroke="#2C2420" stroke-linecap="round" stroke-linejoin="round"/>
<path id="Vector_4" d="M42.1302 74.0317C42.1302 74.0317 40.7442 76.4837 36.6522 77.4757C32.9242 78.3797 28.1162 77.7437 25.7542 75.4437C21.2502 71.0557 24.9642 67.0857 24.9642 67.0857C24.9642 67.0857 26.4522 65.3737 27.7682 65.4857" stroke="#2C2420" stroke-linecap="round" stroke-linejoin="round"/>
<path id="Vector_5" d="M57.8101 53.8716V66.4196C57.8101 69.3236 59.4261 71.4236 63.2241 70.0896C64.9021 69.4996 71.3281 65.6196 72.7561 64.4396C75.2921 62.3476 76.6641 60.9476 76.7081 58.1136V43.7656" stroke="#2C2420" stroke-linecap="round" stroke-linejoin="round"/>
<path id="Vector_6" d="M37.7733 69.3922C38.0653 67.1623 35.3419 64.967 31.6904 64.4889C28.039 64.0108 24.8422 65.4308 24.5502 67.6607C24.2582 69.8906 26.9816 72.0858 30.633 72.564C34.2845 73.0421 37.4813 71.622 37.7733 69.3922Z" fill="#2C2420"/>
<path id="Vector_7" d="M33.8844 77.984C33.8844 77.984 32.9764 81.448 36.6144 82.238C40.6044 83.104 47.2304 78.7 41.7344 74.708" stroke="#2C2420" stroke-linecap="round" stroke-linejoin="round"/>
<path id="Vector_8" d="M38.3081 77.2695L38.9101 78.5495" stroke="#2C2420" stroke-linecap="round" stroke-linejoin="round"/>
<path id="Vector_9" d="M26.4718 62.9576C27.4648 62.9576 28.2698 61.4318 28.2698 59.5496C28.2698 57.6674 27.4648 56.1416 26.4718 56.1416C25.4788 56.1416 24.6738 57.6674 24.6738 59.5496C24.6738 61.4318 25.4788 62.9576 26.4718 62.9576Z" fill="#2C2420"/>
<path id="Vector_10" d="M43.71 70.0121C44.7803 70.0121 45.648 68.3672 45.648 66.3381C45.648 64.309 44.7803 62.6641 43.71 62.6641C42.6396 62.6641 41.772 64.309 41.772 66.3381C41.772 68.3672 42.6396 70.0121 43.71 70.0121Z" fill="#2C2420"/>
</g>
</svg>
