<svg width="100" height="100" viewBox="0 0 100 100" fill="none" xmlns="http://www.w3.org/2000/svg">
<rect width="100" height="100" rx="50" fill="#FFC400"/>
<path d="M20.3799 52.5238L20.5239 61.2238C20.5239 61.2238 21.1759 65.5038 24.5119 67.3878C24.5119 67.3878 24.1479 71.8118 30.0239 73.9878C30.0239 73.9878 34.5919 74.6398 38.3639 73.8438C42.1359 73.0478 42.3519 74.2798 45.6879 75.0758C49.0239 75.8718 51.9959 76.1638 58.3759 74.2038C64.7559 72.2478 75.4159 65.4318 77.8079 62.3838C80.1999 59.3398 79.5479 50.0558 79.5479 50.0558C79.5479 50.0558 79.9119 36.8598 78.8239 34.8278C77.7359 32.7958 76.5759 30.3318 72.3719 28.6638C68.1679 26.9958 57.8719 22.4278 57.8719 22.4278C57.8719 22.4278 50.9839 20.3958 44.0239 22.2838C37.0639 24.1678 26.1159 29.8958 26.1159 29.8958C26.1159 29.8958 21.8359 31.8518 20.4599 37.7998L20.3879 52.5198L20.3799 52.5238Z" fill="white"/>
<path d="M42.2077 71.3037C42.2077 71.3037 39.0917 74.4197 34.4477 74.2037C34.4477 74.2037 33.5037 78.6277 37.9277 78.6277C42.3517 78.6277 46.6277 74.3477 42.2077 71.3037Z" fill="#EE807F"/>
<path d="M44.3121 74.9237C49.4241 76.0597 53.2521 76.0837 59.1721 73.9877C62.6521 72.7557 68.5881 69.6197 71.4281 67.6077C77.6641 63.1837 79.1161 62.1677 79.3961 56.1957C79.6321 51.2117 79.3961 42.3717 79.3961 38.7357C79.3961 35.0997 77.9681 31.7317 73.8921 29.5397C70.5361 27.7357 61.4201 23.6677 57.9401 22.5797C51.5161 20.5717 46.2601 21.2117 40.1921 23.5517C36.6961 24.8997 29.3721 28.0917 26.2721 29.8637C22.0001 32.3117 20.4961 35.5677 20.4961 39.2197V59.9917C20.4961 63.1797 22.0121 65.7757 24.3641 67.4517" stroke="#2C2420" stroke-width="1.2" stroke-linecap="round" stroke-linejoin="round"/>
<path d="M42.4439 70.612C42.4439 70.612 41.1079 72.976 37.1679 73.928C33.5799 74.8 28.9479 74.188 26.6719 71.972C22.3359 67.748 25.9119 63.924 25.9119 63.924C25.9119 63.924 27.3439 62.276 28.6119 62.384" stroke="#2C2420" stroke-width="1.2" stroke-linecap="round" stroke-linejoin="round"/>
<path d="M57.5435 51.1998V63.2838C57.5435 66.0798 59.0995 68.1038 62.7555 66.8198C64.3715 66.2518 70.5595 62.5158 71.9355 61.3798C74.3755 59.3638 75.6995 58.0158 75.7395 55.2878V41.4678" stroke="#2C2420" stroke-width="1.2" stroke-linecap="round" stroke-linejoin="round"/>
<path d="M38.2481 66.1474C38.5292 64.0008 35.907 61.8874 32.3914 61.4271C28.8757 60.9667 25.7978 62.3337 25.5168 64.4804C25.2357 66.627 27.8578 68.7404 31.3735 69.2007C34.8891 69.6611 37.967 68.2941 38.2481 66.1474Z" fill="#2C2420"/>
<path d="M34.5041 74.4197C34.5041 74.4197 33.6281 77.7557 37.1321 78.5157C40.9761 79.3477 47.3561 75.1077 42.0641 71.2637" stroke="#2C2420" stroke-width="1.2" stroke-linecap="round" stroke-linejoin="round"/>
<path d="M38.7642 73.7324L39.3442 74.9644" stroke="#2C2420" stroke-width="1.2" stroke-linecap="round" stroke-linejoin="round"/>
<path d="M27.3638 59.9477C28.3204 59.9477 29.0958 58.4792 29.0958 56.6677C29.0958 54.8562 28.3204 53.3877 27.3638 53.3877C26.4073 53.3877 25.6318 54.8562 25.6318 56.6677C25.6318 58.4792 26.4073 59.9477 27.3638 59.9477Z" fill="#2C2420"/>
<path d="M43.9642 66.7441C44.9959 66.7441 45.8322 65.1591 45.8322 63.2041C45.8322 61.249 44.9959 59.6641 43.9642 59.6641C42.9325 59.6641 42.0962 61.249 42.0962 63.2041C42.0962 65.1591 42.9325 66.7441 43.9642 66.7441Z" fill="#2C2420"/>
</svg>
