<svg width="101" height="101" viewBox="0 0 101 101" fill="none" xmlns="http://www.w3.org/2000/svg">
<rect x="1" width="100" height="100" rx="50" fill="#40AED7"/>
<path d="M21.4559 55.408C21.4559 55.408 20.7799 61.5079 22.2839 64.6679C23.7879 67.8279 25.2199 67.832 25.2199 67.832C25.2199 67.832 24.7679 73.028 31.6959 74.608C38.6239 76.188 41.2599 72.952 41.2599 72.952C41.2599 72.952 42.9159 75.964 50.8959 76.188C58.8759 76.412 67.8359 71.22 72.5799 67.832C72.5799 67.832 77.6239 70.616 81.8399 66.024C86.0559 61.4319 86.0559 51.492 84.4759 44.488C82.8959 37.484 78.9799 31.9879 75.5919 30.7079C75.5919 30.7079 77.3999 28.4479 76.7959 26.3399C76.1919 24.2319 72.8039 24.0039 69.3399 27.3959C69.3399 27.3959 68.8119 22.7279 65.4239 22.1999C65.4239 22.1999 62.9399 21.8999 62.0359 24.3079C62.0359 24.3079 56.9159 20.8439 47.8039 21.9719C38.6919 23.0999 24.7639 32.288 24.7639 32.288C24.7639 32.288 18.8919 36.1279 17.9879 43.056C17.0839 49.9839 17.7639 54.048 21.4519 55.4039L21.4559 55.408Z" fill="#FFE799"/>
<path d="M43.1076 71.8037C43.1076 71.8037 39.9916 74.9197 35.3476 74.7037C35.3476 74.7037 34.4036 79.1277 38.8276 79.1277C43.2516 79.1277 47.5276 74.8477 43.1076 71.8037Z" fill="#EE807F"/>
<path d="M21.396 55.5566V60.4846C21.396 63.6726 22.912 66.2686 25.264 67.9446" stroke="#2C2420" stroke-width="1.2" stroke-linecap="round" stroke-linejoin="round"/>
<path d="M75.6599 30.5518C77.6879 31.8798 82.7039 35.8758 84.2519 43.7358C86.2079 53.6758 85.6839 65.3438 79.0559 68.1318C71.2199 71.4278 63.2439 62.4078 66.2559 45.6958" stroke="#2C2420" stroke-width="1.2" stroke-linecap="round" stroke-linejoin="round"/>
<path d="M57.068 54.2757C58.272 59.9237 55.788 65.3437 50.292 64.5157C46.08 63.8797 45.848 59.3197 45.848 59.3197C45.848 59.3197 43.816 62.2557 40.276 61.2037C37.072 60.2477 37.04 56.6117 37.04 56.6117C37.04 56.6117 35.384 59.1717 31.696 58.4957C28.008 57.8197 27.78 54.3557 27.78 54.3557C27.78 54.3557 25.372 56.3877 22.812 55.8597C19.236 55.1237 16.336 51.7677 18.068 42.5317C19.196 36.5077 23.792 32.8677 27.252 30.7117C30.284 28.8237 37.596 25.3997 41.092 24.0517C47.16 21.7117 52.416 21.0717 58.84 23.0797C59.644 23.3317 60.748 23.7397 62.012 24.2437" stroke="#2C2420" stroke-width="1.2" stroke-linecap="round" stroke-linejoin="round"/>
<path d="M45.2119 75.4234C50.3239 76.5594 54.1519 76.5834 60.0719 74.4874C63.5519 73.2554 69.4879 70.1194 72.3279 68.1074" stroke="#2C2420" stroke-width="1.2" stroke-linecap="round" stroke-linejoin="round"/>
<path d="M43.3438 71.112C43.3438 71.112 42.0078 73.476 38.0678 74.428C34.4798 75.3 29.8478 74.688 27.5718 72.472C23.2358 68.248 26.8118 64.424 26.8118 64.424C26.8118 64.424 28.2438 62.776 29.5118 62.884" stroke="#2C2420" stroke-width="1.2" stroke-linecap="round" stroke-linejoin="round"/>
<path d="M39.148 66.6474C39.4291 64.5008 36.8069 62.3874 33.2913 61.9271C29.7756 61.4667 26.6977 62.8337 26.4167 64.9804C26.1356 67.127 28.7577 69.2404 32.2734 69.7007C35.789 70.1611 38.8669 68.7941 39.148 66.6474Z" fill="#2C2420"/>
<path d="M35.404 74.9197C35.404 74.9197 34.528 78.2557 38.032 79.0157C41.876 79.8477 48.256 75.6077 42.964 71.7637" stroke="#2C2420" stroke-width="1.2" stroke-linecap="round" stroke-linejoin="round"/>
<path d="M39.6641 74.2324L40.2441 75.4644" stroke="#2C2420" stroke-width="1.2" stroke-linecap="round" stroke-linejoin="round"/>
<path d="M62.7163 28.6594C62.7163 28.6594 60.5123 24.7074 63.3363 22.6754C65.4643 21.1434 69.5483 23.2034 68.8723 28.0954C68.8723 28.0954 72.8643 23.7114 75.8163 25.0474C78.0323 26.0514 78.0203 31.9914 69.2643 32.6714" stroke="#2C2420" stroke-width="1.2" stroke-linecap="round" stroke-linejoin="round"/>
</svg>
