<svg width="101" height="101" viewBox="0 0 101 101" fill="none" xmlns="http://www.w3.org/2000/svg">
<rect x="1" width="100" height="100" rx="50" fill="#61C9A8"/>
<path d="M35.1358 72.5721C35.1358 72.5721 39.8798 79.9521 44.4718 82.7361C49.0638 85.5201 51.8518 82.1321 50.7958 79.1961C49.7398 76.2601 45.2998 71.9681 40.1798 70.9121C35.0598 69.8561 35.1358 72.5681 35.1358 72.5681V72.5721Z" fill="#EE807F"/>
<path d="M27.6078 69.6356C27.6078 69.6356 23.3918 67.9036 21.5838 63.3116C21.5838 63.3116 21.2838 59.3196 21.2078 53.6756C21.1318 48.0316 21.3598 40.3476 21.3598 40.3476C21.3598 40.3476 16.6918 36.6596 18.2718 29.5796C18.2718 29.5796 23.0158 30.2556 25.1998 31.9156C25.1998 31.9156 27.4598 29.5796 35.3638 26.1916C43.2678 22.8036 51.0238 20.6196 57.0478 22.5756C63.0718 24.5316 74.8918 30.1036 74.8918 30.1036C74.8918 30.1036 79.9358 32.3636 80.1638 38.9876C80.3918 45.6116 80.3878 54.4996 80.3878 54.4996C80.3878 54.4996 90.8518 52.9956 90.1758 39.8916C90.1758 39.8916 95.3718 45.3116 94.3918 51.1876C93.4118 57.0636 89.4238 61.3516 80.0118 58.6436C80.0118 58.6436 80.3118 62.3316 73.3118 67.0756C66.3118 71.8196 57.4998 75.1316 57.4998 75.1316C57.4998 75.1316 51.6278 76.5636 49.2158 76.0356C49.2158 76.0356 44.3958 72.0436 41.0838 71.2156C37.7718 70.3876 27.6078 69.6356 27.6078 69.6356Z" fill="#807C79"/>
<path d="M31.9363 59.3595C27.0043 60.6035 26.5523 64.1035 26.5523 64.1035C26.5523 64.1035 23.6923 67.0035 26.3443 71.2955C29.0003 75.5875 36.5043 75.3315 39.7283 73.5555C41.5723 72.5395 44.7363 70.4675 43.4163 65.4595C42.1403 60.6075 36.7083 58.1595 31.9323 59.3595H31.9363Z" fill="white"/>
<path d="M34.0841 53.9922C34.7761 53.7082 35.0321 52.7402 34.6601 51.8322C34.2841 50.9242 33.4201 50.4202 32.7281 50.7042C32.0361 50.9882 31.7801 51.9562 32.1521 52.8642C32.5241 53.7722 33.3921 54.2762 34.0841 53.9922Z" fill="white"/>
<path d="M42.6562 55.5529C43.4442 54.9649 43.7202 54.0049 43.2722 53.4049C42.8242 52.8049 41.8242 52.7929 41.0362 53.3809C40.2482 53.9689 39.9722 54.9289 40.4202 55.5289C40.8682 56.1289 41.8682 56.1409 42.6562 55.5529Z" fill="white"/>
<path d="M27.5035 40.7242C27.7035 35.2962 21.8115 34.7002 21.8115 34.7002C22.2075 40.8562 27.5035 40.7242 27.5035 40.7242Z" fill="white"/>
<path d="M50.6963 46.0725C58.4043 48.2565 60.6643 41.7045 60.6643 41.7045C52.9483 39.6365 50.6963 46.0725 50.6963 46.0725Z" fill="white"/>
<path d="M21.1963 40.1035V60.4875C21.1963 63.6755 22.7123 66.2715 25.0643 67.9475" stroke="#2C2420" stroke-width="1.2" stroke-linecap="round" stroke-linejoin="round"/>
<path d="M49.1641 76.1008C52.4882 76.4008 55.6481 75.9808 59.8761 74.4848C63.3561 73.2528 69.2921 70.1167 72.1321 68.1047C78.3681 63.6807 79.8201 62.6647 80.1001 56.6927C80.3361 51.7087 80.1001 42.8688 80.1001 39.2328C80.1001 35.5968 78.6721 32.2287 74.5961 30.0367C71.2401 28.2327 62.1241 24.1647 58.6441 23.0767C52.2201 21.0687 46.9641 21.7087 40.8961 24.0487C37.4001 25.3967 30.0761 28.5888 26.9761 30.3608C26.2161 30.7968 25.5441 31.2567 24.9521 31.7407" stroke="#2C2420" stroke-width="1.2" stroke-linecap="round" stroke-linejoin="round"/>
<path d="M43.1436 71.112C43.1436 71.112 41.8076 73.476 37.8676 74.428C34.2796 75.3 29.6476 74.688 27.3716 72.472C23.0356 68.248 26.6116 64.424 26.6116 64.424C26.6116 64.424 28.0436 62.776 29.3116 62.884" stroke="#2C2420" stroke-width="1.2" stroke-linecap="round" stroke-linejoin="round"/>
<path d="M39.6576 66.1579C39.9198 64.1558 37.1811 62.1464 33.5406 61.6697C29.9001 61.193 26.7363 62.4295 26.4742 64.4316C26.212 66.4336 28.9507 68.4431 32.5912 68.9198C36.2318 69.3965 39.3955 68.1599 39.6576 66.1579Z" fill="#2C2420"/>
<path d="M28.064 60.4477C29.0206 60.4477 29.796 58.9792 29.796 57.1677C29.796 55.3562 29.0206 53.8877 28.064 53.8877C27.1075 53.8877 26.332 55.3562 26.332 57.1677C26.332 58.9792 27.1075 60.4477 28.064 60.4477Z" fill="#2C2420"/>
<path d="M44.6639 67.2441C45.6956 67.2441 46.5319 65.6591 46.5319 63.7041C46.5319 61.749 45.6956 60.1641 44.6639 60.1641C43.6322 60.1641 42.7959 61.749 42.7959 63.7041C42.7959 65.6591 43.6322 67.2441 44.6639 67.2441Z" fill="#2C2420"/>
<path d="M42.864 71.7441C44.644 72.4481 49.28 75.0041 50.532 78.8161C52.304 84.2041 47.136 85.1601 42.816 81.6801C40.684 79.9641 38.196 76.7201 36.792 74.7921" stroke="#2C2420" stroke-width="1.2" stroke-linecap="round" stroke-linejoin="round"/>
<path d="M40.6318 73.5156C40.6318 73.5156 43.2278 75.5116 45.1478 77.6196" stroke="#2C2420" stroke-width="1.2" stroke-linecap="round" stroke-linejoin="round"/>
<path d="M80.1644 54.4279C80.1644 54.4279 90.5564 53.4479 90.0284 39.6719C90.0284 39.6719 97.9844 48.2159 92.6644 55.8599C88.5244 61.8079 80.0884 58.5719 80.0884 58.5719" stroke="#2C2420" stroke-width="1.2" stroke-linecap="round" stroke-linejoin="round"/>
<path d="M49.1001 43.0447C49.1001 43.0447 53.0681 33.0447 66.0841 37.9647C66.0841 37.9647 64.1801 49.7127 52.2721 48.6007" stroke="#2C2420" stroke-width="1.2" stroke-linecap="round" stroke-linejoin="round"/>
<path d="M25.7441 42.2639C25.7441 42.2639 16.5081 40.7719 18.0681 29.5439C18.0681 29.5439 28.0161 29.8999 29.2961 38.8519" stroke="#2C2420" stroke-width="1.2" stroke-linecap="round" stroke-linejoin="round"/>
</svg>
