<svg width="101" height="101" viewBox="0 0 101 101" fill="none" xmlns="http://www.w3.org/2000/svg">
<rect width="100" height="100" rx="50" fill="#EE807F"/>
<path d="M23.4723 32.5156C23.4723 32.5156 20.5363 33.8716 20.6123 45.0156C20.6883 56.1596 20.8363 61.3556 20.8363 61.3556C20.8363 61.3556 21.5123 65.7996 24.7523 67.9076C24.7523 67.9076 24.8283 72.5756 30.4763 74.3836C36.1243 76.1916 39.0603 74.0076 39.0603 74.0076C39.0603 74.0076 43.1243 75.8916 50.3563 76.1156C57.5883 76.3396 66.6203 71.0716 66.6203 71.0716C66.6203 71.0716 77.2363 65.7276 79.1203 60.8316C79.1203 60.8316 84.2403 62.7156 88.8323 59.0996C93.4243 55.4836 92.8243 50.7436 92.8243 50.7436L89.9083 52.4956L83.8643 47.4316C83.8643 47.4316 82.1323 55.1116 77.8403 55.3356C73.5483 55.5596 75.2043 39.0716 75.2043 39.0716L23.4763 32.5196" fill="#D5D3D2"/>
<path d="M84.8161 39.3879C81.8241 37.4119 83.5721 41.0239 83.9681 44.7519C84.3641 48.4799 82.1601 51.9799 81.0321 53.6759C80.6721 54.2159 80.1481 54.7199 79.6041 55.1479L79.7161 44.0359C79.7161 44.0359 79.7921 37.1079 78.4361 34.0199C77.0801 30.9319 70.6041 27.8439 65.6361 25.8119C60.6681 23.7799 53.7401 21.5199 49.2201 21.7479C44.7001 21.9759 33.7081 26.7159 33.7081 26.7159C33.2561 24.6839 30.1681 20.8439 30.1681 20.8439C28.0601 19.1879 27.3081 21.3719 27.3081 21.3719L25.3521 31.3879C22.4921 32.5159 21.5121 35.9799 21.5121 35.9799C20.3081 41.5519 26.2001 45.0359 31.0001 42.3799C34.7441 40.3119 39.4401 40.2199 42.6321 45.6559C45.6801 50.8519 52.7401 52.1719 57.5041 48.6319C59.9361 46.8239 61.6401 45.0319 63.4161 43.4559C65.4481 41.6479 68.8001 40.3439 71.2641 42.6079C74.7081 45.7719 71.4801 48.0199 72.6761 54.4679C73.4121 58.4199 77.7001 59.4359 79.3961 59.2679C87.2081 58.4879 89.9001 52.4919 89.9001 52.4919L90.4641 48.1439C91.0281 45.1519 87.8081 41.3679 84.8161 39.3919V39.3879Z" fill="#ABA7A6"/>
<path d="M28.3486 66.7196L25.5806 64.4036C25.5806 64.4036 28.5206 59.6356 32.9606 57.9676C37.0646 56.4236 38.9086 59.7356 38.5686 66.5516L28.3486 66.7196Z" fill="#ABA7A6"/>
<path d="M33.9404 26.7967C36.4124 25.7007 38.8644 24.6767 40.4924 24.0487C46.5604 21.7087 51.8164 21.0687 58.2404 23.0767C61.7204 24.1647 70.8364 28.2327 74.1924 30.0367C78.2684 32.2287 79.6964 35.5328 79.6964 39.2328C79.6964 42.9328 79.9324 51.7087 79.6964 56.6927C79.4124 62.6647 77.9644 63.6807 71.7284 68.1047C68.8884 70.1207 62.9564 73.2528 59.4724 74.4848C53.5524 76.5808 49.9964 76.6407 44.8524 75.6607C43.4364 75.3887 41.3884 74.9088 38.9804 74.1568" stroke="#2C2420" stroke-width="1.2" stroke-linecap="round" stroke-linejoin="round"/>
<path d="M24.6644 67.9479C22.3124 66.2719 20.7964 63.6719 20.7964 60.4879V39.7159C20.7964 36.3919 22.0404 33.3999 25.4844 31.0439" stroke="#2C2420" stroke-width="1.2" stroke-linecap="round" stroke-linejoin="round"/>
<path d="M42.7442 71.112C42.7442 71.112 41.4082 73.476 37.4682 74.428C33.8802 75.3 29.2482 74.688 26.9722 72.472C22.6362 68.248 26.2122 64.424 26.2122 64.424C26.2122 64.424 27.6442 62.776 28.9122 62.884" stroke="#2C2420" stroke-width="1.2" stroke-linecap="round" stroke-linejoin="round"/>
<path d="M38.5484 66.6474C38.8295 64.5008 36.2073 62.3874 32.6917 61.9271C29.176 61.4667 26.0981 62.8337 25.8171 64.9804C25.536 67.127 28.1581 69.2404 31.6738 69.7007C35.1894 70.1611 38.2673 68.7941 38.5484 66.6474Z" fill="#2C2420"/>
<path d="M27.6646 60.4477C28.6212 60.4477 29.3966 58.9792 29.3966 57.1677C29.3966 55.3562 28.6212 53.8877 27.6646 53.8877C26.7081 53.8877 25.9326 55.3562 25.9326 57.1677C25.9326 58.9792 26.7081 60.4477 27.6646 60.4477Z" fill="#2C2420"/>
<path d="M44.2645 67.2441C45.2962 67.2441 46.1325 65.6591 46.1325 63.7041C46.1325 61.749 45.2962 60.1641 44.2645 60.1641C43.2328 60.1641 42.3965 61.749 42.3965 63.7041C42.3965 65.6591 43.2328 67.2441 44.2645 67.2441Z" fill="#2C2420"/>
<path d="M36.4929 37.9959C36.4929 37.9959 35.7209 25.4399 29.2649 20.3319C28.6369 19.8319 27.6969 20.1599 27.4969 20.9359C26.9729 22.9399 26.0369 27.0719 25.0889 34.0439" stroke="#2C2420" stroke-width="1.2" stroke-linecap="round" stroke-linejoin="round"/>
<path d="M32.3447 36.4835C32.3447 36.4835 32.2567 30.8475 29.8807 28.1675C29.6807 27.9395 29.3047 28.0475 29.2527 28.3435C29.0407 29.5635 28.5847 32.2555 28.2007 34.8875" stroke="#2C2420" stroke-width="1.2" stroke-linecap="round" stroke-linejoin="round"/>
<path d="M53.3482 44.2124C53.3482 44.2124 52.5162 30.7004 45.5682 25.2004C44.8922 24.6644 43.8842 25.0164 43.6642 25.8524C43.1002 28.0084 42.0962 32.4564 41.0762 39.9604" stroke="#2C2420" stroke-width="1.2" stroke-linecap="round" stroke-linejoin="round"/>
<path d="M48.8848 42.5848C48.8848 42.5848 48.7888 36.5208 46.2328 33.6328C46.0168 33.3888 45.6128 33.5048 45.5568 33.8248C45.3288 35.1368 44.8368 38.0368 44.4248 40.8688" stroke="#2C2420" stroke-width="1.2" stroke-linecap="round" stroke-linejoin="round"/>
<path d="M79.9285 54.8272C82.2805 52.7472 85.5485 47.9952 82.9485 38.6152C82.9485 38.6152 93.3645 42.2872 89.6125 52.6392L92.7725 50.6392C92.7725 50.6392 93.7805 56.2432 88.3765 59.5552C84.5245 61.9152 80.8725 61.4832 79.0405 61.0152" stroke="#2C2420" stroke-width="1.2" stroke-linecap="round" stroke-linejoin="round"/>
</svg>
