<svg width="36" height="37" viewBox="0 0 36 37" fill="none" xmlns="http://www.w3.org/2000/svg">
<g clip-path="url(#clip0_1729_69691)">
<path d="M16.5 8.2627H19.5" stroke="#2C2420" stroke-width="3" stroke-linecap="round" stroke-linejoin="round"/>
<path d="M28.5 18.7627C27.4995 26.7622 25.0005 30.7627 21 30.7627H15C10.9995 30.7627 8.5005 26.7622 7.5 18.7627" stroke="#2C2420" stroke-width="3" stroke-linecap="round" stroke-linejoin="round"/>
<path d="M16.5 24.7627C16.5 25.7632 16.9995 26.2627 18 26.2627C19.0005 26.2627 19.5 25.7632 19.5 24.7627H16.5Z" stroke="#2C2420" stroke-width="3" stroke-linecap="round" stroke-linejoin="round"/>
<path d="M18 27.7627V30.7627" stroke="#2C2420" stroke-width="3" stroke-linecap="round" stroke-linejoin="round"/>
<path d="M15 17.2627V17.2777" stroke="#2C2420" stroke-width="3" stroke-linecap="round" stroke-linejoin="round"/>
<path d="M21 17.2627V17.2777" stroke="#2C2420" stroke-width="3" stroke-linecap="round" stroke-linejoin="round"/>
<path d="M7.50001 6.7627L16.5 8.21769L7.14301 18.2497C6.88016 18.5451 6.51323 18.7274 6.11901 18.7585C5.72479 18.7895 5.33385 18.6669 5.02801 18.4162C4.82059 18.2474 4.66467 18.0239 4.57797 17.7709C4.49126 17.5179 4.47724 17.2457 4.53751 16.9852L7.50001 6.7627Z" stroke="#2C2420" stroke-width="3" stroke-linecap="round" stroke-linejoin="round"/>
<path d="M28.5 6.7627L19.5 8.21769L28.857 18.2497C29.394 18.8617 30.3405 18.9367 30.972 18.4162C31.1794 18.2474 31.3353 18.0239 31.422 17.7709C31.5088 17.5179 31.5228 17.2457 31.4625 16.9852L28.5 6.7627Z" stroke="#2C2420" stroke-width="3" stroke-linecap="round" stroke-linejoin="round"/>
</g>
<defs>
<clipPath id="clip0_1729_69691">
<rect width="36" height="36" fill="white" transform="translate(0 0.762695)"/>
</clipPath>
</defs>
</svg>
