<svg width="240" height="180" viewBox="0 0 240 180" fill="none" xmlns="http://www.w3.org/2000/svg">
<path d="M36.8578 42.7461L17.2048 47.4891L38.0428 136.43L109.365 118.982L109.026 116.78L46.3438 124.571L36.8578 42.7461Z" fill="#D5D3D2"/>
<path d="M110.211 25.6348L36.0088 34.1068L46.8508 124.515L119.811 115.143L110.211 25.6348Z" fill="white"/>
<path d="M33.5309 53.1143L37.9919 52.0312" stroke="#2C2420" stroke-width="1.5" stroke-linecap="round" stroke-linejoin="round"/>
<path d="M28.9078 54.2376L29.9758 53.9766" stroke="#2C2420" stroke-width="1.5" stroke-linecap="round" stroke-linejoin="round"/>
<path d="M30.3629 60.3243L38.6219 58.3203" stroke="#2C2420" stroke-width="1.5" stroke-linecap="round" stroke-linejoin="round"/>
<path d="M37.8179 64.7095L39.4649 64.3105" stroke="#2C2420" stroke-width="1.5" stroke-linecap="round" stroke-linejoin="round"/>
<path d="M31.8029 66.1675L33.7829 65.6875" stroke="#2C2420" stroke-width="1.5" stroke-linecap="round" stroke-linejoin="round"/>
<path d="M33.0659 71.809L34.6769 71.416" stroke="#2C2420" stroke-width="1.5" stroke-linecap="round" stroke-linejoin="round"/>
<path d="M35.9609 83.7387L41.5259 82.3887" stroke="#2C2420" stroke-width="1.5" stroke-linecap="round" stroke-linejoin="round"/>
<path d="M37.2179 89.5948L42.2189 88.3828" stroke="#2C2420" stroke-width="1.5" stroke-linecap="round" stroke-linejoin="round"/>
<path d="M38.6698 95.6827L42.9808 94.6387" stroke="#2C2420" stroke-width="1.5" stroke-linecap="round" stroke-linejoin="round"/>
<path d="M40.1099 101.525L41.4239 101.207" stroke="#2C2420" stroke-width="1.5" stroke-linecap="round" stroke-linejoin="round"/>
<path d="M41.4508 107.468L44.3098 106.775" stroke="#2C2420" stroke-width="1.5" stroke-linecap="round" stroke-linejoin="round"/>
<path d="M44.3458 119.399L45.8608 119.033" stroke="#2C2420" stroke-width="1.5" stroke-linecap="round" stroke-linejoin="round"/>
<path d="M110.211 25.3828L36.0088 33.7678L46.6828 124.488L119.616 115.086L110.211 25.3828Z" stroke="#2C2420" stroke-width="1.5" stroke-linecap="round" stroke-linejoin="round"/>
<path d="M37.0379 42.7734L17.3129 47.2314L37.8539 136.238L109.317 118.907L108.846 116.738" stroke="#2C2420" stroke-width="1.5" stroke-linecap="round" stroke-linejoin="round"/>
<path d="M59.3729 41.1543L45.2849 42.7473" stroke="#2C2420" stroke-width="1.5" stroke-linecap="round" stroke-linejoin="round"/>
<path d="M66.3149 40.3711L65.0609 40.5121" stroke="#2C2420" stroke-width="1.5" stroke-linecap="round" stroke-linejoin="round"/>
<path d="M71.7958 39.75L70.7308 39.87" stroke="#2C2420" stroke-width="1.5" stroke-linecap="round" stroke-linejoin="round"/>
<path d="M79.1608 38.918L77.9338 39.056" stroke="#2C2420" stroke-width="1.5" stroke-linecap="round" stroke-linejoin="round"/>
<path d="M47.13 49.5L46.173 49.608" stroke="#2C2420" stroke-width="1.5" stroke-linecap="round" stroke-linejoin="round"/>
<path d="M51.6719 48.9863L50.9429 49.0673" stroke="#2C2420" stroke-width="1.5" stroke-linecap="round" stroke-linejoin="round"/>
<path d="M76.4849 46.1816L56.8409 48.4016" stroke="#2C2420" stroke-width="1.5" stroke-linecap="round" stroke-linejoin="round"/>
<path d="M82.4668 45.5078L81.2338 45.6458" stroke="#2C2420" stroke-width="1.5" stroke-linecap="round" stroke-linejoin="round"/>
<path d="M88.6169 44.8105L87.3419 44.9546" stroke="#2C2420" stroke-width="1.5" stroke-linecap="round" stroke-linejoin="round"/>
<path d="M94.4068 44.1562L93.0118 44.3123" stroke="#2C2420" stroke-width="1.5" stroke-linecap="round" stroke-linejoin="round"/>
<path d="M64.8839 54.1777L48.3119 56.0497" stroke="#2C2420" stroke-width="1.5" stroke-linecap="round" stroke-linejoin="round"/>
<path d="M72.2969 53.3398L70.9438 53.4898" stroke="#2C2420" stroke-width="1.5" stroke-linecap="round" stroke-linejoin="round"/>
<path d="M79.9289 52.4766L78.5249 52.6356" stroke="#2C2420" stroke-width="1.5" stroke-linecap="round" stroke-linejoin="round"/>
<path d="M87.216 51.6543L85.641 51.8313" stroke="#2C2420" stroke-width="1.5" stroke-linecap="round" stroke-linejoin="round"/>
<path d="M54.6479 66.8281L52.8329 67.0351" stroke="#2C2420" stroke-width="1.5" stroke-linecap="round" stroke-linejoin="round"/>
<path d="M61.8179 66.0176L60.4049 66.1796" stroke="#2C2420" stroke-width="1.5" stroke-linecap="round" stroke-linejoin="round"/>
<path d="M74.0128 64.6406L65.8258 65.5646" stroke="#2C2420" stroke-width="1.5" stroke-linecap="round" stroke-linejoin="round"/>
<path d="M70.7849 71.9668L48.6479 74.4688" stroke="#2C2420" stroke-width="1.5" stroke-linecap="round" stroke-linejoin="round"/>
<path d="M79.2059 71.0156L77.9069 71.1626" stroke="#2C2420" stroke-width="1.5" stroke-linecap="round" stroke-linejoin="round"/>
<path d="M86.0968 70.2363L84.8458 70.3773" stroke="#2C2420" stroke-width="1.5" stroke-linecap="round" stroke-linejoin="round"/>
<path d="M96.0929 69.1055L90.4349 69.7475" stroke="#2C2420" stroke-width="1.5" stroke-linecap="round" stroke-linejoin="round"/>
<path d="M56.1088 80.3105L52.8298 80.6795" stroke="#2C2420" stroke-width="1.5" stroke-linecap="round" stroke-linejoin="round"/>
<path d="M81.5699 77.4297L61.4069 79.7097" stroke="#2C2420" stroke-width="1.5" stroke-linecap="round" stroke-linejoin="round"/>
<path d="M96.4229 75.7539L90.2699 76.4499" stroke="#2C2420" stroke-width="1.5" stroke-linecap="round" stroke-linejoin="round"/>
<path d="M64.9707 86.041L51.9897 87.508" stroke="#2C2420" stroke-width="1.5" stroke-linecap="round" stroke-linejoin="round"/>
<path d="M74.3458 84.9805L71.5708 85.2955" stroke="#2C2420" stroke-width="1.5" stroke-linecap="round" stroke-linejoin="round"/>
<path d="M57.9748 98.6855L56.6788 98.8325" stroke="#2C2420" stroke-width="1.5" stroke-linecap="round" stroke-linejoin="round"/>
<path d="M64.2448 97.9766L62.7148 98.1506" stroke="#2C2420" stroke-width="1.5" stroke-linecap="round" stroke-linejoin="round"/>
<path d="M77.7359 96.4531L70.2239 97.3021" stroke="#2C2420" stroke-width="1.5" stroke-linecap="round" stroke-linejoin="round"/>
<path d="M86.268 95.4863L84.231 95.7173" stroke="#2C2420" stroke-width="1.5" stroke-linecap="round" stroke-linejoin="round"/>
<path d="M66.4888 104.686L53.5588 106.147" stroke="#2C2420" stroke-width="1.5" stroke-linecap="round" stroke-linejoin="round"/>
<path d="M72.2578 104.031L71.2378 104.148" stroke="#2C2420" stroke-width="1.5" stroke-linecap="round" stroke-linejoin="round"/>
<path d="M77.9039 103.395L76.8389 103.515" stroke="#2C2420" stroke-width="1.5" stroke-linecap="round" stroke-linejoin="round"/>
<path d="M92.5919 101.736L82.4219 102.885" stroke="#2C2420" stroke-width="1.5" stroke-linecap="round" stroke-linejoin="round"/>
<path d="M71.1209 110.844L52.7159 112.926" stroke="#2C2420" stroke-width="1.5" stroke-linecap="round" stroke-linejoin="round"/>
<path d="M77.5949 110.111L76.0319 110.288" stroke="#2C2420" stroke-width="1.5" stroke-linecap="round" stroke-linejoin="round"/>
<path d="M85.4339 109.227L84.1619 109.371" stroke="#2C2420" stroke-width="1.5" stroke-linecap="round" stroke-linejoin="round"/>
<path d="M208.752 60.2511C208.752 60.2511 210.108 58.9521 212.367 59.1591C213.27 59.2431 214.344 59.4561 215.301 60.4761C216.996 62.2821 216.306 65.8521 212.307 65.4441C208.974 65.1051 208.692 67.3641 208.692 67.3641" stroke="#2C2420" stroke-width="1.8" stroke-linecap="round" stroke-linejoin="round"/>
<path d="M207.51 72.1104C208.166 72.1104 208.698 71.5785 208.698 70.9224C208.698 70.2663 208.166 69.7344 207.51 69.7344C206.854 69.7344 206.322 70.2663 206.322 70.9224C206.322 71.5785 206.854 72.1104 207.51 72.1104Z" fill="#2C2420"/>
<path d="M217.605 75.1161C217.605 75.1161 219.288 74.2851 221.382 75.1611C222.216 75.5121 223.179 76.0371 223.785 77.3001C224.859 79.5321 223.128 82.7301 219.438 81.1401C216.363 79.8171 215.415 81.8871 215.415 81.8871" stroke="#2C2420" stroke-width="1.8" stroke-linecap="round" stroke-linejoin="round"/>
<path d="M213.213 86.1084C213.869 86.1084 214.401 85.5765 214.401 84.9204C214.401 84.2643 213.869 83.7324 213.213 83.7324C212.557 83.7324 212.025 84.2643 212.025 84.9204C212.025 85.5765 212.557 86.1084 213.213 86.1084Z" fill="#2C2420"/>
<path d="M228.375 118.119C227.268 104.694 215.982 105.744 214.956 112.644C214.062 118.644 215.865 123.915 210.504 127.962C208.059 129.81 204.762 129.804 201.957 129.282L199.662 137.28C199.41 138.153 199.095 138.996 198.729 139.812C219.723 144.876 229.389 130.416 228.375 118.119Z" fill="#2C2420"/>
<path d="M105.243 74.3697L96.8008 110.67C95.5918 115.869 96.7918 121.341 100.083 125.547C104.673 131.409 112.263 140.268 122.511 149.388C130.131 156.171 140.415 159.135 150.489 157.53C160.332 155.961 173.676 153.246 186.978 148.704C192.435 146.841 196.629 142.41 198.219 136.866L208.197 102.114C209.883 96.2397 208.413 89.9127 204.315 85.3797C198.54 78.9927 189.492 69.5787 179.487 61.3587C172.587 55.6887 163.662 53.0847 154.8 54.2037C146.493 55.2507 134.337 57.2787 118.278 61.2027C111.798 62.7867 106.755 67.8747 105.246 74.3697H105.243Z" fill="#2C2420"/>
<path d="M111.226 107.221C111.851 104.462 111.227 101.97 109.833 101.654C108.438 101.338 106.801 103.318 106.176 106.076C105.55 108.834 106.174 111.327 107.569 111.643C108.963 111.959 110.6 109.979 111.226 107.221Z" fill="#FFC400"/>
<path d="M137.382 130.155C137.833 127.184 136.982 124.59 135.48 124.362C133.977 124.134 132.394 126.357 131.942 129.329C131.491 132.3 132.342 134.894 133.845 135.122C135.347 135.35 136.93 133.127 137.382 130.155Z" fill="#FFC400"/>
<path d="M107.691 118.18C107.691 118.18 106.551 126.388 116.211 125.068C116.211 125.068 116.208 136.846 125.556 134.623" stroke="white" stroke-width="1.626" stroke-linecap="round" stroke-linejoin="round"/>
<path d="M110.679 83.7424C110.679 83.7424 113.895 79.6054 118.428 76.2874C120.015 75.1234 122.283 76.0774 122.58 78.0244C123.003 80.7934 123.525 84.9694 122.952 91.9204" stroke="white" stroke-width="1.626" stroke-linecap="round" stroke-linejoin="round"/>
<path d="M136.053 103.68C136.053 103.68 139.584 99.5519 143.883 96.4199C145.473 95.2619 148.026 96.0689 148.323 98.0159C148.746 100.785 148.965 106.335 148.287 114.354" stroke="white" stroke-width="1.626" stroke-linecap="round" stroke-linejoin="round"/>
<path d="M199.275 97.2773L188.649 99.3293" stroke="white" stroke-width="1.626" stroke-linecap="round" stroke-linejoin="round"/>
<path d="M203.559 96.4492L202.701 96.6142" stroke="white" stroke-width="1.626" stroke-linecap="round" stroke-linejoin="round"/>
<path d="M154.824 140.949C154.824 140.949 151.719 137.673 147.879 142.701C147.879 142.701 148.161 148.236 151.776 147.105C155.391 145.974 157.368 143.208 154.824 140.949Z" fill="#EE807F"/>
<path d="M107.049 154.557C107.049 154.557 103.266 156.42 103.041 158.001C102.816 159.582 103.098 159.525 106.089 159.807C109.083 160.089 112.584 159.639 112.641 157.605C112.698 155.571 111.795 150.207 107.049 154.557Z" fill="white"/>
<path d="M149.007 141.006C149.007 141.006 146.523 140.385 145.731 143.772C144.939 147.159 148.668 147.951 150.927 147.216L151.266 146.37C151.266 146.37 148.893 145.185 149.007 141.006Z" fill="white"/>
<path d="M147.03 141.684L109.083 153.204C109.083 153.204 108.63 158.4 111.567 159.642L148.839 147.669C148.839 147.669 145.791 145.071 147.033 141.684H147.03Z" fill="#40AED7"/>
<path d="M111.117 159.415C111.117 159.415 108.294 157.381 109.083 153.202L151.458 140.164C153.186 139.633 155.013 140.617 155.517 142.354C156.009 144.049 155.052 145.828 153.366 146.35L111.117 159.415Z" stroke="#2C2420" stroke-width="1.5" stroke-linecap="round" stroke-linejoin="round"/>
<path d="M109.083 153.203L98.8618 159.98L111.117 159.413" stroke="#2C2420" stroke-width="1.5" stroke-linecap="round" stroke-linejoin="round"/>
<path d="M104.508 156.252C104.508 156.252 103.491 159.018 106.314 159.81L100.47 160.092C100.47 160.092 96.7139 160.149 104.508 156.252Z" fill="#2C2420"/>
<path d="M149.601 140.922C149.601 140.922 148.416 144.648 151.635 146.766" stroke="#2C2420" stroke-width="1.5" stroke-linecap="round" stroke-linejoin="round"/>
<path d="M146.889 141.805C146.889 141.805 146.04 145.411 148.923 147.649" stroke="#2C2420" stroke-width="1.5" stroke-linecap="round" stroke-linejoin="round"/>
</svg>
