<svg width="100" height="100" viewBox="0 0 100 100" fill="none" xmlns="http://www.w3.org/2000/svg">
<g id="illustrations_noofcats_4 1">
<path id="Vector" d="M60.8281 42.4758C60.8281 42.4758 60.3001 44.1318 61.8441 46.5038C63.3881 48.8758 66.0601 52.3398 66.0601 52.3398L66.4741 52.8678C66.4741 52.8678 76.7901 55.2398 81.0061 55.4278C81.0061 55.4278 81.5701 56.5578 82.8881 56.6318C84.2061 56.7058 84.5821 55.7658 84.5821 55.7658C84.5821 55.7658 85.6361 56.8198 86.9541 55.9918C88.2721 55.1638 87.5181 53.8078 87.5181 53.8078C87.5181 53.8078 90.3421 53.7318 90.9061 51.3238C91.4701 48.9158 89.2881 48.5758 88.0821 49.2158C88.0821 49.2158 88.4581 47.7478 86.9521 47.2578C85.4461 46.7678 84.8061 48.4258 84.8061 48.4258C84.8061 48.4258 85.7481 45.9038 85.2581 42.9298C84.7681 39.9558 83.1121 35.6638 83.1121 35.6638C83.1121 35.6638 82.7361 33.5178 79.0081 32.5018C75.2801 31.4858 69.4081 30.9578 67.3381 31.2218C65.2681 31.4858 64.1001 33.8578 62.8961 36.2658C61.6921 38.6738 60.8261 42.4778 60.8261 42.4778L60.8281 42.4758Z" fill="#ABA7A6"/>
<path id="Vector_2" d="M65.3719 39.3832C65.6857 38.7032 65.6856 38.0345 65.3717 37.8896C65.0577 37.7448 64.5489 38.1786 64.2351 38.8586C63.9214 39.5386 63.9215 40.2073 64.2354 40.3521C64.5493 40.497 65.0582 40.0632 65.3719 39.3832Z" fill="#2C2420"/>
<path id="Vector_3" d="M74.2256 40.3217C74.4816 39.6179 74.4257 38.9516 74.1008 38.8334C73.7759 38.7152 73.305 39.1899 73.049 39.8937C72.793 40.5974 72.8488 41.2638 73.1737 41.382C73.4986 41.5002 73.9696 41.0254 74.2256 40.3217Z" fill="#2C2420"/>
<path id="Vector_4" d="M66.24 40.6279C66.24 40.6279 66.61 42.5039 68.538 41.1339C68.538 41.1339 69.654 43.0939 71.14 41.2359" stroke="#2C2420" stroke-width="0.466" stroke-linecap="round" stroke-linejoin="round"/>
<path id="Vector_5" d="M85.0718 47.9563C85.0718 47.9563 85.8638 46.9143 87.0538 47.2643C88.3378 47.6423 88.0278 49.2363 88.0278 49.2363C88.0278 49.2363 89.6798 48.2823 90.6678 49.5683C91.7038 50.9163 90.5558 53.6123 87.4258 53.8063C87.4258 53.8063 88.3138 55.4423 86.8018 56.1443C85.5498 56.7243 84.5858 55.7983 84.5858 55.7983C84.5858 55.7983 82.8498 57.8643 80.9878 55.5283" stroke="#2C2420" stroke-width="0.466" stroke-linecap="round" stroke-linejoin="round"/>
<path id="Vector_6" d="M66.55 52.9056C66.55 52.9056 63.64 49.7996 61.414 45.7596C60.72 44.4996 60.548 43.0136 60.952 41.6336C61.53 39.6576 62.694 36.3256 64.558 33.2196C65.312 31.9636 66.682 31.2096 68.148 31.2036C70.448 31.1936 74.796 31.3136 79.91 32.7896C81.468 33.2396 82.71 34.4196 83.272 35.9416C83.8 37.3716 84.426 39.6076 85.102 41.9756C85.472 43.2716 85.566 44.6316 85.37 45.9636C85.036 48.2236 84.226 51.9316 82.286 55.5036C82.286 55.5036 75.472 54.9396 66.55 52.9056Z" stroke="#2C2420" stroke-width="0.466" stroke-linecap="round" stroke-linejoin="round"/>
<path id="Vector_7" d="M72.2319 35.06C72.2319 35.06 73.1299 33.834 74.4399 32.962C74.9219 32.64 75.5019 32.642 75.8799 33.082C76.3079 33.584 76.7479 34.696 77.0179 35.964" stroke="#2C2420" stroke-width="0.466" stroke-linecap="round" stroke-linejoin="round"/>
<path id="Vector_8" d="M65.4321 34.2667C65.7361 33.8427 66.4841 32.7827 67.3541 32.1787C67.8021 31.8687 68.4061 31.9567 68.6401 32.4507C68.8741 32.9447 69.1121 33.6247 69.2541 34.5467" stroke="#2C2420" stroke-width="0.466" stroke-linecap="round" stroke-linejoin="round"/>
<path id="Vector_9" d="M80.968 35.916C80.738 36.648 80.422 37.576 80.01 38.628" stroke="#2C2420" stroke-width="0.3" stroke-linecap="round" stroke-linejoin="round"/>
<path id="Vector_10" d="M81.2501 34.9961C81.2361 35.0541 81.2161 35.1261 81.1941 35.2121" stroke="#2C2420" stroke-width="0.3" stroke-linecap="round" stroke-linejoin="round"/>
<path id="Vector_11" d="M18.5679 35.1434C18.5679 35.1434 18.7899 38.2754 22.5279 40.2214C26.2679 42.1654 29.5919 40.7454 29.5919 40.7454L28.0359 37.2034C28.0359 37.2034 25.2679 37.9714 24.1799 35.4134C23.0919 32.8574 24.9299 31.2694 22.6399 29.5134C22.6399 29.5134 20.6579 28.4214 19.0319 31.2094C19.0319 31.2094 18.0139 33.2714 18.5659 35.1434H18.5679Z" fill="white"/>
<path id="Vector_12" d="M26.7638 41.2582C23.7818 41.2362 20.1418 39.6562 18.8458 36.2062C17.8198 33.4762 18.8398 30.8522 19.9078 29.8922C20.7738 29.1142 22.2078 29.0082 23.0938 29.8382C24.6618 31.3082 23.1758 32.9062 24.1818 35.4122C24.5598 36.3542 25.7018 37.2082 26.9798 37.2002" stroke="#2C2420" stroke-width="0.466" stroke-miterlimit="10"/>
<path id="Vector_13" d="M25.614 41.1761C25.614 41.1761 25.182 43.8741 27.936 45.8601C30.69 47.8461 37.24 50.5961 37.24 50.5961C37.24 50.5961 40.146 51.8361 43.826 51.0421C47.506 50.2481 53.714 47.8681 53.714 47.8681C53.714 47.8681 56.582 46.5821 56.98 43.5781C57.376 40.5721 58.026 30.3581 58.026 30.3581C58.026 30.3581 57.79 27.6661 55.262 25.8801C52.734 24.0941 46.41 21.1801 46.41 21.1801C46.41 21.1801 41.976 19.6641 38.11 20.9001C34.242 22.1341 29.446 23.9621 29.446 23.9621C29.446 23.9621 27.102 24.7741 26.778 27.9981L26.02 36.9281L25.614 41.1781V41.1761Z" fill="white"/>
<path id="Vector_14" d="M26.7361 28.2497C26.8921 26.3217 27.7901 24.6617 30.0461 23.6957C31.9041 22.8997 36.9121 21.1737 38.8041 20.7577C42.2981 19.9897 45.0581 20.5497 48.1781 22.0317C49.9761 22.8857 53.7261 24.8637 55.2941 25.9237C57.4581 27.3837 58.1161 29.1457 57.9621 31.0477L56.9661 43.2877C56.8121 45.1917 55.8761 46.8217 53.5041 47.9137C51.7841 48.7037 47.7641 50.0517 45.8521 50.6017C42.5341 51.5597 39.7181 51.6657 36.3941 50.3417C34.5941 49.6237 29.9301 47.1097 28.2261 46.0257C26.1561 44.7077 25.5401 42.9237 25.6961 40.9957C25.8041 39.6657 26.6261 29.5817 26.7341 28.2517L26.7361 28.2497Z" stroke="#2C2420" stroke-width="0.466" stroke-miterlimit="10"/>
<path id="Vector_15" d="M32.634 29.3438L32.866 29.5017" stroke="#2C2420" stroke-width="0.308" stroke-linecap="round" stroke-linejoin="round"/>
<path id="Vector_16" d="M28.9321 26.8535L31.3201 28.4595" stroke="#2C2420" stroke-width="0.308" stroke-linecap="round" stroke-linejoin="round"/>
<path id="Vector_17" d="M55.634 34.2258C55.634 34.2258 55.214 32.6438 54.316 31.1358C54.002 30.6078 53.234 30.6038 52.91 31.1278C52.45 31.8718 51.79 33.0078 51.106 35.0778" stroke="#2C2420" stroke-width="0.494" stroke-linecap="round" stroke-linejoin="round"/>
<path id="Vector_18" d="M46.3259 36.4059C46.3259 36.4059 45.8159 34.7879 44.9619 33.3619C44.6459 32.8339 43.8139 32.7559 43.4899 33.2779C43.0299 34.0219 42.2899 35.5919 41.5039 37.9799" stroke="#2C2420" stroke-width="0.494" stroke-linecap="round" stroke-linejoin="round"/>
<path id="Vector_19" d="M46.9141 45.9604C46.9141 45.9604 48.4081 47.8924 49.9461 45.3384C49.9461 45.3384 51.6641 47.1064 52.4161 44.6064" stroke="#2C2420" stroke-width="0.494" stroke-linecap="round" stroke-linejoin="round"/>
<path id="Vector_20" d="M39.7839 43.7881C39.7839 43.7881 43.4779 42.4481 45.9299 44.3521" stroke="#2C2420" stroke-width="0.494" stroke-linecap="round" stroke-linejoin="round"/>
<path id="Vector_21" d="M52.7942 42.7603C52.7942 42.7603 54.6742 40.7463 57.0402 40.8183" stroke="#2C2420" stroke-width="0.494" stroke-linecap="round" stroke-linejoin="round"/>
<path id="Vector_22" d="M88.7002 61.4895C89.3782 59.4755 89.1942 57.4095 87.3362 55.4575C85.8082 53.8495 81.5022 49.9315 79.7722 48.6915C76.5802 46.3995 73.5502 45.7655 69.7582 45.9075C67.5742 45.9895 62.9302 46.3575 60.8882 46.7455C58.0722 47.2795 56.6422 48.7715 55.9722 50.7595L51.6642 63.5455C50.9942 65.5335 51.2302 67.5855 53.1502 69.7155C54.5422 71.2595 58.0162 74.3635 59.7062 75.7495C62.6402 78.1555 65.4362 79.4855 69.3642 79.5915C71.4922 79.6495 77.2902 79.1355 79.4802 78.7795C82.1402 78.3475 83.5382 76.8155 84.2162 74.8015C84.6842 73.4115 88.2322 62.8795 88.7002 61.4895Z" fill="#2C2420"/>
<path id="Vector_23" d="M94.3038 64.4363C93.6478 63.1983 92.1278 62.6343 90.9918 63.3363C88.9818 64.5783 90.1558 67.1922 88.6478 69.5042C88.0378 70.4382 87.1658 70.8243 86.1678 70.7183L84.6218 75.3063C87.5878 75.9183 91.6198 75.1723 93.5978 71.3623C95.0738 68.5183 95.0798 65.8983 94.3038 64.4363Z" fill="#2C2420"/>
<path id="Vector_24" d="M56.4599 62.5977C56.7671 61.6859 56.6428 60.821 56.1822 60.6659C55.7216 60.5107 55.0992 61.124 54.792 62.0357C54.4849 62.9474 54.6092 63.8123 55.0698 63.9675C55.5303 64.1227 56.1527 63.5094 56.4599 62.5977Z" fill="#FFC400"/>
<path id="Vector_25" d="M65.267 70.1024C65.5935 69.1331 65.4611 68.2136 64.9713 68.0485C64.4814 67.8834 63.8195 68.5354 63.4929 69.5047C63.1664 70.474 63.2987 71.3936 63.7886 71.5586C64.2785 71.7237 64.9404 71.0717 65.267 70.1024Z" fill="#FFC400"/>
<path id="Vector_26" d="M55.104 65.9102C55.104 65.9102 54.818 68.7142 58.086 68.1462C58.086 68.1462 58.232 72.1502 61.382 71.2782" stroke="white" stroke-width="0.554" stroke-linecap="round" stroke-linejoin="round"/>
<path id="Vector_27" d="M82.56 60.1924L82.26 60.2484" stroke="white" stroke-width="0.332" stroke-linecap="round" stroke-linejoin="round"/>
<path id="Vector_28" d="M87.3401 59.3223L84.2581 59.8843" stroke="white" stroke-width="0.332" stroke-linecap="round" stroke-linejoin="round"/>
<path id="Vector_29" d="M57.1282 54.4178C57.1282 54.4178 58.2362 53.0218 59.7922 51.9098C60.3362 51.5198 61.1042 51.8518 61.1982 52.5158C61.3322 53.4598 61.4962 54.8818 61.2762 57.2438" stroke="white" stroke-width="0.554" stroke-linecap="round" stroke-linejoin="round"/>
<path id="Vector_30" d="M65.4661 60.6559C65.4661 60.6559 66.6821 59.2639 68.1561 58.2139C68.7021 57.8259 69.5661 58.1099 69.6601 58.7719C69.7941 59.7159 69.8481 61.6039 69.5901 64.3299" stroke="white" stroke-width="0.554" stroke-linecap="round" stroke-linejoin="round"/>
<path id="Vector_31" d="M16.968 67.3463C16.968 67.3463 14.138 68.1983 12.308 66.5723C10.478 64.9463 10.872 62.8143 10.966 61.8303C11.06 60.8463 11.74 59.3743 10.348 58.0763C8.95804 56.7783 5.83604 57.8263 5.47804 61.9763C5.12004 66.1263 7.05004 69.5623 11.282 71.1683C11.282 71.1683 14.772 72.2643 17.888 71.3403L16.968 67.3483V67.3463Z" fill="#D5D3D2"/>
<path id="Vector_32" d="M6.31201 59.3602C6.31201 59.3602 6.47001 60.6002 8.33001 61.2182C10.254 61.8582 11.164 61.0082 11.164 61.0082C11.164 61.0082 11.89 59.0402 10.348 58.0182C8.80601 56.9982 6.84401 58.0242 6.31201 59.3602Z" fill="#ABA7A6"/>
<path id="Vector_33" d="M5.45996 62.3887C5.45996 62.3887 6.14596 63.6887 8.44196 63.7027C9.36396 63.7087 10.274 63.5747 10.738 62.7827L11.024 64.6587C11.024 64.6587 10.634 65.5107 9.22796 65.8127C8.42596 65.9847 6.90396 65.9667 5.77996 65.3207L5.45996 62.3887Z" fill="#ABA7A6"/>
<path id="Vector_34" d="M11.7259 66.0039C11.7259 66.0039 11.4719 68.6879 7.27393 68.1099C7.27393 68.1099 8.49393 69.6839 9.74393 70.4659C9.74393 70.4659 13.1899 69.996 12.7059 66.926L11.7239 66.002L11.7259 66.0039Z" fill="#ABA7A6"/>
<path id="Vector_35" d="M14.4999 67.5621C14.4999 67.5621 15.8519 69.8741 13.4419 71.5341C13.4419 71.5341 16.0259 71.9441 17.4019 71.4341C18.7779 70.9221 18.1199 67.4781 16.4559 67.4141L14.4999 67.5641V67.5621Z" fill="#ABA7A6"/>
<path id="Vector_36" d="M16.4539 67.4862C16.4539 67.4862 12.9979 68.1822 11.5179 65.5622C9.8779 62.6622 11.9459 60.3422 10.9899 58.7602C9.7079 56.6382 5.9879 57.1442 5.4779 61.9742C5.0019 66.4762 8.1059 72.8882 17.3159 71.4742" stroke="#2C2420" stroke-width="0.494" stroke-linecap="round" stroke-linejoin="round"/>
<path id="Vector_37" d="M14.744 59.2475L15.732 71.4435C15.732 71.4435 15.598 74.9295 18.468 76.3215C21.338 77.7135 30.292 80.5375 30.292 80.5375C30.292 80.5375 33.172 81.5875 36.214 80.4355C39.256 79.2835 45.868 75.1215 45.868 75.1215C45.868 75.1215 49.256 72.6555 49.66 71.1135C50.064 69.5695 49.644 67.6395 49.644 67.6395L48.784 56.0755C48.784 56.0755 48.674 52.3835 44.764 50.7355C40.854 49.0875 33.946 46.9855 33.946 46.9855C33.946 46.9855 30.032 46.0755 26.274 48.1535C22.514 50.2335 19.678 51.5955 17.512 53.2815C15.344 54.9675 14.432 57.2315 14.746 59.2475H14.744Z" fill="#D5D3D2"/>
<path id="Vector_38" d="M33.9438 46.9863C33.2498 47.3043 32.5078 47.6563 31.7318 48.0363C26.4518 50.6263 22.3618 53.2303 19.5778 55.7743C18.2778 56.9623 17.6118 58.6303 17.7498 60.3503L18.5738 70.5243C18.6238 71.1303 19.1538 71.5803 19.7598 71.5323C20.3658 71.4823 20.8158 70.9523 20.7678 70.3463L19.9438 60.1723C19.8598 59.1343 20.2678 58.1243 21.0618 57.3983C25.7118 53.1483 33.5438 49.5083 37.3678 47.8783C36.2858 47.4663 34.8538 47.1583 33.9418 46.9863H33.9438Z" fill="#ABA7A6"/>
<path id="Vector_39" d="M39.336 48.708C38.534 49.072 37.656 49.484 36.73 49.938C31.45 52.528 27.36 55.132 24.576 57.676C23.276 58.864 22.61 60.532 22.75 62.252L23.574 72.426C23.624 73.032 24.154 73.482 24.76 73.434C25.366 73.386 25.816 72.854 25.768 72.248L24.944 62.074C24.86 61.036 25.268 60.026 26.062 59.3C30.664 55.094 38.384 51.486 42.25 49.832C41.284 49.47 40.222 49.064 39.338 48.708H39.336Z" fill="#ABA7A6"/>
<path id="Vector_40" d="M49.7958 69.5247C49.8878 70.7927 49.4558 72.0667 48.5418 72.9507C48.4838 73.0067 48.4218 73.0627 48.3598 73.1167C44.5678 76.3867 40.0618 78.7487 37.0938 80.1027C35.0578 81.0327 32.7578 81.1987 30.5998 80.6067C25.5058 79.2067 21.5138 77.6407 19.0198 76.5487C17.2278 75.7647 16.0138 74.0607 15.8558 72.1107L14.7998 59.0707C14.6218 56.8787 15.5858 54.7467 17.3518 53.4367C20.6818 50.9647 24.3818 49.0527 27.0658 47.8207C29.5578 46.6787 32.3778 46.4707 35.0138 47.2227C38.8558 48.3187 42.4958 49.8127 45.0178 50.9467C47.1418 51.9027 48.5778 53.9347 48.7658 56.2567L49.4298 64.4467L49.7958 69.5247Z" stroke="#2C2420" stroke-width="0.466" stroke-miterlimit="10"/>
<path id="Vector_41" d="M35.9893 74.45C36.5497 74.4046 36.9262 73.4075 36.8303 72.2228C36.7343 71.0382 36.2023 70.1146 35.6419 70.16C35.0815 70.2054 34.705 71.2025 34.8009 72.3872C34.8968 73.5718 35.4289 74.4954 35.9893 74.45Z" fill="#2C2420"/>
<path id="Vector_42" d="M45.7098 68.5291C46.2701 68.4837 46.6467 67.4866 46.5507 66.3019C46.4548 65.1173 45.9227 64.1937 45.3623 64.2391C44.8019 64.2845 44.4254 65.2816 44.5214 66.4663C44.6173 67.6509 45.1494 68.5745 45.7098 68.5291Z" fill="#2C2420"/>
<path id="Vector_43" d="M38.4622 73.2223C38.4622 73.2223 40.8542 75.3403 41.7942 71.3923C41.7942 71.3923 44.5062 73.0663 44.5462 69.8643" stroke="#2C2420" stroke-width="0.494" stroke-linecap="round" stroke-linejoin="round"/>
<path id="Vector_44" d="M41.5378 57.8142C41.5378 57.8142 42.2858 59.2062 43.8218 60.0742C44.4378 60.4222 45.2178 60.1442 45.4938 59.4942C45.8598 58.6342 46.1678 57.2402 45.6978 55.3242" stroke="#2C2420" stroke-width="0.494" stroke-linecap="round" stroke-linejoin="round"/>
<path id="Vector_45" d="M31.1021 64.0544C31.1021 64.0544 31.8501 65.4465 33.3861 66.3145C34.0021 66.6625 34.7821 66.3845 35.0581 65.7345C35.4241 64.8745 35.7321 63.4805 35.2621 61.5645" stroke="#2C2420" stroke-width="0.494" stroke-linecap="round" stroke-linejoin="round"/>
<path id="Vector_46" d="M20.74 46.8739C20.74 46.8739 17.766 48.0339 13.97 47.7499C9.89196 47.4439 9.59996 43.6899 14.722 43.8739C14.722 43.8739 11.65 41.2759 12.972 39.6419C14.164 38.1679 17.934 39.8139 20.742 46.8739H20.74Z" fill="#EE807F"/>
<path id="Vector_47" d="M62.936 28.3904C62.936 28.3904 60.578 25.5004 60.336 21.9964C60.086 18.3904 63.972 17.9604 64.49 22.4904C64.49 22.4904 66.558 20.2944 67.996 21.5224C69.844 23.1004 67.96 26.4064 62.936 28.3924V28.3904Z" fill="#EE807F"/>
</g>
</svg>
