<svg width="100" height="100" viewBox="0 0 100 100" fill="none" xmlns="http://www.w3.org/2000/svg">
<g id="illustrations_noofdogs_4">
<path id="Vector" d="M63.3858 25.0841C63.3858 25.0841 61.6078 22.3361 61.6358 19.2581C61.6638 16.1801 64.4598 16.3961 64.6858 20.0481C64.6858 20.0481 66.6618 17.5641 68.1298 19.2001C69.3238 20.5321 66.7458 23.5761 63.3858 25.0821V25.0841Z" fill="#EE807F"/>
<path id="Vector_2" d="M15.04 46.5636C15.04 46.5636 12.384 47.3996 9.70596 47.2896C6.64796 47.1616 5.78196 43.7816 9.99196 43.7116C9.99196 43.7116 7.95396 40.6576 9.54996 39.8196C11.142 38.9836 13.996 41.9216 15.04 46.5636Z" fill="#EE807F"/>
<path id="Vector_3" d="M65.2701 50.5757C65.2701 50.5757 62.6201 48.0897 62.2381 46.4097C61.8561 44.7297 62.2601 42.9337 63.4521 41.0737C64.6441 39.2137 67.4101 34.4897 67.4101 34.4897C67.4101 34.4897 64.6721 32.5717 65.7741 28.5957C65.7741 28.5957 69.6441 29.8717 70.3681 32.9497C70.3681 32.9497 71.8101 32.2937 75.9761 33.8977C80.1421 35.4997 82.1741 36.7417 82.1741 36.7417C82.1741 36.7417 86.3581 35.4317 89.4641 38.0417C89.4641 38.0417 88.1641 40.0477 85.7281 40.5757C85.7281 40.5757 87.4281 44.0077 87.7401 45.3497C88.0521 46.6917 88.0901 49.5737 85.6081 52.9857C85.6081 52.9857 86.5821 53.9337 88.9081 53.4957C91.2341 53.0577 92.0961 50.7317 92.0961 50.7317C92.0961 50.7317 93.8621 53.7077 91.3001 55.9097C88.7381 58.1097 85.2401 55.6037 84.7341 54.3537L82.6281 56.6757L67.3521 53.0317L65.2681 50.5777L65.2701 50.5757Z" fill="#807C79"/>
<path id="Vector_4" d="M70.9261 39.0742C71.2741 38.9862 71.4721 38.5842 71.3681 38.1782C71.2641 37.7722 70.8981 37.5142 70.5521 37.6022C70.2061 37.6902 70.0061 38.0922 70.1101 38.4982C70.2141 38.9042 70.5801 39.1622 70.9261 39.0742Z" fill="white"/>
<path id="Vector_5" d="M73.1061 38.8254C72.7241 38.9974 72.5321 39.4014 72.6781 39.7294C72.8241 40.0574 73.2541 40.1814 73.6381 40.0094C74.0221 39.8374 74.2121 39.4334 74.0661 39.1054C73.9181 38.7774 73.4901 38.6534 73.1061 38.8254Z" fill="white"/>
<path id="Vector_6" d="M69.768 40.304C67.756 40.39 67.4 41.78 67.4 41.78C67.4 41.78 65.55 42.594 65.964 43.914C66.378 45.234 68.102 46.348 70.48 45.982C72.858 45.616 72.722 44.21 72.722 44.21C73.414 41.882 71.766 40.218 69.766 40.304H69.768Z" fill="white"/>
<path id="Vector_7" d="M69.3599 34.2735C69.6959 31.9975 67.2919 31.2715 67.2919 31.2715C67.1039 33.9355 69.3599 34.2735 69.3599 34.2735Z" fill="white"/>
<path id="Vector_8" d="M81.834 38.6554C84.022 40.7854 86.268 38.6234 86.268 38.6234C83.596 36.9254 81.834 38.6554 81.834 38.6554Z" fill="white"/>
<path id="Vector_9" d="M93.5998 57.5059C93.5998 57.5059 93.1858 59.7099 90.1538 59.3119" stroke="#2C2420" stroke-width="0.4" stroke-linecap="round" stroke-linejoin="round"/>
<path id="Vector_10" d="M91.9741 61.3417C91.9741 61.3417 93.3801 61.6397 94.0441 60.3857" stroke="#2C2420" stroke-width="0.4" stroke-linecap="round" stroke-linejoin="round"/>
<path id="Vector_11" d="M75.909 43.8629C76.1529 43.1339 76.0408 42.4392 75.6584 42.3112C75.2761 42.1833 74.7684 42.6706 74.5245 43.3997C74.2805 44.1287 74.3927 44.8234 74.775 44.9514C75.1574 45.0793 75.6651 44.592 75.909 43.8629Z" fill="#2C2420"/>
<path id="Vector_12" d="M68.1258 40.5436C68.3697 39.8145 68.2575 39.1198 67.8752 38.9919C67.4929 38.864 66.9852 39.3513 66.7412 40.0803C66.4973 40.8094 66.6095 41.5041 66.9918 41.632C67.3742 41.7599 67.8819 41.2726 68.1258 40.5436Z" fill="#2C2420"/>
<path id="Vector_13" d="M85.6699 40.7041C86.1579 41.6181 86.7079 42.7101 87.2419 43.9061C88.1559 45.9501 88.1419 48.2941 87.1779 50.3161C86.0859 52.6081 84.3399 55.5061 82.0259 56.9081" stroke="#2C2420" stroke-width="0.604" stroke-linecap="round" stroke-linejoin="round"/>
<path id="Vector_14" d="M70.4661 32.8242C71.0001 32.7482 71.5541 32.7642 72.1021 32.8762C74.5561 33.3822 78.1341 34.4282 81.9041 36.5822C82.0201 36.6482 82.1361 36.7182 82.2481 36.7902" stroke="#2C2420" stroke-width="0.604" stroke-linecap="round" stroke-linejoin="round"/>
<path id="Vector_15" d="M68.8439 53.5498C68.8439 53.5498 65.5499 50.6038 63.2739 48.2538C62.0379 46.9778 61.6979 45.0838 62.4099 43.4578C63.2459 41.5498 64.7019 38.6578 67.1299 34.9398C67.2279 34.7898 67.3339 34.6458 67.4479 34.5098" stroke="#2C2420" stroke-width="0.604" stroke-linecap="round" stroke-linejoin="round"/>
<path id="Vector_16" d="M84.782 54.4135C84.782 54.4135 86.162 56.7295 88.946 56.6475C91.768 56.5655 93.546 54.0775 92.152 50.5195C92.152 50.5195 90.35 55.0815 85.598 53.2495" stroke="#2C2420" stroke-width="0.604" stroke-linecap="round" stroke-linejoin="round"/>
<path id="Vector_17" d="M68.656 35.0177C68.656 35.0177 64.732 34.0177 65.738 28.4717C65.738 28.4717 70.436 29.9297 70.542 34.1817" stroke="#2C2420" stroke-width="0.604" stroke-linecap="round" stroke-linejoin="round"/>
<path id="Vector_18" d="M80.9661 37.3942C80.9661 37.3942 85.0361 34.7702 89.6221 38.0042C89.6221 38.0042 85.2761 43.0122 81.1741 39.6082" stroke="#2C2420" stroke-width="0.604" stroke-linecap="round" stroke-linejoin="round"/>
<path id="Vector_19" d="M25.756 39.6164C25.756 39.6164 20.706 37.7564 21.822 29.9704C21.822 29.9704 18.918 31.3044 18.146 34.0864C17.372 36.8664 19.132 39.4004 19.132 39.4004L16.886 38.8824C16.886 38.8824 17.234 42.5124 21.106 43.6104C24.978 44.7084 26.472 42.9624 26.472 42.9624C26.472 42.9624 26.744 46.0624 30.174 48.0504C33.604 50.0364 39.45 52.7044 39.45 52.7044C39.45 52.7044 41.882 54.0004 45.018 52.6944C48.154 51.3884 52.52 49.2944 52.52 49.2944C52.52 49.2944 56.102 49.3184 57.792 47.5024C59.482 45.6864 59.006 44.5884 59.006 44.5884C59.006 44.5884 61.312 43.1324 60.75 39.3344C60.188 35.5364 58.606 25.9504 58.606 25.9504C58.606 25.9504 57.126 22.6984 54.984 21.7224L53.65 17.6864C53.65 17.6864 53.272 16.5544 52.064 17.9124L50.832 19.8344L44.37 17.9404C44.37 17.9404 41.386 17.2824 37.64 18.5604C33.894 19.8364 26.756 24.8384 26.756 24.8384C26.756 24.8384 23.59 27.8864 24.42 31.8104L25.752 39.6204L25.756 39.6164Z" fill="#D5D3D2"/>
<path id="Vector_20" d="M56.4181 22.8422L54.9901 21.6882L53.5601 17.5462C53.5601 17.5462 52.7981 16.8522 52.1281 17.6822C51.4581 18.5102 50.8741 19.9162 50.8741 19.9162C50.8741 19.9162 44.8061 17.6462 41.9561 17.7922C39.1061 17.9382 35.0581 19.8842 35.0581 19.8842C35.0581 19.8842 30.0321 22.3362 27.3881 24.3642C24.7441 26.3922 23.9341 29.0902 24.4021 31.6322C24.8701 34.1762 25.7321 39.0962 25.7321 39.0962C25.7321 39.0962 25.7501 39.3742 25.6781 39.6862C25.1441 39.4222 22.8881 38.1622 22.1141 35.4102C21.2321 32.2802 21.6421 30.1382 21.6421 30.1382C21.6421 30.1382 19.8361 30.8082 18.7881 32.5882C17.7401 34.3682 17.9041 36.6282 17.9041 36.6282L18.8781 39.3922C18.8781 39.3922 20.9781 42.3922 26.2261 41.5642L26.1961 41.4342C26.6061 41.5902 27.1181 41.6962 27.7381 41.6742C29.6961 41.6042 30.9821 39.6282 30.4761 37.6462C29.9261 35.4902 30.1681 33.0782 32.3121 32.7802C34.3381 32.5002 34.8241 34.3222 36.4641 35.5342C38.4341 36.9902 41.9281 37.8542 44.7821 35.6642C47.0101 33.9542 46.1461 31.5582 49.0761 30.2582C51.9021 29.0042 53.5721 32.2142 56.8061 30.3142C59.0121 29.0182 58.8321 24.9382 56.4221 22.8442L56.4181 22.8422Z" fill="#ABA7A6"/>
<path id="Vector_21" d="M55.574 43.1881C55.588 43.0721 57.654 42.0341 57.654 42.0341C57.654 42.0341 56.192 40.5301 53.648 39.7401C51.104 38.9501 48.632 39.6781 50.808 44.9041L55.576 43.1901L55.574 43.1881Z" fill="#ABA7A6"/>
<path id="Vector_22" d="M48.3579 47.1201C48.3579 47.1201 48.8519 48.7981 52.0719 49.2481C54.4659 49.5841 57.1899 48.6581 58.1759 47.0761C60.0059 44.1441 57.7139 42.4221 57.7139 42.4221C57.7139 42.4221 56.7339 41.5921 56.0059 41.7701" stroke="#2C2420" stroke-width="0.604" stroke-linecap="round" stroke-linejoin="round"/>
<path id="Vector_23" d="M55.0161 45.9776C57.0182 45.394 58.3523 43.9297 57.9959 42.7071C57.6395 41.4844 55.7276 40.9662 53.7255 41.5498C51.7234 42.1334 50.3892 43.5976 50.7456 44.8203C51.102 46.043 53.0139 46.5611 55.0161 45.9776Z" fill="#2C2420"/>
<path id="Vector_24" d="M56.2439 40.8247C56.8046 40.7831 57.195 39.8876 57.1161 38.8246C57.0371 37.7616 56.5185 36.9337 55.9578 36.9753C55.3971 37.017 55.0067 37.9125 55.0857 38.9755C55.1646 40.0385 55.6832 40.8664 56.2439 40.8247Z" fill="#2C2420"/>
<path id="Vector_25" d="M46.8066 45.532C47.4113 45.4871 47.8326 44.522 47.7474 43.3764C47.6623 42.2308 47.103 41.3385 46.4983 41.3835C45.8936 41.4284 45.4723 42.3935 45.5575 43.5391C45.6426 44.6847 46.2019 45.577 46.8066 45.532Z" fill="#2C2420"/>
<path id="Vector_26" d="M50.8122 19.8818C49.3022 19.3298 47.5562 18.7658 45.5762 18.2298C43.1442 17.5718 40.5662 17.6858 38.2042 18.5638C35.3342 19.6318 31.2562 21.4558 27.5322 24.2398C25.1942 25.9878 23.9922 28.8718 24.3842 31.7638C24.7702 34.6238 25.4562 38.6998 26.6442 43.3958C27.0942 45.1738 28.2122 46.7078 29.7682 47.6738C31.8182 48.9478 35.0882 50.8238 39.2142 52.6718C41.1182 53.5238 43.2902 53.5538 45.2182 52.7598C47.1462 51.9658 49.7682 50.7918 52.4242 49.3058" stroke="#2C2420" stroke-width="0.604" stroke-linecap="round" stroke-linejoin="round"/>
<path id="Vector_27" d="M58.9121 44.7861C58.9121 44.7861 58.9301 44.7701 58.9381 44.7621C60.3621 43.4901 61.0541 41.5921 60.8001 39.7001C60.4101 36.8001 59.7421 32.0521 58.9801 27.5701C58.5581 25.0961 57.0821 22.9481 54.9661 21.6641" stroke="#2C2420" stroke-width="0.604" stroke-linecap="round" stroke-linejoin="round"/>
<path id="Vector_28" d="M49.4759 28.2935C49.4759 28.2935 49.0759 20.8695 52.5179 17.4315C52.8539 17.0955 53.4259 17.2235 53.5979 17.6655C54.0419 18.8075 54.8719 21.1695 55.9019 25.1975" stroke="#2C2420" stroke-width="0.604" stroke-linecap="round" stroke-linejoin="round"/>
<path id="Vector_29" d="M51.808 27.1235C51.808 27.1235 51.478 23.8075 52.688 22.0735C52.79 21.9275 53.018 21.9635 53.068 22.1355C53.276 22.8375 53.726 24.3875 54.13 25.9055" stroke="#2C2420" stroke-width="0.604" stroke-linecap="round" stroke-linejoin="round"/>
<path id="Vector_30" d="M39.6221 33.2778C39.6221 33.2778 38.7701 25.2198 42.3261 21.2858C42.6721 20.9018 43.3021 21.0098 43.5141 21.4818C44.0621 22.6998 45.0961 25.2238 46.4441 29.5498" stroke="#2C2420" stroke-width="0.604" stroke-linecap="round" stroke-linejoin="round"/>
<path id="Vector_31" d="M42.0938 31.8745C42.0938 31.8745 41.5478 28.2845 42.7698 26.3285C42.8738 26.1625 43.1218 26.1905 43.1858 26.3745C43.4498 27.1265 44.0278 28.7885 44.5538 30.4185" stroke="#2C2420" stroke-width="0.604" stroke-linecap="round" stroke-linejoin="round"/>
<path id="Vector_32" d="M25.698 39.7044C25.698 39.7044 20.636 37.5604 21.774 29.9824C21.774 29.9824 15.056 33.5124 19.2 39.4724L16.854 38.7384C16.854 38.7384 17.168 42.6124 21.654 43.7284C24.72 44.4904 26.502 43.0624 26.502 43.0624" stroke="#2C2420" stroke-width="0.604" stroke-linecap="round" stroke-linejoin="round"/>
<path id="Vector_33" d="M30.854 30.5957L31.386 30.8397" stroke="#2C2420" stroke-width="0.498" stroke-linecap="round" stroke-linejoin="round"/>
<path id="Vector_34" d="M26.968 28.8242L29.19 29.8362" stroke="#2C2420" stroke-width="0.498" stroke-linecap="round" stroke-linejoin="round"/>
<path id="Vector_35" d="M49.3279 64.75L48.4579 70.096C48.4579 70.096 48.3859 72.788 50.2219 74.312C50.2219 74.312 49.5119 76.982 52.8699 78.962C52.8699 78.962 55.5959 79.866 57.9939 79.792C60.3919 79.72 60.3899 80.498 62.3439 81.354C64.2999 82.21 66.0879 82.716 70.2139 82.22C74.3379 81.724 81.6199 78.724 83.4199 77.122C85.2219 75.52 85.8439 69.762 85.8439 69.762C85.8439 69.762 87.5199 61.718 87.0779 60.354C86.6359 58.99 86.1959 57.352 83.8039 55.868C81.4119 54.382 75.6079 50.45 75.6079 50.45C75.6079 50.45 71.6119 48.446 67.1399 48.834C62.6679 49.222 55.3299 51.524 55.3299 51.524C55.3299 51.524 52.4939 52.252 50.9939 55.742L49.3259 64.75H49.3279Z" fill="white"/>
<path id="Vector_36" d="M60.6278 78.6602C60.6278 78.6602 58.3738 80.2262 55.5558 79.5822C55.5558 79.5822 54.4898 82.1882 57.1998 82.6762C59.9098 83.1642 63.0018 81.0142 60.6278 78.6622V78.6602Z" fill="#EE807F"/>
<path id="Vector_37" d="M61.518 81.1097C64.524 82.3697 66.866 82.8057 70.724 82.1737C72.992 81.8017 76.972 80.5377 78.934 79.6157C83.242 77.5937 84.242 77.1317 85.074 73.5037C85.768 70.4757 86.598 65.0338 86.998 62.8078C87.406 60.5418 86.896 58.3598 84.64 56.5678C82.782 55.0918 77.648 51.5958 75.636 50.5458C71.922 48.6078 68.632 48.4198 64.656 49.1838C62.366 49.6238 57.528 50.7717 55.434 51.5157C52.546 52.5437 51.266 54.3717 50.864 56.6097C50.864 56.6097 49.164 66.0518 48.574 69.3338C48.222 71.2858 48.864 73.0438 50.12 74.3298" stroke="#2C2420" stroke-width="0.6" stroke-linecap="round" stroke-linejoin="round"/>
<path id="Vector_38" d="M60.8479 78.2641C60.8479 78.2641 59.7699 79.5641 57.2499 79.7141C54.9559 79.8521 52.1859 78.9661 51.0359 77.3581C48.8459 74.2921 51.4559 72.3441 51.4559 72.3441C51.4559 72.3441 52.5159 71.4921 53.2799 71.6981" stroke="#2C2420" stroke-width="0.6" stroke-linecap="round" stroke-linejoin="round"/>
<path id="Vector_39" d="M72.238 68.036L70.906 75.438C70.598 77.15 71.328 78.562 73.71 78.178C74.762 78.008 78.966 76.402 79.934 75.858C81.652 74.894 82.61 74.214 82.936 72.546L84.46 64.082" stroke="#2C2420" stroke-width="0.6" stroke-linecap="round" stroke-linejoin="round"/>
<path id="Vector_40" d="M58.7709 75.0617C59.18 73.7766 57.8061 72.1918 55.7021 71.5219C53.5982 70.8521 51.5609 71.3509 51.1517 72.636C50.7426 73.9211 52.1165 75.5059 54.2205 76.1758C56.3245 76.8456 58.3617 76.3468 58.7709 75.0617Z" fill="#2C2420"/>
<path id="Vector_41" d="M55.564 79.7201C55.564 79.7201 54.66 81.6681 56.722 82.5201C58.984 83.4541 63.36 81.5601 60.542 78.6221" stroke="#2C2420" stroke-width="0.6" stroke-linecap="round" stroke-linejoin="round"/>
<path id="Vector_42" d="M58.25 79.7676L58.47 80.5856" stroke="#2C2420" stroke-width="0.6" stroke-linecap="round" stroke-linejoin="round"/>
<path id="Vector_43" d="M54.2094 68.2451C54.4091 67.1352 54.096 66.1499 53.51 66.0445C52.9241 65.9391 52.2871 66.7534 52.0874 67.8633C51.8877 68.9733 52.2008 69.9585 52.7868 70.0639C53.3727 70.1694 54.0097 69.3551 54.2094 68.2451Z" fill="#2C2420"/>
<path id="Vector_44" d="M63.739 74.094C63.9543 72.897 63.6169 71.8346 62.9853 71.721C62.3537 71.6073 61.6671 72.4855 61.4517 73.6824C61.2363 74.8793 61.5738 75.9417 62.2054 76.0554C62.837 76.169 63.5236 75.2909 63.739 74.094Z" fill="#2C2420"/>
<path id="Vector_45" d="M69.26 45.8261C69.26 45.8261 69.26 50.1181 70.352 51.2841C71.444 52.4501 72.95 52.0361 72.912 48.9881C72.874 45.9401 72.122 45.4121 72.122 45.4121C72.122 45.4121 70.73 46.3541 69.26 45.8261Z" fill="#EE807F"/>
<path id="Vector_46" d="M71.4362 42.9251C71.5975 42.4061 70.7927 41.6948 69.6387 41.3362C68.4847 40.9777 67.4185 41.1077 67.2573 41.6267C67.096 42.1457 67.9008 42.8571 69.0548 43.2156C70.2088 43.5741 71.275 43.4441 71.4362 42.9251Z" fill="#2C2420"/>
<path id="Vector_47" d="M68.4881 41.4424C68.4881 41.4424 66.5961 41.3584 66.1441 42.7404C65.5701 44.4964 68.0321 46.0184 70.3521 45.8744C72.6721 45.7304 72.8361 44.4624 72.8361 44.4624" stroke="#2C2420" stroke-width="0.604" stroke-linecap="round" stroke-linejoin="round"/>
<path id="Vector_48" d="M69.2781 45.9019C69.2781 45.9019 69.2221 48.1039 69.6461 50.0239C70.0701 51.9439 72.1541 52.7559 72.7241 50.4759C73.2601 48.3299 72.1321 45.4219 72.1321 45.4219" stroke="#2C2420" stroke-width="0.604" stroke-linecap="round" stroke-linejoin="round"/>
<path id="Vector_49" d="M70.804 45.9297C70.804 45.9297 71.2 47.7077 71.284 48.8377" stroke="#2C2420" stroke-width="0.4" stroke-linecap="round" stroke-linejoin="round"/>
<path id="Vector_50" d="M17.7161 79.5663C17.7161 79.5663 22.2161 81.9923 27.7721 82.4463C33.3281 82.9003 35.7601 80.1883 35.7601 80.1883L40.3161 77.7263C40.3161 77.7263 43.2421 77.0763 44.5321 75.0983C45.8221 73.1203 45.1501 72.1943 45.1501 72.1943C45.1501 72.1943 46.8341 70.3683 46.5181 68.5223C46.2021 66.6763 45.3501 64.5983 45.3501 64.5983C45.3501 64.5983 47.0781 63.9643 46.2401 60.0623C45.4021 56.1623 42.8881 53.7043 42.8881 53.7043C42.8881 53.7043 36.9981 48.9523 29.5641 47.8443C22.1321 46.7363 16.0501 51.9363 16.0501 51.9363C16.0501 51.9363 15.4721 50.0263 13.5561 50.7243C11.6401 51.4223 12.4741 54.5123 12.4741 54.5123C12.4741 54.5123 9.78809 53.3143 8.47209 54.1963C7.15609 55.0763 8.64609 56.8863 9.51209 57.1883C9.51209 57.1883 6.25809 61.0423 6.03009 66.4663C5.80209 71.8903 7.56209 76.8703 10.1601 79.4223C12.7581 81.9743 16.1421 81.6243 17.7121 79.5663H17.7161Z" fill="#FFE799"/>
<path id="Vector_51" d="M35.184 77.0078C35.184 77.0078 33.284 78.0718 34.422 80.1278C35.56 82.1838 38.424 81.7258 39.528 80.6518C40.632 79.5778 40.798 77.5638 40.798 77.5638C40.798 77.5638 36.746 78.5918 35.184 77.0078Z" fill="#EE807F"/>
<path id="Vector_52" d="M41.3835 73.7678C43.1397 72.9603 44.1595 71.4271 43.6612 70.3433C43.1629 69.2594 41.3352 69.0353 39.579 69.8427C37.8227 70.6501 36.8029 72.1833 37.3012 73.2672C37.7995 74.3511 39.6272 74.5752 41.3835 73.7678Z" fill="#2C2420"/>
<path id="Vector_53" d="M34.4101 74.6836C34.4101 74.6836 33.9221 76.9735 36.8061 77.7615C39.7961 78.5795 45.0101 76.6996 45.2021 73.2776C45.3941 69.8556 42.0941 69.6855 42.0941 69.6855" stroke="#2C2420" stroke-width="0.6" stroke-linecap="round" stroke-linejoin="round"/>
<path id="Vector_54" d="M35.148 77.0176C35.148 77.0176 33.262 78.0976 34.394 80.1656C35.526 82.2336 40.63 82.4336 40.85 77.6756" stroke="#2C2420" stroke-width="0.6" stroke-linecap="round" stroke-linejoin="round"/>
<path id="Vector_55" d="M37.478 77.9238L36.884 79.1478" stroke="#2C2420" stroke-width="0.6" stroke-linecap="round" stroke-linejoin="round"/>
<path id="Vector_56" d="M45.272 72.192C46.37 70.936 46.758 69.214 46.306 67.608C46.08 66.806 45.784 65.848 45.406 64.79" stroke="#2C2420" stroke-width="0.6" stroke-linecap="round" stroke-linejoin="round"/>
<path id="Vector_57" d="M17.708 79.6758C21.658 81.4078 25.3 82.1538 27.952 82.4678C30.412 82.7598 32.902 82.1778 34.986 80.8418" stroke="#2C2420" stroke-width="0.6" stroke-linecap="round" stroke-linejoin="round"/>
<path id="Vector_58" d="M9.40617 57.3799C7.38817 59.8799 6.19817 62.9719 6.07417 66.2219C5.98617 68.4999 6.22217 71.2399 7.17617 74.2399C9.81217 82.5319 16.6762 82.9399 18.4582 78.0359C20.2402 73.1319 17.2782 65.3419 17.2782 65.3419" stroke="#2C2420" stroke-width="0.6" stroke-linecap="round" stroke-linejoin="round"/>
<path id="Vector_59" d="M24.16 69.5603C24.16 69.5603 24.806 74.5263 28.396 74.5843C31.986 74.6423 32.306 70.9763 32.306 70.9763C32.306 70.9763 36.418 72.5143 36.752 67.8823C36.752 67.8823 41.194 69.7563 41.952 65.2403C41.952 65.2403 44.49 65.7743 45.92 64.1203C46.902 62.9823 46.428 60.4363 45.62 58.1243C44.646 55.3343 42.642 53.0143 40.022 51.6463C37.55 50.3563 33.934 48.7803 29.736 47.9183C26.684 47.2923 23.51 47.7403 20.728 49.1423C19.37 49.8283 17.78 50.7063 16.124 51.7763" stroke="#2C2420" stroke-width="0.6" stroke-linecap="round" stroke-linejoin="round"/>
<path id="Vector_60" d="M12.466 57.8322C12.466 57.8322 9.98397 57.9762 8.64597 56.5642C6.78397 54.5982 8.88597 52.9462 12.526 54.6162C12.526 54.6162 11.484 51.4482 13.688 50.6302C15.806 49.8442 16.824 53.6962 16.824 53.6962" stroke="#2C2420" stroke-width="0.6" stroke-linecap="round" stroke-linejoin="round"/>
</g>
</svg>
