<svg width="240" height="180" viewBox="0 0 240 180" fill="none" xmlns="http://www.w3.org/2000/svg">
<path d="M36.8581 42.7471L17.2051 47.4901L38.0431 136.431L109.365 118.983L109.026 116.781L46.3441 124.572L36.8581 42.7471Z" fill="#D5D3D2"/>
<path d="M110.211 25.6348L36.0088 34.1068L46.8508 124.515L119.811 115.143L110.211 25.6348Z" fill="white"/>
<path d="M33.5308 53.1152L37.9918 52.0322" stroke="#2C2420" stroke-width="1.5" stroke-linecap="round" stroke-linejoin="round"/>
<path d="M28.9077 54.2366L29.9757 53.9756" stroke="#2C2420" stroke-width="1.5" stroke-linecap="round" stroke-linejoin="round"/>
<path d="M30.3628 60.3243L38.6218 58.3203" stroke="#2C2420" stroke-width="1.5" stroke-linecap="round" stroke-linejoin="round"/>
<path d="M37.8179 64.7095L39.4649 64.3105" stroke="#2C2420" stroke-width="1.5" stroke-linecap="round" stroke-linejoin="round"/>
<path d="M31.8027 66.1685L33.7827 65.6885" stroke="#2C2420" stroke-width="1.5" stroke-linecap="round" stroke-linejoin="round"/>
<path d="M33.0659 71.808L34.6769 71.415" stroke="#2C2420" stroke-width="1.5" stroke-linecap="round" stroke-linejoin="round"/>
<path d="M35.9609 83.7387L41.5259 82.3887" stroke="#2C2420" stroke-width="1.5" stroke-linecap="round" stroke-linejoin="round"/>
<path d="M37.2178 89.5948L42.2188 88.3828" stroke="#2C2420" stroke-width="1.5" stroke-linecap="round" stroke-linejoin="round"/>
<path d="M38.6699 95.6817L42.9809 94.6377" stroke="#2C2420" stroke-width="1.5" stroke-linecap="round" stroke-linejoin="round"/>
<path d="M40.1099 101.526L41.4239 101.208" stroke="#2C2420" stroke-width="1.5" stroke-linecap="round" stroke-linejoin="round"/>
<path d="M41.4507 107.469L44.3097 106.776" stroke="#2C2420" stroke-width="1.5" stroke-linecap="round" stroke-linejoin="round"/>
<path d="M44.3457 119.4L45.8607 119.034" stroke="#2C2420" stroke-width="1.5" stroke-linecap="round" stroke-linejoin="round"/>
<path d="M110.211 25.3828L36.0088 33.7678L46.6828 124.488L119.616 115.086L110.211 25.3828Z" stroke="#2C2420" stroke-width="1.5" stroke-linecap="round" stroke-linejoin="round"/>
<path d="M37.038 42.7744L17.313 47.2324L37.854 136.239L109.317 118.908L108.846 116.739" stroke="#2C2420" stroke-width="1.5" stroke-linecap="round" stroke-linejoin="round"/>
<path d="M59.3732 41.1543L45.2852 42.7473" stroke="#2C2420" stroke-width="1.5" stroke-linecap="round" stroke-linejoin="round"/>
<path d="M66.315 40.3711L65.061 40.5121" stroke="#2C2420" stroke-width="1.5" stroke-linecap="round" stroke-linejoin="round"/>
<path d="M71.796 39.75L70.731 39.87" stroke="#2C2420" stroke-width="1.5" stroke-linecap="round" stroke-linejoin="round"/>
<path d="M79.1606 38.9189L77.9336 39.0569" stroke="#2C2420" stroke-width="1.5" stroke-linecap="round" stroke-linejoin="round"/>
<path d="M47.1299 49.5L46.1729 49.608" stroke="#2C2420" stroke-width="1.5" stroke-linecap="round" stroke-linejoin="round"/>
<path d="M51.6719 48.9873L50.9429 49.0683" stroke="#2C2420" stroke-width="1.5" stroke-linecap="round" stroke-linejoin="round"/>
<path d="M76.4848 46.1816L56.8408 48.4016" stroke="#2C2420" stroke-width="1.5" stroke-linecap="round" stroke-linejoin="round"/>
<path d="M82.4669 45.5068L81.2339 45.6448" stroke="#2C2420" stroke-width="1.5" stroke-linecap="round" stroke-linejoin="round"/>
<path d="M88.6168 44.8105L87.3418 44.9546" stroke="#2C2420" stroke-width="1.5" stroke-linecap="round" stroke-linejoin="round"/>
<path d="M94.4067 44.1572L93.0117 44.3132" stroke="#2C2420" stroke-width="1.5" stroke-linecap="round" stroke-linejoin="round"/>
<path d="M64.884 54.1768L48.312 56.0488" stroke="#2C2420" stroke-width="1.5" stroke-linecap="round" stroke-linejoin="round"/>
<path d="M72.2969 53.3398L70.9438 53.4898" stroke="#2C2420" stroke-width="1.5" stroke-linecap="round" stroke-linejoin="round"/>
<path d="M79.9289 52.4756L78.5249 52.6346" stroke="#2C2420" stroke-width="1.5" stroke-linecap="round" stroke-linejoin="round"/>
<path d="M87.2161 51.6543L85.6411 51.8313" stroke="#2C2420" stroke-width="1.5" stroke-linecap="round" stroke-linejoin="round"/>
<path d="M54.648 66.8281L52.833 67.0351" stroke="#2C2420" stroke-width="1.5" stroke-linecap="round" stroke-linejoin="round"/>
<path d="M61.8178 66.0186L60.4048 66.1806" stroke="#2C2420" stroke-width="1.5" stroke-linecap="round" stroke-linejoin="round"/>
<path d="M74.0127 64.6406L65.8257 65.5646" stroke="#2C2420" stroke-width="1.5" stroke-linecap="round" stroke-linejoin="round"/>
<path d="M70.7849 71.9668L48.6479 74.4688" stroke="#2C2420" stroke-width="1.5" stroke-linecap="round" stroke-linejoin="round"/>
<path d="M79.2057 71.0156L77.9067 71.1626" stroke="#2C2420" stroke-width="1.5" stroke-linecap="round" stroke-linejoin="round"/>
<path d="M86.0967 70.2363L84.8457 70.3773" stroke="#2C2420" stroke-width="1.5" stroke-linecap="round" stroke-linejoin="round"/>
<path d="M96.0931 69.1045L90.4351 69.7465" stroke="#2C2420" stroke-width="1.5" stroke-linecap="round" stroke-linejoin="round"/>
<path d="M56.1091 80.3105L52.8301 80.6795" stroke="#2C2420" stroke-width="1.5" stroke-linecap="round" stroke-linejoin="round"/>
<path d="M81.5697 77.4297L61.4067 79.7097" stroke="#2C2420" stroke-width="1.5" stroke-linecap="round" stroke-linejoin="round"/>
<path d="M96.423 75.7529L90.27 76.4489" stroke="#2C2420" stroke-width="1.5" stroke-linecap="round" stroke-linejoin="round"/>
<path d="M64.9707 86.04L51.9897 87.507" stroke="#2C2420" stroke-width="1.5" stroke-linecap="round" stroke-linejoin="round"/>
<path d="M74.3458 84.9814L71.5708 85.2965" stroke="#2C2420" stroke-width="1.5" stroke-linecap="round" stroke-linejoin="round"/>
<path d="M57.9747 98.6846L56.6787 98.8316" stroke="#2C2420" stroke-width="1.5" stroke-linecap="round" stroke-linejoin="round"/>
<path d="M64.2448 97.9766L62.7148 98.1506" stroke="#2C2420" stroke-width="1.5" stroke-linecap="round" stroke-linejoin="round"/>
<path d="M77.7361 96.4531L70.2241 97.3021" stroke="#2C2420" stroke-width="1.5" stroke-linecap="round" stroke-linejoin="round"/>
<path d="M86.268 95.4873L84.231 95.7183" stroke="#2C2420" stroke-width="1.5" stroke-linecap="round" stroke-linejoin="round"/>
<path d="M66.4886 104.685L53.5586 106.146" stroke="#2C2420" stroke-width="1.5" stroke-linecap="round" stroke-linejoin="round"/>
<path d="M72.2578 104.031L71.2378 104.148" stroke="#2C2420" stroke-width="1.5" stroke-linecap="round" stroke-linejoin="round"/>
<path d="M77.9039 103.395L76.8389 103.515" stroke="#2C2420" stroke-width="1.5" stroke-linecap="round" stroke-linejoin="round"/>
<path d="M92.5919 101.736L82.4219 102.885" stroke="#2C2420" stroke-width="1.5" stroke-linecap="round" stroke-linejoin="round"/>
<path d="M71.1208 110.844L52.7158 112.926" stroke="#2C2420" stroke-width="1.5" stroke-linecap="round" stroke-linejoin="round"/>
<path d="M77.5947 110.112L76.0317 110.289" stroke="#2C2420" stroke-width="1.5" stroke-linecap="round" stroke-linejoin="round"/>
<path d="M85.4341 109.227L84.1621 109.371" stroke="#2C2420" stroke-width="1.5" stroke-linecap="round" stroke-linejoin="round"/>
<path d="M208.752 60.252C208.752 60.252 210.108 58.953 212.367 59.16C213.27 59.244 214.344 59.457 215.301 60.477C216.996 62.283 216.306 65.853 212.307 65.445C208.974 65.106 208.692 67.365 208.692 67.365" stroke="#2C2420" stroke-width="1.8" stroke-linecap="round" stroke-linejoin="round"/>
<path d="M207.51 72.1114C208.166 72.1114 208.698 71.5795 208.698 70.9234C208.698 70.2672 208.166 69.7354 207.51 69.7354C206.854 69.7354 206.322 70.2672 206.322 70.9234C206.322 71.5795 206.854 72.1114 207.51 72.1114Z" fill="#2C2420"/>
<path d="M217.605 75.1171C217.605 75.1171 219.288 74.2861 221.382 75.1621C222.216 75.5131 223.179 76.0381 223.785 77.3011C224.859 79.5331 223.128 82.7311 219.438 81.1411C216.363 79.8181 215.415 81.8881 215.415 81.8881" stroke="#2C2420" stroke-width="1.8" stroke-linecap="round" stroke-linejoin="round"/>
<path d="M213.213 86.1094C213.869 86.1094 214.401 85.5775 214.401 84.9214C214.401 84.2653 213.869 83.7334 213.213 83.7334C212.557 83.7334 212.025 84.2653 212.025 84.9214C212.025 85.5775 212.557 86.1094 213.213 86.1094Z" fill="#2C2420"/>
<path d="M228.375 118.119C227.268 104.694 215.982 105.744 214.956 112.644C214.062 118.644 215.865 123.915 210.504 127.962C208.059 129.81 204.762 129.804 201.957 129.282L199.662 137.28C199.41 138.153 199.095 138.996 198.729 139.812C219.723 144.876 229.389 130.416 228.375 118.119Z" fill="#2C2420"/>
<path d="M105.243 74.3697L96.801 110.67C95.592 115.869 96.792 121.341 100.083 125.547C104.673 131.409 112.263 140.268 122.511 149.388C130.131 156.171 140.415 159.135 150.489 157.53C160.332 155.961 173.676 153.246 186.978 148.704C192.435 146.841 196.629 142.41 198.219 136.866L208.197 102.114C209.883 96.2397 208.413 89.9127 204.315 85.3797C198.54 78.9927 189.492 69.5787 179.487 61.3587C172.587 55.6887 163.662 53.0847 154.8 54.2037C146.493 55.2507 134.337 57.2787 118.278 61.2027C111.798 62.7867 106.755 67.8747 105.246 74.3697H105.243Z" fill="#2C2420"/>
<path d="M111.225 107.22C111.85 104.461 111.227 101.969 109.832 101.653C108.438 101.337 106.801 103.317 106.175 106.075C105.55 108.833 106.174 111.326 107.568 111.642C108.963 111.958 110.6 109.978 111.225 107.22Z" fill="#FFC400"/>
<path d="M137.382 130.154C137.834 127.183 136.982 124.589 135.48 124.361C133.978 124.133 132.394 126.356 131.943 129.328C131.491 132.299 132.343 134.893 133.845 135.121C135.347 135.35 136.931 133.126 137.382 130.154Z" fill="#FFC400"/>
<path d="M107.691 118.179C107.691 118.179 106.551 126.387 116.211 125.067C116.211 125.067 116.208 136.845 125.556 134.622" stroke="white" stroke-width="1.626" stroke-linecap="round" stroke-linejoin="round"/>
<path d="M110.679 83.7424C110.679 83.7424 113.895 79.6054 118.428 76.2874C120.015 75.1234 122.283 76.0774 122.58 78.0244C123.003 80.7934 123.525 84.9694 122.952 91.9204" stroke="white" stroke-width="1.626" stroke-linecap="round" stroke-linejoin="round"/>
<path d="M136.053 103.68C136.053 103.68 139.584 99.5519 143.883 96.4199C145.473 95.2619 148.026 96.0689 148.323 98.0159C148.746 100.785 148.965 106.335 148.287 114.354" stroke="white" stroke-width="1.626" stroke-linecap="round" stroke-linejoin="round"/>
<path d="M199.275 97.2783L188.649 99.3303" stroke="white" stroke-width="1.626" stroke-linecap="round" stroke-linejoin="round"/>
<path d="M203.559 96.4502L202.701 96.6152" stroke="white" stroke-width="1.626" stroke-linecap="round" stroke-linejoin="round"/>
<path d="M154.824 140.949C154.824 140.949 151.719 137.673 147.879 142.701C147.879 142.701 148.161 148.236 151.776 147.105C155.391 145.974 157.368 143.208 154.824 140.949Z" fill="#EE807F"/>
<path d="M107.049 154.557C107.049 154.557 103.266 156.42 103.041 158.001C102.816 159.582 103.098 159.525 106.089 159.807C109.083 160.089 112.584 159.639 112.641 157.605C112.698 155.571 111.795 150.207 107.049 154.557Z" fill="white"/>
<path d="M149.007 141.006C149.007 141.006 146.523 140.385 145.731 143.772C144.939 147.159 148.668 147.951 150.927 147.216L151.266 146.37C151.266 146.37 148.893 145.185 149.007 141.006Z" fill="white"/>
<path d="M147.03 141.684L109.083 153.204C109.083 153.204 108.63 158.4 111.567 159.642L148.839 147.669C148.839 147.669 145.791 145.071 147.033 141.684H147.03Z" fill="#40AED7"/>
<path d="M111.117 159.414C111.117 159.414 108.294 157.38 109.083 153.201L151.458 140.163C153.186 139.632 155.013 140.616 155.517 142.353C156.009 144.048 155.052 145.827 153.366 146.349L111.117 159.414Z" stroke="#2C2420" stroke-width="1.5" stroke-linecap="round" stroke-linejoin="round"/>
<path d="M109.083 153.204L98.8618 159.981L111.117 159.414" stroke="#2C2420" stroke-width="1.5" stroke-linecap="round" stroke-linejoin="round"/>
<path d="M104.508 156.252C104.508 156.252 103.491 159.018 106.314 159.81L100.47 160.092C100.47 160.092 96.7137 160.149 104.508 156.252Z" fill="#2C2420"/>
<path d="M149.601 140.922C149.601 140.922 148.416 144.648 151.635 146.766" stroke="#2C2420" stroke-width="1.5" stroke-linecap="round" stroke-linejoin="round"/>
<path d="M146.889 141.804C146.889 141.804 146.04 145.41 148.923 147.648" stroke="#2C2420" stroke-width="1.5" stroke-linecap="round" stroke-linejoin="round"/>
</svg>
