<svg width="240" height="180" viewBox="0 0 240 180" fill="none" xmlns="http://www.w3.org/2000/svg">
<path d="M129.061 14.2861L115.396 20.3851L198.634 52.6861C198.634 52.6861 200.44 53.8141 202.249 52.6861L212.752 48.2821C212.752 48.2821 215.914 47.4901 210.946 46.0231L129.061 14.2861Z" fill="white"/>
<path d="M60.5612 96.6208L48.9842 103.848C48.9842 103.848 46.9502 104.412 47.4032 108.48L47.6282 133.215L131.43 165.855C131.43 165.855 133.914 167.322 135.384 162.918C136.854 158.514 185.982 108.03 185.982 108.03L195.018 98.7688C195.018 98.7688 201.456 102.495 204.843 96.6238C208.23 90.7528 206.31 83.8618 199.422 85.2178C199.422 85.2178 200.439 75.0538 193.209 75.5038C193.209 75.5038 182.367 78.8908 187.674 90.6388L174.009 104.757L60.5612 96.6238V96.6208Z" fill="white"/>
<path d="M59.5445 97.9746L47.8535 104.584L79.4795 117.175L59.5445 97.9746Z" fill="#D5D3D2"/>
<path d="M44.9192 75.7256C44.9192 75.7256 37.7462 72.7316 33.6812 75.2186C29.6162 77.7056 29.6162 83.6337 37.8032 85.3257C37.8032 85.3257 43.9592 85.7216 47.7422 84.5907C47.7422 84.5907 49.2092 83.7986 50.0012 86.1716C50.7932 88.5446 56.2682 101.307 62.7062 107.178C69.1442 113.049 71.1782 113.841 71.1782 113.841L86.5952 120.054C86.5952 120.054 79.0832 101.136 78.2942 95.9396C77.5052 90.7436 79.6502 87.6387 79.6502 87.6387C79.6502 87.6387 80.6102 86.8467 78.1262 85.4367C75.6422 84.0267 62.7662 78.3777 56.7812 78.1527C56.7812 78.1527 54.6932 79.3946 55.3682 76.1756C56.0432 72.9566 54.8612 63.0176 50.5112 61.0406C46.1612 59.0636 42.0962 63.6956 43.3382 70.0196L44.9192 75.7226V75.7256Z" fill="#B3DFEF"/>
<path d="M55.2244 77.9014L53.9524 82.8154L49.4644 84.4234L52.4284 91.7914C52.4284 91.7914 58.9234 93.3454 58.6954 86.7364C58.6954 86.7364 65.6974 86.6794 62.9884 79.6774L55.2244 77.8984V77.9014Z" fill="#40AED7"/>
<path d="M58.0743 101.475C58.0743 101.475 63.7203 102.321 63.4953 96.507C63.4953 96.507 70.9503 97.185 69.3123 89.448C69.3123 89.448 75.3543 88.431 72.5313 83.124C72.5313 83.124 78.2913 85.326 79.8153 86.511C79.8153 86.511 76.9353 92.103 78.4593 97.974C78.4593 97.974 78.5733 103.17 71.3433 103.848C71.3433 103.848 72.5853 109.494 65.1873 109.551L58.0713 101.475H58.0743Z" fill="#40AED7"/>
<path d="M78.9691 111.981C78.9691 111.981 78.8551 115.257 76.9351 116.16L86.5921 120.057L83.0911 110.796C83.0911 110.796 80.6641 111.924 78.9691 111.981Z" fill="#40AED7"/>
<path d="M77.0493 62.9072C77.0493 62.9072 83.2323 68.4992 87.3843 69.8522C87.3843 69.8522 85.4373 71.3762 80.4393 70.1072C80.4393 70.1072 75.4413 69.2612 77.0523 62.9072H77.0493Z" fill="#EE807F"/>
<path d="M73.7462 62.7363C73.7462 62.7363 68.2412 69.0033 59.3462 69.5133C59.3462 69.5133 61.4642 72.8163 66.9692 72.5613C72.4742 72.3063 74.9312 66.2943 73.7462 62.7363Z" fill="#F8CCCC"/>
<path d="M94.8571 71.3221L74.6221 30.5491C74.6221 30.5491 75.5641 27.6121 77.5621 29.3071L97.2091 69.2881L94.8571 71.3221Z" fill="#FFC400"/>
<path d="M75.2136 60.3666C76.2889 60.3666 77.1606 59.5701 77.1606 58.5876C77.1606 57.6051 76.2889 56.8086 75.2136 56.8086C74.1383 56.8086 73.2666 57.6051 73.2666 58.5876C73.2666 59.5701 74.1383 60.3666 75.2136 60.3666Z" fill="#FFE799"/>
<path d="M132.786 137.956L132.9 166.078L188.805 136.036V107.35L132.786 137.956Z" fill="#D5D3D2"/>
<path d="M124.767 24.4502L107.94 63.3032L172.428 108.48L177.849 104.415L177.51 100.8L187.674 90.6362C187.674 90.6362 184.626 86.9102 186.996 81.0362C189.366 75.1622 194.901 74.4842 196.257 75.7292C197.613 76.9742 199.305 78.8912 199.419 81.1502L213.987 47.9462L199.983 53.4812L124.764 24.4562L124.767 24.4502Z" fill="#D5D3D2"/>
<path d="M177.39 100.152L172.77 87.4081L164.49 66.0271C159.183 58.1401 151.869 57.6661 151.869 57.6661C151.869 57.6661 132.753 55.4101 121.578 56.5351C110.4 57.6571 101.505 64.4371 101.505 64.4371C101.505 64.4371 89.0578 76.8031 83.8648 81.5671C78.6718 86.3311 78.3508 90.5611 77.8978 94.1191C77.4448 97.6771 85.2988 116.679 85.2988 116.679C85.2988 116.679 85.6678 117.897 86.3218 119.691L132.789 137.61L152.766 126.825L153.06 127.275C153.06 127.275 160.005 129.816 168.054 125.328C174.441 121.764 177.408 116.865 175.227 111.054C178.758 106.476 177.393 100.146 177.393 100.146L177.39 100.152Z" fill="white"/>
<path d="M151.437 126.86C151.437 126.86 157.707 129.665 164.337 126.773C164.337 126.773 168.165 132.686 161.73 135.143C155.295 137.6 146.691 133.751 151.437 126.863V126.86Z" fill="#EE807F"/>
<path d="M86.472 119.529C83.757 112.575 80.76 104.133 79.23 100.119C77.175 94.7345 77.418 89.1335 82.131 83.6825C86.013 79.1945 97.017 68.2085 101.478 64.6925C109.71 58.2035 117.717 56.2145 127.848 56.2505C133.683 56.2715 146.115 56.8475 151.608 57.7055C159.186 58.8935 163.182 62.7965 165.21 68.1095C165.21 68.1095 173.769 90.5405 176.745 98.3345C178.515 102.972 177.753 107.592 175.263 111.339" stroke="#2C2420" stroke-width="1.5" stroke-linecap="round" stroke-linejoin="round"/>
<path d="M150.711 125.991C150.711 125.991 153.966 128.688 160.23 127.89C165.936 127.164 172.338 123.702 174.417 119.211C178.38 110.655 171.054 107.076 171.054 107.076C171.054 107.076 168.054 105.471 166.269 106.335" stroke="#2C2420" stroke-width="1.5" stroke-linecap="round" stroke-linejoin="round"/>
<path d="M93.8729 122.496C93.8279 122.391 93.7829 122.286 93.7409 122.178L86.0669 102.069" stroke="#2C2420" stroke-width="1.5" stroke-linecap="round" stroke-linejoin="round"/>
<path d="M117.954 106.125L124.665 123.708C126.219 127.776 125.076 131.586 119.043 131.748C118.599 131.76 117.921 131.715 117.09 131.625" stroke="#2C2420" stroke-width="1.5" stroke-linecap="round" stroke-linejoin="round"/>
<path d="M166.037 117.782C170.898 115.159 173.541 110.625 171.939 107.657C170.337 104.688 165.097 104.408 160.236 107.031C155.375 109.654 152.732 114.187 154.334 117.156C155.936 120.124 161.175 120.405 166.037 117.782Z" fill="#2C2420"/>
<path d="M164.379 127.119C164.379 127.119 167.505 131.487 162.828 134.541C157.698 137.889 146.058 135.261 151.626 126.729" stroke="#2C2420" stroke-width="1.5" stroke-linecap="round" stroke-linejoin="round"/>
<path d="M157.797 128.483L157.638 130.598" stroke="#2C2420" stroke-width="1.5" stroke-linecap="round" stroke-linejoin="round"/>
<path d="M166.73 102.093C168.121 101.562 168.433 98.9932 167.427 96.3555C166.42 93.7178 164.476 92.0101 163.084 92.5412C161.693 93.0724 161.381 95.6412 162.387 98.2789C163.394 100.917 165.338 102.624 166.73 102.093Z" fill="#2C2420"/>
<path d="M146.347 121.198C147.847 120.626 148.183 117.857 147.098 115.013C146.012 112.17 143.917 110.328 142.417 110.901C140.917 111.473 140.58 114.243 141.666 117.086C142.751 119.93 144.847 121.771 146.347 121.198Z" fill="#2C2420"/>
<path d="M132.729 166.248L47.5137 133.212V104.751L132.729 137.787V166.248Z" stroke="#2C2420" stroke-width="1.5" stroke-linecap="round" stroke-linejoin="round"/>
<path d="M150.738 128.019L132.729 137.787" stroke="#2C2420" stroke-width="1.5" stroke-linecap="round" stroke-linejoin="round"/>
<path d="M132.729 166.248L188.634 136.263V107.463L175.809 114.42" stroke="#2C2420" stroke-width="1.5" stroke-linecap="round" stroke-linejoin="round"/>
<path d="M56.7627 99.7051L47.5137 104.751" stroke="#2C2420" stroke-width="1.5" stroke-linecap="round" stroke-linejoin="round"/>
<path d="M190.011 103.803L188.466 107.376L187.293 106.923" stroke="#2C2420" stroke-width="1.5" stroke-linecap="round" stroke-linejoin="round"/>
<path d="M129.087 14.541L214.302 47.574L199.569 81.681" stroke="#2C2420" stroke-width="1.5" stroke-linecap="round" stroke-linejoin="round"/>
<path d="M109.599 59.6494L124.773 24.5254" stroke="#2C2420" stroke-width="1.5" stroke-linecap="round" stroke-linejoin="round"/>
<path d="M129.087 14.541L115.026 20.469L200.241 53.505L214.302 47.574" stroke="#2C2420" stroke-width="1.5" stroke-linecap="round" stroke-linejoin="round"/>
<path d="M177.792 100.8L187.674 90.6328" stroke="#2C2420" stroke-width="1.5" stroke-linecap="round" stroke-linejoin="round"/>
<path d="M188.721 91.1133C188.721 91.1133 185.247 89.3913 186.039 83.9133C186.831 78.4353 192.498 73.8993 196.092 75.7803C199.686 77.6613 200.1 83.2353 198.972 88.2603" stroke="#2C2420" stroke-width="1.5" stroke-linecap="round" stroke-linejoin="round"/>
<path d="M199.59 85.2115C199.59 85.2115 204.528 83.7385 206.169 88.0645C208.032 92.9785 203.457 103.538 194.988 98.7385L183.468 110.174" stroke="#2C2420" stroke-width="1.5" stroke-linecap="round" stroke-linejoin="round"/>
<path d="M94.0198 71.4633L74.9158 31.0413C74.5648 30.2973 74.8708 29.4093 75.6058 29.0433C76.3678 28.6623 77.2918 28.9833 77.6518 29.7543L96.1378 69.1773" stroke="#2C2420" stroke-width="1.5" stroke-linecap="round" stroke-linejoin="round"/>
<path d="M75.207 32.499V54.69" stroke="#2C2420" stroke-width="0.9" stroke-linecap="round" stroke-linejoin="round"/>
<path d="M75.2068 60.5787C76.307 60.5787 77.1988 59.6869 77.1988 58.5867C77.1988 57.4866 76.307 56.5947 75.2068 56.5947C74.1067 56.5947 73.2148 57.4866 73.2148 58.5867C73.2148 59.6869 74.1067 60.5787 75.2068 60.5787Z" stroke="#2C2420" stroke-width="1.2" stroke-linecap="round" stroke-linejoin="round"/>
<path d="M73.9138 62.1445C73.9138 62.1445 70.1878 68.4115 59.0908 69.5125C59.0908 69.5125 62.2828 73.3555 67.6468 72.3925C75.1858 71.0365 73.9138 62.1445 73.9138 62.1445Z" stroke="#2C2420" stroke-width="1.2" stroke-linecap="round" stroke-linejoin="round"/>
<path d="M76.7939 62.5684C76.7939 62.5684 80.6909 66.8884 87.6359 70.1914C87.6359 70.1914 75.6929 73.5784 76.7939 62.5684Z" stroke="#2C2420" stroke-width="1.2" stroke-linecap="round" stroke-linejoin="round"/>
<path d="M79.59 77.5318C79.59 77.5318 76.71 74.9908 75.468 69.1738C75.468 69.1738 74.001 72.3358 75.129 76.5718" stroke="#2C2420" stroke-width="0.9" stroke-linecap="round" stroke-linejoin="round"/>
<path d="M75.4678 69.1738C75.4678 69.1738 77.2738 72.7888 81.5668 73.0708" stroke="#2C2420" stroke-width="0.9" stroke-linecap="round" stroke-linejoin="round"/>
<path d="M73.9143 62.1445C73.9143 62.1445 75.5223 72.2245 67.8423 76.4605" stroke="#2C2420" stroke-width="0.9" stroke-linecap="round" stroke-linejoin="round"/>
<path d="M64.1191 68.8926L67.7881 72.1116" stroke="#2C2420" stroke-width="0.6" stroke-linecap="round" stroke-linejoin="round"/>
<path d="M65.7002 68.2705L70.8392 71.0395" stroke="#2C2420" stroke-width="0.6" stroke-linecap="round" stroke-linejoin="round"/>
<path d="M68.6338 66.8037L73.3228 67.8747" stroke="#2C2420" stroke-width="0.6" stroke-linecap="round" stroke-linejoin="round"/>
<path d="M83.373 68.5527L83.994 71.8857" stroke="#2C2420" stroke-width="0.6" stroke-linecap="round" stroke-linejoin="round"/>
<path d="M79.8709 65.6729L79.5327 69.6839" stroke="#2C2420" stroke-width="0.6" stroke-linecap="round" stroke-linejoin="round"/>
<path d="M71.1209 113.901C71.1209 113.901 57.5129 106.956 49.3799 84.5938" stroke="#2C2420" stroke-width="1.5" stroke-linecap="round" stroke-linejoin="round"/>
<path d="M55.3921 78.0684C55.3921 78.0684 66.9961 79.2534 79.8721 86.4534" stroke="#2C2420" stroke-width="1.5" stroke-linecap="round" stroke-linejoin="round"/>
<path d="M45.3119 75.7831C45.3119 75.7831 38.1959 72.7351 33.5369 75.1891C28.2719 77.9641 30.9899 85.6111 40.3979 85.4371C49.6319 85.2691 53.8649 82.6411 53.8649 82.6411C53.8649 82.6411 56.3219 77.0491 54.8819 68.0731C53.4419 59.0971 45.8069 59.2081 43.7849 63.9211C41.7629 68.6341 45.3089 75.7801 45.3089 75.7801L45.3119 75.7831Z" stroke="#2C2420" stroke-width="1.5" stroke-linecap="round" stroke-linejoin="round"/>
<path d="M46.1611 61.5508L48.0241 72.3928" stroke="#2C2420" stroke-width="0.9" stroke-linecap="round" stroke-linejoin="round"/>
<path d="M49.5479 61.0439L51.4979 73.4939" stroke="#2C2420" stroke-width="0.9" stroke-linecap="round" stroke-linejoin="round"/>
<path d="M31.8447 81.2041L43.1937 81.5431" stroke="#2C2420" stroke-width="0.9" stroke-linecap="round" stroke-linejoin="round"/>
<path d="M31.251 77.9854L41.502 78.3243" stroke="#2C2420" stroke-width="0.9" stroke-linecap="round" stroke-linejoin="round"/>
<path d="M52.3711 91.7638C52.3711 91.7638 59.3731 93.1768 58.5271 86.6818C58.5271 86.6818 66.2071 86.7388 62.6491 79.5088" stroke="#2C2420" stroke-width="0.9" stroke-linecap="round" stroke-linejoin="round"/>
<path d="M58.0737 101.193C58.0737 101.193 63.8907 102.606 63.4377 96.3933C63.4377 96.3933 71.0607 97.2963 69.3117 89.3913C69.3117 89.3913 75.2967 88.7134 72.5877 83.2354" stroke="#2C2420" stroke-width="0.9" stroke-linecap="round" stroke-linejoin="round"/>
<path d="M65.1328 109.326C65.1328 109.326 71.8528 110.682 71.1748 103.848C71.1748 103.848 79.7578 103.962 78.0088 95.2646" stroke="#2C2420" stroke-width="0.9" stroke-linecap="round" stroke-linejoin="round"/>
<path d="M76.6528 115.989C76.6528 115.989 79.0798 115.593 78.7408 111.867C78.7408 111.867 81.9028 111.981 83.2018 110.454" stroke="#2C2420" stroke-width="0.9" stroke-linecap="round" stroke-linejoin="round"/>
</svg>
