<svg width="130" height="130" viewBox="0 0 130 130" fill="none" xmlns="http://www.w3.org/2000/svg">
<path d="M23.7767 41.4873C22 47.788 18.607 60.5475 15.6409 75.8528C14.8717 79.8265 16.4079 83.8912 19.6059 86.372C25.185 90.6967 35.2687 97.6452 49.5947 104.158C54.5975 106.431 60.1854 107.081 65.5826 106.048C71.7142 104.873 80.3852 102.739 88.9739 99.0253C92.6594 97.4307 95.5432 94.4103 97.0165 90.675C99.3522 84.747 102.999 74.4055 106.117 60.84C107.499 54.8232 105.074 48.5723 100.013 45.0385C94.1414 40.9392 84.9525 35.3253 72.0652 29.6443C65.3399 26.6803 57.8346 25.9892 50.6672 27.6163C44.1044 29.1048 35.8624 31.4297 29.3125 34.7468C26.6042 36.1183 24.6022 38.5688 23.7789 41.4917L23.7767 41.4873Z" fill="#2C2420"/>
<path d="M116.105 71.5564C111.989 71.6279 110.294 74.8887 109.831 78.0651C109.415 80.9034 109.133 84.3397 105.181 85.2714C103.519 85.6614 101.987 85.5422 100.713 85.2367C99.9702 87.4467 99.032 90.1204 98.3582 91.6241C97.914 92.6186 97.498 93.4527 97.1167 94.1547C107.746 98.3971 119.401 94.0291 121.992 84.9551C124.471 76.2776 120.597 71.4827 116.103 71.5586L116.105 71.5564Z" fill="#2C2420"/>
<path d="M26.9663 51.428C26.9663 51.428 30.4741 48.165 33.761 45.6278C35.0393 44.642 36.9026 45.3657 37.1756 46.956C37.5851 49.3458 37.8148 52.7323 37.9773 56.4027" stroke="white" stroke-width="1.08333" stroke-linecap="round" stroke-linejoin="round"/>
<path d="M48.7456 61.2302C48.7456 61.2302 52.2534 57.9672 55.5403 55.4301C56.8186 54.4442 58.6819 55.1679 58.9549 56.7582C59.3644 59.1481 59.6764 63.4186 59.8389 67.0889" stroke="white" stroke-width="1.08333" stroke-linecap="round" stroke-linejoin="round"/>
<path d="M27.9043 77.4951C27.9043 77.4951 29.0656 82.8511 36.3673 80.0583C36.3673 80.0583 37.4918 88.1876 44.9365 85.891" stroke="white" stroke-width="1.08333" stroke-linecap="round" stroke-linejoin="round"/>
<path d="M37.3922 83.3454C37.3922 83.3454 36.9827 80.0217 35.3728 80.442C33.763 80.8624 33.0632 80.039 32.814 84.498C32.5648 88.957 33.3427 92.2352 36.2828 90.7684C39.223 89.3015 40.1157 87.0114 40.1157 87.0114C40.1157 87.0114 40.8978 85.8804 39.1558 85.0722L37.3922 83.3432V83.3454Z" fill="white"/>
<path d="M39.303 87.8562C39.303 87.8562 35.8342 84.9334 32.9937 88.4044C32.9937 88.4044 34.3045 94.0941 39.303 87.8562Z" fill="#EE807F"/>
<path d="M33.226 80.9858C33.226 80.9858 32.6951 85.304 32.9963 88.3243C33.2823 91.193 36.3828 93.2037 40.519 86.1122" stroke="white" stroke-width="1.08333" stroke-linecap="round" stroke-linejoin="round"/>
<path d="M28.6979 70.6907C29.2243 68.5935 28.7478 66.6666 27.6336 66.387C26.5195 66.1073 25.1895 67.5807 24.6631 69.678C24.1367 71.7752 24.6132 73.7021 25.7274 73.9817C26.8416 74.2614 28.1715 72.7879 28.6979 70.6907Z" fill="#FFC400"/>
<path d="M53.2999 82.4924C53.877 80.1932 53.355 78.0809 52.1341 77.7745C50.9131 77.468 49.4555 79.0834 48.8784 81.3826C48.3013 83.6818 48.8233 85.7941 50.0443 86.1005C51.2652 86.407 52.7228 84.7916 53.2999 82.4924Z" fill="#FFC400"/>
<path d="M63.8301 86.3786C63.9016 86.1056 63.9709 85.8348 64.0402 85.564" stroke="white" stroke-width="0.65" stroke-linecap="round" stroke-linejoin="round"/>
<path d="M62.6968 90.6123C62.8138 90.1855 62.9286 89.7586 63.0456 89.3318" stroke="white" stroke-width="0.65" stroke-linecap="round" stroke-linejoin="round"/>
<path d="M59.0825 103.183C59.0825 103.183 60.415 98.7675 61.9035 93.4722" stroke="white" stroke-width="0.65" stroke-linecap="round" stroke-linejoin="round"/>
<path d="M94.0356 57.2021C93.7669 57.2758 93.4939 57.3495 93.2188 57.4231" stroke="white" stroke-width="0.65" stroke-linecap="round" stroke-linejoin="round"/>
<path d="M104.292 54.5479C104.292 54.5479 101.322 55.2715 96.9756 56.4177" stroke="white" stroke-width="0.65" stroke-linecap="round" stroke-linejoin="round"/>
<path d="M15.0972 24.2666L20.3578 29.5273" stroke="#2C2420" stroke-width="1.08333" stroke-linecap="round" stroke-linejoin="round"/>
<path d="M25.7422 21.8181L28.1905 26.2229" stroke="#2C2420" stroke-width="1.08333" stroke-linecap="round" stroke-linejoin="round"/>
<path d="M13.2621 36.6233L9.22559 34.7881" stroke="#2C2420" stroke-width="1.08333" stroke-linecap="round" stroke-linejoin="round"/>
<path d="M11.5504 46.657L9.10205 46.9018" stroke="#2C2420" stroke-width="1.08333" stroke-linecap="round" stroke-linejoin="round"/>
</svg>
