<svg width="240" height="180" viewBox="0 0 240 180" fill="none" xmlns="http://www.w3.org/2000/svg">
<path d="M39.1348 70.3528L75.2758 91.4728L90.6358 88.3108L101.478 66.0598L65.9008 43.9258L50.5408 46.8598L39.1348 70.3528Z" fill="#EE807F"/>
<path d="M66.0145 44.0371L54.2695 67.4161L90.4105 88.4251L101.478 66.0601L66.0145 44.0371Z" stroke="#2C2420" stroke-width="0.993" stroke-linecap="round" stroke-linejoin="round"/>
<path d="M54.2697 67.4161L38.9097 70.2391L50.6547 46.8601L66.0147 44.0371" stroke="#2C2420" stroke-width="0.993" stroke-linecap="round" stroke-linejoin="round"/>
<path d="M38.9668 70.4102L75.1078 91.4162L90.4108 88.4252" stroke="#2C2420" stroke-width="0.993" stroke-linecap="round" stroke-linejoin="round"/>
<path d="M84.8066 55.749L73.4126 78.429" stroke="#2C2420" stroke-width="0.993" stroke-linecap="round" stroke-linejoin="round"/>
<path d="M73.4127 78.4297L58.0527 81.2527" stroke="#2C2420" stroke-width="0.993" stroke-linecap="round" stroke-linejoin="round"/>
<path d="M57.645 45.6475L45.897 69.0265L82.038 90.0325" stroke="#2C2420" stroke-width="0.993" stroke-linecap="round" stroke-linejoin="round"/>
<path d="M70.6106 46.8843C69.1676 42.2073 72.2486 39.2283 75.3596 42.2883C77.1536 44.0523 77.7206 47.9553 77.8556 51.2973" stroke="#2C2420" stroke-width="0.993" stroke-linecap="round" stroke-linejoin="round"/>
<path d="M80.3906 52.9625C80.9786 52.3175 81.6716 51.6755 82.4786 51.0965C85.6976 48.7805 89.7986 49.7585 89.0846 53.1305C88.7456 54.7415 87.4826 55.7165 85.9136 56.2955" stroke="#2C2420" stroke-width="0.993" stroke-linecap="round" stroke-linejoin="round"/>
<path d="M32.0188 63.0957C32.0188 63.0957 26.3428 70.2117 32.5828 81.8727" stroke="#2C2420" stroke-width="0.9" stroke-linecap="round" stroke-linejoin="round"/>
<path d="M21.6 69.4502C21.6 69.4502 18.126 72.5852 19.821 78.6842" stroke="#2C2420" stroke-width="0.9" stroke-linecap="round" stroke-linejoin="round"/>
<path d="M12.285 75.7168C12.285 75.7168 11.013 77.2408 11.523 79.4428" stroke="#2C2420" stroke-width="0.9" stroke-linecap="round" stroke-linejoin="round"/>
<path d="M212.466 117.096C210.969 123.714 207.753 137.016 202.89 152.421C201.627 156.42 198.219 159.366 194.079 160.044C186.861 161.226 174.24 162.57 157.968 161.421C152.286 161.019 146.874 158.85 142.47 155.238C137.466 151.137 130.623 144.906 124.635 137.277C122.067 134.004 120.93 129.825 121.437 125.694C122.241 119.139 124.029 107.916 127.896 94.0169C129.612 87.8519 134.91 83.3579 141.267 82.6409C148.641 81.8099 159.789 81.2369 174.336 82.4339C181.926 83.0579 189.105 86.1389 194.829 91.1639C200.073 95.7659 206.43 101.955 210.756 108.216C212.544 110.805 213.156 114.027 212.463 117.096H212.466Z" fill="#2C2420"/>
<path d="M113.055 98.4416C116.058 100.2 115.269 104.784 114.687 107.646C114.096 110.559 113.589 114.045 116.367 116.733C117.717 118.041 119.445 118.563 120.759 118.914C120.345 121.293 119.877 124.194 119.748 125.895C119.661 127.02 119.628 127.986 119.628 128.814C107.847 127.425 101.499 118.209 101.895 108.171C102.27 98.6065 108.864 95.9815 113.058 98.4385L113.055 98.4416Z" fill="#2C2420"/>
<path d="M205.095 124.662C205.095 124.662 203.601 119.928 201.933 115.959C201.285 114.417 199.233 114.117 198.174 115.413C196.584 117.357 194.646 120.294 192.624 123.522" stroke="white" stroke-width="1.122" stroke-linecap="round" stroke-linejoin="round"/>
<path d="M176.577 121.722C176.577 121.722 174.996 117.015 173.256 113.079C172.581 111.549 170.523 111.288 169.488 112.602C167.934 114.576 165.54 118.314 163.575 121.575" stroke="white" stroke-width="1.122" stroke-linecap="round" stroke-linejoin="round"/>
<path d="M191.952 148.098C191.952 148.098 188.247 152.403 182.976 146.25C182.976 146.25 177.933 153.099 172.287 147.327" stroke="white" stroke-width="1.122" stroke-linecap="round" stroke-linejoin="round"/>
<path d="M180.417 148.737C180.417 148.737 182.433 145.911 183.693 147.093C184.95 148.272 185.997 147.867 184.02 152.052C182.043 156.237 179.712 158.838 177.759 156.048C175.806 153.258 176.124 150.732 176.124 150.732C176.124 150.732 175.971 149.316 177.957 149.439L180.417 148.737Z" fill="white"/>
<path d="M176.445 151.902C176.445 151.902 181.05 150.954 181.92 155.52C181.92 155.52 177.915 160.053 176.445 151.902Z" fill="#EE807F"/>
<path d="M185.379 148.646C185.379 148.646 183.729 152.84 181.962 155.444C180.282 157.916 176.466 158.216 176.202 149.711" stroke="white" stroke-width="1.122" stroke-linecap="round" stroke-linejoin="round"/>
<path d="M144.468 100.578C144.678 100.776 144.888 100.98 145.101 101.184" stroke="white" stroke-width="0.675" stroke-linecap="round" stroke-linejoin="round"/>
<path d="M137.397 94.0205C137.397 94.0205 138.786 95.2175 142.179 98.4125" stroke="white" stroke-width="0.675" stroke-linecap="round" stroke-linejoin="round"/>
<path d="M159.345 138.207C159.345 138.207 166.119 136.662 170.568 142.935" stroke="#FFC400" stroke-width="1.5" stroke-linecap="round" stroke-linejoin="round"/>
<path d="M193.107 144.357C193.107 144.357 196.248 140.658 201.066 141.537" stroke="#FFC400" stroke-width="1.5" stroke-linecap="round" stroke-linejoin="round"/>
<path d="M232.548 110.577L222.72 113.742" stroke="#2C2420" stroke-width="1.122" stroke-linecap="round" stroke-linejoin="round"/>
<path d="M231.543 121.872L223.281 122.085" stroke="#2C2420" stroke-width="1.122" stroke-linecap="round" stroke-linejoin="round"/>
<path d="M225.876 133.977L221.595 131.886" stroke="#2C2420" stroke-width="1.122" stroke-linecap="round" stroke-linejoin="round"/>
<path d="M223.782 100.938L218.064 106.467" stroke="#2C2420" stroke-width="1.122" stroke-linecap="round" stroke-linejoin="round"/>
<path d="M212.04 96.7109L211.047 99.4139" stroke="#2C2420" stroke-width="1.122" stroke-linecap="round" stroke-linejoin="round"/>
<path d="M89.064 34.6984L103.035 87.3784L121.473 95.0434L181.887 76.3054L168.588 24.1984L150.042 16.1914L89.064 34.6984Z" fill="#FFC400"/>
<path d="M168.588 24.252L107.391 42.192L121.359 95.043L181.716 76.416L168.588 24.252Z" stroke="#2C2420" stroke-width="0.993" stroke-linecap="round" stroke-linejoin="round"/>
<path d="M107.391 42.1919L89.1807 34.4189L103.149 87.2669L121.359 95.0429" stroke="#2C2420" stroke-width="0.993" stroke-linecap="round" stroke-linejoin="round"/>
<path d="M168.363 24.108L150.153 16.335L89.1807 34.419" stroke="#2C2420" stroke-width="0.993" stroke-linecap="round" stroke-linejoin="round"/>
<path d="M151.965 85.4364L138.834 33.2754" stroke="#2C2420" stroke-width="0.993" stroke-linecap="round" stroke-linejoin="round"/>
<path d="M138.612 33.1324L120.402 25.3564" stroke="#2C2420" stroke-width="0.993" stroke-linecap="round" stroke-linejoin="round"/>
<path d="M114.873 69.6387L175.23 51.0117" stroke="#2C2420" stroke-width="0.993" stroke-linecap="round" stroke-linejoin="round"/>
<path d="M96.6626 61.8662L114.873 69.6392" stroke="#2C2420" stroke-width="0.993" stroke-linecap="round" stroke-linejoin="round"/>
<path d="M145.53 60.2193C145.53 60.2193 137.277 55.8903 130.224 57.7593C123.126 59.6403 124.608 67.2663 131.556 67.3473C140.364 67.4463 145.53 60.2223 145.53 60.2223V60.2193Z" stroke="#2C2420" stroke-width="0.993" stroke-linecap="round" stroke-linejoin="round"/>
<path d="M145.53 60.2195C145.53 60.2195 143.256 51.6365 135.174 47.3105C127.092 42.9815 122.928 49.7525 128.733 55.0295C135.525 61.2065 145.53 60.2195 145.53 60.2195Z" stroke="#2C2420" stroke-width="0.993" stroke-linecap="round" stroke-linejoin="round"/>
<path d="M103.737 55.5358C103.737 55.5358 125.622 48.1048 145.53 60.2188C145.53 60.2188 143.202 71.3458 130.914 79.2268" stroke="#2C2420" stroke-width="0.993" stroke-linecap="round" stroke-linejoin="round"/>
<path d="M18.2397 129.57C18.2397 129.57 17.4927 137.199 17.4927 140.937C17.4927 144.675 18.0897 146.547 20.1117 145.2C22.1307 143.853 25.7217 136.974 25.7217 136.974C25.7217 136.974 29.9097 149.016 32.8257 153.279C35.7417 157.542 39.1077 157.917 44.7177 156.42C50.3277 154.923 63.7887 149.463 70.2207 146.997C76.6527 144.528 79.6437 142.509 83.3097 139.068C86.9757 135.627 92.5077 124.707 92.5077 124.707C92.5077 124.707 93.9297 121.041 92.2077 114.759C90.4887 108.477 87.4197 100.398 87.4197 100.398C87.4197 100.398 80.5377 87.609 76.0527 85.14C71.5647 82.671 64.9827 84.393 55.2597 86.859C45.5367 89.328 35.2917 94.863 30.2037 98.526C25.1187 102.192 21.9777 111.015 20.9307 115.131C19.8837 119.244 18.2397 129.567 18.2397 129.567V129.57Z" fill="white"/>
<path d="M64.6859 127.176C64.6859 127.176 61.6199 130.692 65.3579 134.505C65.3579 134.505 70.7429 138.543 75.7529 134.13C75.7529 134.13 78.3719 131.661 76.7999 126.876C76.7999 126.876 70.3679 129.942 64.6829 127.176H64.6859Z" fill="#EE807F"/>
<path d="M25.6436 136.675C25.6436 136.675 29.1596 147.745 32.6636 153.064C35.6576 157.609 39.0297 158.104 47.1207 155.716C55.2117 153.328 73.3677 145.945 77.3997 143.629C81.0087 141.556 83.2347 139.651 88.0107 132.622C92.7867 125.593 94.1847 121.771 91.9497 114.073C89.3667 105.187 82.0257 88.5156 75.7917 85.0686C69.5577 81.6216 51.3357 87.9846 45.5007 90.4536C38.5136 93.4086 30.2456 96.7146 25.7546 103.579C21.9416 109.414 19.2386 119.665 17.9396 132.487C17.4146 137.647 17.4566 141.913 17.6666 143.935C17.7896 145.126 18.8636 146.362 20.4086 144.901C23.2826 142.183 26.6156 136.675 27.4376 128.896C28.1936 121.75 27.5126 111.844 27.5126 111.844" stroke="#2C2420" stroke-width="0.993" stroke-linecap="round" stroke-linejoin="round"/>
<path d="M90.9387 110.421C90.9387 110.421 94.0797 110.403 94.6977 109.299C95.3997 108.042 94.1547 105.111 87.9477 96.6597C81.7407 88.2087 77.6817 83.9457 72.5967 83.7207C72.5967 83.7207 77.0277 84.3927 81.8157 91.4247C86.6037 98.4537 90.9417 110.421 90.9417 110.421H90.9387Z" fill="#2C2420"/>
<path d="M38.9274 128.295C38.8616 128.169 38.7958 128.046 38.7329 127.926" stroke="#2C2420" stroke-width="0.597" stroke-linecap="round" stroke-linejoin="round"/>
<path d="M40.0705 130.5C40.0047 130.374 39.9418 130.245 39.876 130.122" stroke="#2C2420" stroke-width="0.597" stroke-linecap="round" stroke-linejoin="round"/>
<path d="M45.1648 140.712C45.1648 140.712 42.9868 136.257 40.8838 132.096" stroke="#2C2420" stroke-width="0.597" stroke-linecap="round" stroke-linejoin="round"/>
<path d="M39.7046 152.082C39.7046 152.082 42.4706 147.033 44.2286 143.931" stroke="#2C2420" stroke-width="0.597" stroke-linecap="round" stroke-linejoin="round"/>
<path d="M47.5977 140.937C47.5977 140.937 50.5137 139.665 53.6937 138.282" stroke="#2C2420" stroke-width="0.597" stroke-linecap="round" stroke-linejoin="round"/>
<path d="M29.2197 108.876C29.3694 109.143 29.4591 109.299 29.4591 109.299" stroke="#2C2420" stroke-width="0.597" stroke-linecap="round" stroke-linejoin="round"/>
<path d="M27.2336 101.896C27.2336 101.896 26.3366 102.568 27.4016 105.298C27.6686 105.982 28.1036 106.744 28.4126 107.356" stroke="#2C2420" stroke-width="0.597" stroke-linecap="round" stroke-linejoin="round"/>
<path d="M75.2648 119.876C79.509 118.719 82.4239 115.852 81.7754 113.472C81.127 111.092 77.1606 110.1 72.9163 111.256C68.6721 112.412 65.7572 115.279 66.4057 117.66C67.0542 120.04 71.0205 121.032 75.2648 119.876Z" fill="#2C2420"/>
<path d="M61.041 121.473C61.041 121.473 59.976 126.24 67.044 127.698C73.875 129.108 83.256 125.79 84.378 119.676C85.5 113.562 79.104 111.711 79.104 111.711" stroke="#2C2420" stroke-width="0.993" stroke-linecap="round" stroke-linejoin="round"/>
<path d="M64.6857 126.969C64.6857 126.969 62.1687 129.879 64.3497 133.251C66.7047 136.896 73.7727 137.346 76.4097 133.308C78.4347 130.206 76.8597 127.137 76.8597 127.137" stroke="#2C2420" stroke-width="0.993" stroke-linecap="round" stroke-linejoin="round"/>
<path d="M70.4062 128.373L70.1279 131.01" stroke="#2C2420" stroke-width="0.993" stroke-linecap="round" stroke-linejoin="round"/>
<path d="M48.8306 117.976L56.6096 119.098L51.4466 125.455" stroke="#2C2420" stroke-width="1.392" stroke-linecap="round" stroke-linejoin="round"/>
<path d="M81.441 107.205L78 112.293L84.282 113.265" stroke="#2C2420" stroke-width="1.392" stroke-linecap="round" stroke-linejoin="round"/>
</svg>
