<svg width="129" height="130" viewBox="0 0 129 130" fill="none" xmlns="http://www.w3.org/2000/svg">
<path d="M18.8596 81.6073C18.8596 81.6073 18.0449 89.9273 18.0449 94.005C18.0449 98.0826 18.6971 100.124 20.9006 98.6546C23.1019 97.1856 27.0193 89.6825 27.0193 89.6825C27.0193 89.6825 31.5866 102.815 34.7673 107.464C37.9479 112.114 41.6183 112.521 47.7369 110.89C53.8556 109.258 68.5369 103.304 75.5526 100.611C82.5683 97.9201 85.8313 95.7166 89.8266 91.964C93.8241 88.2113 99.8604 76.3033 99.8604 76.3033C99.8604 76.3033 101.41 72.3058 99.5333 65.4548C97.6569 58.6038 94.3138 49.7941 94.3138 49.7941C94.3138 49.7941 86.8084 35.8451 81.9161 33.1541C77.0216 30.4632 69.8434 32.3395 59.2398 35.0305C48.6361 37.7215 37.4604 43.7578 31.9138 47.7553C26.3671 51.7528 22.9416 61.3771 21.7998 65.8643C20.6579 70.3515 18.8639 81.6073 18.8639 81.6073H18.8596Z" fill="white"/>
<path d="M69.5141 78.9988C69.5141 78.9988 66.1688 82.8316 70.2486 86.9916C70.2486 86.9916 76.1224 91.3965 81.5868 86.5843C81.5868 86.5843 84.4424 83.8933 82.7286 78.6716C82.7286 78.6716 75.7129 82.017 69.5141 78.9988Z" fill="#EE807F"/>
<path d="M26.935 89.3578C26.935 89.3578 30.7679 101.43 34.592 107.233C37.8594 112.19 41.534 112.73 50.3589 110.125C59.1815 107.521 78.9827 99.4696 83.381 96.9433C87.3179 94.6813 89.7445 92.6035 94.9532 84.9378C100.16 77.2721 101.687 73.1035 99.2475 64.7076C96.4309 55.0161 88.425 36.8356 81.626 33.0743C74.827 29.313 54.9522 36.255 48.5909 38.9481C40.9707 42.1721 31.953 45.7753 27.0564 53.2633C22.8964 59.6246 19.9519 70.8068 18.5327 84.7905C17.9607 90.4195 18.004 95.0713 18.2337 97.277C18.368 98.577 19.5402 99.9246 21.2237 98.3321C24.3589 95.366 27.9945 89.36 28.8915 80.8775C29.7149 73.084 28.9739 62.2788 28.9739 62.2788" stroke="#2C2420" stroke-width="1.08333" stroke-linecap="round" stroke-linejoin="round"/>
<path d="M98.1445 60.7272C98.1445 60.7272 101.57 60.7077 102.244 59.503C103.009 58.1337 101.652 54.9357 94.8815 45.7187C88.1106 36.5017 83.6863 31.852 78.1396 31.6072C78.1396 31.6072 82.9735 32.3417 88.193 40.0095C93.4125 47.6773 98.1445 60.7272 98.1445 60.7272Z" fill="#2C2420"/>
<path d="M41.4213 80.2167C41.3498 80.0802 41.2783 79.9437 41.209 79.8137" stroke="#2C2420" stroke-width="0.65" stroke-linecap="round" stroke-linejoin="round"/>
<path d="M42.6669 82.6236C42.5954 82.4849 42.5261 82.3462 42.4546 82.2097" stroke="#2C2420" stroke-width="0.65" stroke-linecap="round" stroke-linejoin="round"/>
<path d="M48.2248 93.7626C48.2248 93.7626 45.8502 88.9028 43.5557 84.3679" stroke="#2C2420" stroke-width="0.65" stroke-linecap="round" stroke-linejoin="round"/>
<path d="M42.2705 106.16C42.2705 106.16 45.2887 100.655 47.2062 97.2681" stroke="#2C2420" stroke-width="0.65" stroke-linecap="round" stroke-linejoin="round"/>
<path d="M50.8745 94.0072C50.8745 94.0072 54.0552 92.6205 57.5218 91.1125" stroke="#2C2420" stroke-width="0.65" stroke-linecap="round" stroke-linejoin="round"/>
<path d="M30.8325 59.0417C30.995 59.3321 31.0947 59.5032 31.0947 59.5032" stroke="#2C2420" stroke-width="0.65" stroke-linecap="round" stroke-linejoin="round"/>
<path d="M28.6681 51.428C28.6681 51.428 27.6888 52.1625 28.8523 55.1395C29.1426 55.8848 29.6171 56.7168 29.953 57.382" stroke="#2C2420" stroke-width="0.65" stroke-linecap="round" stroke-linejoin="round"/>
<path d="M81.0536 71.033C85.6822 69.772 88.8611 66.6457 88.154 64.0503C87.4469 61.4549 83.1215 60.3732 78.493 61.6342C73.8645 62.8952 70.6855 66.0215 71.3926 68.6169C72.0997 71.2123 76.4251 72.294 81.0536 71.033Z" fill="#2C2420"/>
<path d="M65.5364 72.7781C65.5364 72.7781 64.3751 77.9781 72.0819 79.5685C79.5309 81.1046 89.7619 77.4885 90.9861 70.8195C92.2102 64.1505 85.2357 62.1333 85.2357 62.1333" stroke="#2C2420" stroke-width="1.08333" stroke-linecap="round" stroke-linejoin="round"/>
<path d="M69.514 78.7737C69.514 78.7737 66.771 81.9478 69.1478 85.6247C71.7175 89.6005 79.4265 90.0902 82.3017 85.6853C84.5095 82.3032 82.7913 78.9557 82.7913 78.9557" stroke="#2C2420" stroke-width="1.08333" stroke-linecap="round" stroke-linejoin="round"/>
<path d="M75.7542 80.303L75.4487 83.1781" stroke="#2C2420" stroke-width="1.08333" stroke-linecap="round" stroke-linejoin="round"/>
<path d="M52.2222 68.9651L60.7047 70.1893L55.0757 77.1226" stroke="#2C2420" stroke-width="1.51667" stroke-linecap="round" stroke-linejoin="round"/>
<path d="M87.7859 57.2195L84.0332 62.7662L90.8842 63.8256" stroke="#2C2420" stroke-width="1.51667" stroke-linecap="round" stroke-linejoin="round"/>
<path d="M101.325 34.1358L106.302 28.262" stroke="#2C2420" stroke-width="1.08333" stroke-linecap="round" stroke-linejoin="round"/>
<path d="M106.137 41.7215L112.581 39.0305" stroke="#2C2420" stroke-width="1.08333" stroke-linecap="round" stroke-linejoin="round"/>
<path d="M96.0234 29.731L97.9821 26.468" stroke="#2C2420" stroke-width="1.08333" stroke-linecap="round" stroke-linejoin="round"/>
</svg>
