<svg width="61" height="61" viewBox="0 0 61 61" fill="none" xmlns="http://www.w3.org/2000/svg">
<g id="illustrations_food_lamb">
<path id="Vector" d="M7.47071 40.1092C7.47071 40.1092 5.94551 42.0064 6.99671 44.6836C8.04791 47.3608 11.5027 47.8684 12.5191 47.428C13.5355 46.9876 34.4743 50.8168 34.4743 50.8168C34.4743 50.8168 35.8975 52.036 38.4727 51.562C41.0479 51.088 42.1663 49.36 42.1663 49.36C42.1663 49.36 46.1647 50.41 49.3831 47.8696C52.6015 45.3292 52.5679 42.3808 51.4159 39.4672C50.2639 36.5536 46.9771 21.5092 46.9771 21.5092C46.9771 21.5092 42.5383 16.5964 33.2551 15.8848C23.9719 15.1732 18.1435 18.2224 16.1107 19.2388C14.0779 20.2552 11.2999 22.8976 10.4179 24.796C10.4179 24.796 7.74071 24.9988 6.92831 27.9136C6.11591 30.8284 7.77551 32.5216 7.77551 32.5216C7.77551 32.5216 5.91191 33.8428 5.84471 36.7228C5.84471 36.7228 5.67551 38.5864 7.47071 40.1116V40.1092Z" fill="white"/>
<path id="Vector_2" d="M34.3062 43.2273C34.3062 43.2273 32.409 44.1417 32.3754 46.8861C32.3418 49.6305 34.4766 51.0201 35.493 51.3249C35.493 51.3249 33.9342 52.2393 29.733 51.8673C25.5318 51.4953 15.435 49.7325 15.435 49.7325C15.435 49.7325 12.4878 49.2921 10.827 46.5477C9.16623 43.8033 9.57303 40.9905 9.57303 40.9905C9.57303 40.9905 11.8434 41.3973 13.2666 40.1769C14.6898 38.9565 14.859 36.7881 14.859 36.7881C14.859 36.7881 15.5706 39.9393 20.145 40.2777C24.7194 40.6161 26.6502 38.4477 27.8358 36.8217C27.8358 36.8217 27.7686 40.2441 29.3946 41.7345C31.0206 43.2249 32.6814 43.3953 34.3074 43.2249L34.3062 43.2273Z" fill="#FFE0CE"/>
<path id="Vector_3" d="M39.9753 34.5538C39.9753 34.5538 36.4521 34.9606 36.0897 29.7202C35.7273 24.4798 42.0525 19.9174 47.6997 21.4534C53.3469 22.9894 55.5153 26.1514 55.3797 32.9278C55.2441 39.7042 49.5069 41.9182 46.9773 41.9182C44.4477 41.9182 40.1109 40.6534 39.9753 34.555V34.5538Z" fill="#FFA16B"/>
<path id="Vector_4" d="M9.58624 41.3301V42.4101C9.58624 46.1397 12.3198 49.3065 16.0098 49.8489L29.9382 51.8997C31.8726 52.1841 33.837 52.0137 35.679 51.4149" stroke="#2C2420" stroke-width="0.48" stroke-linecap="round" stroke-linejoin="round"/>
<path id="Vector_5" d="M44.9 33.966C44.9 33.966 44.4488 35.5476 46.0748 36.2244C47.7764 36.9336 50.5928 35.0952 49.7792 31.2096C48.9692 27.3384 44.3576 26.8272 41.828 29.628C39.1736 32.5668 39.0884 38.352 43.3184 40.9224C48.152 43.8588 55.6964 39.9516 55.4708 31.5252C55.2116 21.8376 47.0228 20.0052 41.8952 21.8796C37.1912 23.5992 35.6732 28.086 36.3164 31.2984C36.9488 34.4604 39.7952 34.506 39.7952 34.506" stroke="#2C2420" stroke-width="0.48" stroke-linecap="round" stroke-linejoin="round"/>
<path id="Vector_6" d="M49.9255 32.7577C49.9255 32.7577 51.8755 32.0089 53.3815 33.3337C55.0759 34.8241 54.0595 37.3657 54.0595 37.3657" stroke="#2C2420" stroke-width="0.24" stroke-linecap="round" stroke-linejoin="round"/>
<path id="Vector_7" d="M47.6549 36.2471C47.6549 36.2471 49.3721 37.1051 49.2137 39.2063C49.0397 41.5199 47.0909 41.8043 47.0909 41.8043" stroke="#2C2420" stroke-width="0.24" stroke-linecap="round" stroke-linejoin="round"/>
<path id="Vector_8" d="M48.4691 28.8946C48.4691 28.8946 50.4347 28.183 50.9759 25.981C51.6467 23.2582 49.8575 22.1182 49.8575 22.1182" stroke="#2C2420" stroke-width="0.24" stroke-linecap="round" stroke-linejoin="round"/>
<path id="Vector_9" d="M37.491 25.3151C37.491 25.3151 38.6394 23.7731 41.0142 24.2987C43.7694 24.9083 43.4994 28.3199 43.4994 28.3199" stroke="#2C2420" stroke-width="0.24" stroke-linecap="round" stroke-linejoin="round"/>
<path id="Vector_10" d="M51.8118 40.1554C51.8118 40.1554 53.2577 44.5378 49.7333 47.6542C46.6421 50.389 42.189 49.3714 42.189 49.3714C38.3718 53.5954 32.7473 51.427 32.3741 47.497C32.0441 44.0158 34.6446 43.0918 34.6446 43.0918C27.1458 44.2666 27.9582 36.7222 27.9582 36.7222C27.9582 36.7222 25.9254 40.6978 20.5038 40.291C15.5682 39.9214 14.721 36.4966 14.721 36.4966C14.721 36.4966 14.9466 41.0146 10.4298 41.1046C5.77735 41.1982 4.33135 35.3218 7.80895 32.611C7.80895 32.611 6.13735 30.7582 6.90535 28.003C7.73095 25.0414 10.4286 24.841 10.4286 24.841C10.4286 24.841 13.017 18.895 23.0334 16.7542C35.1857 14.1562 42.6846 17.5894 46.5702 21.2038" stroke="#2C2420" stroke-width="0.48" stroke-linecap="round" stroke-linejoin="round"/>
<path id="Vector_11" d="M7.40349 40.1777C7.40349 40.1777 6.08469 42.2969 7.03029 44.6501C8.21589 47.5973 11.5027 47.4629 11.5027 47.4629" stroke="#2C2420" stroke-width="0.48" stroke-linecap="round" stroke-linejoin="round"/>
<path id="Vector_12" d="M14.0108 24.2534C14.0108 24.2534 14.654 24.2306 15.23 24.491" stroke="#2C2420" stroke-width="0.48" stroke-linecap="round" stroke-linejoin="round"/>
<path id="Vector_13" d="M15.5469 22.5083C15.5469 22.5083 16.1901 22.4855 16.7661 22.7459" stroke="#2C2420" stroke-width="0.48" stroke-linecap="round" stroke-linejoin="round"/>
<path id="Vector_14" d="M17.4669 21.063C17.4669 21.063 18.1101 21.0402 18.6861 21.3006" stroke="#2C2420" stroke-width="0.48" stroke-linecap="round" stroke-linejoin="round"/>
<path id="Vector_15" d="M48.4016 43.6338C48.4016 43.6338 49.316 43.6674 49.9604 43.1934" stroke="#2C2420" stroke-width="0.48" stroke-linecap="round" stroke-linejoin="round"/>
<path id="Vector_16" d="M47.5245 45.2213C47.5245 45.2213 48.1101 45.3281 48.7053 45.1709" stroke="#2C2420" stroke-width="0.48" stroke-linecap="round" stroke-linejoin="round"/>
<path id="Vector_17" d="M46.1506 46.6006C46.1506 46.6006 46.4278 46.651 46.7962 46.6318" stroke="#2C2420" stroke-width="0.48" stroke-linecap="round" stroke-linejoin="round"/>
<path id="Vector_18" d="M15.2945 45.7114C15.7936 45.7114 16.1981 44.862 16.1981 43.8142C16.1981 42.7664 15.7936 41.917 15.2945 41.917C14.7955 41.917 14.3909 42.7664 14.3909 43.8142C14.3909 44.862 14.7955 45.7114 15.2945 45.7114Z" fill="#2C2420"/>
<path id="Vector_19" d="M26.2652 47.2924C26.7642 47.2924 27.1688 46.443 27.1688 45.3952C27.1688 44.3475 26.7642 43.498 26.2652 43.498C25.7661 43.498 25.3616 44.3475 25.3616 45.3952C25.3616 46.443 25.7661 47.2924 26.2652 47.2924Z" fill="#2C2420"/>
<path id="Vector_20" d="M18.0776 46.9805L21.7376 47.5193" stroke="#2C2420" stroke-width="0.48" stroke-linecap="round" stroke-linejoin="round"/>
<path id="Vector_21" d="M19.7936 47.3047C19.7936 47.3047 19.6412 48.5119 20.2568 50.2555" stroke="#2C2420" stroke-width="0.48" stroke-linecap="round" stroke-linejoin="round"/>
</g>
</svg>
