<svg width="320" height="242" viewBox="0 0 320 242" fill="none" xmlns="http://www.w3.org/2000/svg">
<g clip-path="url(#clip0_1666_36334)">
<path d="M183.366 1.20703L161.942 10.5467L176.669 16.6865L142.386 95.9604L54.8 143.472L54.5344 188.847L190.063 239.828L276.843 148.543L317.823 53.2559L183.366 1.20703Z" fill="white"/>
<path d="M142.21 95.7808L55.0703 143.292L103.459 162.331L142.746 140.447L142.21 95.7808Z" fill="#D5D3D2"/>
<path d="M176.849 16.5967L142.21 95.7808L277.739 147.385L317.737 54.1445L295.772 62.6854L176.849 16.5967Z" fill="#D5D3D2"/>
<path d="M189.172 195.785L189.347 240.092L277.739 192.581V147.385L189.172 195.785Z" fill="#D5D3D2"/>
<path d="M7.57309 100.053C7.57309 100.053 3.82131 110.906 1.50194 124.608C1.50194 124.608 0.0742733 130.303 2.39364 143.826C4.71301 157.349 4.89325 165.535 7.92882 166.958C7.92882 166.958 10.0727 168.962 13.9573 162.156C13.9573 162.156 21.1905 176.302 26.9486 180.438C32.7067 184.574 39.8071 185.51 47.3059 182.972C54.8047 180.433 54.6719 181.237 54.6719 181.237L54.4063 143.335L128.735 103.164C128.735 103.164 120.297 79.9419 113.202 69.9311C106.106 59.9202 102.487 54.4516 90.5676 55.118C78.6482 55.7845 58.4284 61.2578 44.3652 67.6623C30.3019 74.0668 21.0624 77.2714 13.4308 87.2823C13.4308 87.2823 8.6972 95.4687 7.58257 100.049L7.57309 100.053Z" fill="white"/>
<path d="M189.262 240.356L54.5344 188.312V143.471L189.262 195.515V240.356Z" stroke="#2C2420" stroke-width="2.37154" stroke-linecap="round" stroke-linejoin="round"/>
<path d="M189.262 240.357L277.649 193.115V147.74L189.262 195.516" stroke="#2C2420" stroke-width="2.37154" stroke-linecap="round" stroke-linejoin="round"/>
<path d="M229.213 173.787L142.789 140.399L103.061 161.999" stroke="#2C2420" stroke-width="2.37154" stroke-linecap="round" stroke-linejoin="round"/>
<path d="M183.499 1.33936L318.226 53.3883L277.379 147.608L142.656 95.5587L54.5344 143.472" stroke="#2C2420" stroke-width="2.37154" stroke-linecap="round" stroke-linejoin="round"/>
<path d="M142.656 140.267V95.5588L176.678 17.0742" stroke="#2C2420" stroke-width="2.37154" stroke-linecap="round" stroke-linejoin="round"/>
<path d="M183.499 1.33936L161.268 10.6838L295.995 62.728L318.226 53.3883" stroke="#2C2420" stroke-width="2.37154" stroke-linecap="round" stroke-linejoin="round"/>
<path d="M88.6371 108.325C88.6371 108.325 75.7786 114.639 77.0308 127.987C77.0308 127.987 81.4039 134.217 95.9604 132.969C110.517 131.721 117.39 122.382 116.944 116.152C116.498 109.922 112.656 105.919 108.819 104.94C104.982 103.962 88.6419 108.32 88.6419 108.32L88.6371 108.325Z" fill="white"/>
<path d="M14.1328 162.666C16.8032 167.695 19.853 172.54 23.287 176.567C29.5715 183.931 35.7281 186.53 50.1423 182.291C51.4561 181.903 52.9217 181.445 54.5059 180.92" stroke="#2C2420" stroke-width="2.13439" stroke-linecap="round" stroke-linejoin="round"/>
<path d="M128.237 102.766C122.602 86.4169 111.134 62.2973 101.23 56.8381C90.1218 50.7172 57.6506 62.0184 47.2538 66.3999C34.8032 71.6512 20.0664 77.5168 12.0696 89.7066C9.08144 94.2583 4.751 107.011 2.74942 116.067" stroke="#2C2420" stroke-width="2.13439" stroke-linecap="round" stroke-linejoin="round"/>
<path d="M35.5431 133.598C35.4245 133.376 35.3107 133.154 35.1969 132.941" stroke="#2C2420" stroke-width="1.42292" stroke-linecap="round" stroke-linejoin="round"/>
<path d="M37.5778 137.512C37.464 137.285 37.3454 137.062 37.2316 136.84" stroke="#2C2420" stroke-width="1.42292" stroke-linecap="round" stroke-linejoin="round"/>
<path d="M46.6561 155.648C46.6561 155.648 42.7763 147.735 39.0245 140.348" stroke="#2C2420" stroke-width="1.42292" stroke-linecap="round" stroke-linejoin="round"/>
<path d="M36.928 175.839C36.928 175.839 41.8608 166.872 44.9913 161.361" stroke="#2C2420" stroke-width="1.42292" stroke-linecap="round" stroke-linejoin="round"/>
<path d="M50.9865 156.049C50.9865 156.049 52.3905 155.439 54.5343 154.508" stroke="#2C2420" stroke-width="1.42292" stroke-linecap="round" stroke-linejoin="round"/>
<path d="M100.293 118.643C107.857 116.589 113.053 111.498 111.897 107.272C110.742 103.046 103.673 101.285 96.1083 103.339C88.5438 105.392 83.3482 110.483 84.5036 114.709C85.659 118.936 92.728 120.697 100.293 118.643Z" fill="#2C2420"/>
<path d="M77.0688 128.314C78.634 130.029 81.2617 131.641 85.6395 132.544C97.8103 135.049 114.525 129.155 116.526 118.298C118.523 107.441 107.13 104.151 107.13 104.151" stroke="#2C2420" stroke-width="2.13439" stroke-linecap="round" stroke-linejoin="round"/>
<path d="M72.4084 116.889C74.3796 116.142 74.7206 112.242 73.1702 108.176C71.6197 104.111 68.7649 101.421 66.7938 102.167C64.8226 102.914 64.4816 106.815 66.032 110.88C67.5825 114.945 70.4373 117.635 72.4084 116.889Z" fill="#2C2420"/>
<path d="M108.97 101.803C110.941 101.057 111.282 97.1561 109.732 93.0908C108.181 89.0256 105.327 86.3353 103.355 87.0818C101.384 87.8284 101.043 91.7291 102.594 95.7943C104.144 99.8596 106.999 102.55 108.97 101.803Z" fill="#2C2420"/>
<path d="M55.0703 105.257C55.0703 105.257 66.3209 102.723 67.1225 91.2427" stroke="#2C2420" stroke-width="2.13439" stroke-linecap="round" stroke-linejoin="round"/>
<path d="M96.7194 81.502C96.7194 81.502 105.025 86.3041 113.458 82.4378" stroke="#2C2420" stroke-width="2.13439" stroke-linecap="round" stroke-linejoin="round"/>
<path d="M6.14551 103.788C-0.461601 125.052 0.586621 128.243 3.25223 148.369C4.32417 156.47 5.53365 162.463 6.59611 165.488C7.22219 167.27 8.92022 168.471 11.1684 165.975C15.57 161.083 22.7605 147.551 21.1953 135.323C19.7582 124.093 15.1052 109.152 15.1052 109.152" stroke="#2C2420" stroke-width="2.13439" stroke-linecap="round" stroke-linejoin="round"/>
<path d="M122.422 44.5117C122.422 44.5117 124.002 42.0066 127.545 41.4536C128.958 41.2315 130.689 41.1464 132.553 42.3375C135.85 44.4455 136.168 50.1647 129.878 51.0816C124.637 51.8426 125.078 55.4017 125.078 55.4017" stroke="#2C2420" stroke-width="2.84585" stroke-linecap="round" stroke-linejoin="round"/>
<path d="M124.632 63.1673C125.67 63.1673 126.511 62.3293 126.511 61.2956C126.511 60.2618 125.67 59.4238 124.632 59.4238C123.595 59.4238 122.754 60.2618 122.754 61.2956C122.754 62.3293 123.595 63.1673 124.632 63.1673Z" fill="#2C2420"/>
</g>
<defs>
<clipPath id="clip0_1666_36334">
<rect width="320" height="242" fill="white"/>
</clipPath>
</defs>
</svg>
