<svg width="764" height="232" viewBox="0 0 764 232" fill="none" xmlns="http://www.w3.org/2000/svg">
<g clip-path="url(#clip0_253_1579)">
<g clip-path="url(#clip1_253_1579)">
<path d="M-0.76001 116.4C-0.76001 99.3399 3.36998 85.8299 11.65 75.8699C20.48 65.9199 32.04 60.9399 46.33 60.9399C60.62 60.9399 71.99 65.9199 81.01 75.8699C89.47 86.0299 93.7 99.5399 93.7 116.4C93.7 133.26 89.47 146.67 81.01 156.62C72.36 166.37 60.8 171.25 46.33 171.25C31.86 171.25 20.11 166.37 11.65 156.62C3.37998 146.87 -0.76001 133.46 -0.76001 116.4ZM19.26 116.4C19.26 128.18 21.61 137.12 26.31 143.21C31.01 149.51 37.68 152.66 46.33 152.66C54.98 152.66 61.46 149.51 66.35 143.21C71.23 136.71 73.68 127.78 73.68 116.4C73.68 105.02 71.24 95.9799 66.35 89.2799C61.46 82.9899 54.79 79.8299 46.33 79.8299C37.87 79.8299 31.01 82.9799 26.31 89.2799C21.61 95.5799 19.26 104.62 19.26 116.4Z" fill="white"/>
<path d="M154.74 169.26H137.75V127.4C137.75 123.46 136.56 120.59 134.18 118.78C131.8 116.97 129.13 116.07 126.18 116.07C123.23 116.07 120.6 116.97 118.3 118.78C116 120.59 114.85 123.46 114.85 127.4V169.26H97.62V130.85C97.62 119.69 100.53 112.22 106.36 108.44C112.18 104.67 118.63 102.62 125.69 102.29C129.46 102.29 133.16 102.7 136.77 103.52C140.38 104.34 143.66 105.98 146.62 108.44C149.08 106.31 152 104.79 155.36 103.89C158.72 102.99 162.21 102.46 165.82 102.29C173.04 102.29 179.69 104.18 185.77 107.95C191.84 111.73 194.88 119.36 194.88 130.85V169.27H186.26C183.8 169.27 181.78 168.49 180.23 166.93C178.67 165.37 177.89 163.36 177.89 160.9V127.4C177.89 123.46 176.7 120.59 174.32 118.78C171.94 116.97 169.27 116.07 166.32 116.07C163.37 116.07 160.69 116.97 158.32 118.78C155.94 120.59 154.75 123.46 154.75 127.4V169.26H154.74Z" fill="white"/>
<path d="M241.41 152.91C237.96 154.72 234.31 155.82 230.45 156.23C226.59 156.64 223.19 156.85 220.23 156.85C214.32 156.85 209.15 155.25 204.72 152.05C200.29 148.85 198.07 143.56 198.07 136.17C198.07 129.28 200.08 124.35 204.1 121.4C208.12 118.45 213.25 116.48 219.49 115.49C220.31 115.49 221.3 115.37 222.45 115.12C223.6 114.87 224.91 114.67 226.39 114.5C233.61 113.52 237.22 111.38 237.22 108.1C237.22 105.64 235.95 104.04 233.41 103.3C230.86 102.56 228.52 102.19 226.39 102.19C224.09 102.19 222.04 102.52 220.24 103.17C218.43 103.83 217.12 105.06 216.3 106.86H199.8C200.46 101.77 202.76 97.5901 206.69 94.3001C211.12 90.5301 217.44 88.6401 225.65 88.6401C234.84 88.6401 241.73 90.2001 246.33 93.3201C251.09 96.6101 253.47 101.2 253.47 107.11V129.51C253.47 136.08 252.28 141.2 249.9 144.9C247.52 148.59 244.69 151.26 241.4 152.9L241.41 152.91ZM237.47 122.62C235.17 123.77 231.97 124.84 227.87 125.82L222.21 127.05C219.25 127.87 217.12 128.94 215.81 130.25C214.66 132.06 214.09 133.86 214.09 135.67C214.09 138.13 214.83 140.1 216.31 141.58C217.79 142.9 219.92 143.55 222.71 143.55C227.3 143.55 230.92 142.24 233.54 139.61C236.16 136.99 237.48 133.37 237.48 128.78V122.63L237.47 122.62Z" fill="white"/>
<path d="M259.1 169.27V73.2404C259.1 70.7804 259.96 68.6904 261.68 66.9604C263.4 65.2404 265.49 64.3804 267.96 64.3804H276.58V119.29L309.57 84.5704H331.48L297.51 118.79L334.44 169.26H313.27L291.85 139.22C288.07 134.3 284.59 132.37 281.39 133.43C278.19 134.5 276.59 136.51 276.59 139.46V169.25H259.11L259.1 169.27Z" fill="white"/>
<path d="M368 158C364.55 159.81 360.9 160.91 357.04 161.32C353.18 161.73 349.78 161.94 346.82 161.94C340.91 161.94 335.74 160.34 331.31 157.14C326.88 153.94 324.66 148.65 324.66 141.26C324.66 134.37 326.67 129.44 330.69 126.49C334.71 123.54 339.84 121.57 346.08 120.58C346.9 120.58 347.89 120.46 349.04 120.21C350.19 119.96 351.5 119.76 352.98 119.59C360.2 118.61 363.81 116.47 363.81 113.19C363.81 110.73 362.54 109.13 360 108.39C357.45 107.65 355.11 107.28 352.98 107.28C350.68 107.28 348.63 107.61 346.83 108.26C345.02 108.92 343.71 110.15 342.89 111.95H326.39C327.05 106.86 329.35 102.68 333.28 99.39C337.71 95.62 344.03 93.73 352.24 93.73C361.43 93.73 368.32 95.29 372.92 98.41C377.68 101.7 380.06 106.29 380.06 112.2V134.6C380.06 141.17 378.87 146.29 376.49 149.99C374.11 153.68 371.28 156.35 367.99 157.99L368 158ZM364.06 127.71C361.76 128.86 358.56 129.93 354.46 130.91L348.8 132.14C345.84 132.96 343.71 134.03 342.4 135.34C341.25 137.15 340.68 138.95 340.68 140.76C340.68 143.22 341.42 145.19 342.9 146.67C344.38 147.99 346.51 148.64 349.3 148.64C353.89 148.64 357.51 147.33 360.13 144.7C362.75 142.08 364.07 138.46 364.07 133.87V127.72L364.06 127.71Z" fill="white"/>
<path d="M411.58 169.27C406.16 169.6 400.29 169.52 393.98 169.02C387.66 168.53 384.5 164.51 384.5 156.96V84.5703H393.37C395.5 84.5703 397.39 85.3903 399.03 87.0303C400.67 88.6703 401.49 90.6403 401.49 92.9403V104.02H411.58V107.47C411.58 109.93 410.76 111.94 409.12 113.5C407.48 115.06 405.51 115.84 403.21 115.84H401.49V152.28C401.49 155.07 403.13 156.47 406.41 156.47H411.58V169.27Z" fill="white"/>
<path d="M411.58 147.61H428.32C428.48 150.9 429.71 153.36 432.01 155C434.47 156.64 437.75 157.46 441.86 157.46C444.82 157.46 447.36 156.89 449.49 155.74C451.46 154.59 452.45 153.03 452.45 151.06C452.45 148.11 449 145.89 442.11 144.41C439.15 143.92 436.94 143.42 435.46 142.93C426.76 140.8 420.93 138.25 417.98 135.3C414.7 132.35 413.06 128.41 413.06 123.48C413.06 117.24 415.44 112.07 420.2 107.97C425.12 104.2 431.53 102.31 439.4 102.31C447.93 102.31 454.75 104.2 459.83 107.97C464.59 112.08 467.13 117.41 467.46 123.97H456.87C453.75 123.97 451.37 122.58 449.73 119.78C449.07 119.13 448.41 118.47 447.76 117.81C445.79 116.33 443.08 115.59 439.64 115.59C436.2 115.59 433.89 116.08 432.25 117.07C430.77 118.05 430.03 119.53 430.03 121.5C430.03 124.13 434.3 126.34 442.83 128.15C443.82 128.48 444.68 128.73 445.42 128.89C446.16 129.06 446.85 129.14 447.51 129.14C455.88 131.28 461.71 133.74 464.99 136.53C468.11 139.48 469.67 143.42 469.67 148.35C469.67 155.57 467.04 161.15 461.79 165.09C456.87 168.7 449.48 170.51 439.63 170.51C429.78 170.51 423.3 168.62 418.7 164.85C413.94 161.08 411.56 155.58 411.56 148.35V147.61H411.58Z" fill="white"/>
<path d="M517.94 140.51H530.25C528.44 147.4 524.99 152.66 519.91 156.27C514.82 160.05 508.42 161.93 500.71 161.93C491.36 161.93 484.05 158.89 478.8 152.82C473.54 146.91 470.92 138.46 470.92 127.46C470.92 116.46 473.46 108.75 478.55 102.84C483.8 96.77 491.11 93.73 500.46 93.73C510.31 93.73 517.94 96.68 523.36 102.59C528.61 108.66 531.24 117.12 531.24 127.95V130.66C531.24 131.48 531.15 132.06 530.99 132.38H488.4C488.56 137.47 489.79 141.24 492.09 143.71C494.22 146.34 497.42 147.65 501.69 147.65C504.48 147.65 506.86 147.08 508.83 145.93C509.32 145.77 509.77 145.48 510.18 145.07C510.59 144.66 511.04 144.21 511.53 143.72C511.69 143.23 512.31 142.57 513.38 141.75C514.44 140.93 515.96 140.52 517.94 140.52V140.51ZM488.4 121.31H513.51C513.18 116.88 512.03 113.6 510.06 111.46C507.93 109.16 504.89 108.01 500.95 108.01C497.34 108.01 494.38 109.16 492.09 111.46C489.79 113.76 488.56 117.04 488.4 121.31Z" fill="white"/>
<g clip-path="url(#clip2_253_1579)">
<path d="M753.196 123.938C749.804 121.138 745.638 119.97 741.756 120.73C738.329 121.403 735.504 123.509 733.8 126.666C733.219 127.747 732.842 128.844 732.633 129.935V125.922C732.633 115.472 728.69 107.582 720.607 101.941C723.274 97.4942 724.748 92.3789 724.824 87.131V46.2596V46.0913C724.437 30.4037 713.385 24.0491 706.072 19.8467C698.218 15.3332 682.245 8.52978 673.738 5.35248C658.642 -0.283022 644.505 0.119878 629.25 6.62238C625.507 8.21868 606.397 16.4246 598.074 21.1625C592.791 24.1715 581.795 30.4394 581.979 46.1933V87.6512C581.979 92.7614 583.407 97.7747 586.064 102.166C578.307 107.689 574.66 115.263 574.66 125.661V182.985C574.66 194.741 581.3 204.737 592.413 209.725C602.113 214.075 616.2 220.338 628.215 225.463C636.957 229.191 644.877 231.058 652.96 231.053C661.324 231.053 669.857 229.054 679.623 225.045C688.466 221.419 706.087 213.376 715.216 209.082C727.522 203.289 731.301 196.317 732.332 187.234C745.918 183.858 760.917 173.581 762.666 154.165C763.829 141.308 760.198 129.721 753.191 123.938H753.196Z" fill="white"/>
<path d="M705.429 53.2668C704.021 53.2668 702.879 54.4092 702.879 55.8168V83.0763C702.976 88.5894 700.763 91.9146 694.709 95.352C690.787 97.5807 683.06 101.12 679.348 102.171C676.563 102.961 673.712 102.538 671.728 101.039C670.616 100.197 669.29 98.6364 669.29 95.964V72.9987C669.29 71.5911 668.148 70.4487 666.74 70.4487C665.333 70.4487 664.19 71.5911 664.19 72.9987V95.964C664.19 99.687 665.777 102.931 668.653 105.108C670.871 106.781 673.676 107.658 676.599 107.658C677.966 107.658 679.363 107.465 680.74 107.077C685.259 105.792 693.388 101.967 697.223 99.7839C704.888 95.4285 708.101 90.405 707.974 83.0253V55.8117C707.974 54.4041 706.832 53.2617 705.424 53.2617L705.429 53.2668Z" fill="#2C2420"/>
<path d="M604.148 77.2469C602.078 77.2979 600.481 79.1135 600.481 81.1841V86.6411C600.481 88.7117 602.078 90.5273 604.148 90.5783C606.275 90.6344 608.014 88.926 608.014 86.8146V81.0108C608.014 78.8994 606.275 77.1908 604.148 77.2469Z" fill="#2C2420"/>
<path d="M640.44 92.3584C638.063 92.4196 636.232 94.5004 636.232 96.8821V103.145C636.232 105.521 638.063 107.607 640.44 107.669C642.878 107.73 644.877 105.771 644.877 103.349V96.6832C644.877 94.2556 642.878 92.2972 640.44 92.3635V92.3584Z" fill="#2C2420"/>
<path d="M750.431 127.278C746.076 123.683 740.17 123.974 737.615 128.717C733.581 136.203 745.097 145.679 739.92 157.95C737.187 164.432 731.908 165.998 728.297 166.849V125.917C728.297 116.237 724.748 108.648 714.354 103.217C718.174 98.7897 720.403 93.1338 720.494 87.0648V46.1985C720.168 32.9487 711.156 27.7671 703.914 23.6055C696.259 19.2093 680.592 12.5385 672.228 9.41224C658.239 4.18984 645.122 4.56724 630.954 10.6107C627.246 12.1917 608.34 20.3109 600.226 24.9315C593.423 28.8075 586.176 33.9687 586.319 46.1985V87.6564C586.319 93.45 588.506 99.0396 592.326 103.41C582.07 108.857 579.005 116.477 579.005 125.662V182.986C579.005 193.583 585.222 201.743 594.198 205.767C604.373 210.332 618.132 216.442 629.924 221.47C645.463 228.095 658.739 228.926 677.986 221.032C686.799 217.416 704.674 209.251 713.375 205.155C725.436 199.479 727.828 193.017 728.272 183.654C738.054 181.991 756.485 174.504 758.357 153.768C759.494 141.161 755.582 131.522 750.437 127.273L750.431 127.278ZM587.512 135.877C586.9 135.53 586.686 134.75 587.038 134.138L592.908 123.846C594.116 121.724 596.376 120.557 598.808 120.796C601.241 121.036 603.225 122.627 603.995 124.943L610.09 143.292C610.314 143.96 609.952 144.685 609.284 144.904C609.151 144.95 609.014 144.97 608.881 144.97C608.345 144.97 607.851 144.634 607.672 144.098L601.578 125.748C601.124 124.376 599.992 123.474 598.559 123.331C597.12 123.188 595.84 123.851 595.121 125.106L589.251 135.398C588.904 136.01 588.124 136.224 587.512 135.872V135.877ZM592.989 180.349C590.715 180.349 588.869 178.503 588.869 176.228V169.874C588.869 167.599 590.715 165.753 592.989 165.753C595.264 165.753 597.11 167.599 597.11 169.874V176.228C597.11 178.503 595.264 180.349 592.989 180.349ZM629.653 204.309C629.561 204.37 627.792 205.543 624.91 205.543C624.237 205.543 623.503 205.477 622.712 205.319C615.74 203.926 613.032 198.668 612.058 195.782C610.176 196.909 606.815 198.255 602.837 196.929C597.539 195.164 596.391 189.983 596.345 189.764C596.202 189.075 596.641 188.397 597.329 188.254C598.018 188.106 598.691 188.55 598.839 189.233C598.875 189.401 599.762 193.216 603.643 194.512C608.238 196.047 611.803 192.869 611.956 192.737C612.308 192.421 612.803 192.319 613.247 192.482C613.69 192.64 614.012 193.033 614.078 193.502C614.124 193.813 615.312 201.244 623.212 202.825C626.277 203.437 628.154 202.248 628.23 202.192C628.817 201.81 629.607 201.968 629.995 202.554C630.383 203.136 630.235 203.921 629.653 204.314V204.309ZM643.612 196.149C643.612 198.673 641.567 200.713 639.047 200.713C636.528 200.713 634.483 198.668 634.483 196.149V189.111C634.483 186.586 636.528 184.546 639.047 184.546C641.567 184.546 643.612 186.591 643.612 189.111V196.149ZM653.71 164.524C653.562 164.575 653.414 164.595 653.266 164.595C652.675 164.595 652.129 164.223 651.93 163.631L645.208 143.394C644.708 141.885 643.459 140.885 641.878 140.732C640.292 140.574 638.874 141.308 638.089 142.691L631.617 154.038C631.234 154.711 630.372 154.946 629.699 154.563C629.026 154.181 628.791 153.319 629.174 152.646L635.646 141.298C636.982 138.957 639.476 137.672 642.158 137.937C644.841 138.203 647.034 139.957 647.881 142.512L654.602 162.749C654.847 163.488 654.449 164.284 653.71 164.529V164.524ZM703.746 105.032C697.442 108.077 685.519 113.309 677.629 116.777L673.758 118.481C662.36 123.504 649.467 124.055 637.456 120.036L636.523 119.725L635.62 120.118C635.488 120.179 622.024 125.963 609.789 121.347C601.318 118.154 600.65 111.805 600.757 109.224C600.767 108.929 600.797 108.633 600.833 108.342C603.296 110.729 607.295 112.575 611.966 113.187C620.193 114.263 627.384 111.116 628.037 106.154C628.684 101.192 622.544 96.2958 614.318 95.2197C608.136 94.4088 602.537 95.9898 599.864 98.9274C599.053 99.7179 598.334 100.641 597.732 101.681C593.739 98.0553 591.408 92.9553 591.408 87.6615V46.173C591.306 37.5285 595.315 33.6015 602.741 29.3685C610.615 24.8856 629.281 16.8684 632.948 15.3078C645.836 9.81515 657.749 9.45814 670.438 14.196C678.639 17.256 693.954 23.7687 701.369 28.0323C709.677 32.8059 715.145 36.6615 715.395 46.3005V87.0342C715.277 94.7301 710.815 101.63 703.751 105.042L703.746 105.032Z" fill="#2C2420"/>
</g>
<path d="M744.49 193.14V203.96H741.95V193.14H739.02V190.96H747.41V193.14H744.48H744.49Z" fill="white"/>
<path d="M750.36 190.95H752.19L755.64 199.22L759.25 190.95H761.08L763.26 203.96H760.69L759.52 195.94L756.03 203.96H755.17L751.84 195.94L750.51 203.96H747.94L750.36 190.95Z" fill="white"/>
</g>
</g>
<defs>
<clipPath id="clip0_253_1579">
<rect width="764" height="232" fill="white"/>
</clipPath>
<clipPath id="clip1_253_1579">
<rect width="765" height="231" fill="white" transform="translate(-1 1)"/>
</clipPath>
<clipPath id="clip2_253_1579">
<rect width="188.226" height="229.643" fill="white" transform="translate(574.66 1.41016)"/>
</clipPath>
</defs>
</svg>
