<svg width="758" height="217" viewBox="0 0 758 217" fill="none" xmlns="http://www.w3.org/2000/svg">
<path d="M0.200012 110.4C0.200012 93.3 4.30002 79.8 12.6 69.9C21.4 60 33 55 47.3 55C61.6 55 73 60 82 69.9C90.5 80.1 94.7 93.6 94.7 110.4C94.7 127.2 90.5 140.7 82 150.6C73.4 160.4 61.8 165.2 47.3 165.2C32.8 165.2 21.1 160.3 12.6 150.6C4.30002 140.8 0.200012 127.4 0.200012 110.4ZM20.3 110.4C20.3 122.2 22.7 131.1 27.4 137.2C32.1 143.5 38.8 146.7 47.4 146.7C56 146.7 62.5 143.6 67.4 137.2C72.3 130.7 74.7 121.8 74.7 110.4C74.7 99 72.3 90 67.4 83.3C62.5 77 55.8 73.9 47.4 73.9C39 73.9 32.1 77 27.4 83.3C22.7 89.6 20.3 98.6 20.3 110.4Z" fill="#2C2420"/>
<path d="M155.7 163.3H138.7V121.4C138.7 117.5 137.5 114.6 135.1 112.8C132.7 111 130.1 110.1 127.1 110.1C124.1 110.1 121.5 111 119.2 112.8C116.9 114.6 115.7 117.5 115.7 121.4V163.3H98.5V124.9C98.5 113.7 101.4 106.3 107.2 102.5C113 98.6998 119.5 96.6998 126.5 96.3998C130.3 96.3998 134 96.7998 137.6 97.5998C141.2 98.3998 144.5 100.1 147.5 102.5C150 100.4 152.9 98.8998 156.2 97.8998C159.6 96.9998 163.1 96.4998 166.7 96.2998C173.9 96.2998 180.6 98.1998 186.7 102C192.8 105.8 195.8 113.4 195.8 124.9V163.3H187.2C184.7 163.3 182.7 162.5 181.2 161C179.6 159.4 178.9 157.4 178.9 155V121.5C178.9 117.6 177.7 114.7 175.3 112.9C172.9 111.1 170.3 110.2 167.3 110.2C164.3 110.2 161.7 111.1 159.3 112.9C156.9 114.7 155.7 117.6 155.7 121.5V163.4V163.3Z" fill="#2C2420"/>
<path d="M242.4 146.9C238.9 148.7 235.3 149.8 231.4 150.2C227.5 150.6 224.1 150.8 221.2 150.8C215.3 150.8 210.1 149.2 205.7 146C201.3 142.8 199.1 137.5 199.1 130.1C199.1 122.7 201.1 118.3 205.1 115.3C209.1 112.3 214.2 110.4 220.5 109.4C221.3 109.4 222.3 109.3 223.5 109C224.7 108.7 226 108.6 227.4 108.4C234.6 107.4 238.2 105.3 238.2 102C238.2 98.7 236.9 97.9 234.4 97.2C231.9 96.5 229.5 96.1 227.4 96.1C225.3 96.1 223 96.4 221.3 97.1C219.5 97.8 218.2 99 217.4 100.8H200.9C201.6 95.7 203.9 91.5 207.8 88.2C212.2 84.4 218.6 82.5 226.8 82.5C235 82.5 242.9 84.1 247.5 87.2C252.3 90.5 254.6 95.1 254.6 101V123.4C254.6 130 253.4 135.1 251 138.8C248.6 142.5 245.8 145.2 242.5 146.8L242.4 146.9ZM238.5 116.6C236.2 117.7 233 118.8 228.9 119.8L223.2 121C220.2 121.8 218.1 122.9 216.8 124.2C215.7 126 215.1 127.8 215.1 129.6C215.1 131.4 215.8 134 217.3 135.5C218.8 136.8 220.9 137.5 223.7 137.5C228.3 137.5 231.9 136.2 234.5 133.6C237.1 131 238.4 127.4 238.4 122.8V116.7L238.5 116.6Z" fill="#2C2420"/>
<path d="M260.1 163.3V67.2999C260.1 64.7999 261 62.6999 262.7 60.9999C264.4 59.2999 266.5 58.3999 269 58.3999H277.6V113.3L310.6 78.5999H332.5L298.5 112.8L335.4 163.3H314.2L292.8 133.3C289 128.4 285.5 126.4 282.3 127.5C279.1 128.6 277.5 130.6 277.5 133.5V163.3H260H260.1Z" fill="#2C2420"/>
<path d="M369 152C365.5 153.8 361.9 154.9 358 155.3C354.1 155.7 350.7 155.9 347.8 155.9C341.9 155.9 336.7 154.3 332.3 151.1C327.9 147.9 325.7 142.6 325.7 135.2C325.7 127.8 327.7 123.4 331.7 120.4C335.7 117.4 340.8 115.5 347.1 114.5C347.9 114.5 348.9 114.4 350.1 114.1C351.3 113.8 352.6 113.7 354 113.5C361.2 112.5 364.8 110.4 364.8 107.1C364.8 103.8 363.5 103 361 102.3C358.5 101.6 356.1 101.2 354 101.2C351.9 101.2 349.7 101.5 347.8 102.2C346 102.9 344.7 104.1 343.9 105.9H327.4C328.1 100.8 330.4 96.6001 334.3 93.3001C338.7 89.5001 345.1 87.6001 353.3 87.6001C361.5 87.6001 369.4 89.2001 374 92.3001C378.8 95.6001 381.1 100.2 381.1 106.1V128.5C381.1 135.1 379.9 140.2 377.5 143.9C375.1 147.6 372.3 150.3 369 151.9V152ZM365.1 121.7C362.8 122.8 359.6 123.9 355.5 124.9L349.8 126.1C346.8 126.9 344.7 128 343.4 129.3C342.2 131.1 341.7 132.9 341.7 134.7C341.7 136.5 342.4 139.1 343.9 140.6C345.4 141.9 347.5 142.6 350.3 142.6C354.9 142.6 358.5 141.3 361.1 138.7C363.7 136.1 365 132.5 365 127.9V121.8L365.1 121.7Z" fill="#2C2420"/>
<path d="M412.6 163.3C407.2 163.6 401.3 163.5 395 163.1C388.7 162.6 385.5 158.6 385.5 151V78.6001H394.4C396.5 78.6001 398.4 79.4001 400.1 81.1001C401.7 82.7001 402.6 84.7001 402.6 87.0001V98.1001H412.7V101.5C412.7 104 411.9 106 410.2 107.5C408.5 109 406.6 109.8 404.3 109.8H402.6V146.2C402.6 149 404.2 150.4 407.5 150.4H412.7V163.2L412.6 163.3Z" fill="#2C2420"/>
<path d="M412.6 141.6H429.3C429.5 144.9 430.7 147.4 433 149C435.5 150.6 438.7 151.5 442.8 151.5C446.9 151.5 448.3 150.9 450.4 149.8C452.4 148.7 453.4 147.1 453.4 145.1C453.4 142.1 449.9 139.9 443.1 138.5C440.1 138 437.9 137.5 436.4 137C427.7 134.9 421.9 132.3 418.9 129.4C415.6 126.4 414 122.5 414 117.6C414 112.7 416.4 106.2 421.1 102.1C426 98.2999 432.4 96.3999 440.3 96.3999C448.2 96.3999 455.6 98.2999 460.7 102.1C465.5 106.2 468 111.5 468.3 118.1H457.7C454.6 118.1 452.2 116.7 450.6 113.9C449.9 113.3 449.3 112.6 448.6 111.9C446.6 110.4 443.9 109.7 440.5 109.7C437.1 109.7 434.7 110.2 433.1 111.2C431.6 112.2 430.9 113.7 430.9 115.6C430.9 117.5 435.2 120.4 443.7 122.3C444.7 122.6 445.5 122.9 446.3 123C447 123.2 447.7 123.2 448.4 123.2C456.8 125.3 462.6 127.8 465.9 130.6C469 133.6 470.6 137.5 470.6 142.4C470.6 149.6 468 155.2 462.7 159.1C457.8 162.7 450.4 164.5 440.5 164.5C430.6 164.5 424.2 162.6 419.6 158.8C414.8 155 412.5 149.5 412.5 142.3V141.6H412.6Z" fill="#2C2420"/>
<path d="M518.9 134.5H531.2C529.4 141.4 525.9 146.6 520.9 150.3C515.8 154.1 509.4 156 501.7 156C494 156 485 153 479.8 146.9C474.5 141 471.9 132.5 471.9 121.5C471.9 110.5 474.4 102.8 479.5 96.8998C484.7 90.7998 492.1 87.7998 501.4 87.7998C510.7 87.7998 518.9 90.6998 524.3 96.6998C529.5 102.8 532.2 111.2 532.2 122.1V124.8C532.2 125.6 532.2 126.2 532 126.5H489.4C489.6 131.6 490.8 135.4 493.1 137.8C495.2 140.4 498.4 141.7 502.7 141.7C507 141.7 507.9 141.1 509.8 140C510.3 139.8 510.7 139.5 511.1 139.1C511.5 138.7 512 138.2 512.4 137.7C512.6 137.2 513.2 136.6 514.2 135.7C515.3 134.9 516.8 134.5 518.8 134.5H518.9ZM489.4 115.3H514.5C514.2 110.9 513 107.6 511 105.4C508.9 103.1 505.8 102 501.9 102C498 102 495.3 103.1 493 105.4C490.7 107.7 489.5 111 489.3 115.3H489.4Z" fill="#2C2420"/>
<path d="M0.200012 110.4C0.200012 93.3 4.30002 79.8 12.6 69.9C21.4 60 33 55 47.3 55C61.6 55 73 60 82 69.9C90.5 80.1 94.7 93.6 94.7 110.4C94.7 127.2 90.5 140.7 82 150.6C73.4 160.4 61.8 165.2 47.3 165.2C32.8 165.2 21.1 160.3 12.6 150.6C4.30002 140.8 0.200012 127.4 0.200012 110.4ZM20.3 110.4C20.3 122.2 22.7 131.1 27.4 137.2C32.1 143.5 38.8 146.7 47.4 146.7C56 146.7 62.5 143.6 67.4 137.2C72.3 130.7 74.7 121.8 74.7 110.4C74.7 99 72.3 90 67.4 83.3C62.5 77 55.8 73.9 47.4 73.9C39 73.9 32.1 77 27.4 83.3C22.7 89.6 20.3 98.6 20.3 110.4Z" fill="#2C2420"/>
<path d="M155.7 163.3H138.7V121.4C138.7 117.5 137.5 114.6 135.1 112.8C132.7 111 130.1 110.1 127.1 110.1C124.1 110.1 121.5 111 119.2 112.8C116.9 114.6 115.7 117.5 115.7 121.4V163.3H98.5V124.9C98.5 113.7 101.4 106.3 107.2 102.5C113 98.6998 119.5 96.6998 126.5 96.3998C130.3 96.3998 134 96.7998 137.6 97.5998C141.2 98.3998 144.5 100.1 147.5 102.5C150 100.4 152.9 98.8998 156.2 97.8998C159.6 96.9998 163.1 96.4998 166.7 96.2998C173.9 96.2998 180.6 98.1998 186.7 102C192.8 105.8 195.8 113.4 195.8 124.9V163.3H187.2C184.7 163.3 182.7 162.5 181.2 161C179.6 159.4 178.9 157.4 178.9 155V121.5C178.9 117.6 177.7 114.7 175.3 112.9C172.9 111.1 170.3 110.2 167.3 110.2C164.3 110.2 161.7 111.1 159.3 112.9C156.9 114.7 155.7 117.6 155.7 121.5V163.4V163.3Z" fill="#2C2420"/>
<path d="M242.4 146.9C238.9 148.7 235.3 149.8 231.4 150.2C227.5 150.6 224.1 150.8 221.2 150.8C215.3 150.8 210.1 149.2 205.7 146C201.3 142.8 199.1 137.5 199.1 130.1C199.1 122.7 201.1 118.3 205.1 115.3C209.1 112.3 214.2 110.4 220.5 109.4C221.3 109.4 222.3 109.3 223.5 109C224.7 108.7 226 108.6 227.4 108.4C234.6 107.4 238.2 105.3 238.2 102C238.2 98.7 236.9 97.9 234.4 97.2C231.9 96.5 229.5 96.1 227.4 96.1C225.3 96.1 223 96.4 221.3 97.1C219.5 97.8 218.2 99 217.4 100.8H200.9C201.6 95.7 203.9 91.5 207.8 88.2C212.2 84.4 218.6 82.5 226.8 82.5C235 82.5 242.9 84.1 247.5 87.2C252.3 90.5 254.6 95.1 254.6 101V123.4C254.6 130 253.4 135.1 251 138.8C248.6 142.5 245.8 145.2 242.5 146.8L242.4 146.9ZM238.5 116.6C236.2 117.7 233 118.8 228.9 119.8L223.2 121C220.2 121.8 218.1 122.9 216.8 124.2C215.7 126 215.1 127.8 215.1 129.6C215.1 131.4 215.8 134 217.3 135.5C218.8 136.8 220.9 137.5 223.7 137.5C228.3 137.5 231.9 136.2 234.5 133.6C237.1 131 238.4 127.4 238.4 122.8V116.7L238.5 116.6Z" fill="#2C2420"/>
<path d="M260.1 163.3V67.2999C260.1 64.7999 261 62.6999 262.7 60.9999C264.4 59.2999 266.5 58.3999 269 58.3999H277.6V113.3L310.6 78.5999H332.5L298.5 112.8L335.4 163.3H314.2L292.8 133.3C289 128.4 285.5 126.4 282.3 127.5C279.1 128.6 277.5 130.6 277.5 133.5V163.3H260H260.1Z" fill="#2C2420"/>
<path d="M369 152C365.5 153.8 361.9 154.9 358 155.3C354.1 155.7 350.7 155.9 347.8 155.9C341.9 155.9 336.7 154.3 332.3 151.1C327.9 147.9 325.7 142.6 325.7 135.2C325.7 127.8 327.7 123.4 331.7 120.4C335.7 117.4 340.8 115.5 347.1 114.5C347.9 114.5 348.9 114.4 350.1 114.1C351.3 113.8 352.6 113.7 354 113.5C361.2 112.5 364.8 110.4 364.8 107.1C364.8 103.8 363.5 103 361 102.3C358.5 101.6 356.1 101.2 354 101.2C351.9 101.2 349.7 101.5 347.8 102.2C346 102.9 344.7 104.1 343.9 105.9H327.4C328.1 100.8 330.4 96.6001 334.3 93.3001C338.7 89.5001 345.1 87.6001 353.3 87.6001C361.5 87.6001 369.4 89.2001 374 92.3001C378.8 95.6001 381.1 100.2 381.1 106.1V128.5C381.1 135.1 379.9 140.2 377.5 143.9C375.1 147.6 372.3 150.3 369 151.9V152ZM365.1 121.7C362.8 122.8 359.6 123.9 355.5 124.9L349.8 126.1C346.8 126.9 344.7 128 343.4 129.3C342.2 131.1 341.7 132.9 341.7 134.7C341.7 136.5 342.4 139.1 343.9 140.6C345.4 141.9 347.5 142.6 350.3 142.6C354.9 142.6 358.5 141.3 361.1 138.7C363.7 136.1 365 132.5 365 127.9V121.8L365.1 121.7Z" fill="#2C2420"/>
<path d="M412.6 163.3C407.2 163.6 401.3 163.5 395 163.1C388.7 162.6 385.5 158.6 385.5 151V78.6001H394.4C396.5 78.6001 398.4 79.4001 400.1 81.1001C401.7 82.7001 402.6 84.7001 402.6 87.0001V98.1001H412.7V101.5C412.7 104 411.9 106 410.2 107.5C408.5 109 406.6 109.8 404.3 109.8H402.6V146.2C402.6 149 404.2 150.4 407.5 150.4H412.7V163.2L412.6 163.3Z" fill="#2C2420"/>
<path d="M412.6 141.6H429.3C429.5 144.9 430.7 147.4 433 149C435.5 150.6 438.7 151.5 442.8 151.5C446.9 151.5 448.3 150.9 450.4 149.8C452.4 148.7 453.4 147.1 453.4 145.1C453.4 142.1 449.9 139.9 443.1 138.5C440.1 138 437.9 137.5 436.4 137C427.7 134.9 421.9 132.3 418.9 129.4C415.6 126.4 414 122.5 414 117.6C414 112.7 416.4 106.2 421.1 102.1C426 98.2999 432.4 96.3999 440.3 96.3999C448.2 96.3999 455.6 98.2999 460.7 102.1C465.5 106.2 468 111.5 468.3 118.1H457.7C454.6 118.1 452.2 116.7 450.6 113.9C449.9 113.3 449.3 112.6 448.6 111.9C446.6 110.4 443.9 109.7 440.5 109.7C437.1 109.7 434.7 110.2 433.1 111.2C431.6 112.2 430.9 113.7 430.9 115.6C430.9 117.5 435.2 120.4 443.7 122.3C444.7 122.6 445.5 122.9 446.3 123C447 123.2 447.7 123.2 448.4 123.2C456.8 125.3 462.6 127.8 465.9 130.6C469 133.6 470.6 137.5 470.6 142.4C470.6 149.6 468 155.2 462.7 159.1C457.8 162.7 450.4 164.5 440.5 164.5C430.6 164.5 424.2 162.6 419.6 158.8C414.8 155 412.5 149.5 412.5 142.3V141.6H412.6Z" fill="#2C2420"/>
<path d="M518.9 134.5H531.2C529.4 141.4 525.9 146.6 520.9 150.3C515.8 154.1 509.4 156 501.7 156C494 156 485 153 479.8 146.9C474.5 141 471.9 132.5 471.9 121.5C471.9 110.5 474.4 102.8 479.5 96.8998C484.7 90.7998 492.1 87.7998 501.4 87.7998C510.7 87.7998 518.9 90.6998 524.3 96.6998C529.5 102.8 532.2 111.2 532.2 122.1V124.8C532.2 125.6 532.2 126.2 532 126.5H489.4C489.6 131.6 490.8 135.4 493.1 137.8C495.2 140.4 498.4 141.7 502.7 141.7C507 141.7 507.9 141.1 509.8 140C510.3 139.8 510.7 139.5 511.1 139.1C511.5 138.7 512 138.2 512.4 137.7C512.6 137.2 513.2 136.6 514.2 135.7C515.3 134.9 516.8 134.5 518.8 134.5H518.9ZM489.4 115.3H514.5C514.2 110.9 513 107.6 511 105.4C508.9 103.1 505.8 102 501.9 102C498 102 495.3 103.1 493 105.4C490.7 107.7 489.5 111 489.3 115.3H489.4Z" fill="#2C2420"/>
<g clip-path="url(#clip0_480_266289)">
<path d="M629.65 192.6C629.55 192.65 627.75 193.8 624.75 193.2C617 191.65 615.85 184.35 615.8 184.05C615.75 183.6 615.4 183.2 615 183.05C614.55 182.9 614.1 183 613.75 183.3C613.6 183.45 610.1 186.55 605.6 185.05C601.8 183.8 600.9 180.05 600.9 179.85C600.75 179.2 600.1 178.75 599.4 178.9C598.75 179.05 598.3 179.7 598.45 180.4C598.45 180.6 599.6 185.7 604.8 187.4C608.7 188.7 612 187.4 613.85 186.3C614.8 189.15 617.45 194.3 624.3 195.65C625.1 195.8 625.8 195.85 626.45 195.85C629.3 195.85 631 194.7 631.1 194.65C631.65 194.25 631.8 193.5 631.45 192.9C631.05 192.35 630.3 192.15 629.7 192.55L629.65 192.6Z" fill="white"/>
<path d="M599.15 160.9C599.15 158.65 597.35 156.85 595.1 156.85C592.85 156.85 591.05 158.65 591.05 160.9V167.15C591.05 169.4 592.85 171.2 595.1 171.2C597.35 171.2 599.15 169.4 599.15 167.15V160.9Z" fill="white"/>
<path d="M640.25 175.3C637.8 175.3 635.8 177.3 635.8 179.8V186.7C635.8 189.2 637.8 191.2 640.25 191.2C642.7 191.2 644.7 189.2 644.7 186.7V179.8C644.7 177.3 642.7 175.3 640.25 175.3Z" fill="white"/>
<path d="M591.45 127.1L597.2 117C597.9 115.75 599.15 115.1 600.55 115.25C601.95 115.4 603.05 116.3 603.5 117.6L609.5 135.6C609.65 136.1 610.15 136.45 610.7 136.45C611.25 136.45 610.95 136.45 611.1 136.4C611.75 136.2 612.1 135.45 611.9 134.8L605.9 116.8C605.15 114.55 603.2 112.95 600.8 112.75C598.4 112.5 596.2 113.65 595 115.75L589.25 125.85C588.9 126.45 589.1 127.2 589.7 127.55C590.3 127.9 591.05 127.7 591.4 127.1H591.45Z" fill="white"/>
<path d="M648.95 134.05C648.1 131.55 645.95 129.8 643.35 129.55C640.7 129.3 638.25 130.55 636.95 132.85L630.6 143.95C630.2 144.6 630.45 145.45 631.1 145.85C631.75 146.25 632.6 146 633 145.35L639.35 134.25C640.15 132.9 641.5 132.2 643.05 132.35C644.6 132.5 645.85 133.5 646.3 134.95L652.9 154.8C653.1 155.4 653.65 155.75 654.2 155.75C654.75 155.75 654.5 155.75 654.65 155.7C655.35 155.45 655.75 154.7 655.55 153.95L648.95 134.1V134.05Z" fill="white"/>
<path d="M715.1 39.7502C714.85 30.3002 709.5 26.5002 701.35 21.8502C694.1 17.6502 679.05 11.3002 671.05 8.30019C658.6 3.65018 646.95 4.00019 634.3 9.40019C630.7 10.9502 612.4 18.8002 604.7 23.2002C597.4 27.3502 593.5 31.2002 593.6 39.7002V80.3502C593.6 85.5502 595.9 90.5502 599.8 94.1002C600.4 93.1002 601.1 92.1502 601.9 91.4002C604.5 88.5002 610 86.9502 616.05 87.7502C624.1 88.8002 630.15 93.6002 629.5 98.4502C628.85 103.3 621.8 106.4 613.75 105.35C609.15 104.75 605.25 102.95 602.85 100.6C602.85 100.9 602.8 101.15 602.75 101.45C602.65 104 603.3 110.2 611.6 113.35C623.6 117.9 636.8 112.2 636.95 112.15L637.85 111.75L638.75 112.05C650.5 116 663.15 115.45 674.35 110.5L678.15 108.85C685.9 105.45 697.55 100.3 703.75 97.3502C710.7 94.0002 715.05 87.2502 715.15 79.7002V39.7502H715.1ZM609.85 79.4502C609.85 81.5002 608.15 83.2002 606.05 83.1502C604 83.1002 602.45 81.3002 602.45 79.3002V73.9502C602.45 71.9002 604 70.1502 606.05 70.1002C608.15 70.0502 609.85 71.7002 609.85 73.8002V79.5002V79.4502ZM646 95.6502C646 98.0502 644.05 99.9502 641.65 99.9002C639.3 99.8502 637.55 97.8002 637.55 95.4502V89.3002C637.55 86.9502 639.35 84.9002 641.65 84.8502C644.05 84.8002 646 86.7002 646 89.1002V95.6502ZM707.85 75.7502C707.95 83.0002 704.8 87.9002 697.3 92.2002C693.55 94.3502 685.55 98.1002 681.15 99.3502C679.8 99.7502 678.45 99.9002 677.1 99.9002C674.25 99.9002 671.5 99.0502 669.3 97.4002C666.5 95.2502 664.9 92.1002 664.9 88.4502V65.9502C664.9 64.5502 666 63.4502 667.4 63.4502C668.8 63.4502 669.9 64.5502 669.9 65.9502V88.4502C669.9 91.0502 671.2 92.6002 672.3 93.4002C674.25 94.8502 677.05 95.3002 679.75 94.5002C683.4 93.4502 690.95 90.0002 694.8 87.8002C700.75 84.4502 702.9 81.1502 702.8 75.7502V49.0502C702.8 47.6502 703.9 46.5502 705.3 46.5502C706.7 46.5502 707.8 47.6502 707.8 49.0502V75.7502H707.85Z" fill="white"/>
<path d="M705.35 46.5499C703.95 46.5499 702.85 47.6499 702.85 49.0499V75.7499C702.95 81.1499 700.8 84.3999 694.85 87.7999C691 89.9999 683.45 93.4499 679.8 94.4999C677.05 95.2999 674.25 94.8499 672.35 93.3999C671.25 92.5999 669.95 91.0499 669.95 88.4499V65.9499C669.95 64.5499 668.85 63.4499 667.45 63.4499C666.05 63.4499 664.95 64.5499 664.95 65.9499V88.4499C664.95 92.0999 666.5 95.2999 669.35 97.3999C671.55 99.0499 674.3 99.8999 677.15 99.8999C680 99.8999 679.85 99.6999 681.2 99.3499C685.65 98.0999 693.6 94.3499 697.35 92.1999C704.85 87.9499 708 82.9999 707.9 75.7499V49.0499C707.9 47.6499 706.8 46.5499 705.4 46.5499H705.35Z" fill="#2C2420"/>
<path d="M606.05 70.1003C604 70.1503 602.45 71.9503 602.45 73.9503V79.3003C602.45 81.3503 604 83.1003 606.05 83.1503C608.15 83.2003 609.85 81.5503 609.85 79.4503V73.7503C609.85 71.7003 608.15 70.0003 606.05 70.0503V70.1003Z" fill="#2C2420"/>
<path d="M641.65 84.9002C639.3 84.9502 637.55 87.0002 637.55 89.3502V95.5002C637.55 97.8502 639.35 99.9002 641.65 99.9502C644.05 100 646 98.1002 646 95.7002V89.1502C646 86.7502 644.05 84.8502 641.65 84.9002Z" fill="#2C2420"/>
<path d="M749.45 119.15C745.2 115.6 739.4 115.9 736.9 120.55C732.95 127.9 744.25 137.2 739.15 149.2C736.45 155.55 731.3 157.1 727.75 157.95V117.8C727.75 108.3 724.25 100.85 714.1 95.5501C717.85 91.2001 720.05 85.6501 720.1 79.7001V39.6501C719.8 26.6501 710.95 21.6001 703.85 17.5001C696.35 13.2001 681 6.65007 672.8 3.60007C659.1 -1.49994 646.2 -1.14993 632.35 4.80006C628.7 6.35007 610.2 14.3001 602.25 18.8501C595.6 22.6501 588.5 27.7001 588.6 39.7001V80.3501C588.6 86.0501 590.75 91.5001 594.5 95.8001C584.4 101.05 581.4 108.55 581.4 117.55V173.75C581.4 184.15 587.5 192.15 596.3 196.1C606.3 200.6 619.75 206.55 631.35 211.5C646.6 218 659.6 218.8 678.45 211.05C687.1 207.5 704.6 199.5 713.15 195.5C724.95 189.95 727.3 183.6 727.75 174.4C737.35 172.75 755.4 165.45 757.25 145.1C758.35 132.75 754.55 123.3 749.5 119.15H749.45ZM589.75 127.55C589.15 127.2 588.95 126.45 589.3 125.85L595.05 115.75C596.25 113.65 598.45 112.55 600.85 112.75C603.25 113 605.2 114.55 605.95 116.8L611.95 134.8C612.15 135.45 611.8 136.15 611.15 136.4C611 136.4 610.9 136.45 610.75 136.45C610.25 136.45 609.75 136.1 609.55 135.6L603.55 117.6C603.1 116.25 602 115.35 600.6 115.25C599.2 115.1 597.95 115.75 597.25 117L591.5 127.1C591.15 127.7 590.4 127.9 589.8 127.55H589.75ZM595.1 171.15C592.85 171.15 591.05 169.35 591.05 167.1V160.85C591.05 158.6 592.85 156.8 595.1 156.8C597.35 156.8 599.15 158.6 599.15 160.85V167.1C599.15 169.35 597.35 171.15 595.1 171.15ZM631.05 194.65C630.95 194.7 629.2 195.85 626.4 195.85C623.6 195.85 625 195.8 624.25 195.65C617.4 194.3 614.75 189.15 613.8 186.3C611.95 187.4 608.65 188.75 604.75 187.4C599.55 185.65 598.45 180.6 598.4 180.4C598.25 179.7 598.7 179.05 599.35 178.9C600 178.75 600.7 179.2 600.85 179.85C600.85 180 601.75 183.75 605.55 185.05C610.05 186.55 613.55 183.45 613.7 183.3C614.05 183 614.55 182.9 614.95 183.05C615.4 183.2 615.7 183.6 615.75 184.05C615.75 184.35 616.95 191.65 624.7 193.2C627.7 193.8 629.55 192.65 629.6 192.6C630.2 192.2 630.95 192.4 631.35 192.95C631.75 193.5 631.6 194.3 631 194.7L631.05 194.65ZM644.75 186.65C644.75 189.15 642.75 191.15 640.3 191.15C637.85 191.15 635.85 189.15 635.85 186.65V179.75C635.85 177.25 637.85 175.25 640.3 175.25C642.75 175.25 644.75 177.25 644.75 179.75V186.65ZM654.65 155.65C654.5 155.7 654.35 155.7 654.2 155.7C653.6 155.7 653.1 155.35 652.9 154.75L646.3 134.9C645.8 133.4 644.6 132.45 643.05 132.3C641.5 132.15 640.1 132.85 639.35 134.2L633 145.3C632.6 145.95 631.8 146.2 631.1 145.8C630.4 145.4 630.2 144.6 630.6 143.9L636.95 132.8C638.25 130.5 640.7 129.25 643.35 129.5C646 129.75 648.15 131.5 648.95 134L655.55 153.85C655.8 154.6 655.4 155.35 654.65 155.6V155.65ZM703.7 97.3001C697.5 100.3 685.85 105.4 678.1 108.8L674.3 110.45C663.1 115.4 650.5 115.9 638.7 112L637.8 111.7L636.9 112.1C636.75 112.15 623.55 117.85 611.55 113.3C603.25 110.15 602.6 103.95 602.7 101.4C602.7 101.1 602.7 100.8 602.8 100.55C605.2 102.9 609.15 104.7 613.7 105.3C621.75 106.35 628.8 103.25 629.45 98.4001C630.1 93.5501 624.05 88.7501 616 87.7001C609.95 86.9001 604.45 88.4501 601.85 91.3501C601.05 92.1501 600.35 93.0501 599.75 94.0501C595.85 90.5001 593.55 85.5001 593.55 80.3001V39.6501C593.45 31.1501 597.4 27.3001 604.65 23.1501C612.35 18.7501 630.65 10.9001 634.25 9.35007C646.9 3.95007 658.55 3.60007 671 8.25006C679.05 11.2501 694.05 17.6501 701.35 21.8001C709.5 26.5001 714.85 30.2501 715.1 39.7001V79.6501C715 87.2001 710.6 93.9501 703.7 97.3001Z" fill="#2C2420"/>
</g>
<defs>
<clipPath id="clip0_480_266289">
<rect width="176.05" height="216.6" fill="white" transform="matrix(1 0 0 -1 581.4 216.6)"/>
</clipPath>
</defs>
</svg>
