<svg width="500" height="500" viewBox="0 0 500 500" fill="none" xmlns="http://www.w3.org/2000/svg">
<path d="M84.6 341.685C73.8 341.685 65.1 345.485 58.4 352.985C52.2 360.485 49 370.685 49 383.585C49 396.485 52.1 406.585 58.4 413.985C64.8 421.385 73.7 424.985 84.6 424.985C95.5 424.985 104.3 421.285 110.8 413.985C117.2 406.485 120.4 396.385 120.4 383.585C120.4 370.785 117.2 360.685 110.8 352.985C104 345.485 95.4 341.685 84.6 341.685ZM99.7 403.785C96 408.585 91.1 410.885 84.6 410.885C78.1 410.885 73 408.485 69.5 403.785C66 399.185 64.2 392.385 64.2 383.585C64.2 374.785 66 367.885 69.5 363.085C73 358.285 78.2 355.985 84.6 355.985C91 355.985 96 358.385 99.7 363.085C103.4 368.185 105.2 374.985 105.2 383.585C105.2 392.185 103.4 398.885 99.7 403.785Z" fill="#2C2420"/>
<path d="M189.9 377.185C185.3 374.285 180.3 372.885 174.8 372.885C172.1 372.985 169.4 373.385 166.9 374.085C164.4 374.785 162.2 375.885 160.3 377.485C158.1 375.585 155.6 374.385 152.9 373.785C150.2 373.185 147.4 372.885 144.5 372.885C139.2 373.085 134.3 374.685 129.9 377.585C125.5 380.485 123.3 386.085 123.3 394.485V423.485H136.3V391.885C136.3 388.885 137.2 386.785 138.9 385.385C140.6 383.985 142.6 383.385 144.9 383.385C147.2 383.385 149.1 384.085 150.9 385.385C152.7 386.785 153.6 388.885 153.6 391.885V423.485H166.4V391.885C166.4 388.885 167.3 386.785 169.1 385.385C170.9 383.985 172.9 383.385 175.1 383.385C177.3 383.385 179.3 384.085 181.1 385.385C182.9 386.785 183.8 388.885 183.8 391.885V417.185C183.8 418.985 184.4 420.585 185.6 421.685C186.8 422.885 188.3 423.485 190.1 423.485H196.6V394.485C196.6 385.785 194.3 380.085 189.7 377.185H189.9Z" fill="#2C2420"/>
<path d="M235.6 366.084C232.1 363.784 226.9 362.584 220 362.584C213.1 362.584 209 363.984 205.7 366.884C202.7 369.384 201 372.484 200.5 376.384H213C213.6 374.984 214.6 374.084 216 373.584C217.4 373.084 218.9 372.884 220.6 372.884C222.3 372.884 224 373.184 225.9 373.684C227.8 374.184 228.8 375.484 228.8 377.284C228.8 379.084 226.1 381.384 220.6 382.084C219.5 382.184 218.5 382.384 217.6 382.584C216.7 382.784 216 382.884 215.4 382.884C210.7 383.584 206.8 385.084 203.8 387.384C200.8 389.584 199.3 393.284 199.3 398.484C199.3 403.684 201 408.084 204.3 410.484C207.6 412.884 211.6 414.084 216 414.084C220.4 414.084 220.8 413.884 223.7 413.584C226.6 413.284 229.4 412.484 232 411.084C234.5 409.884 236.6 407.884 238.4 405.084C240.2 402.284 241.1 398.384 241.1 393.484V376.584C241.1 372.084 239.3 368.684 235.7 366.184L235.6 366.084ZM228.9 388.284V392.984C228.9 396.484 227.9 399.184 225.9 401.184C223.9 403.184 221.2 404.184 217.7 404.184C214.2 404.184 214 403.684 212.9 402.684C211.8 401.584 211.2 400.084 211.2 398.184C211.2 396.284 211.6 395.484 212.5 394.084C213.5 393.084 215.1 392.284 217.3 391.684L221.6 390.784C224.7 389.984 227.1 389.184 228.8 388.384H228.9V388.284Z" fill="#2C2420"/>
<path d="M299.9 359.485H283.4L258.5 385.685V344.185H252C250.1 344.185 248.6 344.885 247.3 346.185C246 347.485 245.3 349.085 245.3 350.885V423.385H258.5V400.885C258.5 398.685 259.7 397.185 262.1 396.385C264.5 395.585 267.1 397.085 270 400.785L286.2 423.485H302.2L274.3 385.385L299.9 359.585V359.485Z" fill="#2C2420"/>
<path d="M331.2 369.984C327.7 367.584 322.5 366.484 315.6 366.484C308.7 366.484 304.6 367.884 301.3 370.784C298.3 373.284 296.6 376.384 296.1 380.284H308.6C309.2 378.884 310.2 377.984 311.6 377.484C313 376.984 314.5 376.784 316.3 376.784C318.1 376.784 319.7 377.084 321.6 377.584C323.5 378.084 324.5 379.384 324.5 381.184C324.5 382.984 321.8 385.284 316.3 385.984C315.2 386.084 314.2 386.284 313.3 386.484C312.4 386.684 311.7 386.784 311.1 386.784C306.4 387.484 302.5 388.984 299.5 391.284C296.5 393.484 295 397.184 295 402.484C295 407.784 296.7 412.084 300 414.484C303.3 416.884 307.2 418.084 311.7 418.084C316.2 418.084 316.5 417.884 319.4 417.584C322.3 417.284 325.1 416.484 327.7 415.084C330.2 413.884 332.3 411.884 334.1 409.084C335.9 406.284 336.8 402.384 336.8 397.484V380.584C336.8 376.084 335 372.684 331.4 370.184L331.2 369.984ZM324.5 392.084V396.784C324.5 400.284 323.5 402.984 321.5 404.984C319.5 406.984 316.8 407.984 313.3 407.984C309.8 407.984 309.6 407.484 308.5 406.484C307.4 405.384 306.8 403.884 306.8 401.984C306.8 400.084 307.2 399.284 308.1 397.884C309.1 396.884 310.7 396.084 312.9 395.484L317.2 394.584C320.3 393.784 322.7 392.984 324.4 392.184H324.5V392.084Z" fill="#2C2420"/>
<path d="M360.4 413.785H356.5C354 413.785 352.8 412.785 352.8 410.585V383.085H354.1C355.8 383.085 357.3 382.485 358.6 381.285C359.8 380.085 360.5 378.585 360.5 376.785V374.185H352.9V365.785C352.9 364.085 352.3 362.585 351 361.285C349.7 359.985 348.3 359.385 346.7 359.385H340V414.085C340 419.785 342.4 422.785 347.2 423.185C352 423.585 356.4 423.585 360.5 423.385V413.685L360.4 413.785Z" fill="#2C2420"/>
<path d="M387.5 393.184C387 393.184 386.5 393.184 385.9 392.984C385.3 392.884 384.7 392.684 383.9 392.384C377.4 390.984 374.2 389.384 374.2 387.384C374.2 385.384 374.8 384.784 375.9 384.084C377.1 383.284 378.9 382.984 381.5 382.984C384.1 382.984 386.1 383.484 387.6 384.684L389.1 386.184C390.3 388.284 392.1 389.384 394.5 389.384H402.5C402.3 384.384 400.3 380.384 396.7 377.284C392.9 374.484 387.7 372.984 381.3 372.984C374.9 372.984 370.5 374.384 366.8 377.284C363.2 380.384 361.4 384.284 361.4 388.984C361.4 393.684 362.6 395.684 365.1 397.884C367.3 400.084 371.7 402.084 378.3 403.684C379.4 404.084 381.1 404.484 383.3 404.784C388.5 405.884 391.1 407.584 391.1 409.784C391.1 411.984 390.4 412.484 388.9 413.284C387.3 414.184 385.4 414.584 383.1 414.584C380.8 414.584 377.5 413.984 375.7 412.684C374 411.484 373 409.584 372.9 407.084H360.3V407.684C360.3 413.184 362.1 417.284 365.7 420.184C369.2 423.084 374.1 424.484 381.5 424.484C388.9 424.484 394.5 423.084 398.2 420.384C402.2 417.384 404.2 413.184 404.2 407.784C404.2 402.384 403 401.084 400.7 398.884C398.2 396.784 393.8 394.884 387.5 393.284V393.184Z" fill="#2C2420"/>
<path d="M444.8 373.085C440.7 368.585 435 366.385 427.5 366.385C420 366.385 414.9 368.685 411 373.285C407.2 377.785 405.2 383.585 405.2 391.885C405.2 400.185 407.2 406.585 411.2 410.985C415.2 415.585 420.7 417.885 427.7 417.885C434.7 417.885 438.4 416.485 442.2 413.585C446 410.885 448.6 406.885 450 401.685H440.7C439.2 401.685 438.1 401.985 437.3 402.585C436.5 403.185 436 403.685 435.9 404.085L434.9 405.085C434.6 405.385 434.2 405.585 433.9 405.785C432.4 406.685 430.6 407.085 428.5 407.085C425.3 407.085 422.9 406.085 421.3 404.085C419.6 402.185 418.6 399.385 418.5 395.585H450.7C450.8 395.385 450.9 394.885 450.9 394.285V392.285C450.9 384.085 448.9 377.685 444.9 373.085H444.8ZM418.4 387.285C418.5 384.085 419.4 381.585 421.2 379.885C422.9 378.185 425.2 377.285 427.9 377.285C430.6 377.285 433.2 378.185 434.8 379.885C436.3 381.485 437.2 383.985 437.4 387.285H418.4Z" fill="#2C2420"/>
<path d="M218.9 266.484C216.2 266.484 214 268.684 214 271.384V278.884C214 281.584 216.2 283.784 218.9 283.784C221.6 283.784 223.8 281.584 223.8 278.884V271.384C223.8 268.684 221.6 266.484 218.9 266.484Z" fill="white"/>
<path d="M212.5 222.885C209.6 224.885 203.1 234.285 202.2 246.085C202.2 246.885 203.2 247.085 203.5 246.385C206.3 240.485 208 236.985 211.6 234.085C214 232.185 217.4 232.485 219.1 234.185C222.7 237.885 224.9 245.085 227.7 257.485C227.9 258.285 229 258.085 229 257.285C228.8 245.885 227.3 233.485 221.7 224.685C219.8 221.685 215.9 220.285 212.4 222.685V222.885H212.5Z" fill="white"/>
<path d="M206.8 284.284C206.8 284.284 205.1 285.384 202.3 284.784C194.7 283.284 193.6 276.184 193.5 275.884C193.4 274.984 192.7 274.184 191.9 273.884C191 273.584 190.1 273.784 189.4 274.384C189.3 274.484 185.9 277.384 181.7 275.984C178.3 274.884 177.4 271.384 177.4 271.184C177.1 269.884 175.8 268.984 174.4 269.284C173 269.584 172.2 270.884 172.5 272.284C172.5 272.584 173.9 278.684 180.1 280.784C184 282.084 187.3 281.185 189.6 280.085C191 283.485 194.2 288.284 201.3 289.684C202.2 289.884 203.1 289.984 203.9 289.984C207.2 289.984 209.3 288.684 209.6 288.484C210.7 287.684 211 286.184 210.3 285.085C209.6 283.984 208 283.584 206.9 284.284H206.8Z" fill="white"/>
<path d="M174.4 257.684V250.984C174.4 248.584 172.4 246.584 170 246.584C167.6 246.584 165.6 248.584 165.6 250.984V257.684C165.6 260.084 167.6 262.084 170 262.084C172.4 262.084 174.4 260.084 174.4 257.684Z" fill="white"/>
<path d="M170.1 215.784C172.5 213.884 175.9 214.184 177.6 215.884C181.2 219.584 183.4 226.784 186.2 239.184C186.4 239.984 187.5 239.784 187.5 238.984C187.3 227.584 185.8 215.184 180.2 206.384C178.3 203.384 174.4 201.984 170.9 204.384C168 206.384 161.5 215.784 160.6 227.584C160.6 228.384 161.6 228.584 161.9 227.884C164.7 221.984 166.4 218.484 170 215.584V215.784H170.1Z" fill="white"/>
<path d="M284.2 101.784C276.4 97.2844 260.3 90.4844 251.6 87.1844C238.6 82.2844 226.3 82.6844 213 88.2844C201.8 93.0844 187.5 99.4844 181.1 103.084C173.6 107.384 169.8 111.084 169.9 119.484V163.484C169.9 168.084 171.7 172.484 174.7 175.784C175.4 174.884 176.1 174.184 176.9 173.484C179.9 170.684 185.5 169.184 191.8 169.984C200.5 171.084 207 176.284 206.3 181.584C205.6 186.884 198 190.184 189.2 189.084C185.6 188.584 182.3 187.384 179.8 185.784V186.384C179.7 188.784 180.3 194.684 188.3 197.684C200.6 202.284 214.3 196.484 214.5 196.384L216 195.684L217.6 196.184C230 200.284 243.2 199.784 255 194.584L259.1 192.784C267.5 189.084 280.1 183.584 286.8 180.284C293.7 176.884 298.1 170.184 298.2 162.584V119.384C298 109.984 292.7 106.284 284.1 101.384V101.784H284.2ZM186 162.784C186 164.984 184.1 166.884 181.9 166.784C179.7 166.784 178 164.784 178 162.584V156.784C178 154.584 179.7 152.684 181.9 152.584C184.1 152.584 186 154.384 186 156.584V162.784ZM225.1 180.284C225.1 182.884 223 184.884 220.4 184.884C217.8 184.884 215.9 182.584 215.9 180.084V173.484C215.9 170.984 217.8 168.784 220.4 168.684C223 168.684 225.1 170.684 225.1 173.284V180.384V180.284ZM291.5 157.884C291.6 166.384 288 172.084 279.3 177.084C275.2 179.484 266.4 183.584 261.4 184.984C259.8 185.484 258.2 185.684 256.6 185.684C253.1 185.684 249.8 184.684 247.2 182.684C243.7 180.084 241.8 176.184 241.8 171.684V147.284C241.8 144.884 243.7 142.984 246.1 142.984C248.5 142.984 250.4 144.884 250.4 147.284V171.684C250.4 173.384 251 174.784 252.3 175.784C254 177.084 256.5 177.384 259 176.684C262.8 175.584 270.9 171.884 274.9 169.584C281.6 165.784 282.8 162.484 282.7 157.984V128.984C282.7 126.584 284.6 124.684 287 124.684C289.4 124.684 291.3 126.584 291.3 128.984V157.884H291.5Z" fill="white"/>
<path d="M336.9 205.885C332.3 202.085 325.7 202.385 322.2 206.885C316.3 214.685 325.3 223.485 323.1 235.085C321.9 241.085 317.5 244.585 313.6 245.485V204.185C313.6 194.385 310.2 186.585 300.3 180.885C304.5 175.985 306.9 169.685 307 162.985V119.585C306.6 104.585 296.6 98.8845 288.6 94.1845C280 89.2845 263.3 82.1845 254.7 78.9845C239.4 73.2845 225.1 73.6845 209.7 80.2845C205.8 81.9845 185.6 90.5845 176.9 95.5845C169.3 99.8845 161.2 105.685 161.3 119.585V163.585C161.3 170.085 163.7 176.285 167.8 181.185C158.1 186.885 155.1 194.685 155.1 203.985V264.785C155.1 275.985 161.7 284.685 171.2 288.985C182 293.785 196.6 300.285 209.1 305.685C225.6 312.685 239.7 313.585 260.1 305.185C269.5 301.385 288.4 292.685 297.6 288.285C310.4 282.285 312.9 275.385 313.4 265.485C322.9 262.785 342.7 254.585 344.9 233.385C346.3 219.985 342.2 210.285 336.7 205.785H336.9V205.885ZM162 227.985C161.6 228.685 160.6 228.485 160.7 227.685C161.5 215.885 168 206.485 171 204.485C174.5 202.085 178.4 203.485 180.3 206.485C185.9 215.385 187.3 227.685 187.6 239.085C187.6 239.885 186.5 239.985 186.3 239.285C183.5 226.885 181.3 219.685 177.7 215.985C176 214.185 172.6 213.885 170.2 215.885C166.7 218.785 164.9 222.285 162.1 228.185V227.985H162ZM170 262.085C167.6 262.085 165.6 260.085 165.6 257.685V250.985C165.6 248.585 167.6 246.585 170 246.585C172.4 246.585 174.4 248.585 174.4 250.985V257.685C174.4 260.085 172.4 262.085 170 262.085ZM209.6 288.385C209.3 288.585 207.3 289.885 203.9 289.885C200.5 289.885 202.3 289.885 201.3 289.585C194.2 288.185 191 283.385 189.6 279.985C187.3 281.085 184 281.985 180.1 280.685C173.9 278.585 172.5 272.485 172.5 272.185C172.2 270.785 173.1 269.485 174.4 269.185C175.7 268.885 177.1 269.785 177.4 271.085C177.4 271.285 178.3 274.685 181.7 275.885C185.9 277.285 189.3 274.385 189.4 274.285C190.1 273.685 191.1 273.485 191.9 273.785C192.8 274.085 193.4 274.885 193.5 275.785C193.5 276.085 194.7 283.185 202.3 284.685C205 285.185 206.7 284.185 206.8 284.185C208 283.485 209.5 283.785 210.2 284.985C210.9 286.085 210.7 287.585 209.5 288.385H209.6ZM223.7 278.785C223.7 281.485 221.5 283.685 218.8 283.685C216.1 283.685 213.9 281.485 213.9 278.785V271.285C213.9 268.585 216.1 266.385 218.8 266.385C221.5 266.385 223.7 268.585 223.7 271.285V278.785ZM227.7 257.685C224.9 245.285 222.7 238.085 219.1 234.385C217.4 232.585 214 232.285 211.6 234.285C208.1 237.185 206.3 240.685 203.5 246.585C203.1 247.285 202.1 247.085 202.2 246.285C203 234.485 209.5 225.085 212.5 223.085C216 220.685 219.9 222.085 221.8 225.085C227.4 233.985 228.8 246.285 229.1 257.685C229.1 258.485 228 258.585 227.8 257.885V257.685H227.7ZM298.3 162.985C298.2 170.485 293.8 177.285 286.9 180.685C280.2 183.885 267.6 189.485 259.2 193.185L255.1 194.985C243.4 200.185 230.1 200.685 217.7 196.585L216.1 196.085L214.6 196.785C214.5 196.785 200.7 202.685 188.4 198.085C180.4 195.085 179.8 189.185 179.9 186.785V186.185C182.4 187.785 185.7 188.985 189.3 189.485C198 190.585 205.7 187.285 206.4 181.985C207.1 176.685 200.6 171.485 191.8 170.385C185.6 169.585 179.9 170.985 176.9 173.885C176.1 174.585 175.4 175.285 174.7 176.185C171.7 172.785 169.9 168.485 169.9 163.885V119.885C169.8 111.485 173.6 107.785 181.1 103.485C187.5 99.8845 201.8 93.3845 213 88.6845C226.3 82.9845 238.5 82.6845 251.6 87.5845C260.2 90.7845 276.4 97.6845 284.2 102.185C292.8 107.085 298 110.785 298.3 120.185V163.385V162.985Z" fill="#2C2420"/>
<path d="M287.2 124.685C284.8 124.685 282.9 126.585 282.9 128.985V157.985C282.9 162.485 281.7 165.785 275.1 169.585C271 171.885 263 175.585 259.2 176.685C256.7 177.385 254.2 177.085 252.5 175.785C251.2 174.785 250.6 173.385 250.6 171.685V147.285C250.6 144.885 248.7 142.985 246.3 142.985C243.9 142.985 242 144.885 242 147.285V171.685C242 176.185 243.9 180.085 247.4 182.685C250 184.685 253.4 185.685 256.8 185.685C260.2 185.685 260 185.485 261.6 184.985C266.5 183.585 275.3 179.485 279.5 177.085C288.2 172.185 291.9 166.385 291.7 157.885V128.985C291.7 126.585 289.8 124.685 287.4 124.685H287.2Z" fill="#2C2420"/>
<path d="M181.8 152.684C179.6 152.684 177.9 154.684 177.9 156.884V162.684C177.9 164.884 179.6 166.784 181.8 166.884C184 166.884 185.9 165.084 185.9 162.884V156.684C185.9 154.484 184 152.584 181.8 152.684Z" fill="#2C2420"/>
<path d="M220.4 168.684C217.9 168.684 215.9 170.984 215.9 173.484V180.084C215.9 182.584 217.8 184.784 220.4 184.884C223 184.884 225.1 182.884 225.1 180.284V173.184C225.1 170.584 223 168.584 220.4 168.584V168.684Z" fill="#2C2420"/>
</svg>
