<svg width="764" height="232" viewBox="0 0 764 232" fill="none" xmlns="http://www.w3.org/2000/svg">
<g clip-path="url(#clip0_253_1579)">
<path d="M0 116C0 98.9001 4.10001 85.4001 12.4 75.5001C21.2 65.6001 32.8 60.6001 47.1 60.6001C61.4 60.6001 72.8 65.6001 81.8 75.5001C90.3 85.7001 94.5 99.2001 94.5 116C94.5 132.8 90.3 146.3 81.8 156.2C73.2 166 61.6 170.8 47.1 170.8C32.6 170.8 20.9 165.9 12.4 156.2C4.10001 146.4 0 133 0 116ZM20.1 116C20.1 127.8 22.5 136.7 27.2 142.8C31.9 149.1 38.6 152.3 47.2 152.3C55.8 152.3 62.3 149.2 67.2 142.8C72.1 136.3 74.5 127.4 74.5 116C74.5 104.6 72.1 95.6001 67.2 88.9001C62.3 82.6001 55.6 79.5001 47.2 79.5001C38.8 79.5001 31.9 82.6001 27.2 88.9001C22.5 95.2001 20.1 104.2 20.1 116Z" fill="white"/>
<path d="M155.5 168.9H138.5V127C138.5 123.1 137.3 120.2 134.9 118.4C132.5 116.6 129.9 115.7 126.9 115.7C123.9 115.7 121.3 116.6 119 118.4C116.7 120.2 115.5 123.1 115.5 127V168.9H98.3V130.5C98.3 119.3 101.2 111.9 107 108.1C112.8 104.3 119.3 102.3 126.3 102C130.1 102 133.8 102.4 137.4 103.2C141 104 144.3 105.7 147.3 108.1C149.8 106 152.7 104.5 156 103.5C159.4 102.6 162.9 102.1 166.5 101.9C173.7 101.9 180.4 103.8 186.5 107.6C192.6 111.4 195.6 119 195.6 130.5V168.9H187C184.5 168.9 182.5 168.1 181 166.6C179.4 165 178.7 163 178.7 160.6V127.1C178.7 123.2 177.5 120.3 175.1 118.5C172.7 116.7 170.1 115.8 167.1 115.8C164.1 115.8 161.5 116.7 159.1 118.5C156.7 120.3 155.5 123.2 155.5 127.1V169V168.9Z" fill="white"/>
<path d="M242.2 152.5C238.7 154.3 235.1 155.4 231.2 155.8C227.3 156.2 223.9 156.4 221 156.4C215.1 156.4 209.9 154.8 205.5 151.6C201.1 148.4 198.9 143.1 198.9 135.7C198.9 128.3 200.9 123.9 204.9 120.9C208.9 117.9 214 116 220.3 115C221.1 115 222.1 114.9 223.3 114.6C224.5 114.3 225.8 114.2 227.2 114C234.4 113 238 110.9 238 107.6C238 104.3 236.7 103.5 234.2 102.8C231.7 102.1 229.3 101.7 227.2 101.7C225.1 101.7 222.8 102 221.1 102.7C219.3 103.4 218 104.6 217.2 106.4H200.7C201.4 101.3 203.7 97.1001 207.6 93.8001C212 90.0001 218.4 88.1001 226.6 88.1001C234.8 88.1001 242.7 89.7001 247.3 92.8001C252.1 96.1001 254.4 100.7 254.4 106.6V129C254.4 135.6 253.2 140.7 250.8 144.4C248.4 148.1 245.6 150.8 242.3 152.4L242.2 152.5ZM238.3 122.2C236 123.3 232.8 124.4 228.7 125.4L223 126.6C220 127.4 217.9 128.5 216.6 129.8C215.5 131.6 214.9 133.4 214.9 135.2C214.9 137 215.6 139.6 217.1 141.1C218.6 142.4 220.7 143.1 223.5 143.1C228.1 143.1 231.7 141.8 234.3 139.2C236.9 136.6 238.2 133 238.2 128.4V122.3L238.3 122.2Z" fill="white"/>
<path d="M259.9 168.9V72.9C259.9 70.4 260.8 68.3 262.5 66.6C264.2 64.9 266.3 64 268.8 64H277.4V118.9L310.4 84.2H332.3L298.3 118.4L335.2 168.9H314L292.6 138.9C288.8 134 285.3 132 282.1 133.1C278.9 134.2 277.3 136.2 277.3 139.1V168.9H259.8H259.9Z" fill="white"/>
<path d="M368.8 157.6C365.3 159.4 361.7 160.5 357.8 160.9C353.9 161.3 350.5 161.5 347.6 161.5C341.7 161.5 336.5 159.9 332.1 156.7C327.7 153.5 325.5 148.2 325.5 140.8C325.5 133.4 327.5 129 331.5 126C335.5 123 340.6 121.1 346.9 120.1C347.7 120.1 348.7 120 349.9 119.7C351.1 119.4 352.4 119.3 353.8 119.1C361 118.1 364.6 116 364.6 112.7C364.6 109.4 363.3 108.6 360.8 107.9C358.3 107.2 355.9 106.8 353.8 106.8C351.7 106.8 349.5 107.1 347.6 107.8C345.8 108.5 344.5 109.7 343.7 111.5H327.2C327.9 106.4 330.2 102.2 334.1 98.9002C338.5 95.1002 344.9 93.2002 353.1 93.2002C361.3 93.2002 369.2 94.8002 373.8 97.9002C378.6 101.2 380.9 105.8 380.9 111.7V134.1C380.9 140.7 379.7 145.8 377.3 149.5C374.9 153.2 372.1 155.9 368.8 157.5V157.6ZM364.9 127.3C362.6 128.4 359.4 129.5 355.3 130.5L349.6 131.7C346.6 132.5 344.5 133.6 343.2 134.9C342 136.7 341.5 138.5 341.5 140.3C341.5 142.1 342.2 144.7 343.7 146.2C345.2 147.5 347.3 148.2 350.1 148.2C354.7 148.2 358.3 146.9 360.9 144.3C363.5 141.7 364.8 138.1 364.8 133.5V127.4L364.9 127.3Z" fill="white"/>
<path d="M412.4 168.9C407 169.2 401.1 169.1 394.8 168.7C388.5 168.2 385.3 164.2 385.3 156.6V84.2002H394.2C396.3 84.2002 398.2 85.0002 399.9 86.7002C401.5 88.3002 402.4 90.3002 402.4 92.6002V103.7H412.5V107.1C412.5 109.6 411.7 111.6 410 113.1C408.3 114.6 406.4 115.4 404.1 115.4H402.4V151.8C402.4 154.6 404 156 407.3 156H412.5V168.8L412.4 168.9Z" fill="white"/>
<path d="M412.4 147.2H429.1C429.3 150.5 430.5 153 432.8 154.6C435.3 156.2 438.5 157.1 442.6 157.1C446.7 157.1 448.1 156.5 450.2 155.4C452.2 154.3 453.2 152.7 453.2 150.7C453.2 147.7 449.7 145.5 442.9 144.1C439.9 143.6 437.7 143.1 436.2 142.6C427.5 140.5 421.7 137.9 418.7 135C415.4 132 413.8 128.1 413.8 123.2C413.8 118.3 416.2 111.8 420.9 107.7C425.8 103.9 432.2 102 440.1 102C448 102 455.4 103.9 460.5 107.7C465.3 111.8 467.8 117.1 468.1 123.7H457.5C454.4 123.7 452 122.3 450.4 119.5C449.7 118.9 449.1 118.2 448.4 117.5C446.4 116 443.7 115.3 440.3 115.3C436.9 115.3 434.5 115.8 432.9 116.8C431.4 117.8 430.7 119.3 430.7 121.2C430.7 123.1 435 126 443.5 127.9C444.5 128.2 445.3 128.5 446.1 128.6C446.8 128.8 447.5 128.8 448.2 128.8C456.6 130.9 462.4 133.4 465.7 136.2C468.8 139.2 470.4 143.1 470.4 148C470.4 155.2 467.8 160.8 462.5 164.7C457.6 168.3 450.2 170.1 440.3 170.1C430.4 170.1 424 168.2 419.4 164.4C414.6 160.6 412.3 155.1 412.3 147.9V147.2H412.4Z" fill="white"/>
<path d="M518.7 140.1H531C529.2 147 525.7 152.2 520.7 155.9C515.6 159.7 509.2 161.6 501.5 161.6C493.8 161.6 484.8 158.6 479.6 152.5C474.3 146.6 471.7 138.1 471.7 127.1C471.7 116.1 474.2 108.4 479.3 102.5C484.5 96.3999 491.9 93.3999 501.2 93.3999C510.5 93.3999 518.7 96.2999 524.1 102.3C529.3 108.4 532 116.8 532 127.7V130.4C532 131.2 532 131.8 531.8 132.1H489.2C489.4 137.2 490.6 141 492.9 143.4C495 146 498.2 147.3 502.5 147.3C506.8 147.3 507.7 146.7 509.6 145.6C510.1 145.4 510.5 145.1 510.9 144.7C511.3 144.3 511.8 143.8 512.2 143.3C512.4 142.8 513 142.2 514 141.3C515.1 140.5 516.6 140.1 518.6 140.1H518.7ZM489.2 120.9H514.3C514 116.5 512.8 113.2 510.8 111C508.7 108.7 505.6 107.6 501.7 107.6C497.8 107.6 495.1 108.7 492.8 111C490.5 113.3 489.3 116.6 489.1 120.9H489.2Z" fill="white"/>
<mask id="mask0_253_1579" style="mask-type:luminance" maskUnits="userSpaceOnUse" x="575" y="1" width="189" height="230">
<path d="M763.7 1H575.5V230.6H763.7V1Z" fill="white"/>
</mask>
<g mask="url(#mask0_253_1579)">
<g clip-path="url(#clip1_253_1579)">
<path d="M750.55 124C747.25 121.25 743.15 120.1 739.35 120.85C736 121.5 733.2 123.55 731.55 126.65C731 127.7 730.6 128.8 730.4 129.85V125.9C730.4 115.65 726.55 107.9 718.6 102.4C721.2 98.05 722.65 93 722.75 87.9V47.65C722.35 32.25 711.55 26.05 704.35 21.9C696.65 17.45 681 10.8 672.65 7.7C657.85 2.14999 644 2.55 629.05 8.95C625.4 10.5 606.65 18.55 598.5 23.2C593.3 26.15 582.55 32.3 582.7 47.75V88.4C582.7 93.4 584.1 98.35 586.7 102.65C579.1 108.05 575.5 115.5 575.5 125.65V181.85C575.5 193.35 582 203.15 592.9 208.05C602.4 212.3 616.2 218.45 628 223.5C636.55 227.15 644.35 229 652.25 229C660.45 229 668.85 227.05 678.4 223.1C687.05 219.55 704.35 211.65 713.3 207.45C725.35 201.75 729.05 194.95 730.1 186.05C743.4 182.75 758.1 172.65 759.85 153.65C761 141.05 757.45 129.7 750.55 124Z" fill="white"/>
<path d="M703.7 54.7001C702.3 54.7001 701.2 55.8001 701.2 57.2001V83.9501C701.3 89.3501 699.15 92.6001 693.2 96.0001C689.35 98.2001 681.8 101.65 678.15 102.7C675.4 103.5 672.6 103.05 670.7 101.6C669.6 100.8 668.3 99.2501 668.3 96.6501V74.1501C668.3 72.7501 667.2 71.6501 665.8 71.6501C664.4 71.6501 663.3 72.7501 663.3 74.1501V96.6501C663.3 100.3 664.85 103.5 667.7 105.6C669.9 107.25 672.65 108.1 675.5 108.1C678.35 108.1 678.2 107.9 679.55 107.55C684 106.3 691.95 102.55 695.7 100.4C703.2 96.1501 706.35 91.2001 706.25 83.9501V57.2501C706.25 55.8501 705.15 54.7501 703.75 54.7501L703.7 54.7001Z" fill="#2C2420"/>
<path d="M604.4 78.1999C602.35 78.2499 600.8 80.0499 600.8 82.0499V87.3999C600.8 89.4499 602.35 91.1999 604.4 91.2499C606.5 91.2999 608.2 89.6499 608.2 87.5499V81.8499C608.2 79.7999 606.5 78.0999 604.4 78.1499V78.1999Z" fill="#2C2420"/>
<path d="M640 92.9998C637.65 93.0498 635.9 95.0998 635.9 97.4498V103.6C635.9 105.95 637.7 108 640 108.05C642.4 108.1 644.35 106.2 644.35 103.8V97.2498C644.35 94.8498 642.4 92.9498 640 92.9998Z" fill="#2C2420"/>
<path d="M747.8 127.25C743.55 123.7 737.75 124 735.25 128.65C731.3 136 742.6 145.3 737.5 157.3C734.8 163.65 729.65 165.2 726.1 166.05V125.9C726.1 116.4 722.6 108.95 712.45 103.65C716.2 99.3 718.4 93.75 718.45 87.8V47.75C718.15 34.75 709.3 29.7 702.2 25.6C694.7 21.3 679.35 14.75 671.15 11.7C657.45 6.59996 644.55 6.94997 630.7 12.9C627.05 14.45 608.55 22.4 600.6 26.95C593.95 30.75 586.85 35.8 586.95 47.8V88.45C586.95 94.15 589.1 99.6 592.85 103.9C582.8 109.25 579.8 116.7 579.8 125.7V181.9C579.8 192.3 585.9 200.3 594.7 204.25C604.7 208.75 618.15 214.7 629.75 219.65C645 226.15 658 226.95 676.85 219.2C685.5 215.65 703 207.65 711.55 203.65C723.35 198.1 725.7 191.75 726.15 182.55C735.75 180.9 753.8 173.6 755.65 153.25C756.75 140.9 752.95 131.45 747.9 127.3L747.8 127.25ZM588.1 135.7C587.5 135.35 587.3 134.6 587.65 134L593.4 123.9C594.6 121.8 596.8 120.7 599.2 120.9C601.6 121.1 603.55 122.7 604.3 124.95L610.25 142.95C610.45 143.6 610.1 144.3 609.45 144.55C609.3 144.55 609.2 144.6 609.05 144.6C608.5 144.6 608.05 144.25 607.85 143.75L601.85 125.75C601.4 124.4 600.3 123.5 598.9 123.4C597.5 123.25 596.25 123.9 595.55 125.15L589.8 135.25C589.45 135.85 588.7 136.05 588.1 135.7ZM593.45 179.3C591.2 179.3 589.4 177.5 589.4 175.25V169C589.4 166.75 591.2 164.95 593.45 164.95C595.7 164.95 597.5 166.75 597.5 169V175.25C597.5 177.5 595.7 179.3 593.45 179.3ZM629.4 202.8C629.3 202.85 627.55 204 624.75 204C621.95 204 623.35 203.95 622.6 203.8C615.75 202.45 613.1 197.3 612.15 194.45C610.3 195.55 607 196.9 603.1 195.55C597.9 193.8 596.8 188.75 596.75 188.55C596.6 187.85 597.05 187.2 597.7 187.05C598.35 186.9 599.05 187.35 599.2 188C599.2 188.15 600.1 191.9 603.9 193.2C608.4 194.7 611.9 191.6 612.05 191.45C612.4 191.15 612.9 191.05 613.3 191.2C613.75 191.35 614.05 191.75 614.1 192.2C614.1 192.5 615.3 199.8 623.05 201.35C626.05 201.95 627.9 200.8 627.95 200.75C628.55 200.35 629.3 200.55 629.7 201.1C630.1 201.65 629.95 202.45 629.35 202.85L629.4 202.8ZM643.1 194.8C643.1 197.3 641.1 199.3 638.65 199.3C636.2 199.3 634.2 197.3 634.2 194.8V187.9C634.2 185.4 636.2 183.4 638.65 183.4C641.1 183.4 643.1 185.4 643.1 187.9V194.8ZM653 163.75C652.85 163.8 652.7 163.8 652.55 163.8C651.95 163.8 651.45 163.45 651.25 162.85L644.65 143C644.15 141.5 642.95 140.55 641.4 140.4C639.85 140.25 638.45 140.95 637.7 142.3L631.35 153.4C630.95 154.05 630.15 154.3 629.45 153.9C628.75 153.5 628.55 152.7 628.95 152L635.3 140.9C636.6 138.6 639.05 137.35 641.7 137.6C644.35 137.85 646.5 139.6 647.3 142.1L653.9 161.95C654.15 162.7 653.75 163.45 653 163.7V163.75ZM702.05 105.45C695.85 108.45 684.2 113.55 676.45 116.95L672.65 118.6C661.45 123.55 648.85 124.05 637.05 120.15L636.15 119.85L635.25 120.25C635.1 120.3 621.9 126 609.9 121.45C601.6 118.3 600.95 112.1 601.05 109.55C601.05 109.25 601.05 108.95 601.15 108.7C603.55 111.05 607.5 112.85 612.05 113.45C620.1 114.5 627.15 111.4 627.8 106.55C628.45 101.7 622.4 96.9 614.35 95.85C608.3 95.05 602.8 96.6 600.2 99.5C599.4 100.3 598.7 101.2 598.1 102.2C594.2 98.65 591.9 93.65 591.9 88.45V47.8C591.8 39.3 595.75 35.45 603 31.3C610.7 26.9 629 19.05 632.6 17.5C645.25 12.1 656.9 11.75 669.35 16.4C677.4 19.4 692.4 25.8 699.65 29.95C707.8 34.65 713.15 38.4 713.4 47.85V87.8C713.3 95.35 708.9 102.1 702 105.45H702.05Z" fill="#2C2420"/>
</g>
</g>
</g>
<defs>
<clipPath id="clip0_253_1579">
<rect width="764" height="232" fill="white"/>
</clipPath>
<clipPath id="clip1_253_1579">
<rect width="184.55" height="225.15" fill="white" transform="matrix(1 0 0 -1 575.5 229)"/>
</clipPath>
</defs>
</svg>
