<svg width="765" height="218" viewBox="0 0 765 218" fill="none" xmlns="http://www.w3.org/2000/svg">
<g clip-path="url(#clip0_196_1872)">
<path d="M0.23999 109.4C0.23999 92.3399 4.36998 78.8299 12.65 68.8699C21.48 58.9199 33.04 53.9399 47.33 53.9399C61.62 53.9399 72.99 58.9199 82.01 68.8699C90.47 79.0299 94.7 92.5399 94.7 109.4C94.7 126.26 90.47 139.67 82.01 149.62C73.36 159.37 61.8 164.25 47.33 164.25C32.86 164.25 21.11 159.37 12.65 149.62C4.37998 139.87 0.23999 126.46 0.23999 109.4ZM20.26 109.4C20.26 121.18 22.61 130.12 27.31 136.21C32.01 142.51 38.68 145.66 47.33 145.66C55.98 145.66 62.46 142.51 67.35 136.21C72.23 129.71 74.68 120.78 74.68 109.4C74.68 98.0199 72.24 88.9799 67.35 82.2799C62.46 75.9899 55.79 72.8299 47.33 72.8299C38.87 72.8299 32.01 75.9799 27.31 82.2799C22.61 88.5799 20.26 97.6199 20.26 109.4Z" fill="#2C2420"/>
<path d="M155.74 162.26H138.75V120.4C138.75 116.46 137.56 113.59 135.18 111.78C132.8 109.97 130.13 109.07 127.18 109.07C124.23 109.07 121.6 109.97 119.3 111.78C117 113.59 115.85 116.46 115.85 120.4V162.26H98.62V123.85C98.62 112.69 101.53 105.22 107.36 101.44C113.18 97.67 119.63 95.62 126.69 95.29C130.46 95.29 134.16 95.7001 137.77 96.5201C141.38 97.34 144.66 98.98 147.62 101.44C150.08 99.31 153 97.79 156.36 96.89C159.72 95.99 163.21 95.46 166.82 95.29C174.04 95.29 180.69 97.18 186.77 100.95C192.84 104.73 195.88 112.36 195.88 123.85V162.27H187.26C184.8 162.27 182.78 161.49 181.23 159.93C179.67 158.37 178.89 156.36 178.89 153.9V120.4C178.89 116.46 177.7 113.59 175.32 111.78C172.94 109.97 170.27 109.07 167.32 109.07C164.37 109.07 161.69 109.97 159.32 111.78C156.94 113.59 155.75 116.46 155.75 120.4V162.26H155.74Z" fill="#2C2420"/>
<path d="M242.41 145.91C238.96 147.72 235.31 148.82 231.45 149.23C227.59 149.64 224.19 149.85 221.23 149.85C215.32 149.85 210.15 148.25 205.72 145.05C201.29 141.85 199.07 136.56 199.07 129.17C199.07 122.28 201.08 117.35 205.1 114.4C209.12 111.45 214.25 109.48 220.49 108.49C221.31 108.49 222.3 108.37 223.45 108.12C224.6 107.87 225.91 107.67 227.39 107.5C234.61 106.52 238.22 104.38 238.22 101.1C238.22 98.6401 236.95 97.0401 234.41 96.3001C231.86 95.5601 229.52 95.1901 227.39 95.1901C225.09 95.1901 223.04 95.5201 221.24 96.1701C219.43 96.8301 218.12 98.0601 217.3 99.8601H200.8C201.46 94.7701 203.76 90.5901 207.69 87.3001C212.12 83.5301 218.44 81.6401 226.65 81.6401C235.84 81.6401 242.73 83.2001 247.33 86.3201C252.09 89.6101 254.47 94.2001 254.47 100.11V122.51C254.47 129.08 253.28 134.2 250.9 137.9C248.52 141.59 245.69 144.26 242.4 145.9L242.41 145.91ZM238.47 115.62C236.17 116.77 232.97 117.84 228.87 118.82L223.21 120.05C220.25 120.87 218.12 121.94 216.81 123.25C215.66 125.06 215.09 126.86 215.09 128.67C215.09 131.13 215.83 133.1 217.31 134.58C218.79 135.9 220.92 136.55 223.71 136.55C228.3 136.55 231.92 135.24 234.54 132.61C237.16 129.99 238.48 126.37 238.48 121.78V115.63L238.47 115.62Z" fill="#2C2420"/>
<path d="M260.1 162.27V66.2399C260.1 63.7799 260.96 61.6899 262.68 59.9599C264.4 58.2399 266.49 57.3799 268.96 57.3799H277.58V112.29L310.57 77.5699H332.48L298.51 111.79L335.44 162.26H314.27L292.85 132.22C289.07 127.3 285.59 125.37 282.39 126.43C279.19 127.5 277.59 129.51 277.59 132.46V162.25H260.11L260.1 162.27Z" fill="#2C2420"/>
<path d="M369 151C365.55 152.81 361.9 153.91 358.04 154.32C354.18 154.73 350.78 154.94 347.82 154.94C341.91 154.94 336.74 153.34 332.31 150.14C327.88 146.94 325.66 141.65 325.66 134.26C325.66 127.37 327.67 122.44 331.69 119.49C335.71 116.54 340.84 114.57 347.08 113.58C347.9 113.58 348.89 113.46 350.04 113.21C351.19 112.96 352.5 112.76 353.98 112.59C361.2 111.61 364.81 109.47 364.81 106.19C364.81 103.73 363.54 102.13 361 101.39C358.45 100.65 356.11 100.28 353.98 100.28C351.68 100.28 349.63 100.61 347.83 101.26C346.02 101.92 344.71 103.15 343.89 104.95H327.39C328.05 99.86 330.35 95.68 334.28 92.39C338.71 88.62 345.03 86.73 353.24 86.73C362.43 86.73 369.32 88.29 373.92 91.41C378.68 94.7 381.06 99.29 381.06 105.2V127.6C381.06 134.17 379.87 139.29 377.49 142.99C375.11 146.68 372.28 149.35 368.99 150.99L369 151ZM365.06 120.71C362.76 121.86 359.56 122.93 355.46 123.91L349.8 125.14C346.84 125.96 344.71 127.03 343.4 128.34C342.25 130.15 341.68 131.95 341.68 133.76C341.68 136.22 342.42 138.19 343.9 139.67C345.38 140.99 347.51 141.64 350.3 141.64C354.89 141.64 358.51 140.33 361.13 137.7C363.75 135.08 365.07 131.46 365.07 126.87V120.72L365.06 120.71Z" fill="#2C2420"/>
<path d="M412.58 162.27C407.16 162.6 401.29 162.52 394.98 162.02C388.66 161.53 385.5 157.51 385.5 149.96V77.5703H394.37C396.5 77.5703 398.39 78.3903 400.03 80.0303C401.67 81.6703 402.49 83.6403 402.49 85.9403V97.0203H412.58V100.47C412.58 102.93 411.76 104.94 410.12 106.5C408.48 108.06 406.51 108.84 404.21 108.84H402.49V145.28C402.49 148.07 404.13 149.47 407.41 149.47H412.58V162.27Z" fill="#2C2420"/>
<path d="M412.58 140.61H429.32C429.48 143.9 430.71 146.36 433.01 148C435.47 149.64 438.75 150.46 442.86 150.46C445.82 150.46 448.36 149.89 450.49 148.74C452.46 147.59 453.45 146.03 453.45 144.06C453.45 141.11 450 138.89 443.11 137.41C440.15 136.92 437.94 136.42 436.46 135.93C427.76 133.8 421.93 131.25 418.98 128.3C415.7 125.35 414.06 121.41 414.06 116.48C414.06 110.24 416.44 105.07 421.2 100.97C426.12 97.2001 432.53 95.3101 440.4 95.3101C448.93 95.3101 455.75 97.2001 460.83 100.97C465.59 105.08 468.13 110.41 468.46 116.97H457.87C454.75 116.97 452.37 115.58 450.73 112.78C450.07 112.13 449.41 111.47 448.76 110.81C446.79 109.33 444.08 108.59 440.64 108.59C437.2 108.59 434.89 109.08 433.25 110.07C431.77 111.05 431.03 112.53 431.03 114.5C431.03 117.13 435.3 119.34 443.83 121.15C444.82 121.48 445.68 121.73 446.42 121.89C447.16 122.06 447.85 122.14 448.51 122.14C456.88 124.28 462.71 126.74 465.99 129.53C469.11 132.48 470.67 136.42 470.67 141.35C470.67 148.57 468.04 154.15 462.79 158.09C457.87 161.7 450.48 163.51 440.63 163.51C430.78 163.51 424.3 161.62 419.7 157.85C414.94 154.08 412.56 148.58 412.56 141.35V140.61H412.58Z" fill="#2C2420"/>
<path d="M518.94 133.51H531.25C529.44 140.4 525.99 145.66 520.91 149.27C515.82 153.05 509.42 154.93 501.71 154.93C492.36 154.93 485.05 151.89 479.8 145.82C474.54 139.91 471.92 131.46 471.92 120.46C471.92 109.46 474.46 101.75 479.55 95.84C484.8 89.77 492.11 86.73 501.46 86.73C511.31 86.73 518.94 89.68 524.36 95.59C529.61 101.66 532.24 110.12 532.24 120.95V123.66C532.24 124.48 532.15 125.06 531.99 125.38H489.4C489.56 130.47 490.79 134.24 493.09 136.71C495.22 139.34 498.42 140.65 502.69 140.65C505.48 140.65 507.86 140.08 509.83 138.93C510.32 138.77 510.77 138.48 511.18 138.07C511.59 137.66 512.04 137.21 512.53 136.72C512.69 136.23 513.31 135.57 514.38 134.75C515.44 133.93 516.96 133.52 518.94 133.52V133.51ZM489.4 114.31H514.51C514.18 109.88 513.03 106.6 511.06 104.46C508.93 102.16 505.89 101.01 501.95 101.01C498.34 101.01 495.38 102.16 493.09 104.46C490.79 106.76 489.56 110.04 489.4 114.31Z" fill="#2C2420"/>
<path d="M0.23999 109.4C0.23999 92.3399 4.36998 78.8299 12.65 68.8699C21.48 58.9199 33.04 53.9399 47.33 53.9399C61.62 53.9399 72.99 58.9199 82.01 68.8699C90.47 79.0299 94.7 92.5399 94.7 109.4C94.7 126.26 90.47 139.67 82.01 149.62C73.36 159.37 61.8 164.25 47.33 164.25C32.86 164.25 21.11 159.37 12.65 149.62C4.37998 139.87 0.23999 126.46 0.23999 109.4ZM20.26 109.4C20.26 121.18 22.61 130.12 27.31 136.21C32.01 142.51 38.68 145.66 47.33 145.66C55.98 145.66 62.46 142.51 67.35 136.21C72.23 129.71 74.68 120.78 74.68 109.4C74.68 98.0199 72.24 88.9799 67.35 82.2799C62.46 75.9899 55.79 72.8299 47.33 72.8299C38.87 72.8299 32.01 75.9799 27.31 82.2799C22.61 88.5799 20.26 97.6199 20.26 109.4Z" fill="#2C2420"/>
<path d="M155.74 162.26H138.75V120.4C138.75 116.46 137.56 113.59 135.18 111.78C132.8 109.97 130.13 109.07 127.18 109.07C124.23 109.07 121.6 109.97 119.3 111.78C117 113.59 115.85 116.46 115.85 120.4V162.26H98.62V123.85C98.62 112.69 101.53 105.22 107.36 101.44C113.18 97.67 119.63 95.62 126.69 95.29C130.46 95.29 134.16 95.7001 137.77 96.5201C141.38 97.34 144.66 98.98 147.62 101.44C150.08 99.31 153 97.79 156.36 96.89C159.72 95.99 163.21 95.46 166.82 95.29C174.04 95.29 180.69 97.18 186.77 100.95C192.84 104.73 195.88 112.36 195.88 123.85V162.27H187.26C184.8 162.27 182.78 161.49 181.23 159.93C179.67 158.37 178.89 156.36 178.89 153.9V120.4C178.89 116.46 177.7 113.59 175.32 111.78C172.94 109.97 170.27 109.07 167.32 109.07C164.37 109.07 161.69 109.97 159.32 111.78C156.94 113.59 155.75 116.46 155.75 120.4V162.26H155.74Z" fill="#2C2420"/>
<path d="M242.41 145.91C238.96 147.72 235.31 148.82 231.45 149.23C227.59 149.64 224.19 149.85 221.23 149.85C215.32 149.85 210.15 148.25 205.72 145.05C201.29 141.85 199.07 136.56 199.07 129.17C199.07 122.28 201.08 117.35 205.1 114.4C209.12 111.45 214.25 109.48 220.49 108.49C221.31 108.49 222.3 108.37 223.45 108.12C224.6 107.87 225.91 107.67 227.39 107.5C234.61 106.52 238.22 104.38 238.22 101.1C238.22 98.6401 236.95 97.0401 234.41 96.3001C231.86 95.5601 229.52 95.1901 227.39 95.1901C225.09 95.1901 223.04 95.5201 221.24 96.1701C219.43 96.8301 218.12 98.0601 217.3 99.8601H200.8C201.46 94.7701 203.76 90.5901 207.69 87.3001C212.12 83.5301 218.44 81.6401 226.65 81.6401C235.84 81.6401 242.73 83.2001 247.33 86.3201C252.09 89.6101 254.47 94.2001 254.47 100.11V122.51C254.47 129.08 253.28 134.2 250.9 137.9C248.52 141.59 245.69 144.26 242.4 145.9L242.41 145.91ZM238.47 115.62C236.17 116.77 232.97 117.84 228.87 118.82L223.21 120.05C220.25 120.87 218.12 121.94 216.81 123.25C215.66 125.06 215.09 126.86 215.09 128.67C215.09 131.13 215.83 133.1 217.31 134.58C218.79 135.9 220.92 136.55 223.71 136.55C228.3 136.55 231.92 135.24 234.54 132.61C237.16 129.99 238.48 126.37 238.48 121.78V115.63L238.47 115.62Z" fill="#2C2420"/>
<path d="M260.1 162.27V66.2399C260.1 63.7799 260.96 61.6899 262.68 59.9599C264.4 58.2399 266.49 57.3799 268.96 57.3799H277.58V112.29L310.57 77.5699H332.48L298.51 111.79L335.44 162.26H314.27L292.85 132.22C289.07 127.3 285.59 125.37 282.39 126.43C279.19 127.5 277.59 129.51 277.59 132.46V162.25H260.11L260.1 162.27Z" fill="#2C2420"/>
<path d="M369 151C365.55 152.81 361.9 153.91 358.04 154.32C354.18 154.73 350.78 154.94 347.82 154.94C341.91 154.94 336.74 153.34 332.31 150.14C327.88 146.94 325.66 141.65 325.66 134.26C325.66 127.37 327.67 122.44 331.69 119.49C335.71 116.54 340.84 114.57 347.08 113.58C347.9 113.58 348.89 113.46 350.04 113.21C351.19 112.96 352.5 112.76 353.98 112.59C361.2 111.61 364.81 109.47 364.81 106.19C364.81 103.73 363.54 102.13 361 101.39C358.45 100.65 356.11 100.28 353.98 100.28C351.68 100.28 349.63 100.61 347.83 101.26C346.02 101.92 344.71 103.15 343.89 104.95H327.39C328.05 99.86 330.35 95.68 334.28 92.39C338.71 88.62 345.03 86.73 353.24 86.73C362.43 86.73 369.32 88.29 373.92 91.41C378.68 94.7 381.06 99.29 381.06 105.2V127.6C381.06 134.17 379.87 139.29 377.49 142.99C375.11 146.68 372.28 149.35 368.99 150.99L369 151ZM365.06 120.71C362.76 121.86 359.56 122.93 355.46 123.91L349.8 125.14C346.84 125.96 344.71 127.03 343.4 128.34C342.25 130.15 341.68 131.95 341.68 133.76C341.68 136.22 342.42 138.19 343.9 139.67C345.38 140.99 347.51 141.64 350.3 141.64C354.89 141.64 358.51 140.33 361.13 137.7C363.75 135.08 365.07 131.46 365.07 126.87V120.72L365.06 120.71Z" fill="#2C2420"/>
<path d="M412.58 162.27C407.16 162.6 401.29 162.52 394.98 162.02C388.66 161.53 385.5 157.51 385.5 149.96V77.5703H394.37C396.5 77.5703 398.39 78.3903 400.03 80.0303C401.67 81.6703 402.49 83.6403 402.49 85.9403V97.0203H412.58V100.47C412.58 102.93 411.76 104.94 410.12 106.5C408.48 108.06 406.51 108.84 404.21 108.84H402.49V145.28C402.49 148.07 404.13 149.47 407.41 149.47H412.58V162.27Z" fill="#2C2420"/>
<path d="M412.58 140.61H429.32C429.48 143.9 430.71 146.36 433.01 148C435.47 149.64 438.75 150.46 442.86 150.46C445.82 150.46 448.36 149.89 450.49 148.74C452.46 147.59 453.45 146.03 453.45 144.06C453.45 141.11 450 138.89 443.11 137.41C440.15 136.92 437.94 136.42 436.46 135.93C427.76 133.8 421.93 131.25 418.98 128.3C415.7 125.35 414.06 121.41 414.06 116.48C414.06 110.24 416.44 105.07 421.2 100.97C426.12 97.2001 432.53 95.3101 440.4 95.3101C448.93 95.3101 455.75 97.2001 460.83 100.97C465.59 105.08 468.13 110.41 468.46 116.97H457.87C454.75 116.97 452.37 115.58 450.73 112.78C450.07 112.13 449.41 111.47 448.76 110.81C446.79 109.33 444.08 108.59 440.64 108.59C437.2 108.59 434.89 109.08 433.25 110.07C431.77 111.05 431.03 112.53 431.03 114.5C431.03 117.13 435.3 119.34 443.83 121.15C444.82 121.48 445.68 121.73 446.42 121.89C447.16 122.06 447.85 122.14 448.51 122.14C456.88 124.28 462.71 126.74 465.99 129.53C469.11 132.48 470.67 136.42 470.67 141.35C470.67 148.57 468.04 154.15 462.79 158.09C457.87 161.7 450.48 163.51 440.63 163.51C430.78 163.51 424.3 161.62 419.7 157.85C414.94 154.08 412.56 148.58 412.56 141.35V140.61H412.58Z" fill="#2C2420"/>
<path d="M518.94 133.51H531.25C529.44 140.4 525.99 145.66 520.91 149.27C515.82 153.05 509.42 154.93 501.71 154.93C492.36 154.93 485.05 151.89 479.8 145.82C474.54 139.91 471.92 131.46 471.92 120.46C471.92 109.46 474.46 101.75 479.55 95.84C484.8 89.77 492.11 86.73 501.46 86.73C511.31 86.73 518.94 89.68 524.36 95.59C529.61 101.66 532.24 110.12 532.24 120.95V123.66C532.24 124.48 532.15 125.06 531.99 125.38H489.4C489.56 130.47 490.79 134.24 493.09 136.71C495.22 139.34 498.42 140.65 502.69 140.65C505.48 140.65 507.86 140.08 509.83 138.93C510.32 138.77 510.77 138.48 511.18 138.07C511.59 137.66 512.04 137.21 512.53 136.72C512.69 136.23 513.31 135.57 514.38 134.75C515.44 133.93 516.96 133.52 518.94 133.52V133.51ZM489.4 114.31H514.51C514.18 109.88 513.03 106.6 511.06 104.46C508.93 102.16 505.89 101.01 501.95 101.01C498.34 101.01 495.38 102.16 493.09 104.46C490.79 106.76 489.56 110.04 489.4 114.31Z" fill="#2C2420"/>
<g clip-path="url(#clip1_196_1872)">
<path d="M629.64 193.155C629.565 193.205 627.725 194.37 624.72 193.775C616.97 192.225 615.81 184.94 615.765 184.635C615.7 184.175 615.385 183.795 614.95 183.635C614.515 183.475 614.025 183.575 613.685 183.885C613.54 184.02 610.04 187.13 605.535 185.625C601.73 184.355 600.86 180.615 600.825 180.45C600.68 179.78 600.02 179.345 599.345 179.49C598.67 179.63 598.235 180.295 598.38 180.97C598.425 181.185 599.55 186.265 604.745 187.995C608.645 189.295 611.94 187.975 613.785 186.87C614.745 189.7 617.4 194.855 624.23 196.22C625.005 196.375 625.725 196.44 626.385 196.44C629.21 196.44 630.945 195.29 631.035 195.23C631.6 194.845 631.75 194.08 631.37 193.505C630.99 192.935 630.215 192.78 629.64 193.15V193.155Z" fill="white"/>
<path d="M599.13 161.47C599.13 159.24 597.32 157.43 595.09 157.43C592.86 157.43 591.05 159.24 591.05 161.47V167.7C591.05 169.93 592.86 171.74 595.09 171.74C597.32 171.74 599.13 169.93 599.13 167.7V161.47Z" fill="white"/>
<path d="M640.24 175.855C637.765 175.855 635.765 177.86 635.765 180.33V187.23C635.765 189.705 637.77 191.705 640.24 191.705C642.71 191.705 644.715 189.7 644.715 187.23V180.33C644.715 177.855 642.71 175.855 640.24 175.855Z" fill="white"/>
<path d="M591.425 127.67L597.18 117.58C597.88 116.35 599.14 115.7 600.55 115.84C601.96 115.98 603.065 116.865 603.51 118.21L609.485 136.2C609.66 136.725 610.145 137.055 610.67 137.055C610.8 137.055 610.935 137.035 611.065 136.99C611.72 136.77 612.075 136.065 611.855 135.41L605.88 117.42C605.125 115.15 603.175 113.59 600.795 113.355C598.41 113.115 596.195 114.265 595.01 116.345L589.255 126.435C588.915 127.035 589.12 127.8 589.72 128.14C590.32 128.48 591.085 128.275 591.425 127.675V127.67Z" fill="white"/>
<path d="M648.905 134.64C648.075 132.135 645.925 130.415 643.295 130.155C640.665 129.895 638.22 131.155 636.91 133.45L630.565 144.575C630.19 145.235 630.42 146.08 631.08 146.455C631.74 146.83 632.585 146.6 632.96 145.94L639.305 134.815C640.08 133.46 641.465 132.74 643.02 132.895C644.575 133.05 645.795 134.025 646.285 135.505L652.875 155.345C653.065 155.925 653.605 156.29 654.185 156.29C654.33 156.29 654.475 156.27 654.62 156.22C655.34 155.98 655.735 155.2 655.495 154.475L648.905 134.635V134.64Z" fill="white"/>
<path d="M715.09 40.31C714.845 30.86 709.485 27.085 701.34 22.4C694.07 18.22 679.06 11.84 671.015 8.83502C658.575 4.19002 646.895 4.53502 634.26 9.92502C630.67 11.455 612.365 19.315 604.645 23.71C597.365 27.86 593.435 31.715 593.535 40.185V80.86C593.535 86.05 595.82 91.045 599.735 94.605C600.325 93.585 601.03 92.68 601.825 91.905C604.45 89.025 609.94 87.475 615.995 88.27C624.06 89.325 630.08 94.125 629.445 98.99C628.81 103.855 621.755 106.94 613.69 105.885C609.11 105.285 605.19 103.48 602.775 101.135C602.74 101.42 602.715 101.71 602.7 102C602.595 104.53 603.25 110.755 611.555 113.885C623.55 118.41 636.75 112.74 636.88 112.68L637.765 112.295L638.68 112.6C650.455 116.54 663.095 116 674.27 111.075L678.065 109.405C685.8 106.01 697.485 100.875 703.67 97.89C710.595 94.545 714.97 87.78 715.085 80.235V40.3L715.09 40.31ZM609.815 80.04C609.815 82.11 608.11 83.785 606.025 83.73C603.995 83.68 602.43 81.9 602.43 79.87V74.52C602.43 72.49 603.995 70.71 606.025 70.66C608.11 70.605 609.815 72.28 609.815 74.35V80.04ZM645.96 96.25C645.96 98.63 644 100.55 641.61 100.485C639.28 100.425 637.485 98.385 637.485 96.05V89.91C637.485 87.58 639.28 85.535 641.61 85.475C644 85.415 645.96 87.335 645.96 89.71V96.245V96.25ZM707.825 76.33C707.95 83.565 704.8 88.49 697.285 92.76C693.52 94.895 685.555 98.65 681.125 99.91C679.775 100.295 678.405 100.48 677.065 100.48C674.195 100.48 671.445 99.62 669.275 97.98C666.455 95.85 664.9 92.665 664.9 89.015V66.5C664.9 65.12 666.02 64 667.4 64C668.78 64 669.9 65.12 669.9 66.5V89.015C669.9 91.635 671.2 93.165 672.29 93.99C674.235 95.46 677.03 95.875 679.76 95.1C683.4 94.065 690.975 90.595 694.82 88.415C700.755 85.045 702.925 81.785 702.83 76.38V49.655C702.83 48.275 703.95 47.155 705.33 47.155C706.71 47.155 707.83 48.275 707.83 49.655V76.335L707.825 76.33Z" fill="white"/>
<path d="M705.325 47.15C703.945 47.15 702.825 48.27 702.825 49.65V76.375C702.92 81.78 700.75 85.04 694.815 88.41C690.97 90.595 683.395 94.065 679.755 95.095C677.025 95.87 674.23 95.455 672.285 93.985C671.195 93.16 669.895 91.63 669.895 89.01V66.495C669.895 65.115 668.775 63.995 667.395 63.995C666.015 63.995 664.895 65.115 664.895 66.495V89.01C664.895 92.66 666.45 95.84 669.27 97.975C671.445 99.615 674.195 100.475 677.06 100.475C678.4 100.475 679.77 100.285 681.12 99.905C685.55 98.645 693.52 94.895 697.28 92.755C704.795 88.485 707.945 83.56 707.82 76.325V49.645C707.82 48.265 706.7 47.145 705.32 47.145L705.325 47.15Z" fill="#2C2420"/>
<path d="M606.03 70.66C604 70.71 602.435 72.49 602.435 74.52V79.87C602.435 81.9 604 83.68 606.03 83.73C608.115 83.785 609.82 82.11 609.82 80.04V74.35C609.82 72.28 608.115 70.605 606.03 70.66Z" fill="#2C2420"/>
<path d="M641.61 85.48C639.28 85.54 637.485 87.58 637.485 89.915V96.055C637.485 98.385 639.28 100.43 641.61 100.49C644 100.55 645.96 98.63 645.96 96.255V89.72C645.96 87.34 644 85.42 641.61 85.485V85.48Z" fill="#2C2420"/>
<path d="M749.445 119.71C745.175 116.185 739.385 116.47 736.88 121.12C732.925 128.46 744.215 137.75 739.14 149.78C736.46 156.135 731.285 157.67 727.745 158.505V118.375C727.745 108.885 724.265 101.445 714.075 96.1202C717.82 91.7802 720.005 86.2352 720.095 80.2852V40.2202C719.775 27.2302 710.94 22.1502 703.84 18.0702C696.335 13.7602 680.975 7.22021 672.775 4.15521C659.06 -0.964795 646.2 -0.594795 632.31 5.33021C628.675 6.88021 610.14 14.8402 602.185 19.3702C595.515 23.1702 588.41 28.2302 588.55 40.2202V80.8652C588.55 86.5452 590.695 92.0252 594.44 96.3102C584.375 101.65 581.37 109.12 581.37 118.125V174.325C581.37 184.715 587.465 192.715 596.265 196.66C606.24 201.135 619.73 207.125 631.29 212.055C646.525 218.55 659.54 219.365 678.41 211.625C687.05 208.08 704.575 200.075 713.105 196.06C724.93 190.495 727.275 184.16 727.71 174.98C737.3 173.35 755.37 166.01 757.205 145.68C758.32 133.32 754.485 123.87 749.44 119.705L749.445 119.71ZM589.72 128.14C589.12 127.8 588.91 127.035 589.255 126.435L595.01 116.345C596.195 114.265 598.41 113.12 600.795 113.355C603.18 113.59 605.125 115.15 605.88 117.42L611.855 135.41C612.075 136.065 611.72 136.775 611.065 136.99C610.935 137.035 610.8 137.055 610.67 137.055C610.145 137.055 609.66 136.725 609.485 136.2L603.51 118.21C603.065 116.865 601.955 115.98 600.55 115.84C599.14 115.7 597.885 116.35 597.18 117.58L591.425 127.67C591.085 128.27 590.32 128.48 589.72 128.135V128.14ZM595.09 171.74C592.86 171.74 591.05 169.93 591.05 167.7V161.47C591.05 159.24 592.86 157.43 595.09 157.43C597.32 157.43 599.13 159.24 599.13 161.47V167.7C599.13 169.93 597.32 171.74 595.09 171.74ZM631.035 195.23C630.945 195.29 629.21 196.44 626.385 196.44C625.725 196.44 625.005 196.375 624.23 196.22C617.395 194.855 614.74 189.7 613.785 186.87C611.94 187.975 608.645 189.295 604.745 187.995C599.55 186.265 598.425 181.185 598.38 180.97C598.24 180.295 598.67 179.63 599.345 179.49C600.02 179.345 600.68 179.78 600.825 180.45C600.86 180.615 601.73 184.355 605.535 185.625C610.04 187.13 613.535 184.015 613.685 183.885C614.03 183.575 614.515 183.475 614.95 183.635C615.385 183.79 615.7 184.175 615.765 184.635C615.81 184.94 616.975 192.225 624.72 193.775C627.725 194.375 629.565 193.21 629.64 193.155C630.215 192.78 630.99 192.935 631.37 193.51C631.75 194.08 631.605 194.85 631.035 195.235V195.23ZM644.72 187.235C644.72 189.71 642.715 191.71 640.245 191.71C637.775 191.71 635.77 189.705 635.77 187.235V180.335C635.77 177.86 637.775 175.86 640.245 175.86C642.715 175.86 644.72 177.865 644.72 180.335V187.235ZM654.62 156.225C654.475 156.275 654.33 156.295 654.185 156.295C653.605 156.295 653.07 155.93 652.875 155.35L646.285 135.51C645.795 134.03 644.57 133.05 643.02 132.9C641.465 132.745 640.075 133.465 639.305 134.82L632.96 145.945C632.585 146.605 631.74 146.835 631.08 146.46C630.42 146.085 630.19 145.24 630.565 144.58L636.91 133.455C638.22 131.16 640.665 129.9 643.295 130.16C645.925 130.42 648.075 132.14 648.905 134.645L655.495 154.485C655.735 155.21 655.345 155.99 654.62 156.23V156.225ZM703.675 97.9002C697.495 100.885 685.805 106.015 678.07 109.415L674.275 111.085C663.1 116.01 650.46 116.55 638.685 112.61L637.77 112.305L636.885 112.69C636.755 112.75 623.555 118.42 611.56 113.895C603.255 110.765 602.6 104.54 602.705 102.01C602.715 101.72 602.745 101.43 602.78 101.145C605.195 103.485 609.115 105.295 613.695 105.895C621.76 106.95 628.81 103.865 629.45 99.0002C630.085 94.1352 624.065 89.3352 616 88.2802C609.94 87.4852 604.45 89.0352 601.83 91.9152C601.035 92.6902 600.33 93.5952 599.74 94.6152C595.825 91.0602 593.54 86.0602 593.54 80.8702V40.1952C593.44 31.7202 597.37 27.8702 604.65 23.7202C612.37 19.3252 630.67 11.4652 634.265 9.9352C646.9 4.5502 658.58 4.20021 671.02 8.84521C679.06 11.8452 694.075 18.2302 701.345 22.4102C709.49 27.0902 714.85 30.8702 715.095 40.3202V80.2552C714.98 87.8002 710.605 94.5652 703.68 97.9102L703.675 97.9002Z" fill="#2C2420"/>
</g>
<path d="M745.49 186.14V196.96H742.95V186.14H740.02V183.96H748.41V186.14H745.48H745.49Z" fill="#2C2420"/>
<path d="M751.36 183.95H753.19L756.64 192.22L760.25 183.95H762.08L764.26 196.96H761.69L760.52 188.94L757.03 196.96H756.17L752.84 188.94L751.51 196.96H748.94L751.36 183.95Z" fill="#2C2420"/>
<path d="M745.49 186.14V196.96H742.95V186.14H740.02V183.96H748.41V186.14H745.48H745.49Z" fill="#231F20"/>
<path d="M751.36 183.95H753.19L756.64 192.22L760.25 183.95H762.08L764.26 196.96H761.69L760.52 188.94L757.03 196.96H756.17L752.84 188.94L751.51 196.96H748.94L751.36 183.95Z" fill="#231F20"/>
</g>
<defs>
<clipPath id="clip0_196_1872">
<rect width="765" height="218" fill="white"/>
</clipPath>
<clipPath id="clip1_196_1872">
<rect width="176.035" height="216.605" fill="white" transform="translate(581.37 0.580078)"/>
</clipPath>
</defs>
</svg>
