<?xml version="1.0" encoding="UTF-8"?>
<svg id="Layer_1" data-name="Layer 1" xmlns="http://www.w3.org/2000/svg" xmlns:xlink="http://www.w3.org/1999/xlink" version="1.1" viewBox="0 0 612 792">
  <defs>
    <style>
      .cls-1, .cls-2 {
        stroke-width: 0px;
      }

      .cls-1, .cls-3, .cls-4, .cls-5, .cls-6 {
        fill: none;
      }

      .cls-2 {
        fill: url(#omakatse_fancycube_3);
      }

      .cls-3, .cls-4, .cls-5, .cls-6 {
        stroke: #e3dfd1;
        stroke-width: .5px;
      }

      .cls-3, .cls-4, .cls-6 {
        stroke-linecap: round;
        stroke-linejoin: round;
      }

      .cls-4 {
        stroke-dasharray: 0 0 3.34 2.23;
      }

      .cls-5 {
        stroke-miterlimit: 10;
      }

      .cls-6 {
        stroke-dasharray: 0 0 3.34 2.23;
      }
    </style>
    <pattern id="omakatse_fancycube_3" data-name="omakatse_fancycube 3" x="0" y="0" width="67.83" height="117.4" patternTransform="translate(9.67 18.8)" patternUnits="userSpaceOnUse" viewBox="0 0 67.83 117.4">
      <g>
        <rect class="cls-1" y="0" width="67.83" height="117.4"/>
        <g>
          <polygon class="cls-5" points="101.5 136.82 101.5 97.98 67.83 78.56 34.17 97.98 34.17 136.82 67.83 156.25 101.5 136.82"/>
          <polyline class="cls-5" points="101.39 98.05 67.83 117.41 34.28 98.05"/>
          <polyline class="cls-3" points="66.48 118.21 67.83 117.43 69.19 118.21"/>
          <g>
            <line class="cls-3" x1="67.83" y1="78.59" x2="67.83" y2="80.16"/>
            <line class="cls-6" x1="67.83" y1="82.39" x2="67.83" y2="114.65"/>
            <line class="cls-3" x1="67.83" y1="115.76" x2="67.83" y2="117.33"/>
          </g>
        </g>
        <g>
          <polygon class="cls-5" points="33.67 136.82 33.67 97.98 0 78.56 -33.67 97.98 -33.67 136.82 0 156.25 33.67 136.82"/>
          <polyline class="cls-5" points="33.56 98.05 0 117.41 -33.56 98.05"/>
          <polyline class="cls-3" points="-1.36 118.21 0 117.43 1.36 118.21"/>
          <g>
            <line class="cls-3" x1="0" y1="78.59" x2="0" y2="80.16"/>
            <line class="cls-6" x1="0" y1="82.39" x2="0" y2="114.65"/>
            <line class="cls-3" x1="0" y1="115.76" x2="0" y2="117.33"/>
          </g>
        </g>
        <g>
          <polygon class="cls-5" points="67.58 78.12 67.58 39.28 33.92 19.85 .25 39.28 .25 78.12 33.92 97.55 67.58 78.12"/>
          <polyline class="cls-5" points="67.47 39.35 33.92 58.71 .36 39.35"/>
          <line class="cls-5" x1="33.92" y1="97.55" x2="33.92" y2="58.81"/>
          <g>
            <line class="cls-3" x1=".36" y1="78.09" x2="1.72" y2="77.31"/>
            <line class="cls-4" x1="3.64" y1="76.19" x2="31.6" y2="60.07"/>
            <polyline class="cls-3" points="32.56 59.51 33.92 58.73 35.27 59.51"/>
            <line class="cls-4" x1="37.2" y1="60.62" x2="65.15" y2="76.75"/>
            <line class="cls-3" x1="66.12" y1="77.31" x2="67.47" y2="78.09"/>
          </g>
          <g>
            <line class="cls-3" x1="33.92" y1="19.89" x2="33.92" y2="21.46"/>
            <line class="cls-6" x1="33.92" y1="23.69" x2="33.92" y2="55.95"/>
            <line class="cls-3" x1="33.92" y1="57.06" x2="33.92" y2="58.63"/>
          </g>
        </g>
        <g>
          <polygon class="cls-5" points="101.5 19.42 101.5 -19.42 67.83 -38.85 34.17 -19.42 34.17 19.42 67.83 38.85 101.5 19.42"/>
          <polyline class="cls-5" points="101.39 -19.35 67.83 .01 34.28 -19.35"/>
          <line class="cls-5" x1="67.83" y1="38.85" x2="67.83" y2=".11"/>
          <g>
            <line class="cls-3" x1="34.28" y1="19.39" x2="35.63" y2="18.61"/>
            <line class="cls-4" x1="37.56" y1="17.49" x2="65.51" y2="1.37"/>
            <polyline class="cls-3" points="66.48 .81 67.83 .03 69.19 .81"/>
          </g>
          <line class="cls-3" x1="67.83" y1="-1.64" x2="67.83" y2="-.07"/>
        </g>
        <g>
          <polygon class="cls-5" points="33.67 19.42 33.67 -19.42 0 -38.85 -33.67 -19.42 -33.67 19.42 0 38.85 33.67 19.42"/>
          <polyline class="cls-5" points="33.56 -19.35 0 .01 -33.56 -19.35"/>
          <line class="cls-5" x1="0" y1="38.85" x2="0" y2=".11"/>
          <g>
            <polyline class="cls-3" points="-1.36 .81 0 .03 1.36 .81"/>
            <line class="cls-4" x1="3.28" y1="1.92" x2="31.24" y2="18.05"/>
            <line class="cls-3" x1="32.2" y1="18.61" x2="33.56" y2="19.39"/>
          </g>
          <line class="cls-3" x1="0" y1="-1.64" x2="0" y2="-.07"/>
        </g>
      </g>
    </pattern>
  </defs>
  <rect class="cls-2" x="-413.13" y="-103.05" width="1439" height="998.8"/>
</svg>