<svg width="53" height="53" viewBox="0 0 53 53" fill="none" xmlns="http://www.w3.org/2000/svg">
<g id="icons_temp_paw-12" clip-path="url(#clip0_2388_11278)">
<g id="paw">
<path id="Vector" d="M10.0349 34.0336C7.23106 29.5624 9.24385 26.5409 10.0986 25.5081C10.2869 25.2779 10.3303 24.9592 10.1966 24.6933C9.75078 23.7857 8.95066 21.5809 10.2104 19.0705C11.8962 15.7015 15.24 15.2454 16.7958 15.2279C17.2728 15.2198 17.6854 14.9112 17.825 14.4509C18.2629 12.9598 19.6131 9.86822 23.3092 9.16007C26.0653 8.62904 27.9769 9.9913 28.7278 10.6725C28.9437 10.8729 29.2624 10.9163 29.5405 10.7969C30.7617 10.2557 34.2208 9.13783 37.763 13.0462C40.8518 16.4536 40.3228 20.7935 39.9049 22.7119C39.7533 23.3948 39.9237 24.1134 40.3576 24.6608L43.0088 28.0475C43.9599 29.2685 44.2717 30.8391 43.6559 32.2552C41.6553 36.8666 36.7113 40.4454 36.7113 40.4454C36.7113 40.4454 31.9272 44.2283 26.9429 44.9029C25.4147 45.1141 23.8937 44.445 22.9788 43.2028L20.5251 39.6717C20.1088 39.1044 19.4655 38.751 18.7744 38.7052C16.8113 38.5873 12.496 37.9138 10.0491 34.0214L10.0349 34.0336Z" fill="white" stroke="#2C2420" stroke-width="0.639343" stroke-miterlimit="10"/>
<path id="Vector_2" d="M23.6623 23.3251C23.6623 23.3251 25.5783 21.72 28.5035 22.4717C30.8671 23.0866 33.5083 22.6984 34.6498 25.0654C35.7913 27.4325 33.4123 30.3723 30.2954 30.6144C29.6445 30.6676 29.0958 31.0828 28.8646 31.6956C27.7823 34.6271 24.3132 36.1141 22.3432 34.372C20.3733 32.6299 21.4617 30.202 21.5186 27.7577C21.5832 24.7339 23.6513 23.3296 23.6513 23.3296L23.6623 23.3251Z" fill="#EE807F"/>
<path id="Vector_3" d="M24.4896 21.2188C22.9632 21.3143 21.6348 19.9369 21.5225 18.1423C21.4102 16.3476 22.5566 14.8153 24.0829 14.7198C25.6093 14.6243 26.9377 16.0017 27.05 17.7964C27.1623 19.591 26.016 21.1233 24.4896 21.2188Z" fill="#EE807F"/>
<path id="Vector_4" d="M33.5883 19.6259C32.8627 21.1949 31.2242 21.9811 29.9286 21.3819C28.633 20.7827 28.171 19.0251 28.8966 17.4561C29.6222 15.8871 31.2607 15.101 32.5563 15.7001C33.8518 16.2993 34.3139 18.0569 33.5883 19.6259Z" fill="#EE807F"/>
<path id="Vector_5" d="M17.501 25.0206C15.8043 24.4252 14.8394 22.7726 15.3459 21.3295C15.8524 19.8864 17.6384 19.1993 19.3351 19.7948C21.0318 20.3903 21.9967 22.0429 21.4902 23.4859C20.9837 24.929 19.1977 25.6161 17.501 25.0206Z" fill="#EE807F"/>
<path id="Vector_6" d="M17.4746 31.8221C15.7675 32.0943 14.2014 31.1723 13.9766 29.7627C13.7518 28.3531 14.9535 26.9897 16.6605 26.7175C18.3676 26.4453 19.9337 27.3673 20.1585 28.7769C20.3833 30.1865 19.1816 31.5499 17.4746 31.8221Z" fill="#EE807F"/>
</g>
</g>
<defs>
<clipPath id="clip0_2388_11278">
<rect width="40.2786" height="40.2786" fill="white" transform="matrix(-0.388792 0.921326 0.921326 0.388792 15.8901 0)"/>
</clipPath>
</defs>
</svg>
