<svg width="60" height="60" viewBox="0 0 60 60" fill="none" xmlns="http://www.w3.org/2000/svg">
<g id="illustrations_food_poultry">
<path id="Vector" d="M17.249 16.2783C17.249 16.2783 12.1898 17.2719 10.0202 20.7963C10.0202 20.7963 8.80102 22.3779 9.02662 27.9339V39.1827C9.02662 39.1827 8.43982 42.7059 11.9174 45.1911C15.395 47.6763 22.805 47.6763 22.805 47.6763L28.9946 48.5799C28.9946 48.5799 32.9246 49.3935 35.9066 47.9475L41.5538 45.0567C41.5538 45.0567 44.807 46.0503 47.6522 43.8375C50.4974 41.6247 50.9954 38.3715 51.041 37.7391C51.041 37.7391 49.6406 37.6491 49.0538 37.7847C49.0538 37.7847 50.4998 35.1195 50.003 32.5443H48.377L48.5582 23.7795C48.5582 23.7795 48.5582 20.6175 46.3898 18.3579C44.2214 16.0983 41.465 15.5115 39.9746 15.3315C38.4842 15.1515 33.3338 14.8347 28.8614 16.0539C24.389 17.2731 22.3562 20.5263 22.3562 20.5263C22.3562 20.5263 18.6518 19.5771 17.2514 16.2795L17.249 16.2783Z" fill="white"/>
<path id="Vector_2" d="M24.1152 46.2742C24.1152 46.2742 20.4108 49.933 13.4088 48.3526C13.4088 48.3526 12.6864 42.751 17.61 41.8918C22.5348 41.0338 24.1152 46.2742 24.1152 46.2742Z" fill="#FFE799"/>
<path id="Vector_3" d="M39.3623 15.3637C39.3623 15.3637 34.1447 14.6857 29.4683 15.9061C24.7919 17.1265 22.6919 20.0053 22.6919 20.0053C22.6919 20.0053 22.4207 20.8861 21.2015 20.1745C19.9823 19.4629 16.0847 17.8705 16.5263 12.0085C16.9679 6.14646 21.8123 6.21486 23.5055 7.67166C25.1987 9.12846 25.6739 11.0257 25.6739 11.0257C25.6739 11.0257 26.4527 7.43406 30.0791 7.43406C33.7055 7.43406 34.6199 10.4497 34.5179 11.6017C34.5179 11.6017 36.5843 10.6873 38.0759 11.5681C39.5675 12.4489 39.8375 14.5501 39.3635 15.3625L39.3623 15.3637Z" fill="#FF823A"/>
<path id="Vector_4" d="M17.1023 16.3115C17.1023 16.3115 14.9675 16.6979 12.7655 18.1751C10.6583 19.5887 9.0047 21.4619 9.0047 24.8495V39.2279C9.0047 42.2543 10.8047 44.9099 13.4543 46.0931" stroke="#2C2420" stroke-width="0.48" stroke-miterlimit="10"/>
<path id="Vector_5" d="M48.4777 32.4734V23.8166C48.4777 19.7318 45.3733 16.229 41.3281 15.6506L39.2269 15.3506" stroke="#2C2420" stroke-width="0.48" stroke-miterlimit="10"/>
<path id="Vector_6" d="M21.967 47.6302L29.3578 48.7186C31.9858 49.105 34.669 48.6526 37.0234 47.425L41.5618 45.0586" stroke="#2C2420" stroke-width="0.48" stroke-miterlimit="10"/>
<path id="Vector_7" d="M13.8264 40.6282C14.4812 40.6282 15.012 39.6874 15.012 38.527C15.012 37.3665 14.4812 36.4258 13.8264 36.4258C13.1716 36.4258 12.6408 37.3665 12.6408 38.527C12.6408 39.6874 13.1716 40.6282 13.8264 40.6282Z" fill="#2C2420"/>
<path id="Vector_8" d="M27.5867 42.8185C28.2998 42.8185 28.8779 41.7945 28.8779 40.5313C28.8779 39.2682 28.2998 38.2441 27.5867 38.2441C26.8736 38.2441 26.2955 39.2682 26.2955 40.5313C26.2955 41.7945 26.8736 42.8185 27.5867 42.8185Z" fill="#2C2420"/>
<path id="Vector_9" d="M24.0479 46.2299C24.0479 46.2299 20.8631 49.8887 13.4771 48.3647C13.4771 48.3647 12.7631 44.0627 16.2215 42.3335C19.4747 40.7075 23.2691 42.6383 24.0479 46.2299Z" stroke="#2C2420" stroke-width="0.48" stroke-miterlimit="10"/>
<path id="Vector_10" d="M39.3624 15.3807C39.3624 15.3807 26.9616 13.7379 22.3536 20.4795C22.3536 20.4795 16.6836 19.5195 16.4916 12.9579C16.2996 6.39629 23.5728 4.26149 25.6968 11.1279C25.6968 11.1279 26.286 7.30109 30.3504 7.43429C34.4844 7.56989 34.5516 11.7147 34.5516 11.7147C34.5516 11.7147 36.5292 10.4823 38.4144 11.8047C40.0068 12.9231 39.3636 15.3795 39.3636 15.3795L39.3624 15.3807Z" stroke="#2C2420" stroke-width="0.48" stroke-linecap="round" stroke-linejoin="round"/>
<path id="Vector_11" d="M39.4307 37.59C39.4307 37.59 37.7363 40.9788 39.4979 43.6548C41.5823 46.8216 50.0015 45.8916 50.9951 37.7364C50.9951 37.7364 50.0015 37.5552 48.9851 37.8612C48.9851 37.8612 50.1827 36.0204 50.0015 32.6772C50.0015 32.6772 45.8675 31.7964 43.0895 33.8292" stroke="#2C2420" stroke-width="0.48" stroke-linecap="round" stroke-linejoin="round"/>
<path id="Vector_12" d="M44.4 22.6609L45.2424 22.2217" stroke="#2C2420" stroke-width="0.48" stroke-linecap="round" stroke-linejoin="round"/>
<path id="Vector_13" d="M44.4 24.8937L44.9856 24.5889" stroke="#2C2420" stroke-width="0.48" stroke-linecap="round" stroke-linejoin="round"/>
<path id="Vector_14" d="M44.4 26.9582L44.844 26.7266" stroke="#2C2420" stroke-width="0.48" stroke-linecap="round" stroke-linejoin="round"/>
</g>
</svg>
