<svg width="61" height="61" viewBox="0 0 61 61" fill="none" xmlns="http://www.w3.org/2000/svg">
<g id="illustrations_food_seafood">
<path id="Vector" d="M19.5503 16.2956L12.0959 19.232C12.0959 19.232 8.97826 20 7.75906 22.304C6.53986 24.608 6.76546 26.912 7.48786 28.6736C8.21026 30.4352 34.5491 44.2148 34.5491 44.2148L48.9155 35.3156L46.4303 29.126L46.3847 23.0276C46.3847 23.0276 46.2947 19.91 43.9907 18.0584C41.6867 16.2056 31.8383 15.5732 31.8383 15.5732L19.5503 16.2956Z" fill="#8CCEE7"/>
<path id="Vector_2" d="M31.2958 49.319C31.2958 49.319 30.3922 49.997 27.0046 49.5446C23.6158 49.0934 12.5938 47.4218 12.5938 47.4218C12.5938 47.4218 9.61183 46.6538 7.80463 43.853C7.80463 43.853 6.71983 42.1814 6.99103 38.5226L6.94543 27.6806C6.94543 27.6806 6.94543 24.6086 10.063 23.4338C10.063 23.4338 13.3606 23.0726 16.0258 23.2082C18.691 23.3438 26.461 24.3374 29.6686 25.331C32.8762 26.3246 34.2766 27.635 34.8634 29.8034C35.4502 31.9718 35.3146 35.5862 35.3146 35.5862V41.3234L31.2934 49.3202L31.2958 49.319Z" fill="#D9EFF7"/>
<path id="Vector_3" d="M46.3404 34.8181L46.4304 28.3573C46.4304 28.3573 48.0564 24.9685 51.1284 24.7885C54.2004 24.6085 55.4196 27.0925 55.4196 29.2153C55.4196 31.3381 53.9292 33.1009 52.5288 33.9589C52.5288 33.9589 55.104 35.1781 54.9228 37.6633C54.7416 40.1485 53.07 40.8709 50.8116 41.1865C48.5532 41.5021 46.3392 34.8169 46.3392 34.8169L46.3404 34.8181Z" fill="#D9EFF7"/>
<path id="Vector_4" d="M34.8203 15.8891L19.2791 21.4907C19.2791 21.4907 17.2007 15.8435 19.8215 12.5003C22.4423 9.15708 25.6487 9.47388 26.8691 10.1963C28.0895 10.9187 29.1275 12.8171 29.1275 12.8171C29.1275 12.8171 30.9347 10.7387 33.1931 11.5523C35.4515 12.3659 34.8191 15.8891 34.8191 15.8891H34.8203Z" fill="#D9EFF7"/>
<path id="Vector_5" d="M42.7246 29.9382C43.4721 29.9382 44.0782 29.0415 44.0782 27.9354C44.0782 26.8293 43.4721 25.9326 42.7246 25.9326C41.977 25.9326 41.371 26.8293 41.371 27.9354C41.371 29.0415 41.977 29.9382 42.7246 29.9382Z" fill="#D9EFF7"/>
<path id="Vector_6" d="M39.4954 33.7342C40.2065 33.7342 40.783 32.9149 40.783 31.9042C40.783 30.8935 40.2065 30.0742 39.4954 30.0742C38.7842 30.0742 38.2078 30.8935 38.2078 31.9042C38.2078 32.9149 38.7842 33.7342 39.4954 33.7342Z" fill="#D9EFF7"/>
<path id="Vector_7" d="M18.5578 16.6941L10.8346 19.7265C8.47185 20.6541 6.91785 22.9341 6.91785 25.4721V40.1085C6.91785 43.8381 9.65145 47.0049 13.3414 47.5473L27.2698 49.5981C29.8978 49.9845 32.581 49.5321 34.9354 48.3045L42.6958 44.2581C44.9662 43.0749 46.3894 40.7265 46.3894 38.1669V23.3673C46.3894 20.0457 43.9462 17.2293 40.6582 16.7589L34.6726 15.9033" stroke="#2C2420" stroke-width="0.48" stroke-miterlimit="10"/>
<path id="Vector_8" d="M6.93482 28.2562C6.93482 28.2562 6.65282 24.043 10.8768 23.3434C15.2892 22.6114 29.6244 24.337 32.562 26.5966C35.4984 28.855 35.3172 32.4238 35.3172 34.5022V44.5318" stroke="#2C2420" stroke-width="0.48" stroke-miterlimit="10"/>
<path id="Vector_9" d="M19.3245 21.4898L34.7745 15.9326C34.7745 15.9326 35.7681 12.6686 33.2385 11.6414C30.5097 10.5326 29.0817 12.9518 29.0817 12.9518C29.0817 12.9518 27.6777 8.63181 23.1633 10.0262C17.5725 11.7542 18.1941 18.8246 19.3233 21.4898H19.3245Z" stroke="#2C2420" stroke-width="0.48" stroke-linecap="round" stroke-linejoin="round"/>
<path id="Vector_10" d="M46.4077 28.628C46.4077 28.628 47.6617 25.172 51.0829 24.8672C54.5041 24.5624 55.9849 27.7028 55.1821 30.6608C54.6397 32.66 52.4713 34.0496 52.4713 34.0496C52.4713 34.0496 54.8089 34.7948 54.9445 37.4036C55.0801 40.0124 52.3693 41.978 48.9817 40.5212" stroke="#2C2420" stroke-width="0.48" stroke-linecap="round" stroke-linejoin="round"/>
<path id="Vector_11" d="M52.8455 25.1719C52.8455 25.1719 52.5743 26.9671 50.3723 28.5259" stroke="#2C2420" stroke-width="0.24" stroke-linecap="round" stroke-linejoin="round"/>
<path id="Vector_12" d="M54.7776 26.833C54.7776 26.833 54.9132 28.4938 52.2708 30.289" stroke="#2C2420" stroke-width="0.24" stroke-linecap="round" stroke-linejoin="round"/>
<path id="Vector_13" d="M52.4053 37.2676C52.4053 37.2676 53.8285 38.2168 53.7601 40.0804" stroke="#2C2420" stroke-width="0.24" stroke-linecap="round" stroke-linejoin="round"/>
<path id="Vector_14" d="M20.4207 11.959C20.4207 11.959 22.9623 12.4678 23.4699 16.7362" stroke="#2C2420" stroke-width="0.24" stroke-linecap="round" stroke-linejoin="round"/>
<path id="Vector_15" d="M23.6737 9.89062C23.6737 9.89062 26.7229 10.7042 26.9269 15.5834" stroke="#2C2420" stroke-width="0.24" stroke-linecap="round" stroke-linejoin="round"/>
<path id="Vector_16" d="M12.5711 42.5422C13.1324 42.5422 13.5875 41.5816 13.5875 40.3966C13.5875 39.2116 13.1324 38.251 12.5711 38.251C12.0097 38.251 11.5547 39.2116 11.5547 40.3966C11.5547 41.5816 12.0097 42.5422 12.5711 42.5422Z" fill="#2C2420"/>
<path id="Vector_17" d="M24.678 44.3273C25.2394 44.3273 25.6944 43.3667 25.6944 42.1817C25.6944 40.9968 25.2394 40.0361 24.678 40.0361C24.1167 40.0361 23.6616 40.9968 23.6616 42.1817C23.6616 43.3667 24.1167 44.3273 24.678 44.3273Z" fill="#2C2420"/>
<path id="Vector_18" d="M15.8015 45.1183L17.8343 42.9043L19.5959 45.7951" stroke="#2C2420" stroke-width="0.48" stroke-linecap="round" stroke-linejoin="round"/>
<path id="Vector_19" d="M46.0692 33.9139C46.0692 33.9139 44.2164 32.5591 42.1392 33.7783C40.062 34.9975 38.3448 36.7147 37.7568 39.0643C37.17 41.4139 42.5904 48.8671 42.5904 48.8671C42.5904 48.8671 43.404 50.3131 43.2684 51.5779C43.1328 52.8427 47.1084 51.8491 47.1084 51.8491C47.1084 51.8491 50.9484 49.4095 51.8976 45.4339C52.8468 41.4583 51.3552 38.2507 51.3552 38.2507L46.0692 33.9139Z" fill="#F8CCCC"/>
<path id="Vector_20" d="M52.1676 41.4587C52.1448 41.3231 51.4224 37.6187 50.3604 36.3539C49.2984 35.0891 48.2376 33.1463 46.0236 33.1235C43.8096 33.1007 42.048 33.9371 42.048 33.9371C42.048 33.9371 43.9224 33.5987 45.3012 34.8407C46.6788 36.0827 47.4924 38.9747 47.3796 41.2103C47.2668 43.4471 45.798 45.5243 43.8 46.2815C43.8 46.2815 43.8336 42.6899 41.9364 39.9791C40.0392 37.2683 37.6332 37.5395 35.9736 39.0983C34.314 40.6571 31.6368 44.0795 30.5868 47.0267C29.5368 49.9739 30.7896 50.4491 33.1956 51.0923C35.6016 51.7355 39.5316 51.1595 41.124 49.9067C42.7164 48.6527 43.3944 47.8739 43.3944 47.8739C43.3944 47.8739 45.5964 48.2579 47.472 47.6483C49.3476 47.0387 50.4984 45.9995 51.2892 44.4635C52.08 42.9275 52.1928 41.5943 52.17 41.4587H52.1676Z" fill="#F19999"/>
<path id="Vector_21" d="M45.5268 51.4652C43.8096 51.4424 43.02 50.042 43.02 50.042C43.4496 51.6452 41.8908 53.1596 41.8908 53.1596C41.8908 53.1596 40.7616 52.7084 39.474 52.7984C38.1864 52.8884 37.17 54.38 37.17 54.38C38.5704 55.7348 40.8972 55.0124 40.8972 55.0124C40.4004 57.926 42.2976 58.7624 42.2976 58.7624C44.1048 56.12 42.9528 54.2228 42.9528 54.2228C45.4152 53.5004 48.51 50.654 48.51 50.654C48.51 50.654 47.2452 51.4892 45.528 51.4676L45.5268 51.4652Z" fill="#F19999"/>
<path id="Vector_22" d="M43.7952 45.3945C43.8672 46.5861 43.5636 47.8977 42.672 48.7821C41.8284 49.6197 40.4688 50.5197 38.3436 51.0357C35.4636 51.7365 32.1132 51.0357 30.9228 50.1093C30.3132 49.6353 29.9664 48.9633 30.162 48.2373C30.444 47.1873 31.1544 45.4017 32.922 42.6777C35.6772 38.4309 38.7948 36.4881 41.28 39.1089C42.9096 40.8273 43.6884 43.6377 43.794 45.3933L43.7952 45.3945Z" stroke="#2C2420" stroke-width="0.48" stroke-miterlimit="10"/>
<path id="Vector_23" d="M38.0279 37.9799C38.0279 37.9799 39.2471 34.9079 43.1327 33.4619C46.9031 32.0591 50.8127 34.3199 52.0775 41.1875C53.3423 48.0551 46.5431 52.8887 42.8843 54.2435C42.8843 54.2435 43.9919 56.3975 42.5123 58.5359C42.3815 58.7243 42.1199 58.7615 41.9435 58.6139C41.3951 58.1555 40.4087 57.0131 40.9523 55.0223C40.9523 55.0223 39.1235 55.6823 37.4387 54.6599C37.2479 54.5435 37.1939 54.2915 37.3211 54.1079C37.7807 53.4383 39.0995 52.0919 41.8667 53.0579C41.8667 53.0579 43.9019 51.6623 42.6455 48.8567" stroke="#2C2420" stroke-width="0.48" stroke-linecap="round" stroke-linejoin="round"/>
<path id="Vector_24" d="M39.666 46.9927C40.2837 46.9927 40.7844 46.4919 40.7844 45.8743C40.7844 45.2566 40.2837 44.7559 39.666 44.7559C39.0483 44.7559 38.5476 45.2566 38.5476 45.8743C38.5476 46.4919 39.0483 46.9927 39.666 46.9927Z" fill="#2C2420"/>
<path id="Vector_25" d="M41.6869 34.2301C41.6869 34.2301 45.6169 32.3773 47.1085 38.3413C48.5965 44.2933 43.9009 46.2925 43.9009 46.2925" stroke="#2C2420" stroke-width="0.24" stroke-linecap="round" stroke-linejoin="round"/>
<path id="Vector_26" d="M43.3584 47.8284C43.3584 47.8284 46.6212 48.7008 49.3212 46.7436C52.4388 44.4852 51.9864 41.0508 51.9864 41.0508" stroke="#2C2420" stroke-width="0.24" stroke-linecap="round" stroke-linejoin="round"/>
<path id="Vector_27" d="M42.9862 49.873C42.9862 49.873 44.1718 52.753 48.373 50.7538" stroke="#2C2420" stroke-width="0.24" stroke-linecap="round" stroke-linejoin="round"/>
<path id="Vector_28" d="M34.9562 48.3477C34.9562 48.3477 36.2774 49.7709 34.4138 52.1421C32.7518 54.2577 32.753 56.5473 34.007 57.4953C35.645 58.7349 37.2938 57.6309 37.2938 57.6309" stroke="#2C2420" stroke-width="0.24" stroke-linecap="round" stroke-linejoin="round"/>
<path id="Vector_29" d="M31.3019 50.3564C31.2575 50.7068 31.2203 51.1076 31.1951 51.5672C31.0259 54.6164 29.6543 55.5548 28.4843 55.532C26.7899 55.4984 26.4515 54.1772 26.4515 54.1772" stroke="#2C2420" stroke-width="0.24" stroke-linecap="round" stroke-linejoin="round"/>
</g>
</svg>
