<svg width="100" height="100" viewBox="0 0 100 100" fill="none" xmlns="http://www.w3.org/2000/svg">
<g id="illustrations_noofcats_3 1">
<path id="Vector" d="M78.772 76.4342C77.42 74.5222 77.162 72.3642 78.082 70.6582C78.9 69.1422 80.518 68.2722 82.414 68.3382C84.38 68.4042 85.648 69.3082 86.768 70.1042C87.724 70.7862 88.55 71.3742 89.666 71.4122C90.55 71.4402 91.214 71.2102 91.638 70.7202C91.638 70.7182 91.642 70.7162 91.644 70.7142C91.91 70.4042 92.034 69.9962 92.034 69.5882V54.5582C92.034 51.9562 91.012 49.6302 88.092 48.0902C85.688 46.8202 79.162 43.9582 76.668 43.1942C72.068 41.7822 68.304 42.2322 63.958 43.8782C61.454 44.8262 56.21 47.0702 53.99 48.3182C50.93 50.0382 49.854 52.3302 49.854 54.8982V71.4222C49.854 73.9902 50.93 76.2822 53.99 78.0022C56.21 79.2502 61.454 81.4942 63.958 82.4422C68.304 84.0882 72.068 84.5382 76.668 83.1262C78.266 82.6362 81.524 81.2822 84.288 80.0402C81.914 79.3982 79.976 78.1402 78.772 76.4362V76.4342Z" fill="#2C2420"/>
<path id="Vector_2" d="M52.6282 58.6922C52.6282 58.6922 53.3702 56.6382 54.7382 54.7382C55.2182 54.0722 56.2382 54.1582 56.6062 54.8902C57.1302 55.9322 57.8762 57.5202 58.5442 60.3482" stroke="white" stroke-width="0.678" stroke-linecap="round" stroke-linejoin="round"/>
<path id="Vector_3" d="M64.7419 62.6697C64.7419 62.6697 65.6099 60.5777 66.9099 58.7837C67.3919 58.1197 68.5059 58.1117 68.8739 58.8437C69.3979 59.8857 70.1999 62.0577 70.9659 65.3217" stroke="white" stroke-width="0.678" stroke-linecap="round" stroke-linejoin="round"/>
<path id="Vector_4" d="M86.5299 70.6287C85.4279 69.8547 84.2879 69.0527 82.4919 68.9927C82.4339 68.9927 82.3759 68.9907 82.3179 68.9907C80.7139 68.9907 79.3579 69.7327 78.6659 70.9987C77.8479 72.4947 78.0919 74.4107 79.3179 76.1207C82.0899 79.9867 88.5799 80.7747 92.5339 78.8947C95.5779 77.4487 96.3699 74.6327 96.1239 72.6607C95.8739 70.6647 94.4739 69.1527 92.6319 68.6387C92.6319 69.4867 92.7639 70.3507 92.0639 71.1487C91.5339 71.7527 90.7379 72.0407 89.6939 72.0047C88.4299 71.9627 87.5079 71.3147 86.5319 70.6287H86.5299Z" fill="#2C2420"/>
<path id="Vector_5" d="M51.332 69.3066C51.332 69.3066 53.342 72.1446 57.302 71.6706" stroke="#FFC400" stroke-width="0.678" stroke-linecap="round" stroke-linejoin="round"/>
<path id="Vector_6" d="M65.5378 74.1143C65.5378 74.1143 67.8818 77.4043 72.9658 76.1043" stroke="#FFC400" stroke-width="0.678" stroke-linecap="round" stroke-linejoin="round"/>
<path id="Vector_7" d="M58.2878 76.0856L60.4938 73.9756L62.2278 77.7396" stroke="white" stroke-width="0.678" stroke-linecap="round" stroke-linejoin="round"/>
<path id="Vector_8" d="M39.2142 42.5103C39.2142 42.5103 40.4362 46.4122 45.7562 47.7522C51.0762 49.0922 54.8602 46.2943 54.8602 46.2943L51.8262 42.2742C51.8262 42.2742 48.5522 44.0763 46.4062 41.1663C44.2602 38.2543 46.1122 35.6943 42.6842 34.1563C42.6842 34.1563 39.8462 33.3683 38.6262 37.3883C38.6262 37.3883 37.9562 40.3043 39.2182 42.5103H39.2142Z" fill="white"/>
<path id="Vector_9" d="M51.4301 47.7901C47.6461 48.6561 42.5641 47.7501 39.8841 43.7701C37.7641 40.6201 38.2681 36.9921 39.3321 35.4541C40.1941 34.2081 41.9781 33.6421 43.3521 34.4301C45.7801 35.8221 44.3761 38.2921 46.4041 41.1641C47.1661 42.2441 48.8681 42.9821 50.4841 42.5881" stroke="#2C2420" stroke-width="0.608" stroke-miterlimit="10"/>
<path id="Vector_10" d="M50.41 45.0359C50.41 45.0359 50.134 48.5819 53.918 50.8679C57.702 53.1539 66.49 56.0299 66.49 56.0299C66.49 56.0299 70.392 57.3299 75.08 55.9119C79.77 54.4939 87.572 50.7499 87.572 50.7499C87.572 50.7499 91.158 48.7799 91.356 44.8379C91.554 40.8959 91.316 27.5779 91.316 27.5779C91.316 27.5779 90.724 24.1099 87.258 22.0599C83.792 20.0099 75.278 16.8979 75.278 16.8979C75.278 16.8979 69.366 15.3999 64.48 17.4099C59.594 19.4199 53.564 22.2959 53.564 22.2959C53.564 22.2959 50.608 23.5959 50.53 27.8139L50.49 39.4779L50.412 45.0339L50.41 45.0359Z" fill="white"/>
<path id="Vector_11" d="M50.502 28.1479C50.502 25.6299 51.492 23.3819 54.314 21.8899C56.64 20.6619 62.954 17.8919 65.366 17.1519C69.816 15.7859 73.458 16.2219 77.662 17.8139C80.084 18.7319 85.158 20.9019 87.306 22.1099C90.266 23.7739 91.308 25.9899 91.308 28.4759V44.4619C91.308 46.9479 90.266 49.1639 87.306 50.8279C85.158 52.0359 80.086 54.2059 77.662 55.1239C73.458 56.7159 69.816 57.1519 65.366 55.7859C62.954 55.0459 56.64 52.2759 54.314 51.0479C51.49 49.5579 50.502 47.3079 50.502 44.7899C50.502 43.0519 50.502 29.8839 50.502 28.1459V28.1479Z" stroke="#2C2420" stroke-width="0.608" stroke-miterlimit="10"/>
<path id="Vector_12" d="M58.2661 28.9434L58.5861 29.1234" stroke="#2C2420" stroke-width="0.402" stroke-linecap="round" stroke-linejoin="round"/>
<path id="Vector_13" d="M53.2019 26.1035L56.4679 27.9355" stroke="#2C2420" stroke-width="0.402" stroke-linecap="round" stroke-linejoin="round"/>
<path id="Vector_14" d="M88.6219 32.8479C88.6219 32.8479 87.9099 30.8399 86.5859 28.9779C86.1219 28.3259 85.1259 28.4039 84.7619 29.1159C84.2439 30.1299 83.5079 31.6739 82.8379 34.4299" stroke="#2C2420" stroke-width="0.642" stroke-linecap="round" stroke-linejoin="round"/>
<path id="Vector_15" d="M76.778 36.6595C76.778 36.6595 75.944 34.6135 74.686 32.8555C74.22 32.2035 73.132 32.1895 72.768 32.9035C72.25 33.9175 71.454 36.0315 70.688 39.2115" stroke="#2C2420" stroke-width="0.642" stroke-linecap="round" stroke-linejoin="round"/>
<path id="Vector_16" d="M78.55 48.9923C78.55 48.9923 80.692 51.3423 82.418 47.8643C82.418 47.8643 84.834 49.9763 85.544 46.6543" stroke="#2C2420" stroke-width="0.642" stroke-linecap="round" stroke-linejoin="round"/>
<path id="Vector_17" d="M69.0698 46.9278C69.0698 46.9278 73.7198 44.7998 77.1038 47.0098" stroke="#2C2420" stroke-width="0.642" stroke-linecap="round" stroke-linejoin="round"/>
<path id="Vector_18" d="M85.8379 44.2219C85.8379 44.2219 88.0639 41.4119 91.1419 41.2539" stroke="#2C2420" stroke-width="0.642" stroke-linecap="round" stroke-linejoin="round"/>
<path id="Vector_19" d="M44.9277 71.5916C44.9277 71.5916 45.1637 73.9176 39.0157 76.8336C39.0157 76.8336 34.2477 79.4736 32.0797 80.0656C29.9117 80.6576 27.7457 81.0116 22.6997 78.6856C17.6557 76.3596 15.0937 75.4536 13.9897 74.1936C12.8857 72.9336 12.7277 71.2776 12.7277 71.2776C12.7277 71.2776 11.8217 72.4996 8.74768 71.9876C5.67368 71.4756 5.35768 69.0316 5.63368 68.0476C5.90968 67.0616 7.56368 66.6676 7.56368 66.6676C7.56368 66.6676 5.00168 65.1316 4.33168 62.0176C3.66168 58.9036 4.88368 57.2096 6.38168 57.4076C7.87968 57.6056 9.33768 59.5356 9.37568 60.8756C9.37568 60.8756 10.5977 58.2356 12.8437 59.5356C12.8437 59.5356 12.3317 56.4616 14.3017 54.2936C16.2717 52.1256 24.5477 48.9336 24.5477 48.9336C24.5477 48.9336 29.1197 47.5156 32.3497 48.6576C35.5817 49.7996 41.8857 53.1116 41.8857 53.1116C41.8857 53.1116 44.1717 54.4116 44.8017 56.9736C45.4317 59.5356 44.9597 66.1156 44.9597 66.1156L44.9197 71.5936L44.9277 71.5916Z" fill="#ABA7A6"/>
<path id="Vector_20" d="M44.9241 70.9638C44.9201 72.1678 44.4181 73.3398 43.4861 74.1038C43.4261 74.1518 43.3661 74.1998 43.3021 74.2458C39.4881 77.0318 35.0701 78.9098 32.1761 79.9578C30.1901 80.6758 28.0141 80.6578 26.0301 79.9378C21.3461 78.2338 17.7121 76.4558 15.4481 75.2398C13.8221 74.3658 12.8101 72.6698 12.8101 70.8258V58.4818C12.8101 56.4058 13.8781 54.4758 15.6381 53.3778C18.9581 51.3058 22.5841 49.7898 25.2021 48.8378C27.6401 47.9498 30.3161 47.9778 32.7461 48.8898C36.2681 50.2118 39.5661 51.8878 41.8481 53.1458C43.7721 54.2058 44.9681 56.2278 44.9681 58.4258L44.9241 70.9658V70.9638Z" stroke="#2C2420" stroke-width="0.608" stroke-linecap="round" stroke-linejoin="round"/>
<path id="Vector_21" d="M12.7921 59.4941C12.7921 59.4941 10.2501 58.1141 9.42209 61.0901C9.42209 61.0901 8.48209 57.1341 5.95409 57.4441C3.39209 57.7601 3.15609 63.9061 7.76609 66.7641C7.76609 66.7641 5.16609 66.8241 5.63809 69.3061C6.11009 71.7881 10.0121 73.0501 12.8101 71.3161" stroke="#2C2420" stroke-width="0.608" stroke-linecap="round" stroke-linejoin="round"/>
<path id="Vector_22" d="M41.6679 58.6616C41.4299 58.0936 40.9519 57.0676 40.2579 56.0916C39.8959 55.5836 39.1199 55.6436 38.8359 56.1996C38.4319 56.9896 37.8579 58.1936 37.3379 60.3396" stroke="#2C2420" stroke-width="0.608" stroke-linecap="round" stroke-linejoin="round"/>
<path id="Vector_23" d="M32.1879 62.1841C31.9499 61.6161 31.4719 60.5901 30.7779 59.6141C30.4159 59.1061 29.6399 59.1661 29.3559 59.7221C28.9519 60.5121 28.3779 61.7161 27.8579 63.8621" stroke="#2C2420" stroke-width="0.608" stroke-linecap="round" stroke-linejoin="round"/>
<path id="Vector_24" d="M31.2478 73.9174C31.778 73.9174 32.2078 73.0086 32.2078 71.8874C32.2078 70.7663 31.778 69.8574 31.2478 69.8574C30.7176 69.8574 30.2878 70.7663 30.2878 71.8874C30.2878 73.0086 30.7176 73.9174 31.2478 73.9174Z" fill="#2C2420"/>
<path id="Vector_25" d="M40.8401 69.0903C41.3703 69.0903 41.8001 68.1814 41.8001 67.0603C41.8001 65.9391 41.3703 65.0303 40.8401 65.0303C40.3099 65.0303 39.8801 65.9391 39.8801 67.0603C39.8801 68.1814 40.3099 69.0903 40.8401 69.0903Z" fill="#2C2420"/>
<path id="Vector_26" d="M33.9858 73.5925C33.9858 73.5925 36.0738 75.7665 37.2578 72.1245C37.2578 72.1245 39.6798 73.9045 39.9638 70.8965" stroke="#2C2420" stroke-width="0.608" stroke-linecap="round" stroke-linejoin="round"/>
<path id="Vector_27" d="M18.4561 58.9678C18.5261 59.0038 18.5961 59.0398 18.6641 59.0738" stroke="#2C2420" stroke-width="0.4" stroke-linecap="round" stroke-linejoin="round"/>
<path id="Vector_28" d="M14.5801 56.9697C14.5801 56.9697 15.9161 57.6877 17.3241 58.3677" stroke="#2C2420" stroke-width="0.4" stroke-linecap="round" stroke-linejoin="round"/>
</g>
</svg>
