<svg width="100" height="100" viewBox="0 0 100 100" fill="none" xmlns="http://www.w3.org/2000/svg">
<g id="illustrations_noofdogs_3">
<path id="Vector" d="M82.4661 40.3564C82.4661 40.3564 88.4581 38.9364 88.2561 29.9404C88.2561 29.9404 91.3721 31.8544 91.8681 35.1184C92.3661 38.3824 90.0201 41.0184 90.0201 41.0184L92.6421 40.7384C92.6421 40.7384 91.7501 44.8124 87.2021 45.5304C82.6541 46.2484 81.1981 44.0584 81.1981 44.0584C81.1981 44.0584 80.4641 47.5424 76.2961 49.3304C72.1261 51.1164 65.1221 53.3444 65.1221 53.3444C65.1221 53.3444 62.1821 54.4824 58.7981 52.5704C55.4161 50.6584 50.7421 47.6804 50.7421 47.6804C50.7421 47.6804 46.6701 47.2164 44.9981 44.9224C43.3281 42.6264 44.0181 41.4464 44.0181 41.4464C44.0181 41.4464 41.5981 39.4764 42.7581 35.2404C43.9181 31.0044 47.0281 20.3324 47.0281 20.3324C47.0281 20.3324 49.1541 16.8424 51.7201 16.0264L53.7881 11.6244C53.7881 11.6244 54.3721 10.3904 55.5581 12.0984L56.6941 14.4504L64.2921 13.1844C64.2921 13.1844 67.7721 12.8464 71.8501 14.8104C75.9301 16.7724 83.3501 23.4324 83.3501 23.4324C83.3501 23.4324 86.5281 27.3264 85.0481 31.6724L82.4641 40.3604L82.4661 40.3564Z" fill="#D5D3D2"/>
<path id="Vector_2" d="M49.94 17.1019L51.72 15.9859L53.912 11.4779C53.912 11.4779 54.872 10.7959 55.52 11.8279C56.168 12.8599 56.64 14.5359 56.64 14.5359C56.64 14.5359 63.844 12.7899 67.06 13.3459C70.276 13.9019 74.608 16.6679 74.608 16.6679C74.608 16.6679 79.98 20.1419 82.706 22.8079C85.432 25.4739 85.982 28.6479 85.102 31.4719C84.222 34.2959 82.57 39.7659 82.57 39.7659C82.57 39.7659 82.51 40.0779 82.552 40.4439C83.196 40.2159 85.93 39.0939 87.186 36.0759C88.616 32.6419 88.444 30.1519 88.444 30.1519C88.444 30.1519 90.404 31.1599 91.35 33.3259C92.298 35.4899 91.8 38.0359 91.8 38.0359L90.314 41.0419C90.314 41.0419 87.516 44.1619 81.672 42.5019L81.724 42.3579C81.236 42.4779 80.64 42.5299 79.94 42.4199C77.724 42.0739 76.536 39.6499 77.382 37.4699C78.304 35.0959 78.358 32.3239 75.962 31.6919C73.7 31.0959 72.898 33.0979 70.868 34.2499C68.43 35.6339 64.342 36.1359 61.402 33.2579C59.104 31.0099 60.416 28.4059 57.266 26.5299C54.228 24.7199 51.892 28.1359 48.478 25.5359C46.15 23.7619 46.914 19.1519 49.938 17.1039L49.94 17.1019Z" fill="#ABA7A6"/>
<path id="Vector_3" d="M48.1098 40.3284C48.1098 40.1944 45.9058 38.7324 45.9058 38.7324C45.9058 38.7324 47.7738 37.2244 50.7698 36.6744C53.7658 36.1244 56.4758 37.2904 53.2898 42.9284L48.1098 40.3284Z" fill="#ABA7A6"/>
<path id="Vector_4" d="M47.8139 38.6586C47.0119 38.3586 45.7839 39.1666 45.7839 39.1666C45.7839 39.1666 42.9439 40.8086 44.6199 44.3886C45.5239 46.3186 48.4919 47.7446 51.2559 47.6926C54.9739 47.6206 55.7659 45.7846 55.7659 45.7846" stroke="#2C2420" stroke-width="0.692" stroke-linecap="round" stroke-linejoin="round"/>
<path id="Vector_5" d="M53.3716 42.8489C53.9439 41.5091 52.6292 39.6632 50.4351 38.7259C48.2411 37.7887 45.9985 38.1151 45.4261 39.4549C44.8538 40.7947 46.1686 42.6406 48.3626 43.5778C50.5567 44.5151 52.7993 44.1887 53.3716 42.8489Z" fill="#2C2420"/>
<path id="Vector_6" d="M56.7121 14.508C58.5041 14.088 60.5621 13.686 62.8841 13.348C65.7361 12.934 68.6481 13.418 71.2101 14.738C74.3241 16.344 78.7061 18.974 82.5541 22.646C84.9681 24.95 85.9381 28.392 85.1001 31.624C84.2701 34.82 82.9321 39.356 80.9381 44.526C80.1841 46.482 78.7041 48.072 76.8021 48.958C74.2981 50.124 70.3281 51.808 65.3901 53.34C63.1101 54.048 60.6401 53.784 58.5581 52.618C56.4781 51.454 53.6601 49.76 50.8481 47.706" stroke="#2C2420" stroke-width="0.692" stroke-linecap="round" stroke-linejoin="round"/>
<path id="Vector_7" d="M44.1001 41.6839C44.1001 41.6839 44.0821 41.6639 44.0741 41.6539C42.6321 40.0159 42.1061 37.7639 42.6541 35.6499C43.4941 32.4099 44.9041 27.1079 46.3841 22.1219C47.2021 19.3699 49.1741 17.1319 51.7521 15.9639" stroke="#2C2420" stroke-width="0.692" stroke-linecap="round" stroke-linejoin="round"/>
<path id="Vector_8" d="M57.0779 24.2465C57.0779 24.2465 58.5499 15.8685 55.1099 11.4925C54.7739 11.0665 54.1079 11.1325 53.8499 11.6105C53.1879 12.8465 51.9239 15.4145 50.2019 19.8505" stroke="#2C2420" stroke-width="0.692" stroke-linecap="round" stroke-linejoin="round"/>
<path id="Vector_9" d="M54.588 22.5985C54.588 22.5985 55.418 18.8785 54.28 16.7425C54.184 16.5625 53.922 16.5725 53.84 16.7605C53.508 17.5285 52.784 19.2285 52.116 20.8965" stroke="#2C2420" stroke-width="0.692" stroke-linecap="round" stroke-linejoin="round"/>
<path id="Vector_10" d="M67.5861 31.2579C67.5861 31.2579 69.6581 22.2219 66.1581 17.2659C65.8161 16.7819 65.0861 16.8179 64.7801 17.3239C63.9901 18.6319 62.4701 21.3559 60.3481 26.0879" stroke="#2C2420" stroke-width="0.692" stroke-linecap="round" stroke-linejoin="round"/>
<path id="Vector_11" d="M64.97 29.3243C64.97 29.3243 66.082 25.3223 64.962 22.9323C64.868 22.7303 64.58 22.7283 64.482 22.9263C64.078 23.7443 63.194 25.5523 62.374 27.3323" stroke="#2C2420" stroke-width="0.692" stroke-linecap="round" stroke-linejoin="round"/>
<path id="Vector_12" d="M82.52 40.464C82.52 40.464 88.564 38.722 88.31 29.958C88.31 29.958 95.456 34.888 89.932 41.09L92.696 40.578C92.696 40.578 91.808 44.936 86.56 45.586C82.974 46.03 81.144 44.166 81.144 44.166" stroke="#2C2420" stroke-width="0.692" stroke-linecap="round" stroke-linejoin="round"/>
<path id="Vector_13" d="M77.9119 29.4121L77.2739 29.6161" stroke="#2C2420" stroke-width="0.57" stroke-linecap="round" stroke-linejoin="round"/>
<path id="Vector_14" d="M82.5678 27.9316L79.9058 28.7776" stroke="#2C2420" stroke-width="0.57" stroke-linecap="round" stroke-linejoin="round"/>
<path id="Vector_15" d="M45.0981 33.4941C45.0981 33.4941 47.5821 34.0581 48.1481 37.2221" stroke="#2C2420" stroke-width="0.692" stroke-linecap="round" stroke-linejoin="round"/>
<path id="Vector_16" d="M56.468 42.398C56.468 42.398 60.308 41.042 63.81 43.922" stroke="#2C2420" stroke-width="0.692" stroke-linecap="round" stroke-linejoin="round"/>
<path id="Vector_17" d="M8.27814 57.4199C8.27814 57.4199 8.97415 64.3939 14.8581 63.4799C14.8581 63.4799 12.9061 57.2599 13.4661 55.2459C14.0261 53.2319 15.4581 51.6199 18.4741 50.0279C21.4921 48.4359 25.0481 46.4139 27.0921 46.5199C29.1361 46.6259 36.9421 47.5779 36.9421 47.5779C36.9421 47.5779 39.1401 44.5639 40.8201 44.2939C40.8201 44.2939 42.6021 48.6019 40.6321 50.6979C40.6321 50.6979 42.5641 58.5039 42.9501 60.2339C43.3361 61.9639 43.1101 63.9019 41.6541 65.1179C41.6541 65.1179 41.4721 67.7879 36.6801 68.0699C36.6801 68.0699 33.5001 70.7479 29.6981 71.4819C25.8941 72.2159 18.7901 69.7519 18.7901 69.7519C18.7901 69.7519 16.2261 68.4899 15.4301 65.5379C15.4301 65.5379 13.5381 67.9699 9.94815 66.5979C6.36015 65.2259 6.71014 59.6619 8.27414 57.4199H8.27814Z" fill="#807C79"/>
<path id="Vector_18" d="M40.8261 62.5379C40.8261 62.5379 40.4041 62.0859 40.4041 62.0819C39.3641 59.8859 35.4601 59.7719 33.7181 61.9119C32.1301 63.8639 33.4201 65.8139 33.4201 65.8139C33.6841 66.4719 35.3101 67.5699 35.3341 67.5859C37.8601 68.8679 40.7301 67.6419 41.5361 65.3319C42.3161 63.0939 40.9361 62.5939 40.8241 62.5359L40.8261 62.5379Z" fill="white"/>
<path id="Vector_19" d="M33.6819 59.4339C33.8079 58.9939 33.4799 58.5119 32.9499 58.3579C32.4179 58.2039 31.8839 58.4379 31.7579 58.8779C31.6319 59.3179 31.9599 59.7999 32.4899 59.9539C33.0219 60.1079 33.5559 59.8739 33.6819 59.4339Z" fill="white"/>
<path id="Vector_20" d="M20.896 54.902C23.088 58.166 25.808 56.346 25.808 56.346C24.474 53.558 20.896 54.902 20.896 54.902Z" fill="white"/>
<path id="Vector_21" d="M39.9422 47.2881C37.4822 48.4141 37.6842 51.1921 37.6842 51.1921C40.8182 50.6301 39.9422 47.2881 39.9422 47.2881Z" fill="white"/>
<path id="Vector_22" d="M35.8061 58.7245C35.3661 58.5965 35.1321 58.0625 35.2861 57.5305C35.4401 56.9985 35.9221 56.6725 36.3621 56.7985C36.8021 56.9265 37.0361 57.4605 36.8821 57.9925C36.7281 58.5245 36.2461 58.8505 35.8061 58.7245Z" fill="white"/>
<path id="Vector_23" d="M33.8338 66.4316C33.8338 66.4316 31.4298 67.8556 30.6558 70.7296C29.8838 73.6036 31.3898 75.4756 33.0778 73.4156C34.7658 71.3556 36.3318 68.5096 36.2838 67.6816C36.2838 67.6816 34.6038 67.9696 33.8338 66.4316Z" fill="#EE807F"/>
<path id="Vector_24" d="M35.8718 69.1676C36.6338 68.6696 37.0118 68.3716 37.6698 68.0156" stroke="#2C2420" stroke-width="0.692" stroke-linecap="round" stroke-linejoin="round"/>
<path id="Vector_25" d="M36.9717 47.6425C36.8437 47.6105 36.7157 47.5845 36.5837 47.5625C34.7477 47.2505 32.3517 46.8865 29.8757 46.6285C27.2237 46.3525 24.5517 46.8765 22.1877 48.1085C20.5937 48.9385 18.5817 50.0225 16.4137 51.2845C14.0997 52.6285 12.9097 55.3025 13.4637 57.9205C13.9317 60.1345 14.6477 63.0285 15.6977 66.2265C16.3117 68.0945 17.8277 69.5305 19.7257 70.0405C21.5337 70.5245 24.0317 71.1065 26.8737 71.5265C28.0797 71.7045 29.3057 71.6505 30.4857 71.3765" stroke="#2C2420" stroke-width="0.692" stroke-linecap="round" stroke-linejoin="round"/>
<path id="Vector_26" d="M41.7061 65.0046C43.4641 63.6286 43.3061 61.6426 43.0181 60.2586C42.5201 57.8626 41.7941 54.6026 40.9601 51.5266C40.8741 51.2106 40.8021 51.0146 40.6641 50.7246" stroke="#2C2420" stroke-width="0.692" stroke-linecap="round" stroke-linejoin="round"/>
<path id="Vector_27" d="M14.7502 63.5437C14.7502 63.5437 9.39224 64.7657 8.25224 56.9697C8.25224 56.9697 6.42424 61.3077 7.84624 64.4617C9.21424 67.4917 13.8102 67.7297 15.3782 65.5437" stroke="#2C2420" stroke-width="0.692" stroke-linecap="round" stroke-linejoin="round"/>
<path id="Vector_28" d="M36.184 51.0176C36.184 51.0176 35.55 46.9816 40.824 44.3516C40.824 44.3516 43.28 50.4856 38.776 51.8276" stroke="#2C2420" stroke-width="0.692" stroke-linecap="round" stroke-linejoin="round"/>
<path id="Vector_29" d="M26.1742 54.8921C26.1742 54.8921 24.0582 51.6241 17.5762 53.9301C17.5762 53.9301 21.2262 60.1641 25.2702 57.7741" stroke="#2C2420" stroke-width="0.692" stroke-linecap="round" stroke-linejoin="round"/>
<path id="Vector_30" d="M31.4039 65.8814C31.9083 65.7786 32.1555 64.9022 31.9561 63.9237C31.7567 62.9453 31.1861 62.2355 30.6818 62.3383C30.1774 62.4411 29.9302 63.3176 30.1296 64.296C30.329 65.2744 30.8996 65.9842 31.4039 65.8814Z" fill="#2C2420"/>
<path id="Vector_31" d="M40.5118 61.5914C41.0162 61.4886 41.2634 60.6121 41.064 59.6337C40.8646 58.6553 40.2941 57.9454 39.7897 58.0482C39.2853 58.151 39.0381 59.0275 39.2375 60.0059C39.437 60.9844 40.0075 61.6942 40.5118 61.5914Z" fill="#2C2420"/>
<path id="Vector_32" d="M38.496 65.0417C40.0001 64.5347 40.978 63.4075 40.6801 62.5241C40.3823 61.6407 38.9216 61.3356 37.4175 61.8426C35.9134 62.3497 34.9355 63.4769 35.2333 64.3603C35.5311 65.2437 36.9919 65.5488 38.496 65.0417Z" fill="#2C2420"/>
<path id="Vector_33" d="M38.8981 62.0022C38.8981 62.0022 41.0561 61.7422 41.6121 63.8782C42.1981 66.1342 39.6181 68.3662 36.6201 67.9362C33.9681 67.5562 33.6941 65.8182 33.6941 65.8182" stroke="#2C2420" stroke-width="0.692" stroke-linecap="round" stroke-linejoin="round"/>
<path id="Vector_34" d="M35.76 69.3002C36.152 68.5582 36.398 68.0322 36.398 68.0322" stroke="#2C2420" stroke-width="0.692" stroke-linecap="round" stroke-linejoin="round"/>
<path id="Vector_35" d="M33.8441 66.458C33.8441 66.458 32.0481 67.668 31.0141 69.794C29.7421 72.408 30.7921 75.006 32.5241 73.806C33.6721 73.01 34.9941 70.746 35.7581 69.3" stroke="#2C2420" stroke-width="0.692" stroke-linecap="round" stroke-linejoin="round"/>
<path id="Vector_36" d="M34.72 67.3965C34.72 67.3965 33.546 68.5965 32.866 69.9945" stroke="#2C2420" stroke-width="0.6" stroke-linecap="round" stroke-linejoin="round"/>
<path id="Vector_37" d="M46.5101 71.7805C46.5101 71.7805 45.7201 74.4345 47.9781 77.3705C50.2361 80.3065 53.7941 85.5585 55.7701 86.7445C57.7461 87.9305 59.5541 88.5525 63.7881 88.5525H79.2041C79.2041 88.5525 83.5521 88.5525 84.8521 84.7685C86.1521 80.9845 85.9821 76.9185 85.9821 76.9185C85.9821 76.9185 88.1281 78.7825 88.9741 78.1605C89.8201 77.5385 89.7081 74.9425 89.5381 72.9085C89.3681 70.8745 88.6341 63.9305 86.8281 61.3325C85.0221 58.7345 81.1801 52.0145 73.3321 49.8685C73.3321 49.8685 61.9241 49.3605 57.2941 49.7565C52.6641 50.1525 48.5421 54.0485 47.8641 58.1705C47.1861 62.2925 46.5081 71.7805 46.5081 71.7805H46.5101Z" fill="white"/>
<path id="Vector_38" d="M57.4282 70.2937C57.4282 70.2937 58.2182 74.2097 61.5322 74.4717C64.8462 74.7337 65.9362 71.3097 64.5442 69.4277C63.1522 67.5457 62.0222 67.4697 62.0222 67.4697C62.0222 67.4697 61.2322 70.1417 57.4302 70.2937H57.4282Z" fill="#EE807F"/>
<path id="Vector_39" d="M85.8882 77.3721C85.8362 79.3201 85.6462 81.2081 85.4162 82.8481C84.9702 86.0401 82.3062 88.4681 79.0862 88.6081C71.4842 88.9401 64.8842 88.7021 61.0102 88.4761C58.5462 88.3341 56.2302 87.2661 54.5022 85.5041C51.1422 82.0741 48.9442 78.9321 47.6882 76.8941C46.8022 75.4561 46.3722 73.7821 46.4622 72.0941C46.7142 67.3621 47.2462 62.7801 47.7682 59.0921C48.4842 54.0441 52.6302 50.1761 57.7182 49.8301C61.7102 49.5581 66.8642 49.4641 72.6742 49.9641C75.8142 50.2341 78.7462 51.6461 80.9182 53.9281C82.4902 55.5801 84.3642 57.7201 86.0602 60.1021C87.1662 61.6561 87.9582 63.4061 88.4002 65.2601C89.0622 68.0441 89.8542 72.5841 89.5042 77.4061C89.4502 78.1441 88.6522 78.5781 88.0042 78.2241C86.5142 77.4101 84.0162 75.9961 81.6742 74.4581C80.3482 73.5881 79.5182 72.1361 79.4342 70.5521L78.7362 57.3381" stroke="#2C2420" stroke-width="0.73" stroke-linecap="round" stroke-linejoin="round"/>
<path id="Vector_40" d="M60.1199 64.7976C60.1199 65.9196 58.1599 66.8296 55.7439 66.8296C53.3259 66.8296 51.3679 65.9196 51.3679 64.7976C51.3679 63.6756 53.3279 62.7656 55.7439 62.7656C58.1619 62.7656 60.1199 63.6756 60.1199 64.7976Z" fill="#2C2420"/>
<path id="Vector_41" d="M53.8498 63.4043C53.8498 63.4043 50.6878 63.9323 50.2358 66.3023C49.7498 68.8503 52.4198 70.6743 57.1638 70.2543C62.6978 69.7643 62.0198 66.2263 62.0198 66.2263" stroke="#2C2420" stroke-width="0.73" stroke-linecap="round" stroke-linejoin="round"/>
<path id="Vector_42" d="M57.54 70.4058C57.54 70.4058 57.924 73.1498 60.288 74.1338C62.652 75.1178 65.52 73.3818 65.106 70.8218C64.692 68.2618 62.17 67.5098 62.17 67.5098" stroke="#2C2420" stroke-width="0.73" stroke-linecap="round" stroke-linejoin="round"/>
<path id="Vector_43" d="M60.5901 69.6543L61.8321 71.1223" stroke="#2C2420" stroke-width="0.73" stroke-linecap="round" stroke-linejoin="round"/>
<path id="Vector_44" d="M49.05 63.0282C49.05 63.0282 52.0421 62.3502 54.414 64.5522" stroke="#2C2420" stroke-width="0.73" stroke-linecap="round" stroke-linejoin="round"/>
<path id="Vector_45" d="M62.8301 64.2144C62.8301 64.2144 65.8141 62.1624 69.8881 63.1984" stroke="#2C2420" stroke-width="0.73" stroke-linecap="round" stroke-linejoin="round"/>
<path id="Vector_46" d="M73.4041 69.5361L73.1641 73.2481" stroke="#2C2420" stroke-width="0.5" stroke-linecap="round" stroke-linejoin="round"/>
<path id="Vector_47" d="M73.5601 67.1504L73.5281 67.6224" stroke="#2C2420" stroke-width="0.5" stroke-linecap="round" stroke-linejoin="round"/>
<path id="Vector_48" d="M74.2358 75.79L77.6258 79.686" stroke="#2C2420" stroke-width="0.5" stroke-linecap="round" stroke-linejoin="round"/>
<path id="Vector_49" d="M35.2162 30.1619C35.2162 30.1619 32.6002 27.4319 32.0922 25.0039C31.5842 22.5759 34.1622 22.1059 35.2162 25.4739C35.2162 25.4739 36.3762 22.7159 38.0782 23.6479C39.6602 24.5139 37.6642 28.2039 35.2162 30.1599V30.1619Z" fill="#EE807F"/>
<path id="Vector_50" d="M32.3221 40.9895C32.3221 40.9895 28.3161 41.4235 24.5441 39.8175C20.4361 38.0675 21.7361 35.3555 26.8101 36.4555C26.8101 36.4555 24.5981 32.5595 26.5601 31.5155C28.6221 30.4175 31.5261 34.4495 32.3221 40.9895Z" fill="#EE807F"/>
</g>
</svg>
