<svg width="24" height="24" viewBox="0 0 24 24" fill="none" xmlns="http://www.w3.org/2000/svg">
<g clip-path="url(#clip0_2191_5974)">
<path d="M15.0004 3C15.796 3 16.5591 3.31607 17.1217 3.87868C17.6843 4.44129 18.0004 5.20435 18.0004 6C18.4937 5.99989 18.9795 6.12146 19.4146 6.35392C19.8498 6.58638 20.2209 6.92256 20.495 7.33269C20.7692 7.74282 20.938 8.21424 20.9865 8.70519C21.035 9.19614 20.9616 9.69147 20.773 10.1473C20.5843 10.6031 20.2861 11.0054 19.9049 11.3185C19.5236 11.6316 19.071 11.8458 18.5872 11.9422C18.1033 12.0386 17.6032 12.0142 17.1311 11.8711C16.6589 11.728 16.2293 11.4707 15.8804 11.122L11.1224 15.88C11.4658 16.2237 11.7206 16.6456 11.8648 17.1095C12.0091 17.5734 12.0386 18.0654 11.9507 18.5433C11.8628 19.0211 11.6601 19.4704 11.3602 19.8526C11.0603 20.2347 10.672 20.5384 10.2288 20.7373C9.78554 20.9363 9.30063 21.0246 8.81572 20.9948C8.33081 20.9649 7.86041 20.8177 7.44497 20.5658C7.02952 20.314 6.68145 19.965 6.43069 19.5489C6.17993 19.1328 6.03398 18.662 6.00539 18.177V18H5.82939C5.34422 17.9716 4.87323 17.8257 4.45692 17.5749C4.04062 17.3242 3.69147 16.976 3.43952 16.5604C3.18756 16.1448 3.04035 15.6743 3.01053 15.1892C2.98072 14.7041 3.0692 14.219 3.26837 13.7757C3.46753 13.3324 3.77142 12.9441 4.15388 12.6442C4.53634 12.3444 4.98593 12.1419 5.46396 12.0543C5.942 11.9667 6.43416 11.9965 6.89812 12.1412C7.36207 12.2859 7.78393 12.5412 8.12739 12.885L12.8854 8.127C12.4657 7.70756 12.1798 7.17307 12.0638 6.59114C11.9479 6.0092 12.0072 5.40595 12.2341 4.85769C12.461 4.30943 12.8454 3.84077 13.3387 3.51099C13.832 3.18121 14.412 3.00513 15.0054 3.005L15.0004 3Z" stroke="#2C2420" stroke-width="2" stroke-linecap="round" stroke-linejoin="round"/>
</g>
<defs>
<clipPath id="clip0_2191_5974">
<rect width="24" height="24" fill="white"/>
</clipPath>
</defs>
</svg>
