<svg width="92" height="60" viewBox="0 0 92 60" fill="none" xmlns="http://www.w3.org/2000/svg">
<path d="M51.1472 25.5784C50.476 27.9588 49.1941 32.7792 48.0735 38.5615C47.7829 40.0627 48.3633 41.5983 49.5715 42.5356C51.6792 44.1694 55.4888 46.7945 60.9011 49.2551C62.7911 50.1137 64.9022 50.3593 66.9412 49.9688C69.2577 49.5252 72.5335 48.7189 75.7783 47.3159C77.1707 46.7135 78.2601 45.5724 78.8168 44.1612C79.6992 41.9216 81.0768 38.0147 82.2547 32.8897C82.7769 30.6166 81.861 28.2551 79.9488 26.92C77.7305 25.3713 74.2591 23.2504 69.3903 21.1042C66.8495 19.9844 64.014 19.7233 61.3063 20.338C58.8269 20.9004 55.7131 21.7787 53.2386 23.0319C52.2154 23.55 51.4591 24.4758 51.148 25.58L51.1472 25.5784Z" fill="#2C2420"/>
<path d="M86.0282 36.9375C84.4729 36.9645 83.8328 38.1964 83.6576 39.3964C83.5005 40.4687 83.3941 41.767 81.901 42.1189C81.2732 42.2663 80.6945 42.2213 80.2132 42.1058C79.9324 42.9408 79.578 43.9509 79.3234 44.5189C79.1556 44.8947 78.9984 45.2098 78.8544 45.475C82.8702 47.0777 87.2732 45.4275 88.2522 41.9994C89.1886 38.7211 87.725 36.9097 86.0274 36.9383L86.0282 36.9375Z" fill="#2C2420"/>
<path d="M52.3521 29.3336C52.3521 29.3336 53.6773 28.1009 54.919 27.1423C55.402 26.7699 56.1059 27.0433 56.2091 27.6441C56.3638 28.547 56.4506 29.8264 56.5119 31.213" stroke="white" stroke-width="0.409277" stroke-linecap="round" stroke-linejoin="round"/>
<path d="M60.5802 33.0367C60.5802 33.0367 61.9054 31.804 63.1472 30.8455C63.6301 30.473 64.3341 30.7464 64.4372 31.3472C64.5919 32.2501 64.7098 33.8635 64.7712 35.2501" stroke="white" stroke-width="0.409277" stroke-linecap="round" stroke-linejoin="round"/>
<path d="M52.7065 39.1816C52.7065 39.1816 53.1453 41.2051 55.9038 40.15C55.9038 40.15 56.3286 43.2212 59.1412 42.3535" stroke="white" stroke-width="0.409277" stroke-linecap="round" stroke-linejoin="round"/>
<path d="M56.291 41.392C56.291 41.392 56.1363 40.1363 55.5281 40.2951C54.9199 40.4539 54.6555 40.1429 54.5614 41.8275C54.4672 43.5121 54.7611 44.7505 55.8719 44.1964C56.9826 43.6422 57.3199 42.777 57.3199 42.777C57.3199 42.777 57.6154 42.3497 56.9573 42.0444L56.291 41.3912V41.392Z" fill="white"/>
<path d="M57.013 43.0958C57.013 43.0958 55.7025 41.9916 54.6294 43.3029C54.6294 43.3029 55.1246 45.4525 57.013 43.0958Z" fill="#EE807F"/>
<path d="M54.7169 40.5C54.7169 40.5 54.5164 42.1314 54.6302 43.2724C54.7382 44.3562 55.9096 45.1158 57.4722 42.4367" stroke="white" stroke-width="0.409277" stroke-linecap="round" stroke-linejoin="round"/>
<path d="M53.0064 36.6111C53.2052 35.8187 53.0252 35.0908 52.6043 34.9851C52.1834 34.8795 51.6809 35.4361 51.482 36.2285C51.2832 37.0208 51.4632 37.7487 51.8841 37.8544C52.3051 37.96 52.8075 37.4034 53.0064 36.6111Z" fill="#FFC400"/>
<path d="M62.3008 41.0692C62.5188 40.2005 62.3216 39.4025 61.8603 39.2868C61.3991 39.171 60.8484 39.7813 60.6304 40.6499C60.4123 41.5185 60.6095 42.3165 61.0708 42.4323C61.5321 42.5481 62.0828 41.9378 62.3008 41.0692Z" fill="#FFC400"/>
<path d="M66.2791 42.5382C66.3061 42.4351 66.3323 42.3328 66.3585 42.2305" stroke="white" stroke-width="0.245566" stroke-linecap="round" stroke-linejoin="round"/>
<path d="M65.851 44.1371C65.8952 43.9758 65.9385 43.8146 65.9827 43.6533" stroke="white" stroke-width="0.245566" stroke-linecap="round" stroke-linejoin="round"/>
<path d="M64.4856 48.8865C64.4856 48.8865 64.989 47.2183 65.5514 45.2178" stroke="white" stroke-width="0.245566" stroke-linecap="round" stroke-linejoin="round"/>
<path d="M77.6904 31.5146C77.5889 31.5425 77.4858 31.5703 77.3818 31.5981" stroke="white" stroke-width="0.245566" stroke-linecap="round" stroke-linejoin="round"/>
<path d="M81.5655 30.5127C81.5655 30.5127 80.4433 30.7861 78.8013 31.2191" stroke="white" stroke-width="0.245566" stroke-linecap="round" stroke-linejoin="round"/>
<path d="M47.868 19.0723L49.8555 21.0597" stroke="#2C2420" stroke-width="0.409277" stroke-linecap="round" stroke-linejoin="round"/>
<path d="M51.8896 18.1475L52.8146 19.8116" stroke="#2C2420" stroke-width="0.409277" stroke-linecap="round" stroke-linejoin="round"/>
<path d="M47.1747 23.7402L45.6498 23.0469" stroke="#2C2420" stroke-width="0.409277" stroke-linecap="round" stroke-linejoin="round"/>
<path d="M46.5281 27.5312L45.6031 27.6237" stroke="#2C2420" stroke-width="0.409277" stroke-linecap="round" stroke-linejoin="round"/>
<path d="M8.00284 30.8299C8.00284 30.8299 7.69507 33.9732 7.69507 35.5137C7.69507 37.0542 7.94145 37.8253 8.77392 37.2703C9.60557 36.7153 11.0855 33.8807 11.0855 33.8807C11.0855 33.8807 12.811 38.8419 14.0127 40.5985C15.2143 42.3552 16.6009 42.509 18.9125 41.8927C21.2241 41.2763 26.7707 39.0269 29.4211 38.0095C32.0716 36.9928 33.3043 36.1603 34.8138 34.7426C36.324 33.3249 38.6045 28.8261 38.6045 28.8261C38.6045 28.8261 39.1898 27.3159 38.4809 24.7276C37.772 22.1393 36.509 18.8111 36.509 18.8111C36.509 18.8111 33.6735 13.5412 31.8252 12.5246C29.9761 11.508 27.2642 12.2168 23.2582 13.2335C19.2522 14.2501 15.0301 16.5306 12.9346 18.0408C10.8391 19.5511 9.545 23.1871 9.11362 24.8823C8.68224 26.5775 8.00448 30.8299 8.00448 30.8299H8.00284Z" fill="white"/>
<path d="M27.1398 29.8443C27.1398 29.8443 25.876 31.2923 27.4173 32.8639C27.4173 32.8639 29.6364 34.5281 31.7008 32.7101C31.7008 32.7101 32.7796 31.6934 32.1322 29.7207C32.1322 29.7207 29.4817 30.9845 27.1398 29.8443Z" fill="#EE807F"/>
<path d="M11.0537 33.7584C11.0537 33.7584 12.5017 38.3194 13.9465 40.5115C15.1808 42.3843 16.5691 42.5881 19.9031 41.6042C23.2362 40.6203 30.717 37.5786 32.3787 36.6241C33.866 35.7696 34.7827 34.9846 36.7505 32.0885C38.7175 29.1925 39.2946 27.6176 38.3729 24.4457C37.3088 20.7843 34.2842 13.9158 31.7156 12.4948C29.147 11.0738 21.6384 13.6965 19.2351 14.7139C16.3563 15.9319 12.9495 17.2932 11.0995 20.1221C9.5279 22.5254 8.41548 26.7499 7.87933 32.0329C7.66323 34.1595 7.6796 35.9169 7.76637 36.7502C7.81712 37.2413 8.25996 37.7505 8.89597 37.1488C10.0804 36.0282 11.454 33.7592 11.7928 30.5546C12.1039 27.6102 11.8239 23.5281 11.8239 23.5281" stroke="#2C2420" stroke-width="0.409277" stroke-linecap="round" stroke-linejoin="round"/>
<path d="M37.9563 22.9428C37.9563 22.9428 39.2504 22.9354 39.505 22.4803C39.7939 21.963 39.2815 20.7548 36.7235 17.2726C34.1655 13.7905 32.4941 12.0339 30.3986 11.9414C30.3986 11.9414 32.2248 12.2189 34.1966 15.1158C36.1685 18.0126 37.9563 22.9428 37.9563 22.9428Z" fill="#2C2420"/>
<path d="M16.5265 30.3056C16.4995 30.254 16.4725 30.2024 16.4463 30.1533" stroke="#2C2420" stroke-width="0.245566" stroke-linecap="round" stroke-linejoin="round"/>
<path d="M16.9972 31.2149C16.9702 31.1626 16.944 31.1102 16.917 31.0586" stroke="#2C2420" stroke-width="0.245566" stroke-linecap="round" stroke-linejoin="round"/>
<path d="M19.0967 35.4233C19.0967 35.4233 18.1996 33.5873 17.3328 31.874" stroke="#2C2420" stroke-width="0.245566" stroke-linecap="round" stroke-linejoin="round"/>
<path d="M16.8474 40.1064C16.8474 40.1064 17.9877 38.0265 18.7121 36.7471" stroke="#2C2420" stroke-width="0.245566" stroke-linecap="round" stroke-linejoin="round"/>
<path d="M20.0979 35.5155C20.0979 35.5155 21.2995 34.9916 22.6092 34.4219" stroke="#2C2420" stroke-width="0.245566" stroke-linecap="round" stroke-linejoin="round"/>
<path d="M12.5262 22.3057C12.5876 22.4154 12.6253 22.48 12.6253 22.48" stroke="#2C2420" stroke-width="0.245566" stroke-linecap="round" stroke-linejoin="round"/>
<path d="M11.7085 19.4297C11.7085 19.4297 11.3385 19.7072 11.7781 20.8319C11.8877 21.1135 12.067 21.4278 12.1939 21.6791" stroke="#2C2420" stroke-width="0.245566" stroke-linecap="round" stroke-linejoin="round"/>
<path d="M31.4994 26.8357C33.248 26.3592 34.449 25.1782 34.1819 24.1976C33.9148 23.2171 32.2807 22.8085 30.532 23.2849C28.7834 23.7613 27.5824 24.9423 27.8495 25.9229C28.1167 26.9034 29.7508 27.3121 31.4994 26.8357Z" fill="#2C2420"/>
<path d="M25.6371 27.4952C25.6371 27.4952 25.1983 29.4597 28.1099 30.0605C30.9241 30.6409 34.7893 29.2747 35.2518 26.7552C35.7143 24.2357 33.0793 23.4736 33.0793 23.4736" stroke="#2C2420" stroke-width="0.409277" stroke-linecap="round" stroke-linejoin="round"/>
<path d="M27.1398 29.7598C27.1398 29.7598 26.1036 30.9589 27.0015 32.348C27.9723 33.8501 30.8847 34.0351 31.9709 32.371C32.8051 31.0932 32.1559 29.8285 32.1559 29.8285" stroke="#2C2420" stroke-width="0.409277" stroke-linecap="round" stroke-linejoin="round"/>
<path d="M29.4974 30.3379L29.382 31.4241" stroke="#2C2420" stroke-width="0.409277" stroke-linecap="round" stroke-linejoin="round"/>
<path d="M20.6071 26.0547L23.8117 26.5172L21.6851 29.1365" stroke="#2C2420" stroke-width="0.572988" stroke-linecap="round" stroke-linejoin="round"/>
<path d="M34.0427 21.6172L32.625 23.7127L35.2133 24.113" stroke="#2C2420" stroke-width="0.572988" stroke-linecap="round" stroke-linejoin="round"/>
<path d="M39.1578 12.8968L41.0381 10.6777" stroke="#2C2420" stroke-width="0.409277" stroke-linecap="round" stroke-linejoin="round"/>
<path d="M40.976 15.7618L43.4103 14.7451" stroke="#2C2420" stroke-width="0.409277" stroke-linecap="round" stroke-linejoin="round"/>
<path d="M37.1549 11.2318L37.8949 9.99902" stroke="#2C2420" stroke-width="0.409277" stroke-linecap="round" stroke-linejoin="round"/>
</svg>
