<svg width="123" height="80" viewBox="0 0 123 80" fill="none" xmlns="http://www.w3.org/2000/svg">
<path d="M67.5295 34.1042C66.6346 37.278 64.9254 43.7053 63.4313 51.415C63.0438 53.4166 63.8176 55.4641 65.4285 56.7138C68.2389 58.8922 73.3183 62.3923 80.5347 65.6731C83.0547 66.818 85.8695 67.1454 88.5882 66.6248C91.6768 66.0333 96.0446 64.9582 100.371 63.0876C102.227 62.2843 103.68 60.7629 104.422 58.8813C105.599 55.8952 107.436 50.6859 109.006 43.8526C109.702 40.8218 108.481 37.6731 105.932 35.893C102.974 33.8281 98.3453 31.0002 91.8536 28.1386C88.4659 26.6455 84.6853 26.2974 81.0749 27.117C77.7691 27.8668 73.6174 29.0379 70.318 30.7088C68.9538 31.3997 67.9453 32.6341 67.5306 34.1064L67.5295 34.1042Z" fill="#2C2420"/>
<path d="M114.038 49.251C111.964 49.287 111.111 50.9296 110.877 52.5296C110.667 53.9593 110.526 55.6903 108.535 56.1596C107.698 56.356 106.926 56.296 106.284 56.1421C105.91 57.2553 105.437 58.6021 105.098 59.3596C104.874 59.8605 104.665 60.2807 104.473 60.6343C109.827 62.7713 115.698 60.571 117.003 56.0002C118.252 51.6291 116.3 49.2139 114.037 49.2521L114.038 49.251Z" fill="#2C2420"/>
<path d="M69.1362 39.1118C69.1362 39.1118 70.9032 37.4681 72.5589 36.1901C73.2028 35.6935 74.1414 36.058 74.2789 36.8591C74.4852 38.0629 74.6009 39.7688 74.6828 41.6177" stroke="white" stroke-width="0.545703" stroke-linecap="round" stroke-linejoin="round"/>
<path d="M80.1069 44.0493C80.1069 44.0493 81.8739 42.4056 83.5296 41.1276C84.1735 40.631 85.1121 40.9955 85.2496 41.7966C85.4559 43.0004 85.6131 45.1516 85.6949 47.0004" stroke="white" stroke-width="0.545703" stroke-linecap="round" stroke-linejoin="round"/>
<path d="M69.6089 52.2422C69.6089 52.2422 70.1939 54.9401 73.8719 53.5333C73.8719 53.5333 74.4384 57.6283 78.1884 56.4714" stroke="white" stroke-width="0.545703" stroke-linecap="round" stroke-linejoin="round"/>
<path d="M74.3881 55.189C74.3881 55.189 74.1818 53.5148 73.3709 53.7265C72.56 53.9383 72.2075 53.5235 72.082 55.7696C71.9565 58.0157 72.3483 59.667 73.8293 58.9282C75.3103 58.1893 75.76 57.0357 75.76 57.0357C75.76 57.0357 76.154 56.466 75.2765 56.0589L74.3881 55.1879V55.189Z" fill="white"/>
<path d="M75.3505 57.4615C75.3505 57.4615 73.6032 55.9892 72.1724 57.7376C72.1724 57.7376 72.8327 60.6036 75.3505 57.4615Z" fill="#EE807F"/>
<path d="M72.2892 54.001C72.2892 54.001 72.0218 56.1761 72.1735 57.6976C72.3176 59.1426 73.8794 60.1554 75.9629 56.5832" stroke="white" stroke-width="0.545703" stroke-linecap="round" stroke-linejoin="round"/>
<path d="M70.0084 48.8151C70.2736 47.7586 70.0336 46.788 69.4723 46.6472C68.9111 46.5063 68.2411 47.2485 67.976 48.3049C67.7108 49.3614 67.9508 50.332 68.5121 50.4728C69.0733 50.6137 69.7433 49.8715 70.0084 48.8151Z" fill="#FFC400"/>
<path d="M82.4013 54.7599C82.692 53.6017 82.429 52.5377 81.814 52.3833C81.199 52.2289 80.4647 53.0427 80.1741 54.2008C79.8834 55.359 80.1463 56.423 80.7613 56.5774C81.3764 56.7317 82.1106 55.918 82.4013 54.7599Z" fill="#FFC400"/>
<path d="M87.7053 56.717C87.7413 56.5795 87.7763 56.4431 87.8112 56.3066" stroke="white" stroke-width="0.327422" stroke-linecap="round" stroke-linejoin="round"/>
<path d="M87.1345 58.8501C87.1935 58.6351 87.2513 58.4201 87.3102 58.2051" stroke="white" stroke-width="0.327422" stroke-linecap="round" stroke-linejoin="round"/>
<path d="M85.314 65.1817C85.314 65.1817 85.9852 62.9574 86.735 60.29" stroke="white" stroke-width="0.327422" stroke-linecap="round" stroke-linejoin="round"/>
<path d="M102.921 42.0205C102.785 42.0576 102.648 42.0947 102.509 42.1318" stroke="white" stroke-width="0.327422" stroke-linecap="round" stroke-linejoin="round"/>
<path d="M108.087 40.6826C108.087 40.6826 106.591 41.0471 104.402 41.6245" stroke="white" stroke-width="0.327422" stroke-linecap="round" stroke-linejoin="round"/>
<path d="M63.1575 25.4297L65.8074 28.0796" stroke="#2C2420" stroke-width="0.545703" stroke-linecap="round" stroke-linejoin="round"/>
<path d="M68.5195 24.1963L69.7528 26.4151" stroke="#2C2420" stroke-width="0.545703" stroke-linecap="round" stroke-linejoin="round"/>
<path d="M62.233 31.6539L60.1997 30.7295" stroke="#2C2420" stroke-width="0.545703" stroke-linecap="round" stroke-linejoin="round"/>
<path d="M61.3707 36.708L60.1375 36.8313" stroke="#2C2420" stroke-width="0.545703" stroke-linecap="round" stroke-linejoin="round"/>
<path d="M10.0039 41.1082C10.0039 41.1082 9.59351 45.2992 9.59351 47.3532C9.59351 49.4072 9.92202 50.4353 11.032 49.6954C12.1408 48.9554 14.1141 45.1758 14.1141 45.1758C14.1141 45.1758 16.4148 51.7909 18.017 54.133C19.6192 56.4752 21.468 56.6803 24.5501 55.8585C27.6323 55.0367 35.0276 52.0375 38.5616 50.6809C42.0956 49.3254 43.7392 48.2154 45.7518 46.3251C47.7654 44.4348 50.8061 38.4364 50.8061 38.4364C50.8061 38.4364 51.5864 36.4228 50.6413 32.9718C49.6961 29.5207 48.0121 25.0831 48.0121 25.0831C48.0121 25.0831 44.2314 18.0566 41.767 16.7011C39.3016 15.3456 35.6857 16.2907 30.3444 17.6462C25.0031 19.0018 19.3736 22.0424 16.5796 24.0561C13.7856 26.0697 12.0601 30.9177 11.4849 33.178C10.9097 35.4383 10.0061 41.1082 10.0061 41.1082H10.0039Z" fill="white"/>
<path d="M35.5199 39.7947C35.5199 39.7947 33.8348 41.7254 35.8899 43.8209C35.8899 43.8209 38.8487 46.0397 41.6012 43.6157C41.6012 43.6157 43.0397 42.2602 42.1764 39.6299C42.1764 39.6299 38.6424 41.315 35.5199 39.7947Z" fill="#EE807F"/>
<path d="M14.0716 45.0122C14.0716 45.0122 16.0023 51.0935 17.9286 54.0163C19.5744 56.5134 21.4255 56.7851 25.8708 55.4733C30.315 54.1614 40.2893 50.1057 42.5049 48.8332C44.4879 47.6937 45.7103 46.6471 48.3341 42.7857C50.9567 38.9243 51.7261 36.8244 50.4972 32.5952C49.0784 27.7134 45.0457 18.5554 41.6208 16.6607C38.196 14.766 28.1845 18.2629 24.9802 19.6195C21.1417 21.2435 16.5993 23.0585 14.1327 26.8304C12.0372 30.0348 10.554 35.6675 9.83911 42.7115C9.55097 45.5469 9.5728 47.8902 9.68849 49.0012C9.75616 49.6561 10.3466 50.3349 11.1946 49.5328C12.7739 48.0386 14.6053 45.0133 15.0571 40.7404C15.4718 36.8146 15.0986 31.3718 15.0986 31.3718" stroke="#2C2420" stroke-width="0.545703" stroke-linecap="round" stroke-linejoin="round"/>
<path d="M49.9417 30.5894C49.9417 30.5894 51.6672 30.5796 52.0066 29.9727C52.3919 29.283 51.7087 27.6721 48.298 23.0292C44.8874 18.3864 42.6587 16.0442 39.8647 15.9209C39.8647 15.9209 42.2997 16.2909 44.9289 20.1534C47.5581 24.0159 49.9417 30.5894 49.9417 30.5894Z" fill="#2C2420"/>
<path d="M21.3687 40.4071C21.3327 40.3383 21.2966 40.2696 21.2617 40.2041" stroke="#2C2420" stroke-width="0.327422" stroke-linecap="round" stroke-linejoin="round"/>
<path d="M21.9961 41.6196C21.9601 41.5497 21.9252 41.4799 21.8892 41.4111" stroke="#2C2420" stroke-width="0.327422" stroke-linecap="round" stroke-linejoin="round"/>
<path d="M24.7956 47.2304C24.7956 47.2304 23.5994 44.7824 22.4436 42.498" stroke="#2C2420" stroke-width="0.327422" stroke-linecap="round" stroke-linejoin="round"/>
<path d="M21.7964 53.4762C21.7964 53.4762 23.3167 50.7029 24.2826 48.9971" stroke="#2C2420" stroke-width="0.327422" stroke-linecap="round" stroke-linejoin="round"/>
<path d="M26.1304 47.3536C26.1304 47.3536 27.7326 46.6551 29.4788 45.8955" stroke="#2C2420" stroke-width="0.327422" stroke-linecap="round" stroke-linejoin="round"/>
<path d="M16.0349 29.7402C16.1168 29.8865 16.167 29.9727 16.167 29.9727" stroke="#2C2420" stroke-width="0.327422" stroke-linecap="round" stroke-linejoin="round"/>
<path d="M14.9446 25.9053C14.9446 25.9053 14.4513 26.2753 15.0374 27.7749C15.1837 28.1503 15.4227 28.5694 15.5918 28.9045" stroke="#2C2420" stroke-width="0.327422" stroke-linecap="round" stroke-linejoin="round"/>
<path d="M41.3325 35.7815C43.664 35.1463 45.2653 33.5715 44.9091 32.2642C44.5529 30.9568 42.3741 30.4119 40.0426 31.0471C37.7111 31.6823 36.1098 33.2571 36.466 34.5645C36.8222 35.8718 39.001 36.4167 41.3325 35.7815Z" fill="#2C2420"/>
<path d="M33.516 36.6599C33.516 36.6599 32.931 39.2793 36.8131 40.0804C40.5654 40.8542 45.719 39.0326 46.3356 35.6733C46.9523 32.3139 43.439 31.2979 43.439 31.2979" stroke="#2C2420" stroke-width="0.545703" stroke-linecap="round" stroke-linejoin="round"/>
<path d="M35.5198 39.6807C35.5198 39.6807 34.1381 41.2796 35.3353 43.1317C36.6298 45.1344 40.513 45.3811 41.9613 43.1622C43.0734 41.4586 42.2079 39.7723 42.2079 39.7723" stroke="#2C2420" stroke-width="0.545703" stroke-linecap="round" stroke-linejoin="round"/>
<path d="M38.6632 40.4512L38.5093 41.8995" stroke="#2C2420" stroke-width="0.545703" stroke-linecap="round" stroke-linejoin="round"/>
<path d="M26.8093 34.7393L31.0822 35.3559L28.2467 38.8484" stroke="#2C2420" stroke-width="0.763984" stroke-linecap="round" stroke-linejoin="round"/>
<path d="M44.7236 28.8232L42.8333 31.6172L46.2843 32.1509" stroke="#2C2420" stroke-width="0.763984" stroke-linecap="round" stroke-linejoin="round"/>
<path d="M51.5437 17.1951L54.0507 14.2363" stroke="#2C2420" stroke-width="0.545703" stroke-linecap="round" stroke-linejoin="round"/>
<path d="M53.9678 21.0167L57.2136 19.6611" stroke="#2C2420" stroke-width="0.545703" stroke-linecap="round" stroke-linejoin="round"/>
<path d="M48.8733 14.9767L49.8599 13.333" stroke="#2C2420" stroke-width="0.545703" stroke-linecap="round" stroke-linejoin="round"/>
</svg>
