<svg width="100" height="100" viewBox="0 0 100 100" fill="none" xmlns="http://www.w3.org/2000/svg">
<g id="illustrations_noofcats_2">
<path id="Vector" d="M12.6058 40.0361L12.7178 27.9521C12.7178 27.9521 12.4358 25.0721 15.7098 23.1521C18.9858 21.2321 26.0438 18.9161 26.0438 18.9161C26.0438 18.9161 31.4078 16.9401 36.0958 18.1261C40.7838 19.3121 49.3098 23.9981 49.3098 23.9981C49.3098 23.9981 53.1498 25.8621 53.6578 30.0401L52.7538 47.9981C52.7538 47.9981 52.3018 51.6121 48.2918 53.3621C44.2818 55.1121 36.7718 57.5401 36.7718 57.5401C36.7718 57.5401 32.3098 59.5161 25.6478 56.8621L15.0878 50.9321C15.0878 50.9321 12.7718 49.3501 12.4898 45.7941C12.4898 45.7941 8.42376 45.7941 5.26176 42.0101C2.09976 38.2261 3.00376 31.3941 5.31776 29.9821C7.63176 28.5701 8.98776 29.0781 9.89176 30.7161C9.89176 30.7161 10.3998 32.3541 9.60976 35.0081C8.81976 37.6621 10.6258 40.1461 12.6018 40.0341L12.6058 40.0361Z" fill="white"/>
<path id="Vector_2" d="M12.6122 28.6602C12.7342 26.1322 13.8362 23.9242 16.7422 22.5642C19.1342 21.4442 25.6062 18.9702 28.0622 18.3442C32.5942 17.1882 36.2282 17.8022 40.3702 19.6042C42.7562 20.6422 47.7422 23.0662 49.8402 24.3822C52.7302 26.1962 53.6682 28.4702 53.5482 30.9642L52.7742 47.0062C52.6542 49.5002 51.5022 51.6742 48.4502 53.2002C46.2362 54.3082 41.0402 56.2422 38.5642 57.0442C34.2682 58.4382 30.5922 58.7002 26.1922 57.1122C23.8082 56.2522 18.3802 52.8982 16.1062 51.5542C13.3442 49.9222 12.4602 47.6162 12.5822 45.0902C12.6662 43.3462 12.5282 30.4022 12.6122 28.6582V28.6602Z" stroke="#2C2420" stroke-width="0.64" stroke-linecap="round" stroke-linejoin="round"/>
<path id="Vector_3" d="M12.3918 45.7897C8.80384 45.4417 4.48185 43.1737 3.57385 38.1437C2.89585 34.3897 3.81385 31.4097 5.20985 30.0197C6.39185 28.8437 8.31785 28.7357 9.36385 29.9337C11.2118 32.0537 8.95785 34.6137 9.85785 37.7737C10.2218 39.0517 11.0778 39.7977 12.2518 40.0277" stroke="#2C2420" stroke-width="0.64" stroke-linecap="round" stroke-linejoin="round"/>
<path id="Vector_4" d="M19.98 29.8857L20.288 30.0757" stroke="#2C2420" stroke-width="0.4" stroke-linecap="round" stroke-linejoin="round"/>
<path id="Vector_5" d="M15.0601 26.8457L18.2321 28.8057" stroke="#2C2420" stroke-width="0.4" stroke-linecap="round" stroke-linejoin="round"/>
<path id="Vector_6" d="M50.6761 34.5199C50.6761 34.5199 50.0521 32.4919 48.8121 30.5839C48.3781 29.9159 47.3821 29.9499 46.9901 30.6439C46.4321 31.6319 45.6341 33.1379 44.8521 35.8519" stroke="#2C2420" stroke-width="0.64" stroke-linecap="round" stroke-linejoin="round"/>
<path id="Vector_7" d="M38.728 37.8164C38.728 37.8164 37.984 35.7444 36.806 33.9424C36.37 33.2744 35.288 33.2144 34.896 33.9084C34.338 34.8964 33.458 36.9664 32.562 40.1004" stroke="#2C2420" stroke-width="0.64" stroke-linecap="round" stroke-linejoin="round"/>
<path id="Vector_8" d="M39.9761 50.1638C39.9761 50.1638 42.0081 52.5918 43.8721 49.2038C43.8721 49.2038 46.1881 51.4058 47.0341 48.1318" stroke="#2C2420" stroke-width="0.64" stroke-linecap="round" stroke-linejoin="round"/>
<path id="Vector_9" d="M30.4878 47.9802C30.4878 47.9802 35.1558 46.0982 38.6198 48.1302" stroke="#2C2420" stroke-width="0.64" stroke-linecap="round" stroke-linejoin="round"/>
<path id="Vector_10" d="M47.4302 45.7216C47.4302 45.7216 49.4062 42.3136 52.8522 42.5596" stroke="#2C2420" stroke-width="0.64" stroke-linecap="round" stroke-linejoin="round"/>
<path id="Vector_11" d="M88.8238 58.0041C89.3018 55.5201 88.7538 53.1141 86.2518 51.1061C84.1918 49.4521 78.4878 45.5201 76.2498 44.3321C72.1198 42.1381 68.4438 41.8761 63.9938 42.6481C61.4298 43.0921 56.0118 44.2701 53.6638 45.0541C50.4258 46.1341 48.9778 48.1221 48.5058 50.5741L45.4678 66.3441C44.9958 68.7961 45.6018 71.1801 48.2058 73.3861C50.0938 74.9861 54.6878 78.0921 56.9018 79.4581C60.7458 81.8281 64.2578 82.9501 68.9078 82.4481C71.4278 82.1761 78.1838 80.6441 80.7118 79.8761C83.7798 78.9421 85.1838 76.9121 85.6638 74.4281C85.9938 72.7141 88.4978 59.7241 88.8278 58.0081L88.8238 58.0041Z" fill="#2C2420"/>
<path id="Vector_12" d="M95.9057 60.586C94.9357 59.232 93.0517 58.806 91.8237 59.816C89.6517 61.602 91.4537 64.498 90.0437 67.466C89.4737 68.666 88.5057 69.26 87.3117 69.294L86.2217 74.952C89.8197 75.202 94.4537 73.678 96.1797 68.866C97.4677 65.276 97.0537 62.184 95.9077 60.584L95.9057 60.586Z" fill="#2C2420"/>
<path id="Vector_13" d="M50.9668 64.4598C51.1836 63.3351 50.8986 62.3345 50.3302 62.2249C49.7619 62.1154 49.1254 62.9384 48.9087 64.0631C48.6919 65.1878 48.9768 66.1884 49.5452 66.298C50.1135 66.4075 50.75 65.5845 50.9668 64.4598Z" fill="#FFC400"/>
<path id="Vector_14" d="M62.5565 71.906C62.7869 70.7107 62.4839 69.6474 61.8798 69.531C61.2757 69.4145 60.5992 70.289 60.3688 71.4843C60.1384 72.6795 60.4414 73.7428 61.0455 73.8593C61.6497 73.9757 62.3261 73.1012 62.5565 71.906Z" fill="#FFC400"/>
<path id="Vector_15" d="M81.3763 57.4561L81.0303 57.5681" stroke="white" stroke-width="0.396" stroke-linecap="round" stroke-linejoin="round"/>
<path id="Vector_16" d="M86.8741 55.6641L83.3281 56.8201" stroke="white" stroke-width="0.396" stroke-linecap="round" stroke-linejoin="round"/>
<path id="Vector_17" d="M50.4521 54.7059C50.4521 54.7059 51.5381 52.8819 53.1921 51.3219C53.7721 50.7739 54.7301 51.0439 54.9481 51.8119C55.2561 52.9039 55.6761 54.5559 55.7941 57.3779" stroke="white" stroke-width="0.658" stroke-linecap="round" stroke-linejoin="round"/>
<path id="Vector_18" d="M61.2842 60.7302C61.2842 60.7302 62.4962 58.8942 64.0662 57.4202C64.6482 56.8742 65.7142 57.0722 65.9302 57.8382C66.2382 58.9302 66.6042 61.1502 66.7342 64.4062" stroke="white" stroke-width="0.658" stroke-linecap="round" stroke-linejoin="round"/>
<path id="Vector_19" d="M54.564 68.2158L51.626 70.9258L55.298 73.5238L54.564 68.2158Z" fill="#EE807F" stroke="white" stroke-width="0.658" stroke-linecap="round" stroke-linejoin="round"/>
<path id="Vector_20" d="M60.352 37.9857C60.352 37.9857 66.228 36.9417 68.318 34.2417C69.614 32.5697 68.144 29.3657 64.052 31.8917C64.052 31.8917 64.444 28.1917 61.962 28.2357C59.22 28.2837 59.09 32.7617 60.352 37.9857Z" fill="#EE807F"/>
<path id="Vector_21" d="M41.6878 62.794L38.0738 62.626L39.8238 65.506L34.5718 67.99L40.5578 69.628L38.2998 75.162L44.0038 73.128L44.6798 76.856" stroke="#2C2420" stroke-width="0.6" stroke-linecap="round" stroke-linejoin="round"/>
</g>
</svg>
