<svg width="100" height="100" viewBox="0 0 100 100" fill="none" xmlns="http://www.w3.org/2000/svg">
<g id="illustrations_noofdogs_2">
<path id="Vector" d="M32.3442 67.4879L32.4542 74.0779C32.4542 74.0779 32.9482 77.3179 35.4742 78.7459C35.4742 78.7459 35.2002 82.0959 39.6482 83.7439C39.6482 83.7439 43.1082 84.2379 45.9642 83.6339C48.8202 83.0299 48.9842 83.9639 51.5122 84.5679C54.0382 85.1719 56.2902 85.3919 61.1242 83.9079C65.9582 82.4259 74.0302 77.2619 75.8442 74.9559C77.6562 72.6499 77.1622 65.6199 77.1622 65.6199C77.1622 65.6199 77.4362 55.6239 76.6122 54.0859C75.7882 52.5479 74.9102 50.6799 71.7242 49.4179C68.5382 48.1539 60.7402 44.6939 60.7402 44.6939C60.7402 44.6939 55.5222 43.1559 50.2502 44.5839C44.9782 46.0119 36.6842 50.3499 36.6842 50.3499C36.6842 50.3499 33.4442 51.8319 32.4002 56.3359L32.3462 67.4859L32.3442 67.4879Z" fill="white"/>
<path id="Vector_2" d="M48.8763 81.712C48.8763 81.712 46.5143 84.074 43.0003 83.908C43.0003 83.908 42.2863 87.258 45.6363 87.258C48.9863 87.258 52.2263 84.018 48.8763 81.71V81.712Z" fill="#EE807F"/>
<path id="Vector_3" d="M50.4701 84.4538C54.3421 85.3158 57.2421 85.3318 61.7261 83.7438C64.3621 82.8098 68.8561 80.4358 71.0081 78.9098C75.7321 75.5598 76.8301 74.7898 77.0441 70.2658C77.2221 66.4898 77.0441 59.7938 77.0441 57.0398C77.0441 54.2858 75.9621 51.7338 72.8761 50.0758C70.3341 48.7098 63.4301 45.6278 60.7941 44.8038C55.9281 43.2838 51.9461 43.7678 47.3501 45.5398C44.7021 46.5618 39.1541 48.9778 36.8081 50.3218C33.5721 52.1738 32.4321 54.6418 32.4321 57.4078V73.1398C32.4321 75.5538 33.5801 77.5218 35.3601 78.7918" stroke="#2C2420" stroke-width="0.73" stroke-linecap="round" stroke-linejoin="round"/>
<path id="Vector_4" d="M49.0539 81.19C49.0539 81.19 48.0419 82.98 45.0579 83.702C42.3399 84.362 38.8319 83.898 37.1079 82.22C33.8239 79.02 36.5319 76.124 36.5319 76.124C36.5319 76.124 37.6159 74.874 38.5779 74.956" stroke="#2C2420" stroke-width="0.73" stroke-linecap="round" stroke-linejoin="round"/>
<path id="Vector_5" d="M60.4922 66.4862V75.6382C60.4922 77.7562 61.6702 79.2882 64.4402 78.3162C65.6642 77.8862 70.3522 75.0562 71.3942 74.1962C73.2442 72.6702 74.2442 71.6502 74.2762 69.5822V59.1162" stroke="#2C2420" stroke-width="0.73" stroke-linecap="round" stroke-linejoin="round"/>
<path id="Vector_6" d="M45.8779 77.8074C46.0909 76.181 44.1043 74.5798 41.4407 74.231C38.7771 73.8823 36.4453 74.918 36.2323 76.5444C36.0193 78.1708 38.0059 79.772 40.6695 80.1208C43.3331 80.4695 45.665 79.4338 45.8779 77.8074Z" fill="#2C2420"/>
<path id="Vector_7" d="M43.0402 84.0735C43.0402 84.0735 42.3782 86.6016 45.0302 87.1776C47.9402 87.8096 52.7742 84.5955 48.7642 81.6855" stroke="#2C2420" stroke-width="0.73" stroke-linecap="round" stroke-linejoin="round"/>
<path id="Vector_8" d="M46.2661 83.5518L46.7061 84.4858" stroke="#2C2420" stroke-width="0.73" stroke-linecap="round" stroke-linejoin="round"/>
<path id="Vector_9" d="M37.6338 73.1146C38.3584 73.1146 38.9458 72.0016 38.9458 70.6286C38.9458 69.2556 38.3584 68.1426 37.6338 68.1426C36.9092 68.1426 36.3218 69.2556 36.3218 70.6286C36.3218 72.0016 36.9092 73.1146 37.6338 73.1146Z" fill="#2C2420"/>
<path id="Vector_10" d="M50.2079 78.2584C50.9889 78.2584 51.6219 77.0586 51.6219 75.5784C51.6219 74.0983 50.9889 72.8984 50.2079 72.8984C49.427 72.8984 48.7939 74.0983 48.7939 75.5784C48.7939 77.0586 49.427 78.2584 50.2079 78.2584Z" fill="#2C2420"/>
<path id="Vector_11" d="M33.8599 41.3095C33.8599 41.3095 27.6639 39.3675 28.5499 29.9195C28.5499 29.9195 25.1299 31.6995 24.3639 35.0955C23.5959 38.4915 25.8659 41.4395 25.8659 41.4395L23.1279 40.9495C23.1279 40.9495 23.7599 45.3015 28.4919 46.3975C33.2219 47.4915 34.9179 45.2995 34.9179 45.2995C34.9179 45.2995 35.4279 49.0195 39.6799 51.2115C43.9319 53.4035 51.1319 56.2715 51.1319 56.2715C51.1319 56.2715 54.1399 57.6895 57.8399 55.9315C61.5419 54.1735 66.6799 51.3915 66.6799 51.3915C66.6799 51.3915 70.9979 51.2095 72.9279 48.9195C74.8579 46.6315 74.2199 45.3355 74.2199 45.3355C74.2199 45.3355 76.9119 43.4435 76.0099 38.9015C75.1079 34.3595 72.6359 22.9015 72.6359 22.9015C72.6359 22.9015 70.6619 19.0715 68.0219 18.0215L66.1759 13.2375C66.1759 13.2375 65.6539 11.8955 64.2799 13.6035L62.9099 15.9915L55.0119 14.0895C55.0119 14.0895 51.3779 13.4735 46.9399 15.2335C42.5019 16.9915 34.1979 23.4415 34.1979 23.4415C34.1979 23.4415 30.5639 27.2995 31.7939 31.9815L33.8619 41.3135L33.8599 41.3095Z" fill="#D5D3D2"/>
<path id="Vector_12" d="M69.812 19.2859L68.024 17.9799L66.056 13.0739C66.056 13.0739 65.096 12.2839 64.338 13.3219C63.58 14.3599 62.958 16.0859 62.958 16.0859C62.958 16.0859 55.512 13.7099 52.088 14.0539C48.664 14.3979 43.9 16.9819 43.9 16.9819C43.9 16.9819 37.99 20.2339 34.924 22.8319C31.858 25.4319 31.042 28.7299 31.754 31.7659C32.468 34.8019 33.796 40.6799 33.796 40.6799C33.796 40.6799 33.836 41.0139 33.764 41.3939C33.104 41.1059 30.312 39.7219 29.216 36.4539C27.968 32.7339 28.336 30.1299 28.336 30.1299C28.336 30.1299 26.2 31.0439 25.042 33.2499C23.884 35.4559 24.216 38.1699 24.216 38.1699L25.554 41.4419C25.554 41.4419 28.262 44.9319 34.534 43.6239L34.49 43.4699C34.994 43.6339 35.618 43.7319 36.362 43.6679C38.718 43.4699 40.15 41.0099 39.422 38.6519C38.63 36.0859 38.78 33.1659 41.348 32.6819C43.772 32.2239 44.466 34.3899 46.514 35.7539C48.974 37.3919 53.236 38.2259 56.544 35.4199C59.128 33.2279 57.944 30.3919 61.4 28.6519C64.73 26.9759 66.932 30.7439 70.718 28.2639C73.3 26.5719 72.842 21.6659 69.814 19.2859H69.812Z" fill="#ABA7A6"/>
<path id="Vector_13" d="M69.998 43.8521C70.008 43.7121 72.434 42.3381 72.434 42.3381C72.434 42.3381 70.582 40.6121 67.472 39.8101C64.362 39.0081 61.424 40.0301 64.354 46.2001L69.998 43.8521Z" fill="#ABA7A6"/>
<path id="Vector_14" d="M61.5361 49.0144C61.5361 49.0144 62.2301 51.0064 66.1361 51.3604C69.0401 51.6224 72.2681 50.3464 73.3641 48.3824C75.3961 44.7424 72.5321 42.8024 72.5321 42.8024C72.5321 42.8024 71.3021 41.8604 70.4361 42.1164" stroke="#2C2420" stroke-width="0.73" stroke-linecap="round" stroke-linejoin="round"/>
<path id="Vector_15" d="M69.4869 47.2543C71.8642 46.4334 73.3849 44.5906 72.8834 43.1383C72.3819 41.686 70.0482 41.1741 67.6708 41.9951C65.2934 42.816 63.7727 44.6588 64.2742 46.1111C64.7757 47.5634 67.1095 48.0752 69.4869 47.2543Z" fill="#2C2420"/>
<path id="Vector_16" d="M70.6603 40.972C71.3334 40.8888 71.7511 39.7869 71.5933 38.5109C71.4355 37.2349 70.7619 36.268 70.0888 36.3512C69.4158 36.4345 68.998 37.5364 69.1558 38.8124C69.3136 40.0884 69.9872 41.0553 70.6603 40.972Z" fill="#2C2420"/>
<path id="Vector_17" d="M59.5668 47.1994C60.2925 47.1097 60.7429 45.9217 60.5728 44.5459C60.4026 43.1701 59.6764 42.1276 58.9507 42.2174C58.225 42.3071 57.7746 43.4952 57.9448 44.8709C58.1149 46.2467 58.8411 47.2892 59.5668 47.1994Z" fill="#2C2420"/>
<path id="Vector_18" d="M62.8821 16.0502C61.0301 15.4762 58.8941 14.8982 56.4761 14.3682C53.5081 13.7182 50.4081 14.0102 47.6141 15.2062C44.2181 16.6622 39.4121 19.1002 35.0901 22.6742C32.3781 24.9182 31.1001 28.4642 31.7401 31.9262C32.3741 35.3482 33.4421 40.2202 35.1521 45.8082C35.8001 47.9222 37.2361 49.7062 39.1701 50.7782C41.7161 52.1922 45.7661 54.2602 50.8461 56.2402C53.1901 57.1542 55.8081 57.0622 58.0861 55.9922C60.3621 54.9222 63.4521 53.3522 66.5641 51.4042" stroke="#2C2420" stroke-width="0.73" stroke-linecap="round" stroke-linejoin="round"/>
<path id="Vector_19" d="M74.1141 45.5801C74.1141 45.5801 74.1341 45.5601 74.1441 45.5501C75.7841 43.9341 76.5061 41.6061 76.0881 39.3421C75.4461 35.8721 74.3621 30.1881 73.1781 24.8341C72.5241 21.8781 70.6181 19.3761 67.9941 17.9541" stroke="#2C2420" stroke-width="0.73" stroke-linecap="round" stroke-linejoin="round"/>
<path id="Vector_20" d="M61.7699 26.266C61.7699 26.266 60.8499 17.344 64.7939 13C65.1779 12.576 65.8759 12.696 66.1099 13.22C66.7139 14.568 67.8519 17.366 69.3299 22.16" stroke="#2C2420" stroke-width="0.73" stroke-linecap="round" stroke-linejoin="round"/>
<path id="Vector_21" d="M64.5119 24.7174C64.5119 24.7174 63.9179 20.7434 65.2739 18.5794C65.3879 18.3974 65.6639 18.4274 65.7359 18.6314C66.0259 19.4654 66.6619 21.3054 67.2379 23.1114" stroke="#2C2420" stroke-width="0.73" stroke-linecap="round" stroke-linejoin="round"/>
<path id="Vector_22" d="M50.1918 32.852C50.1918 32.852 48.6898 23.194 52.7398 18.244C53.1338 17.762 53.8998 17.854 54.1838 18.408C54.9158 19.842 56.3118 22.822 58.1898 27.956" stroke="#2C2420" stroke-width="0.73" stroke-linecap="round" stroke-linejoin="round"/>
<path id="Vector_23" d="M53.0883 31.014C53.0883 31.014 52.2183 26.722 53.5743 24.292C53.6883 24.086 53.9903 24.104 54.0783 24.322C54.4423 25.212 55.2363 27.18 55.9643 29.114" stroke="#2C2420" stroke-width="0.73" stroke-linecap="round" stroke-linejoin="round"/>
<path id="Vector_24" d="M33.796 41.4176C33.796 41.4176 27.57 39.1336 28.494 29.9336C28.494 29.9336 20.61 34.5836 25.954 41.5196L23.084 40.7736C23.084 40.7736 23.692 45.4236 29.162 46.5016C32.9 47.2376 34.964 45.4116 34.964 45.4116" stroke="#2C2420" stroke-width="0.73" stroke-linecap="round" stroke-linejoin="round"/>
<path id="Vector_25" d="M39.4678 30.1396L40.1238 30.3996" stroke="#2C2420" stroke-width="0.6" stroke-linecap="round" stroke-linejoin="round"/>
<path id="Vector_26" d="M34.6821 28.2324L37.4201 29.3224" stroke="#2C2420" stroke-width="0.6" stroke-linecap="round" stroke-linejoin="round"/>
<path id="Vector_27" d="M19.856 41.2861C19.856 41.2861 19.364 44.7981 22.44 46.0501" stroke="#2C2420" stroke-width="0.6" stroke-linecap="round" stroke-linejoin="round"/>
<path id="Vector_28" d="M18.4058 46.4619C18.4058 46.4619 18.8258 47.8899 20.3238 48.0419" stroke="#2C2420" stroke-width="0.6" stroke-linecap="round" stroke-linejoin="round"/>
</g>
</svg>
