<svg width="61" height="61" viewBox="0 0 61 61" fill="none" xmlns="http://www.w3.org/2000/svg">
<g id="illustrations_food_wheat">
<path id="Vector" d="M33.2855 21.499L22.7147 28.7494L19.6655 35.1202L21.2231 39.457L29.2871 46.369L37.9619 50.977L41.0111 49.0114L43.5863 37.627L33.2855 21.499Z" fill="#2C2420"/>
<path id="Vector_2" d="M19.2371 32.0818C19.2371 32.0818 35.2511 54.5686 51.5831 51.1126C51.5831 51.1126 34.0655 47.3518 30.6095 18.4834" stroke="#2C2420" stroke-width="0.48" stroke-linecap="round" stroke-linejoin="round"/>
<path id="Vector_3" d="M30.4393 19.9402C30.4393 19.9402 19.8685 14.8582 27.9325 4.49023C27.9325 4.49023 38.2333 10.453 30.4393 19.9402Z" fill="#FFC19D" stroke="#2C2420" stroke-width="0.48" stroke-linecap="round" stroke-linejoin="round"/>
<path id="Vector_4" d="M31.7951 26.7851C31.7951 26.7851 26.3063 15.9431 37.9619 11.4707C37.9619 11.4707 43.9247 22.6523 31.7951 26.7851Z" fill="#FFC19D" stroke="#2C2420" stroke-width="0.48" stroke-linecap="round" stroke-linejoin="round"/>
<path id="Vector_5" d="M32.1338 27.0559C32.1338 27.0559 20.411 28.6819 21.0878 14.5195C21.0878 14.5195 33.7598 15.3331 32.1338 27.0559Z" fill="#FFC19D" stroke="#2C2420" stroke-width="0.48" stroke-linecap="round" stroke-linejoin="round"/>
<path id="Vector_6" d="M18.5808 31.3246C18.5808 31.3246 7.26365 31.2574 9.97445 17.9746C9.97445 17.9746 22.6464 19.9402 18.5808 31.3246Z" fill="#FFE799" stroke="#2C2420" stroke-width="0.48" stroke-linecap="round" stroke-linejoin="round"/>
<path id="Vector_7" d="M34.9116 35.3897C34.9116 35.3897 27.39 25.8353 40.3332 20.2109C40.3332 20.2109 46.4316 30.9173 34.9116 35.3897Z" fill="#FFC19D" stroke="#2C2420" stroke-width="0.48" stroke-linecap="round" stroke-linejoin="round"/>
<path id="Vector_8" d="M34.0202 35.1255C34.0202 35.1255 35.9966 23.2599 22.2506 25.9239C22.2506 25.9239 23.0978 39.2043 34.0202 35.1255Z" fill="#FFC19D" stroke="#2C2420" stroke-width="0.48" stroke-linecap="round" stroke-linejoin="round"/>
<path id="Vector_9" d="M22.7148 36.4743C22.7148 36.4743 13.092 28.9527 22.512 20.8203C22.512 20.8203 32.5416 28.7487 22.7148 36.4743Z" fill="#FFE799" stroke="#2C2420" stroke-width="0.48" stroke-linecap="round" stroke-linejoin="round"/>
<path id="Vector_10" d="M29.2894 42.8814C29.2894 42.8814 19.2706 37.9482 28.1338 28.041C28.1338 28.041 37.7086 35.2602 29.2894 42.8814Z" fill="#FFE799" stroke="#2C2420" stroke-width="0.48" stroke-linecap="round" stroke-linejoin="round"/>
<path id="Vector_11" d="M23.0554 36.8298C23.0554 36.8298 12.9958 43.6002 8.65784 30.6306C8.65784 30.6306 20.1538 26.9418 23.0554 36.8298Z" fill="#FFE799" stroke="#2C2420" stroke-width="0.48" stroke-linecap="round" stroke-linejoin="round"/>
<path id="Vector_12" d="M29.1866 42.8015C29.1866 42.8015 23.867 32.2055 13.1606 40.6079C13.1606 40.6079 20.615 50.9087 29.1866 42.8015Z" fill="#FFE799" stroke="#2C2420" stroke-width="0.48" stroke-linecap="round" stroke-linejoin="round"/>
<path id="Vector_13" d="M38.436 42.4377C38.436 42.4377 31.7952 33.9669 43.7892 28.0713C43.7892 28.0713 49.956 39.7269 38.436 42.4377Z" fill="#FFC19D" stroke="#2C2420" stroke-width="0.48" stroke-linecap="round" stroke-linejoin="round"/>
<path id="Vector_14" d="M35.9963 47.7234C35.9963 47.7234 25.5611 43.1826 34.9799 32.2734C34.9799 32.2734 44.7383 40.0662 35.9963 47.7234Z" fill="#FFE799" stroke="#2C2420" stroke-width="0.48" stroke-linecap="round" stroke-linejoin="round"/>
<path id="Vector_15" d="M43.2467 46.8428C43.2467 46.8428 36.7415 39.7952 48.0575 34.0352C48.0575 34.0352 53.8847 45.2168 43.2467 46.8428Z" fill="#FFC19D" stroke="#2C2420" stroke-width="0.48" stroke-linecap="round" stroke-linejoin="round"/>
<path id="Vector_16" d="M36.0467 47.7211C36.0467 47.7211 29.0843 37.7623 20.2739 47.9275C20.2739 47.9275 28.6763 56.6011 36.0467 47.7211Z" fill="#FFE799" stroke="#2C2420" stroke-width="0.48" stroke-linecap="round" stroke-linejoin="round"/>
<path id="Vector_17" d="M41.8235 50.4343C41.8235 50.4343 32.1335 46.7071 40.6715 37.3555C40.6715 37.3555 50.3615 43.9291 41.8235 50.4343Z" fill="#FFE799" stroke="#2C2420" stroke-width="0.48" stroke-linecap="round" stroke-linejoin="round"/>
<path id="Vector_18" d="M41.8236 50.4341C41.8236 50.4341 33.6924 42.9797 27.9324 54.1613C27.9324 54.1613 38.5716 61.4117 41.8236 50.4341Z" fill="#FFE799" stroke="#2C2420" stroke-width="0.48" stroke-linecap="round" stroke-linejoin="round"/>
</g>
</svg>
